<?xml version="1.0" encoding="UTF-8" standalone="no"?>
<!DOCTYPE svg PUBLIC "-//W3C//DTD SVG 1.1//EN"
 "http://www.w3.org/Graphics/SVG/1.1/DTD/svg11.dtd">
<!-- Generated by graphviz version 2.40.1 (20161225.0304)
 -->
<!-- Title: public.user_scenario_quiz_histories Pages: 1 -->
<svg width="1955pt" height="832pt"
 viewBox="0.00 0.00 1955.00 832.00" xmlns="http://www.w3.org/2000/svg" xmlns:xlink="http://www.w3.org/1999/xlink">
<g id="graph0" class="graph" transform="scale(1 1) rotate(0) translate(4 828)">
<title>public.user_scenario_quiz_histories</title>
<polygon fill="#ffffff" stroke="transparent" points="-4,4 -4,-828 1951,-828 1951,4 -4,4"/>
<!-- public.user_scenario_quiz_histories -->
<g id="node1" class="node">
<title>public.user_scenario_quiz_histories</title>
<polygon fill="#efefef" stroke="transparent" points="816.5,-742.5 816.5,-777.5 1212.5,-777.5 1212.5,-742.5 816.5,-742.5"/>
<polygon fill="none" stroke="#000000" points="816.5,-742.5 816.5,-777.5 1212.5,-777.5 1212.5,-742.5 816.5,-742.5"/>
<text text-anchor="start" x="823.3473" y="-755.3" font-family="Arial Bold" font-size="18.00" fill="#000000">public.user_scenario_quiz_histories</text>
<text text-anchor="start" x="1108.3989" y="-755.3" font-family="Arial" font-size="14.00" fill="#000000"> </text>
<text text-anchor="start" x="1112.2895" y="-755.3" font-family="Arial" font-size="14.00" fill="#666666">[BASE TABLE]</text>
<polygon fill="none" stroke="#000000" points="816.5,-712.5 816.5,-742.5 1212.5,-742.5 1212.5,-712.5 816.5,-712.5"/>
<text text-anchor="start" x="823.5" y="-723.9" font-family="Arial" font-size="14.00" fill="#000000">id </text>
<text text-anchor="start" x="838.2798" y="-723.9" font-family="Arial" font-size="14.00" fill="#666666">[uuid]</text>
<polygon fill="none" stroke="#000000" points="816.5,-682.5 816.5,-712.5 1212.5,-712.5 1212.5,-682.5 816.5,-682.5"/>
<text text-anchor="start" x="823.5" y="-693.9" font-family="Arial" font-size="14.00" fill="#000000">user_scenario_history_id </text>
<text text-anchor="start" x="982.974" y="-693.9" font-family="Arial" font-size="14.00" fill="#666666">[uuid]</text>
<polygon fill="none" stroke="#000000" points="816.5,-652.5 816.5,-682.5 1212.5,-682.5 1212.5,-652.5 816.5,-652.5"/>
<text text-anchor="start" x="823.5" y="-663.9" font-family="Arial" font-size="14.00" fill="#000000">user_id </text>
<text text-anchor="start" x="873.2882" y="-663.9" font-family="Arial" font-size="14.00" fill="#666666">[uuid]</text>
<polygon fill="none" stroke="#000000" points="816.5,-622.5 816.5,-652.5 1212.5,-652.5 1212.5,-622.5 816.5,-622.5"/>
<text text-anchor="start" x="823.5" y="-633.9" font-family="Arial" font-size="14.00" fill="#000000">scenario_id </text>
<text text-anchor="start" x="898.96" y="-633.9" font-family="Arial" font-size="14.00" fill="#666666">[uuid]</text>
<polygon fill="none" stroke="#000000" points="816.5,-592.5 816.5,-622.5 1212.5,-622.5 1212.5,-592.5 816.5,-592.5"/>
<text text-anchor="start" x="823.5" y="-603.9" font-family="Arial" font-size="14.00" fill="#000000">quiz_id </text>
<text text-anchor="start" x="871.7342" y="-603.9" font-family="Arial" font-size="14.00" fill="#666666">[uuid]</text>
<polygon fill="none" stroke="#000000" points="816.5,-562.5 816.5,-592.5 1212.5,-592.5 1212.5,-562.5 816.5,-562.5"/>
<text text-anchor="start" x="823.5" y="-573.9" font-family="Arial" font-size="14.00" fill="#000000">quiz_option_id </text>
<text text-anchor="start" x="917.6444" y="-573.9" font-family="Arial" font-size="14.00" fill="#666666">[uuid]</text>
<polygon fill="none" stroke="#000000" points="816.5,-532.5 816.5,-562.5 1212.5,-562.5 1212.5,-532.5 816.5,-532.5"/>
<text text-anchor="start" x="823.5" y="-543.9" font-family="Arial" font-size="14.00" fill="#000000">score </text>
<text text-anchor="start" x="861.6164" y="-543.9" font-family="Arial" font-size="14.00" fill="#666666">[integer]</text>
<polygon fill="none" stroke="#000000" points="816.5,-502.5 816.5,-532.5 1212.5,-532.5 1212.5,-502.5 816.5,-502.5"/>
<text text-anchor="start" x="823.5" y="-513.9" font-family="Arial" font-size="14.00" fill="#000000">created_at </text>
<text text-anchor="start" x="893.528" y="-513.9" font-family="Arial" font-size="14.00" fill="#666666">[timestamp without time zone]</text>
<polygon fill="none" stroke="#000000" points="816.5,-472.5 816.5,-502.5 1212.5,-502.5 1212.5,-472.5 816.5,-472.5"/>
<text text-anchor="start" x="823.5" y="-483.9" font-family="Arial" font-size="14.00" fill="#000000">updated_at </text>
<text text-anchor="start" x="897.4326" y="-483.9" font-family="Arial" font-size="14.00" fill="#666666">[timestamp without time zone]</text>
<polygon fill="none" stroke="#000000" stroke-width="3" points="815,-471.5 815,-779.5 1214,-779.5 1214,-471.5 815,-471.5"/>
</g>
<!-- public.user_scenario_histories -->
<g id="node2" class="node">
<title>public.user_scenario_histories</title>
<polygon fill="#efefef" stroke="transparent" points="43.5,-267.5 43.5,-302.5 396.5,-302.5 396.5,-267.5 43.5,-267.5"/>
<polygon fill="none" stroke="#000000" points="43.5,-267.5 43.5,-302.5 396.5,-302.5 396.5,-267.5 43.5,-267.5"/>
<text text-anchor="start" x="50.3537" y="-280.3" font-family="Arial Bold" font-size="18.00" fill="#000000">public.user_scenario_histories</text>
<text text-anchor="start" x="292.3925" y="-280.3" font-family="Arial" font-size="14.00" fill="#000000"> </text>
<text text-anchor="start" x="296.2831" y="-280.3" font-family="Arial" font-size="14.00" fill="#666666">[BASE TABLE]</text>
<polygon fill="none" stroke="#000000" points="43.5,-237.5 43.5,-267.5 396.5,-267.5 396.5,-237.5 43.5,-237.5"/>
<text text-anchor="start" x="50.5" y="-248.9" font-family="Arial" font-size="14.00" fill="#000000">id </text>
<text text-anchor="start" x="65.2798" y="-248.9" font-family="Arial" font-size="14.00" fill="#666666">[uuid]</text>
<polygon fill="none" stroke="#000000" points="43.5,-207.5 43.5,-237.5 396.5,-237.5 396.5,-207.5 43.5,-207.5"/>
<text text-anchor="start" x="50.5" y="-218.9" font-family="Arial" font-size="14.00" fill="#000000">user_id </text>
<text text-anchor="start" x="100.2882" y="-218.9" font-family="Arial" font-size="14.00" fill="#666666">[uuid]</text>
<polygon fill="none" stroke="#000000" points="43.5,-177.5 43.5,-207.5 396.5,-207.5 396.5,-177.5 43.5,-177.5"/>
<text text-anchor="start" x="50.5" y="-188.9" font-family="Arial" font-size="14.00" fill="#000000">scenario_id </text>
<text text-anchor="start" x="125.96" y="-188.9" font-family="Arial" font-size="14.00" fill="#666666">[uuid]</text>
<polygon fill="none" stroke="#000000" points="43.5,-147.5 43.5,-177.5 396.5,-177.5 396.5,-147.5 43.5,-147.5"/>
<text text-anchor="start" x="50.5" y="-158.9" font-family="Arial" font-size="14.00" fill="#000000">total_score </text>
<text text-anchor="start" x="122.852" y="-158.9" font-family="Arial" font-size="14.00" fill="#666666">[integer]</text>
<polygon fill="none" stroke="#000000" points="43.5,-117.5 43.5,-147.5 396.5,-147.5 396.5,-117.5 43.5,-117.5"/>
<text text-anchor="start" x="50.5" y="-128.9" font-family="Arial" font-size="14.00" fill="#000000">created_at </text>
<text text-anchor="start" x="120.528" y="-128.9" font-family="Arial" font-size="14.00" fill="#666666">[timestamp without time zone]</text>
<polygon fill="none" stroke="#000000" points="43.5,-87.5 43.5,-117.5 396.5,-117.5 396.5,-87.5 43.5,-87.5"/>
<text text-anchor="start" x="50.5" y="-98.9" font-family="Arial" font-size="14.00" fill="#000000">updated_at </text>
<text text-anchor="start" x="124.4326" y="-98.9" font-family="Arial" font-size="14.00" fill="#666666">[timestamp without time zone]</text>
</g>
<!-- public.user_scenario_quiz_histories&#45;&gt;public.user_scenario_histories -->
<g id="edge1" class="edge">
<title>public.user_scenario_quiz_histories:user_scenario_history_id&#45;&gt;public.user_scenario_histories:id</title>
<path fill="none" stroke="#000000" d="M806.3336,-697.3973C602.225,-693.2225 568.5645,-562.2977 447.5,-391 409.6408,-337.4319 462.0962,-252.5 396.5,-252.5"/>
<polygon fill="#000000" stroke="#000000" points="806.5005,-697.3988 816.4545,-701.9998 811.5003,-697.4494 816.5,-697.5 816.5,-697.5 816.5,-697.5 811.5003,-697.4494 816.5455,-693.0002 806.5005,-697.3988 806.5005,-697.3988"/>
<text text-anchor="start" x="316.8175" y="-707.5" font-family="Arial" font-size="10.00" fill="#000000">FOREIGN KEY (user_scenario_history_id) REFERENCES user_scenario_histories(id) ON DELETE CASCADE</text>
</g>
<!-- public.users -->
<g id="node3" class="node">
<title>public.users</title>
<polygon fill="#efefef" stroke="transparent" points="500.5,-282.5 500.5,-317.5 773.5,-317.5 773.5,-282.5 500.5,-282.5"/>
<polygon fill="none" stroke="#000000" points="500.5,-282.5 500.5,-317.5 773.5,-317.5 773.5,-282.5 500.5,-282.5"/>
<text text-anchor="start" x="540.3662" y="-295.3" font-family="Arial Bold" font-size="18.00" fill="#000000">public.users</text>
<text text-anchor="start" x="636.38" y="-295.3" font-family="Arial" font-size="14.00" fill="#000000"> </text>
<text text-anchor="start" x="640.2706" y="-295.3" font-family="Arial" font-size="14.00" fill="#666666">[BASE TABLE]</text>
<polygon fill="none" stroke="#000000" points="500.5,-252.5 500.5,-282.5 773.5,-282.5 773.5,-252.5 500.5,-252.5"/>
<text text-anchor="start" x="507.5" y="-263.9" font-family="Arial" font-size="14.00" fill="#000000">id </text>
<text text-anchor="start" x="522.2798" y="-263.9" font-family="Arial" font-size="14.00" fill="#666666">[uuid]</text>
<polygon fill="none" stroke="#000000" points="500.5,-222.5 500.5,-252.5 773.5,-252.5 773.5,-222.5 500.5,-222.5"/>
<text text-anchor="start" x="507.5" y="-233.9" font-family="Arial" font-size="14.00" fill="#000000">organization_id </text>
<text text-anchor="start" x="606.305" y="-233.9" font-family="Arial" font-size="14.00" fill="#666666">[uuid]</text>
<polygon fill="none" stroke="#000000" points="500.5,-192.5 500.5,-222.5 773.5,-222.5 773.5,-192.5 500.5,-192.5"/>
<text text-anchor="start" x="507.5" y="-203.9" font-family="Arial" font-size="14.00" fill="#000000">nickname </text>
<text text-anchor="start" x="571.2882" y="-203.9" font-family="Arial" font-size="14.00" fill="#666666">[varchar(20)]</text>
<polygon fill="none" stroke="#000000" points="500.5,-162.5 500.5,-192.5 773.5,-192.5 773.5,-162.5 500.5,-162.5"/>
<text text-anchor="start" x="507.5" y="-173.9" font-family="Arial" font-size="14.00" fill="#000000">email </text>
<text text-anchor="start" x="544.8296" y="-173.9" font-family="Arial" font-size="14.00" fill="#666666">[varchar(255)]</text>
<polygon fill="none" stroke="#000000" points="500.5,-132.5 500.5,-162.5 773.5,-162.5 773.5,-132.5 500.5,-132.5"/>
<text text-anchor="start" x="507.5" y="-143.9" font-family="Arial" font-size="14.00" fill="#000000">password_hash </text>
<text text-anchor="start" x="609.4186" y="-143.9" font-family="Arial" font-size="14.00" fill="#666666">[text]</text>
<polygon fill="none" stroke="#000000" points="500.5,-102.5 500.5,-132.5 773.5,-132.5 773.5,-102.5 500.5,-102.5"/>
<text text-anchor="start" x="507.5" y="-113.9" font-family="Arial" font-size="14.00" fill="#000000">created_at </text>
<text text-anchor="start" x="577.528" y="-113.9" font-family="Arial" font-size="14.00" fill="#666666">[timestamp without time zone]</text>
<polygon fill="none" stroke="#000000" points="500.5,-72.5 500.5,-102.5 773.5,-102.5 773.5,-72.5 500.5,-72.5"/>
<text text-anchor="start" x="507.4636" y="-83.9" font-family="Arial" font-size="14.00" fill="#000000">updated_at </text>
<text text-anchor="start" x="581.3962" y="-83.9" font-family="Arial" font-size="14.00" fill="#666666">[timestamp without time zone]</text>
</g>
<!-- public.user_scenario_quiz_histories&#45;&gt;public.users -->
<g id="edge2" class="edge">
<title>public.user_scenario_quiz_histories:user_id&#45;&gt;public.users:id</title>
<path fill="none" stroke="#000000" d="M806.605,-665.5365C737.8601,-635.3604 859.2342,-267.5 773.5,-267.5"/>
<polygon fill="#000000" stroke="#000000" points="806.6913,-665.5535 815.6241,-671.9139 811.5956,-666.5268 816.5,-667.5 816.5,-667.5 816.5,-667.5 811.5956,-666.5268 817.3759,-663.0861 806.6913,-665.5535 806.6913,-665.5535"/>
<text text-anchor="start" x="476.5535" y="-677.5" font-family="Arial" font-size="10.00" fill="#000000">FOREIGN KEY (user_id) REFERENCES users(id) ON DELETE CASCADE</text>
</g>
<!-- public.scenarios -->
<g id="node4" class="node">
<title>public.scenarios</title>
<polygon fill="#efefef" stroke="transparent" points="877.5,-312.5 877.5,-347.5 1150.5,-347.5 1150.5,-312.5 877.5,-312.5"/>
<polygon fill="none" stroke="#000000" points="877.5,-312.5 877.5,-347.5 1150.5,-347.5 1150.5,-312.5 877.5,-312.5"/>
<text text-anchor="start" x="900.8629" y="-325.3" font-family="Arial Bold" font-size="18.00" fill="#000000">public.scenarios</text>
<text text-anchor="start" x="1029.8833" y="-325.3" font-family="Arial" font-size="14.00" fill="#000000"> </text>
<text text-anchor="start" x="1033.7739" y="-325.3" font-family="Arial" font-size="14.00" fill="#666666">[BASE TABLE]</text>
<polygon fill="none" stroke="#000000" points="877.5,-282.5 877.5,-312.5 1150.5,-312.5 1150.5,-282.5 877.5,-282.5"/>
<text text-anchor="start" x="884.5" y="-293.9" font-family="Arial" font-size="14.00" fill="#000000">id </text>
<text text-anchor="start" x="899.2798" y="-293.9" font-family="Arial" font-size="14.00" fill="#666666">[uuid]</text>
<polygon fill="none" stroke="#000000" points="877.5,-252.5 877.5,-282.5 1150.5,-282.5 1150.5,-252.5 877.5,-252.5"/>
<text text-anchor="start" x="884.5" y="-263.9" font-family="Arial" font-size="14.00" fill="#000000">story_id </text>
<text text-anchor="start" x="937.3962" y="-263.9" font-family="Arial" font-size="14.00" fill="#666666">[uuid]</text>
<polygon fill="none" stroke="#000000" points="877.5,-222.5 877.5,-252.5 1150.5,-252.5 1150.5,-222.5 877.5,-222.5"/>
<text text-anchor="start" x="884.5" y="-233.9" font-family="Arial" font-size="14.00" fill="#000000">role_id </text>
<text text-anchor="start" x="930.3948" y="-233.9" font-family="Arial" font-size="14.00" fill="#666666">[uuid]</text>
<polygon fill="none" stroke="#000000" points="877.5,-192.5 877.5,-222.5 1150.5,-222.5 1150.5,-192.5 877.5,-192.5"/>
<text text-anchor="start" x="884.5" y="-203.9" font-family="Arial" font-size="14.00" fill="#000000">overview </text>
<text text-anchor="start" x="943.6122" y="-203.9" font-family="Arial" font-size="14.00" fill="#666666">[text]</text>
<polygon fill="none" stroke="#000000" points="877.5,-162.5 877.5,-192.5 1150.5,-192.5 1150.5,-162.5 877.5,-162.5"/>
<text text-anchor="start" x="884.5" y="-173.9" font-family="Arial" font-size="14.00" fill="#000000">description </text>
<text text-anchor="start" x="956.068" y="-173.9" font-family="Arial" font-size="14.00" fill="#666666">[text]</text>
<polygon fill="none" stroke="#000000" points="877.5,-132.5 877.5,-162.5 1150.5,-162.5 1150.5,-132.5 877.5,-132.5"/>
<text text-anchor="start" x="884.5" y="-143.9" font-family="Arial" font-size="14.00" fill="#000000">highest_score </text>
<text text-anchor="start" x="975.5266" y="-143.9" font-family="Arial" font-size="14.00" fill="#666666">[integer]</text>
<polygon fill="none" stroke="#000000" points="877.5,-102.5 877.5,-132.5 1150.5,-132.5 1150.5,-102.5 877.5,-102.5"/>
<text text-anchor="start" x="884.5" y="-113.9" font-family="Arial" font-size="14.00" fill="#000000">result_message </text>
<text text-anchor="start" x="987.1872" y="-113.9" font-family="Arial" font-size="14.00" fill="#666666">[text]</text>
<polygon fill="none" stroke="#000000" points="877.5,-72.5 877.5,-102.5 1150.5,-102.5 1150.5,-72.5 877.5,-72.5"/>
<text text-anchor="start" x="884.5" y="-83.9" font-family="Arial" font-size="14.00" fill="#000000">created_at </text>
<text text-anchor="start" x="954.528" y="-83.9" font-family="Arial" font-size="14.00" fill="#666666">[timestamp without time zone]</text>
<polygon fill="none" stroke="#000000" points="877.5,-42.5 877.5,-72.5 1150.5,-72.5 1150.5,-42.5 877.5,-42.5"/>
<text text-anchor="start" x="884.4636" y="-53.9" font-family="Arial" font-size="14.00" fill="#000000">updated_at </text>
<text text-anchor="start" x="958.3962" y="-53.9" font-family="Arial" font-size="14.00" fill="#666666">[timestamp without time zone]</text>
</g>
<!-- public.user_scenario_quiz_histories&#45;&gt;public.scenarios -->
<g id="edge3" class="edge">
<title>public.user_scenario_quiz_histories:scenario_id&#45;&gt;public.scenarios:id</title>
<path fill="none" stroke="#000000" d="M806.1013,-636.8677C725.418,-626.6016 756.433,-493.8891 816.5,-427 866.3785,-371.4565 1100.6215,-446.5435 1150.5,-391 1178.2651,-360.0814 1192.0556,-297.5 1150.5,-297.5"/>
<polygon fill="#000000" stroke="#000000" points="806.5184,-636.893 816.2268,-641.9917 811.5092,-637.1965 816.5,-637.5 816.5,-637.5 816.5,-637.5 811.5092,-637.1965 816.7732,-633.0083 806.5184,-636.893 806.5184,-636.893"/>
<text text-anchor="start" x="439.2165" y="-647.5" font-family="Arial" font-size="10.00" fill="#000000">FOREIGN KEY (scenario_id) REFERENCES scenarios(id) ON DELETE CASCADE</text>
</g>
<!-- public.quizzes -->
<g id="node5" class="node">
<title>public.quizzes</title>
<polygon fill="#efefef" stroke="transparent" points="1254.5,-267.5 1254.5,-302.5 1527.5,-302.5 1527.5,-267.5 1254.5,-267.5"/>
<polygon fill="none" stroke="#000000" points="1254.5,-267.5 1254.5,-302.5 1527.5,-302.5 1527.5,-267.5 1254.5,-267.5"/>
<text text-anchor="start" x="1285.8621" y="-280.3" font-family="Arial Bold" font-size="18.00" fill="#000000">public.quizzes</text>
<text text-anchor="start" x="1398.8841" y="-280.3" font-family="Arial" font-size="14.00" fill="#000000"> </text>
<text text-anchor="start" x="1402.7747" y="-280.3" font-family="Arial" font-size="14.00" fill="#666666">[BASE TABLE]</text>
<polygon fill="none" stroke="#000000" points="1254.5,-237.5 1254.5,-267.5 1527.5,-267.5 1527.5,-237.5 1254.5,-237.5"/>
<text text-anchor="start" x="1261.5" y="-248.9" font-family="Arial" font-size="14.00" fill="#000000">id </text>
<text text-anchor="start" x="1276.2798" y="-248.9" font-family="Arial" font-size="14.00" fill="#666666">[uuid]</text>
<polygon fill="none" stroke="#000000" points="1254.5,-207.5 1254.5,-237.5 1527.5,-237.5 1527.5,-207.5 1254.5,-207.5"/>
<text text-anchor="start" x="1261.5" y="-218.9" font-family="Arial" font-size="14.00" fill="#000000">scenario_id </text>
<text text-anchor="start" x="1336.96" y="-218.9" font-family="Arial" font-size="14.00" fill="#666666">[uuid]</text>
<polygon fill="none" stroke="#000000" points="1254.5,-177.5 1254.5,-207.5 1527.5,-207.5 1527.5,-177.5 1254.5,-177.5"/>
<text text-anchor="start" x="1261.5" y="-188.9" font-family="Arial" font-size="14.00" fill="#000000">question </text>
<text text-anchor="start" x="1318.3008" y="-188.9" font-family="Arial" font-size="14.00" fill="#666666">[text]</text>
<polygon fill="none" stroke="#000000" points="1254.5,-147.5 1254.5,-177.5 1527.5,-177.5 1527.5,-147.5 1254.5,-147.5"/>
<text text-anchor="start" x="1261.5" y="-158.9" font-family="Arial" font-size="14.00" fill="#000000">failure_message </text>
<text text-anchor="start" x="1368.0764" y="-158.9" font-family="Arial" font-size="14.00" fill="#666666">[text]</text>
<polygon fill="none" stroke="#000000" points="1254.5,-117.5 1254.5,-147.5 1527.5,-147.5 1527.5,-117.5 1254.5,-117.5"/>
<text text-anchor="start" x="1261.5" y="-128.9" font-family="Arial" font-size="14.00" fill="#000000">created_at </text>
<text text-anchor="start" x="1331.528" y="-128.9" font-family="Arial" font-size="14.00" fill="#666666">[timestamp without time zone]</text>
<polygon fill="none" stroke="#000000" points="1254.5,-87.5 1254.5,-117.5 1527.5,-117.5 1527.5,-87.5 1254.5,-87.5"/>
<text text-anchor="start" x="1261.4636" y="-98.9" font-family="Arial" font-size="14.00" fill="#000000">updated_at </text>
<text text-anchor="start" x="1335.3962" y="-98.9" font-family="Arial" font-size="14.00" fill="#666666">[timestamp without time zone]</text>
</g>
<!-- public.user_scenario_quiz_histories&#45;&gt;public.quizzes -->
<g id="edge4" class="edge">
<title>public.user_scenario_quiz_histories:quiz_id&#45;&gt;public.quizzes:id</title>
<path fill="none" stroke="#000000" d="M1222.5577,-606.9708C1359.2099,-591.7318 1099.1904,-252.5 1254.5,-252.5"/>
<polygon fill="#000000" stroke="#000000" points="1222.4862,-606.9744 1212.2635,-603.0062 1217.4931,-607.2372 1212.5,-607.5 1212.5,-607.5 1212.5,-607.5 1217.4931,-607.2372 1212.7365,-611.9938 1222.4862,-606.9744 1222.4862,-606.9744"/>
<text text-anchor="start" x="1219.384" y="-617.5" font-family="Arial" font-size="10.00" fill="#000000">FOREIGN KEY (quiz_id) REFERENCES quizzes(id) ON DELETE CASCADE</text>
</g>
<!-- public.quiz_options -->
<g id="node6" class="node">
<title>public.quiz_options</title>
<polygon fill="#efefef" stroke="transparent" points="1631.5,-297.5 1631.5,-332.5 1904.5,-332.5 1904.5,-297.5 1631.5,-297.5"/>
<polygon fill="none" stroke="#000000" points="1631.5,-297.5 1631.5,-332.5 1904.5,-332.5 1904.5,-297.5 1631.5,-297.5"/>
<text text-anchor="start" x="1642.8515" y="-310.3" font-family="Arial Bold" font-size="18.00" fill="#000000">public.quiz_options</text>
<text text-anchor="start" x="1795.8947" y="-310.3" font-family="Arial" font-size="14.00" fill="#000000"> </text>
<text text-anchor="start" x="1799.7853" y="-310.3" font-family="Arial" font-size="14.00" fill="#666666">[BASE TABLE]</text>
<polygon fill="none" stroke="#000000" points="1631.5,-267.5 1631.5,-297.5 1904.5,-297.5 1904.5,-267.5 1631.5,-267.5"/>
<text text-anchor="start" x="1638.5" y="-278.9" font-family="Arial" font-size="14.00" fill="#000000">id </text>
<text text-anchor="start" x="1653.2798" y="-278.9" font-family="Arial" font-size="14.00" fill="#666666">[uuid]</text>
<polygon fill="none" stroke="#000000" points="1631.5,-237.5 1631.5,-267.5 1904.5,-267.5 1904.5,-237.5 1631.5,-237.5"/>
<text text-anchor="start" x="1638.5" y="-248.9" font-family="Arial" font-size="14.00" fill="#000000">quiz_id </text>
<text text-anchor="start" x="1686.7342" y="-248.9" font-family="Arial" font-size="14.00" fill="#666666">[uuid]</text>
<polygon fill="none" stroke="#000000" points="1631.5,-207.5 1631.5,-237.5 1904.5,-237.5 1904.5,-207.5 1631.5,-207.5"/>
<text text-anchor="start" x="1638.5" y="-218.9" font-family="Arial" font-size="14.00" fill="#000000">answer </text>
<text text-anchor="start" x="1687.5056" y="-218.9" font-family="Arial" font-size="14.00" fill="#666666">[varchar(255)]</text>
<polygon fill="none" stroke="#000000" points="1631.5,-177.5 1631.5,-207.5 1904.5,-207.5 1904.5,-177.5 1631.5,-177.5"/>
<text text-anchor="start" x="1638.5" y="-188.9" font-family="Arial" font-size="14.00" fill="#000000">score </text>
<text text-anchor="start" x="1676.6164" y="-188.9" font-family="Arial" font-size="14.00" fill="#666666">[integer]</text>
<polygon fill="none" stroke="#000000" points="1631.5,-147.5 1631.5,-177.5 1904.5,-177.5 1904.5,-147.5 1631.5,-147.5"/>
<text text-anchor="start" x="1638.5" y="-158.9" font-family="Arial" font-size="14.00" fill="#000000">next_quiz_id </text>
<text text-anchor="start" x="1720.9726" y="-158.9" font-family="Arial" font-size="14.00" fill="#666666">[uuid]</text>
<polygon fill="none" stroke="#000000" points="1631.5,-117.5 1631.5,-147.5 1904.5,-147.5 1904.5,-117.5 1631.5,-117.5"/>
<text text-anchor="start" x="1638.5" y="-128.9" font-family="Arial" font-size="14.00" fill="#000000">next_status </text>
<text text-anchor="start" x="1713.9754" y="-128.9" font-family="Arial" font-size="14.00" fill="#666666">[integer]</text>
<polygon fill="none" stroke="#000000" points="1631.5,-87.5 1631.5,-117.5 1904.5,-117.5 1904.5,-87.5 1631.5,-87.5"/>
<text text-anchor="start" x="1638.5" y="-98.9" font-family="Arial" font-size="14.00" fill="#000000">created_at </text>
<text text-anchor="start" x="1708.528" y="-98.9" font-family="Arial" font-size="14.00" fill="#666666">[timestamp without time zone]</text>
<polygon fill="none" stroke="#000000" points="1631.5,-57.5 1631.5,-87.5 1904.5,-87.5 1904.5,-57.5 1631.5,-57.5"/>
<text text-anchor="start" x="1638.4636" y="-68.9" font-family="Arial" font-size="14.00" fill="#000000">updated_at </text>
<text text-anchor="start" x="1712.3962" y="-68.9" font-family="Arial" font-size="14.00" fill="#666666">[timestamp without time zone]</text>
</g>
<!-- public.user_scenario_quiz_histories&#45;&gt;public.quiz_options -->
<g id="edge5" class="edge">
<title>public.user_scenario_quiz_histories:quiz_option_id&#45;&gt;public.quiz_options:id</title>
<path fill="none" stroke="#000000" d="M1222.5548,-577.4424C1397.5732,-575.4097 1454.0098,-519.4417 1579.5,-391 1616.8701,-352.751 1578.0256,-282.5 1631.5,-282.5"/>
<polygon fill="#000000" stroke="#000000" points="1222.4998,-577.4426 1212.4742,-573.0001 1217.4999,-577.4713 1212.5,-577.5 1212.5,-577.5 1212.5,-577.5 1217.4999,-577.4713 1212.5258,-581.9999 1222.4998,-577.4426 1222.4998,-577.4426"/>
<text text-anchor="start" x="1219.8705" y="-587.5" font-family="Arial" font-size="10.00" fill="#000000">FOREIGN KEY (quiz_option_id) REFERENCES quiz_options(id) ON DELETE CASCADE</text>
</g>
</g>
</svg>
