<?xml version="1.0" encoding="UTF-8" standalone="no"?>
<!DOCTYPE svg PUBLIC "-//W3C//DTD SVG 1.1//EN"
 "http://www.w3.org/Graphics/SVG/1.1/DTD/svg11.dtd">
<!-- Generated by graphviz version 2.40.1 (20161225.0304)
 -->
<!-- Title: public.user_scenario_histories Pages: 1 -->
<svg width="1234pt" height="1169pt"
 viewBox="0.00 0.00 1234.00 1169.00" xmlns="http://www.w3.org/2000/svg" xmlns:xlink="http://www.w3.org/1999/xlink">
<g id="graph0" class="graph" transform="scale(1 1) rotate(0) translate(4 1165)">
<title>public.user_scenario_histories</title>
<polygon fill="#ffffff" stroke="transparent" points="-4,4 -4,-1165 1230,-1165 1230,4 -4,4"/>
<!-- public.user_scenario_histories -->
<g id="node1" class="node">
<title>public.user_scenario_histories</title>
<polygon fill="#efefef" stroke="transparent" points="489,-652.5 489,-687.5 842,-687.5 842,-652.5 489,-652.5"/>
<polygon fill="none" stroke="#000000" points="489,-652.5 489,-687.5 842,-687.5 842,-652.5 489,-652.5"/>
<text text-anchor="start" x="495.8537" y="-665.3" font-family="Arial Bold" font-size="18.00" fill="#000000">public.user_scenario_histories</text>
<text text-anchor="start" x="737.8925" y="-665.3" font-family="Arial" font-size="14.00" fill="#000000"> </text>
<text text-anchor="start" x="741.7831" y="-665.3" font-family="Arial" font-size="14.00" fill="#666666">[BASE TABLE]</text>
<polygon fill="none" stroke="#000000" points="489,-622.5 489,-652.5 842,-652.5 842,-622.5 489,-622.5"/>
<text text-anchor="start" x="496" y="-633.9" font-family="Arial" font-size="14.00" fill="#000000">id </text>
<text text-anchor="start" x="510.7798" y="-633.9" font-family="Arial" font-size="14.00" fill="#666666">[uuid]</text>
<polygon fill="none" stroke="#000000" points="489,-592.5 489,-622.5 842,-622.5 842,-592.5 489,-592.5"/>
<text text-anchor="start" x="496" y="-603.9" font-family="Arial" font-size="14.00" fill="#000000">user_id </text>
<text text-anchor="start" x="545.7882" y="-603.9" font-family="Arial" font-size="14.00" fill="#666666">[uuid]</text>
<polygon fill="none" stroke="#000000" points="489,-562.5 489,-592.5 842,-592.5 842,-562.5 489,-562.5"/>
<text text-anchor="start" x="496" y="-573.9" font-family="Arial" font-size="14.00" fill="#000000">scenario_id </text>
<text text-anchor="start" x="571.46" y="-573.9" font-family="Arial" font-size="14.00" fill="#666666">[uuid]</text>
<polygon fill="none" stroke="#000000" points="489,-532.5 489,-562.5 842,-562.5 842,-532.5 489,-532.5"/>
<text text-anchor="start" x="496" y="-543.9" font-family="Arial" font-size="14.00" fill="#000000">total_score </text>
<text text-anchor="start" x="568.352" y="-543.9" font-family="Arial" font-size="14.00" fill="#666666">[integer]</text>
<polygon fill="none" stroke="#000000" points="489,-502.5 489,-532.5 842,-532.5 842,-502.5 489,-502.5"/>
<text text-anchor="start" x="496" y="-513.9" font-family="Arial" font-size="14.00" fill="#000000">created_at </text>
<text text-anchor="start" x="566.028" y="-513.9" font-family="Arial" font-size="14.00" fill="#666666">[timestamp without time zone]</text>
<polygon fill="none" stroke="#000000" points="489,-472.5 489,-502.5 842,-502.5 842,-472.5 489,-472.5"/>
<text text-anchor="start" x="496" y="-483.9" font-family="Arial" font-size="14.00" fill="#000000">updated_at </text>
<text text-anchor="start" x="569.9326" y="-483.9" font-family="Arial" font-size="14.00" fill="#666666">[timestamp without time zone]</text>
<polygon fill="none" stroke="#000000" stroke-width="3" points="487,-471.5 487,-689.5 843,-689.5 843,-471.5 487,-471.5"/>
</g>
<!-- public.users -->
<g id="node3" class="node">
<title>public.users</title>
<polygon fill="#efefef" stroke="transparent" points="341,-282.5 341,-317.5 614,-317.5 614,-282.5 341,-282.5"/>
<polygon fill="none" stroke="#000000" points="341,-282.5 341,-317.5 614,-317.5 614,-282.5 341,-282.5"/>
<text text-anchor="start" x="380.8662" y="-295.3" font-family="Arial Bold" font-size="18.00" fill="#000000">public.users</text>
<text text-anchor="start" x="476.88" y="-295.3" font-family="Arial" font-size="14.00" fill="#000000"> </text>
<text text-anchor="start" x="480.7706" y="-295.3" font-family="Arial" font-size="14.00" fill="#666666">[BASE TABLE]</text>
<polygon fill="none" stroke="#000000" points="341,-252.5 341,-282.5 614,-282.5 614,-252.5 341,-252.5"/>
<text text-anchor="start" x="348" y="-263.9" font-family="Arial" font-size="14.00" fill="#000000">id </text>
<text text-anchor="start" x="362.7798" y="-263.9" font-family="Arial" font-size="14.00" fill="#666666">[uuid]</text>
<polygon fill="none" stroke="#000000" points="341,-222.5 341,-252.5 614,-252.5 614,-222.5 341,-222.5"/>
<text text-anchor="start" x="348" y="-233.9" font-family="Arial" font-size="14.00" fill="#000000">organization_id </text>
<text text-anchor="start" x="446.805" y="-233.9" font-family="Arial" font-size="14.00" fill="#666666">[uuid]</text>
<polygon fill="none" stroke="#000000" points="341,-192.5 341,-222.5 614,-222.5 614,-192.5 341,-192.5"/>
<text text-anchor="start" x="348" y="-203.9" font-family="Arial" font-size="14.00" fill="#000000">nickname </text>
<text text-anchor="start" x="411.7882" y="-203.9" font-family="Arial" font-size="14.00" fill="#666666">[varchar(20)]</text>
<polygon fill="none" stroke="#000000" points="341,-162.5 341,-192.5 614,-192.5 614,-162.5 341,-162.5"/>
<text text-anchor="start" x="348" y="-173.9" font-family="Arial" font-size="14.00" fill="#000000">email </text>
<text text-anchor="start" x="385.3296" y="-173.9" font-family="Arial" font-size="14.00" fill="#666666">[varchar(255)]</text>
<polygon fill="none" stroke="#000000" points="341,-132.5 341,-162.5 614,-162.5 614,-132.5 341,-132.5"/>
<text text-anchor="start" x="348" y="-143.9" font-family="Arial" font-size="14.00" fill="#000000">password_hash </text>
<text text-anchor="start" x="449.9186" y="-143.9" font-family="Arial" font-size="14.00" fill="#666666">[text]</text>
<polygon fill="none" stroke="#000000" points="341,-102.5 341,-132.5 614,-132.5 614,-102.5 341,-102.5"/>
<text text-anchor="start" x="348" y="-113.9" font-family="Arial" font-size="14.00" fill="#000000">created_at </text>
<text text-anchor="start" x="418.028" y="-113.9" font-family="Arial" font-size="14.00" fill="#666666">[timestamp without time zone]</text>
<polygon fill="none" stroke="#000000" points="341,-72.5 341,-102.5 614,-102.5 614,-72.5 341,-72.5"/>
<text text-anchor="start" x="347.9636" y="-83.9" font-family="Arial" font-size="14.00" fill="#000000">updated_at </text>
<text text-anchor="start" x="421.8962" y="-83.9" font-family="Arial" font-size="14.00" fill="#666666">[timestamp without time zone]</text>
</g>
<!-- public.user_scenario_histories&#45;&gt;public.users -->
<g id="edge2" class="edge">
<title>public.user_scenario_histories:user_id&#45;&gt;public.users:id</title>
<path fill="none" stroke="#000000" d="M478.8988,-606.8372C412.2695,-597.5428 449.4435,-492.6176 489,-427 521.4347,-373.1962 581.5653,-414.8038 614,-361 635.4543,-325.411 655.5556,-267.5 614,-267.5"/>
<polygon fill="#000000" stroke="#000000" points="479.0215,-606.8452 488.7053,-611.9903 484.0107,-607.1726 489,-607.5 489,-607.5 489,-607.5 484.0107,-607.1726 489.2947,-603.0097 479.0215,-606.8452 479.0215,-606.8452"/>
<text text-anchor="start" x="149.0535" y="-617.5" font-family="Arial" font-size="10.00" fill="#000000">FOREIGN KEY (user_id) REFERENCES users(id) ON DELETE CASCADE</text>
</g>
<!-- public.scenarios -->
<g id="node4" class="node">
<title>public.scenarios</title>
<polygon fill="#efefef" stroke="transparent" points="718,-312.5 718,-347.5 991,-347.5 991,-312.5 718,-312.5"/>
<polygon fill="none" stroke="#000000" points="718,-312.5 718,-347.5 991,-347.5 991,-312.5 718,-312.5"/>
<text text-anchor="start" x="741.3629" y="-325.3" font-family="Arial Bold" font-size="18.00" fill="#000000">public.scenarios</text>
<text text-anchor="start" x="870.3833" y="-325.3" font-family="Arial" font-size="14.00" fill="#000000"> </text>
<text text-anchor="start" x="874.2739" y="-325.3" font-family="Arial" font-size="14.00" fill="#666666">[BASE TABLE]</text>
<polygon fill="none" stroke="#000000" points="718,-282.5 718,-312.5 991,-312.5 991,-282.5 718,-282.5"/>
<text text-anchor="start" x="725" y="-293.9" font-family="Arial" font-size="14.00" fill="#000000">id </text>
<text text-anchor="start" x="739.7798" y="-293.9" font-family="Arial" font-size="14.00" fill="#666666">[uuid]</text>
<polygon fill="none" stroke="#000000" points="718,-252.5 718,-282.5 991,-282.5 991,-252.5 718,-252.5"/>
<text text-anchor="start" x="725" y="-263.9" font-family="Arial" font-size="14.00" fill="#000000">story_id </text>
<text text-anchor="start" x="777.8962" y="-263.9" font-family="Arial" font-size="14.00" fill="#666666">[uuid]</text>
<polygon fill="none" stroke="#000000" points="718,-222.5 718,-252.5 991,-252.5 991,-222.5 718,-222.5"/>
<text text-anchor="start" x="725" y="-233.9" font-family="Arial" font-size="14.00" fill="#000000">role_id </text>
<text text-anchor="start" x="770.8948" y="-233.9" font-family="Arial" font-size="14.00" fill="#666666">[uuid]</text>
<polygon fill="none" stroke="#000000" points="718,-192.5 718,-222.5 991,-222.5 991,-192.5 718,-192.5"/>
<text text-anchor="start" x="725" y="-203.9" font-family="Arial" font-size="14.00" fill="#000000">overview </text>
<text text-anchor="start" x="784.1122" y="-203.9" font-family="Arial" font-size="14.00" fill="#666666">[text]</text>
<polygon fill="none" stroke="#000000" points="718,-162.5 718,-192.5 991,-192.5 991,-162.5 718,-162.5"/>
<text text-anchor="start" x="725" y="-173.9" font-family="Arial" font-size="14.00" fill="#000000">description </text>
<text text-anchor="start" x="796.568" y="-173.9" font-family="Arial" font-size="14.00" fill="#666666">[text]</text>
<polygon fill="none" stroke="#000000" points="718,-132.5 718,-162.5 991,-162.5 991,-132.5 718,-132.5"/>
<text text-anchor="start" x="725" y="-143.9" font-family="Arial" font-size="14.00" fill="#000000">highest_score </text>
<text text-anchor="start" x="816.0266" y="-143.9" font-family="Arial" font-size="14.00" fill="#666666">[integer]</text>
<polygon fill="none" stroke="#000000" points="718,-102.5 718,-132.5 991,-132.5 991,-102.5 718,-102.5"/>
<text text-anchor="start" x="725" y="-113.9" font-family="Arial" font-size="14.00" fill="#000000">result_message </text>
<text text-anchor="start" x="827.6872" y="-113.9" font-family="Arial" font-size="14.00" fill="#666666">[text]</text>
<polygon fill="none" stroke="#000000" points="718,-72.5 718,-102.5 991,-102.5 991,-72.5 718,-72.5"/>
<text text-anchor="start" x="725" y="-83.9" font-family="Arial" font-size="14.00" fill="#000000">created_at </text>
<text text-anchor="start" x="795.028" y="-83.9" font-family="Arial" font-size="14.00" fill="#666666">[timestamp without time zone]</text>
<polygon fill="none" stroke="#000000" points="718,-42.5 718,-72.5 991,-72.5 991,-42.5 718,-42.5"/>
<text text-anchor="start" x="724.9636" y="-53.9" font-family="Arial" font-size="14.00" fill="#000000">updated_at </text>
<text text-anchor="start" x="798.8962" y="-53.9" font-family="Arial" font-size="14.00" fill="#666666">[timestamp without time zone]</text>
</g>
<!-- public.user_scenario_histories&#45;&gt;public.scenarios -->
<g id="edge3" class="edge">
<title>public.user_scenario_histories:scenario_id&#45;&gt;public.scenarios:id</title>
<path fill="none" stroke="#000000" d="M852.1472,-576.6526C905.9259,-567.0193 879.9699,-477.5612 842,-427 807.5395,-381.112 752.4605,-436.888 718,-391 693.0461,-357.771 676.4444,-297.5 718,-297.5"/>
<polygon fill="#000000" stroke="#000000" points="851.9653,-576.6677 841.6254,-573.0156 846.9827,-577.0838 842,-577.5 842,-577.5 842,-577.5 846.9827,-577.0838 842.3746,-581.9844 851.9653,-576.6677 851.9653,-576.6677"/>
<text text-anchor="start" x="848.7165" y="-587.5" font-family="Arial" font-size="10.00" fill="#000000">FOREIGN KEY (scenario_id) REFERENCES scenarios(id) ON DELETE CASCADE</text>
</g>
<!-- public.user_quiz_histories -->
<g id="node2" class="node">
<title>public.user_quiz_histories</title>
<polygon fill="#efefef" stroke="transparent" points="507,-1082.5 507,-1117.5 825,-1117.5 825,-1082.5 507,-1082.5"/>
<polygon fill="none" stroke="#000000" points="507,-1082.5 507,-1117.5 825,-1117.5 825,-1082.5 507,-1082.5"/>
<text text-anchor="start" x="513.856" y="-1095.3" font-family="Arial Bold" font-size="18.00" fill="#000000">public.user_quiz_histories</text>
<text text-anchor="start" x="720.8902" y="-1095.3" font-family="Arial" font-size="14.00" fill="#000000"> </text>
<text text-anchor="start" x="724.7808" y="-1095.3" font-family="Arial" font-size="14.00" fill="#666666">[BASE TABLE]</text>
<polygon fill="none" stroke="#000000" points="507,-1052.5 507,-1082.5 825,-1082.5 825,-1052.5 507,-1052.5"/>
<text text-anchor="start" x="514" y="-1063.9" font-family="Arial" font-size="14.00" fill="#000000">id </text>
<text text-anchor="start" x="528.7798" y="-1063.9" font-family="Arial" font-size="14.00" fill="#666666">[uuid]</text>
<polygon fill="none" stroke="#000000" points="507,-1022.5 507,-1052.5 825,-1052.5 825,-1022.5 507,-1022.5"/>
<text text-anchor="start" x="514" y="-1033.9" font-family="Arial" font-size="14.00" fill="#000000">user_scenario_history_id </text>
<text text-anchor="start" x="673.474" y="-1033.9" font-family="Arial" font-size="14.00" fill="#666666">[uuid]</text>
<polygon fill="none" stroke="#000000" points="507,-992.5 507,-1022.5 825,-1022.5 825,-992.5 507,-992.5"/>
<text text-anchor="start" x="514" y="-1003.9" font-family="Arial" font-size="14.00" fill="#000000">user_id </text>
<text text-anchor="start" x="563.7882" y="-1003.9" font-family="Arial" font-size="14.00" fill="#666666">[uuid]</text>
<polygon fill="none" stroke="#000000" points="507,-962.5 507,-992.5 825,-992.5 825,-962.5 507,-962.5"/>
<text text-anchor="start" x="514" y="-973.9" font-family="Arial" font-size="14.00" fill="#000000">scenario_id </text>
<text text-anchor="start" x="589.46" y="-973.9" font-family="Arial" font-size="14.00" fill="#666666">[uuid]</text>
<polygon fill="none" stroke="#000000" points="507,-932.5 507,-962.5 825,-962.5 825,-932.5 507,-932.5"/>
<text text-anchor="start" x="514" y="-943.9" font-family="Arial" font-size="14.00" fill="#000000">scenario_quiz_id </text>
<text text-anchor="start" x="622.9144" y="-943.9" font-family="Arial" font-size="14.00" fill="#666666">[uuid]</text>
<polygon fill="none" stroke="#000000" points="507,-902.5 507,-932.5 825,-932.5 825,-902.5 507,-902.5"/>
<text text-anchor="start" x="514" y="-913.9" font-family="Arial" font-size="14.00" fill="#000000">scenario_quiz_option_id </text>
<text text-anchor="start" x="668.8246" y="-913.9" font-family="Arial" font-size="14.00" fill="#666666">[uuid]</text>
<polygon fill="none" stroke="#000000" points="507,-872.5 507,-902.5 825,-902.5 825,-872.5 507,-872.5"/>
<text text-anchor="start" x="514" y="-883.9" font-family="Arial" font-size="14.00" fill="#000000">score </text>
<text text-anchor="start" x="552.1164" y="-883.9" font-family="Arial" font-size="14.00" fill="#666666">[integer]</text>
<polygon fill="none" stroke="#000000" points="507,-842.5 507,-872.5 825,-872.5 825,-842.5 507,-842.5"/>
<text text-anchor="start" x="514" y="-853.9" font-family="Arial" font-size="14.00" fill="#000000">created_at </text>
<text text-anchor="start" x="584.028" y="-853.9" font-family="Arial" font-size="14.00" fill="#666666">[timestamp without time zone]</text>
<polygon fill="none" stroke="#000000" points="507,-812.5 507,-842.5 825,-842.5 825,-812.5 507,-812.5"/>
<text text-anchor="start" x="514" y="-823.9" font-family="Arial" font-size="14.00" fill="#000000">updated_at </text>
<text text-anchor="start" x="587.9326" y="-823.9" font-family="Arial" font-size="14.00" fill="#666666">[timestamp without time zone]</text>
</g>
<!-- public.user_quiz_histories&#45;&gt;public.user_scenario_histories -->
<g id="edge1" class="edge">
<title>public.user_quiz_histories:user_scenario_history_id&#45;&gt;public.user_scenario_histories:id</title>
<path fill="none" stroke="#000000" d="M496.9555,-1037.0457C390.4564,-1027.0862 429.8785,-855.8532 507,-770 557.0349,-714.3001 791.9651,-789.6999 842,-734 870.6611,-702.0939 884.8889,-637.5 842,-637.5"/>
<polygon fill="#000000" stroke="#000000" points="497.0102,-1037.0481 506.7966,-1041.9954 502.0051,-1037.2741 507,-1037.5 507,-1037.5 507,-1037.5 502.0051,-1037.2741 507.2034,-1033.0046 497.0102,-1037.0481 497.0102,-1037.0481"/>
<text text-anchor="start" x="7.3175" y="-1047.5" font-family="Arial" font-size="10.00" fill="#000000">FOREIGN KEY (user_scenario_history_id) REFERENCES user_scenario_histories(id) ON DELETE CASCADE</text>
</g>
</g>
</svg>
