<?xml version="1.0" encoding="UTF-8" standalone="no"?>
<!DOCTYPE svg PUBLIC "-//W3C//DTD SVG 1.1//EN"
 "http://www.w3.org/Graphics/SVG/1.1/DTD/svg11.dtd">
<!-- Generated by graphviz version 2.40.1 (20161225.0304)
 -->
<!-- Title: public.scenarios Pages: 1 -->
<svg width="1392pt" height="1139pt"
 viewBox="0.00 0.00 1392.00 1139.00" xmlns="http://www.w3.org/2000/svg" xmlns:xlink="http://www.w3.org/1999/xlink">
<g id="graph0" class="graph" transform="scale(1 1) rotate(0) translate(4 1135)">
<title>public.scenarios</title>
<polygon fill="#ffffff" stroke="transparent" points="-4,4 -4,-1135 1388,-1135 1388,4 -4,4"/>
<!-- public.scenarios -->
<g id="node1" class="node">
<title>public.scenarios</title>
<polygon fill="#efefef" stroke="transparent" points="528,-622.5 528,-657.5 801,-657.5 801,-622.5 528,-622.5"/>
<polygon fill="none" stroke="#000000" points="528,-622.5 528,-657.5 801,-657.5 801,-622.5 528,-622.5"/>
<text text-anchor="start" x="551.3629" y="-635.3" font-family="Arial Bold" font-size="18.00" fill="#000000">public.scenarios</text>
<text text-anchor="start" x="680.3833" y="-635.3" font-family="Arial" font-size="14.00" fill="#000000"> </text>
<text text-anchor="start" x="684.2739" y="-635.3" font-family="Arial" font-size="14.00" fill="#666666">[BASE TABLE]</text>
<polygon fill="none" stroke="#000000" points="528,-592.5 528,-622.5 801,-622.5 801,-592.5 528,-592.5"/>
<text text-anchor="start" x="535" y="-603.9" font-family="Arial" font-size="14.00" fill="#000000">id </text>
<text text-anchor="start" x="549.7798" y="-603.9" font-family="Arial" font-size="14.00" fill="#666666">[uuid]</text>
<polygon fill="none" stroke="#000000" points="528,-562.5 528,-592.5 801,-592.5 801,-562.5 528,-562.5"/>
<text text-anchor="start" x="535" y="-573.9" font-family="Arial" font-size="14.00" fill="#000000">story_id </text>
<text text-anchor="start" x="587.8962" y="-573.9" font-family="Arial" font-size="14.00" fill="#666666">[uuid]</text>
<polygon fill="none" stroke="#000000" points="528,-532.5 528,-562.5 801,-562.5 801,-532.5 528,-532.5"/>
<text text-anchor="start" x="535" y="-543.9" font-family="Arial" font-size="14.00" fill="#000000">role_id </text>
<text text-anchor="start" x="580.8948" y="-543.9" font-family="Arial" font-size="14.00" fill="#666666">[uuid]</text>
<polygon fill="none" stroke="#000000" points="528,-502.5 528,-532.5 801,-532.5 801,-502.5 528,-502.5"/>
<text text-anchor="start" x="535" y="-513.9" font-family="Arial" font-size="14.00" fill="#000000">overview </text>
<text text-anchor="start" x="594.1122" y="-513.9" font-family="Arial" font-size="14.00" fill="#666666">[text]</text>
<polygon fill="none" stroke="#000000" points="528,-472.5 528,-502.5 801,-502.5 801,-472.5 528,-472.5"/>
<text text-anchor="start" x="535" y="-483.9" font-family="Arial" font-size="14.00" fill="#000000">description </text>
<text text-anchor="start" x="606.568" y="-483.9" font-family="Arial" font-size="14.00" fill="#666666">[text]</text>
<polygon fill="none" stroke="#000000" points="528,-442.5 528,-472.5 801,-472.5 801,-442.5 528,-442.5"/>
<text text-anchor="start" x="535" y="-453.9" font-family="Arial" font-size="14.00" fill="#000000">highest_score </text>
<text text-anchor="start" x="626.0266" y="-453.9" font-family="Arial" font-size="14.00" fill="#666666">[integer]</text>
<polygon fill="none" stroke="#000000" points="528,-412.5 528,-442.5 801,-442.5 801,-412.5 528,-412.5"/>
<text text-anchor="start" x="535" y="-423.9" font-family="Arial" font-size="14.00" fill="#000000">result_message </text>
<text text-anchor="start" x="637.6872" y="-423.9" font-family="Arial" font-size="14.00" fill="#666666">[text]</text>
<polygon fill="none" stroke="#000000" points="528,-382.5 528,-412.5 801,-412.5 801,-382.5 528,-382.5"/>
<text text-anchor="start" x="535" y="-393.9" font-family="Arial" font-size="14.00" fill="#000000">created_at </text>
<text text-anchor="start" x="605.028" y="-393.9" font-family="Arial" font-size="14.00" fill="#666666">[timestamp without time zone]</text>
<polygon fill="none" stroke="#000000" points="528,-352.5 528,-382.5 801,-382.5 801,-352.5 528,-352.5"/>
<text text-anchor="start" x="534.9636" y="-363.9" font-family="Arial" font-size="14.00" fill="#000000">updated_at </text>
<text text-anchor="start" x="608.8962" y="-363.9" font-family="Arial" font-size="14.00" fill="#666666">[timestamp without time zone]</text>
<polygon fill="none" stroke="#000000" stroke-width="3" points="526,-351.5 526,-659.5 802,-659.5 802,-351.5 526,-351.5"/>
</g>
<!-- public.stories -->
<g id="node5" class="node">
<title>public.stories</title>
<polygon fill="#efefef" stroke="transparent" points="340,-192.5 340,-227.5 613,-227.5 613,-192.5 340,-192.5"/>
<polygon fill="none" stroke="#000000" points="340,-192.5 340,-227.5 613,-227.5 613,-192.5 340,-192.5"/>
<text text-anchor="start" x="375.368" y="-205.3" font-family="Arial Bold" font-size="18.00" fill="#000000">public.stories</text>
<text text-anchor="start" x="480.3782" y="-205.3" font-family="Arial" font-size="14.00" fill="#000000"> </text>
<text text-anchor="start" x="484.2688" y="-205.3" font-family="Arial" font-size="14.00" fill="#666666">[BASE TABLE]</text>
<polygon fill="none" stroke="#000000" points="340,-162.5 340,-192.5 613,-192.5 613,-162.5 340,-162.5"/>
<text text-anchor="start" x="347" y="-173.9" font-family="Arial" font-size="14.00" fill="#000000">id </text>
<text text-anchor="start" x="361.7798" y="-173.9" font-family="Arial" font-size="14.00" fill="#666666">[uuid]</text>
<polygon fill="none" stroke="#000000" points="340,-132.5 340,-162.5 613,-162.5 613,-132.5 340,-132.5"/>
<text text-anchor="start" x="347" y="-143.9" font-family="Arial" font-size="14.00" fill="#000000">organization_id </text>
<text text-anchor="start" x="445.805" y="-143.9" font-family="Arial" font-size="14.00" fill="#666666">[uuid]</text>
<polygon fill="none" stroke="#000000" points="340,-102.5 340,-132.5 613,-132.5 613,-102.5 340,-102.5"/>
<text text-anchor="start" x="347" y="-113.9" font-family="Arial" font-size="14.00" fill="#000000">title </text>
<text text-anchor="start" x="372.6676" y="-113.9" font-family="Arial" font-size="14.00" fill="#666666">[varchar(255)]</text>
<polygon fill="none" stroke="#000000" points="340,-72.5 340,-102.5 613,-102.5 613,-72.5 340,-72.5"/>
<text text-anchor="start" x="347" y="-83.9" font-family="Arial" font-size="14.00" fill="#000000">created_at </text>
<text text-anchor="start" x="417.028" y="-83.9" font-family="Arial" font-size="14.00" fill="#666666">[timestamp without time zone]</text>
<polygon fill="none" stroke="#000000" points="340,-42.5 340,-72.5 613,-72.5 613,-42.5 340,-42.5"/>
<text text-anchor="start" x="346.9636" y="-53.9" font-family="Arial" font-size="14.00" fill="#000000">updated_at </text>
<text text-anchor="start" x="420.8962" y="-53.9" font-family="Arial" font-size="14.00" fill="#666666">[timestamp without time zone]</text>
</g>
<!-- public.scenarios&#45;&gt;public.stories -->
<g id="edge4" class="edge">
<title>public.scenarios:story_id&#45;&gt;public.stories:id</title>
<path fill="none" stroke="#000000" d="M517.8777,-577.0676C410.9425,-567.5831 463.5499,-404.2887 528,-307 550.6577,-272.7978 590.3423,-305.2022 613,-271 635.9499,-236.3566 654.5556,-177.5 613,-177.5"/>
<polygon fill="#000000" stroke="#000000" points="518.0091,-577.0731 527.8079,-581.9959 523.0046,-577.2866 528,-577.5 528,-577.5 528,-577.5 523.0046,-577.2866 528.1921,-573.0041 518.0091,-577.0731 518.0091,-577.0731"/>
<text text-anchor="start" x="180.4445" y="-587.5" font-family="Arial" font-size="10.00" fill="#000000">FOREIGN KEY (story_id) REFERENCES stories(id) ON DELETE CASCADE</text>
</g>
<!-- public.roles -->
<g id="node6" class="node">
<title>public.roles</title>
<polygon fill="#efefef" stroke="transparent" points="717,-192.5 717,-227.5 990,-227.5 990,-192.5 717,-192.5"/>
<polygon fill="none" stroke="#000000" points="717,-192.5 717,-227.5 990,-227.5 990,-192.5 717,-192.5"/>
<text text-anchor="start" x="759.3691" y="-205.3" font-family="Arial Bold" font-size="18.00" fill="#000000">public.roles</text>
<text text-anchor="start" x="850.3771" y="-205.3" font-family="Arial" font-size="14.00" fill="#000000"> </text>
<text text-anchor="start" x="854.2677" y="-205.3" font-family="Arial" font-size="14.00" fill="#666666">[BASE TABLE]</text>
<polygon fill="none" stroke="#000000" points="717,-162.5 717,-192.5 990,-192.5 990,-162.5 717,-162.5"/>
<text text-anchor="start" x="724" y="-173.9" font-family="Arial" font-size="14.00" fill="#000000">id </text>
<text text-anchor="start" x="738.7798" y="-173.9" font-family="Arial" font-size="14.00" fill="#666666">[uuid]</text>
<polygon fill="none" stroke="#000000" points="717,-132.5 717,-162.5 990,-162.5 990,-132.5 717,-132.5"/>
<text text-anchor="start" x="724" y="-143.9" font-family="Arial" font-size="14.00" fill="#000000">organization_id </text>
<text text-anchor="start" x="822.805" y="-143.9" font-family="Arial" font-size="14.00" fill="#666666">[uuid]</text>
<polygon fill="none" stroke="#000000" points="717,-102.5 717,-132.5 990,-132.5 990,-102.5 717,-102.5"/>
<text text-anchor="start" x="724" y="-113.9" font-family="Arial" font-size="14.00" fill="#000000">name </text>
<text text-anchor="start" x="762.899" y="-113.9" font-family="Arial" font-size="14.00" fill="#666666">[varchar(128)]</text>
<polygon fill="none" stroke="#000000" points="717,-72.5 717,-102.5 990,-102.5 990,-72.5 717,-72.5"/>
<text text-anchor="start" x="724" y="-83.9" font-family="Arial" font-size="14.00" fill="#000000">created_at </text>
<text text-anchor="start" x="794.028" y="-83.9" font-family="Arial" font-size="14.00" fill="#666666">[timestamp without time zone]</text>
<polygon fill="none" stroke="#000000" points="717,-42.5 717,-72.5 990,-72.5 990,-42.5 717,-42.5"/>
<text text-anchor="start" x="723.9636" y="-53.9" font-family="Arial" font-size="14.00" fill="#000000">updated_at </text>
<text text-anchor="start" x="797.8962" y="-53.9" font-family="Arial" font-size="14.00" fill="#666666">[timestamp without time zone]</text>
</g>
<!-- public.scenarios&#45;&gt;public.roles -->
<g id="edge5" class="edge">
<title>public.scenarios:role_id&#45;&gt;public.roles:id</title>
<path fill="none" stroke="#000000" d="M811.14,-547.0075C904.6863,-537.5235 857.8877,-393.2723 801,-307 778.6405,-273.0909 739.3595,-304.9091 717,-271 694.124,-236.3077 675.4444,-177.5 717,-177.5"/>
<polygon fill="#000000" stroke="#000000" points="810.9882,-547.0148 800.7817,-543.0053 805.9941,-547.2574 801,-547.5 801,-547.5 801,-547.5 805.9941,-547.2574 801.2183,-551.9947 810.9882,-547.0148 810.9882,-547.0148"/>
<text text-anchor="start" x="807.8345" y="-557.5" font-family="Arial" font-size="10.00" fill="#000000">FOREIGN KEY (role_id) REFERENCES roles(id) ON DELETE CASCADE</text>
</g>
<!-- public.quizzes -->
<g id="node2" class="node">
<title>public.quizzes</title>
<polygon fill="#efefef" stroke="transparent" points="111,-1007.5 111,-1042.5 384,-1042.5 384,-1007.5 111,-1007.5"/>
<polygon fill="none" stroke="#000000" points="111,-1007.5 111,-1042.5 384,-1042.5 384,-1007.5 111,-1007.5"/>
<text text-anchor="start" x="142.3621" y="-1020.3" font-family="Arial Bold" font-size="18.00" fill="#000000">public.quizzes</text>
<text text-anchor="start" x="255.3841" y="-1020.3" font-family="Arial" font-size="14.00" fill="#000000"> </text>
<text text-anchor="start" x="259.2747" y="-1020.3" font-family="Arial" font-size="14.00" fill="#666666">[BASE TABLE]</text>
<polygon fill="none" stroke="#000000" points="111,-977.5 111,-1007.5 384,-1007.5 384,-977.5 111,-977.5"/>
<text text-anchor="start" x="118" y="-988.9" font-family="Arial" font-size="14.00" fill="#000000">id </text>
<text text-anchor="start" x="132.7798" y="-988.9" font-family="Arial" font-size="14.00" fill="#666666">[uuid]</text>
<polygon fill="none" stroke="#000000" points="111,-947.5 111,-977.5 384,-977.5 384,-947.5 111,-947.5"/>
<text text-anchor="start" x="118" y="-958.9" font-family="Arial" font-size="14.00" fill="#000000">scenario_id </text>
<text text-anchor="start" x="193.46" y="-958.9" font-family="Arial" font-size="14.00" fill="#666666">[uuid]</text>
<polygon fill="none" stroke="#000000" points="111,-917.5 111,-947.5 384,-947.5 384,-917.5 111,-917.5"/>
<text text-anchor="start" x="118" y="-928.9" font-family="Arial" font-size="14.00" fill="#000000">question </text>
<text text-anchor="start" x="174.8008" y="-928.9" font-family="Arial" font-size="14.00" fill="#666666">[text]</text>
<polygon fill="none" stroke="#000000" points="111,-887.5 111,-917.5 384,-917.5 384,-887.5 111,-887.5"/>
<text text-anchor="start" x="118" y="-898.9" font-family="Arial" font-size="14.00" fill="#000000">failure_message </text>
<text text-anchor="start" x="224.5764" y="-898.9" font-family="Arial" font-size="14.00" fill="#666666">[text]</text>
<polygon fill="none" stroke="#000000" points="111,-857.5 111,-887.5 384,-887.5 384,-857.5 111,-857.5"/>
<text text-anchor="start" x="118" y="-868.9" font-family="Arial" font-size="14.00" fill="#000000">created_at </text>
<text text-anchor="start" x="188.028" y="-868.9" font-family="Arial" font-size="14.00" fill="#666666">[timestamp without time zone]</text>
<polygon fill="none" stroke="#000000" points="111,-827.5 111,-857.5 384,-857.5 384,-827.5 111,-827.5"/>
<text text-anchor="start" x="117.9636" y="-838.9" font-family="Arial" font-size="14.00" fill="#000000">updated_at </text>
<text text-anchor="start" x="191.8962" y="-838.9" font-family="Arial" font-size="14.00" fill="#666666">[timestamp without time zone]</text>
</g>
<!-- public.quizzes&#45;&gt;public.scenarios -->
<g id="edge1" class="edge">
<title>public.quizzes:scenario_id&#45;&gt;public.scenarios:id</title>
<path fill="none" stroke="#000000" d="M393.9981,-962.0259C479.1702,-953.4187 395.2058,-829.4328 435,-740 464.2488,-674.2668 456.0532,-607.5 528,-607.5"/>
<polygon fill="#000000" stroke="#000000" points="393.9888,-962.0263 383.7868,-958.005 388.9944,-962.2631 384,-962.5 384,-962.5 384,-962.5 388.9944,-962.2631 384.2132,-966.995 393.9888,-962.0263 393.9888,-962.0263"/>
<text text-anchor="start" x="6.7165" y="-972.5" font-family="Arial" font-size="10.00" fill="#000000">FOREIGN KEY (scenario_id) REFERENCES scenarios(id) ON DELETE CASCADE</text>
</g>
<!-- public.user_scenario_histories -->
<g id="node3" class="node">
<title>public.user_scenario_histories</title>
<polygon fill="#efefef" stroke="transparent" points="488,-1007.5 488,-1042.5 841,-1042.5 841,-1007.5 488,-1007.5"/>
<polygon fill="none" stroke="#000000" points="488,-1007.5 488,-1042.5 841,-1042.5 841,-1007.5 488,-1007.5"/>
<text text-anchor="start" x="494.8537" y="-1020.3" font-family="Arial Bold" font-size="18.00" fill="#000000">public.user_scenario_histories</text>
<text text-anchor="start" x="736.8925" y="-1020.3" font-family="Arial" font-size="14.00" fill="#000000"> </text>
<text text-anchor="start" x="740.7831" y="-1020.3" font-family="Arial" font-size="14.00" fill="#666666">[BASE TABLE]</text>
<polygon fill="none" stroke="#000000" points="488,-977.5 488,-1007.5 841,-1007.5 841,-977.5 488,-977.5"/>
<text text-anchor="start" x="495" y="-988.9" font-family="Arial" font-size="14.00" fill="#000000">id </text>
<text text-anchor="start" x="509.7798" y="-988.9" font-family="Arial" font-size="14.00" fill="#666666">[uuid]</text>
<polygon fill="none" stroke="#000000" points="488,-947.5 488,-977.5 841,-977.5 841,-947.5 488,-947.5"/>
<text text-anchor="start" x="495" y="-958.9" font-family="Arial" font-size="14.00" fill="#000000">user_id </text>
<text text-anchor="start" x="544.7882" y="-958.9" font-family="Arial" font-size="14.00" fill="#666666">[uuid]</text>
<polygon fill="none" stroke="#000000" points="488,-917.5 488,-947.5 841,-947.5 841,-917.5 488,-917.5"/>
<text text-anchor="start" x="495" y="-928.9" font-family="Arial" font-size="14.00" fill="#000000">scenario_id </text>
<text text-anchor="start" x="570.46" y="-928.9" font-family="Arial" font-size="14.00" fill="#666666">[uuid]</text>
<polygon fill="none" stroke="#000000" points="488,-887.5 488,-917.5 841,-917.5 841,-887.5 488,-887.5"/>
<text text-anchor="start" x="495" y="-898.9" font-family="Arial" font-size="14.00" fill="#000000">total_score </text>
<text text-anchor="start" x="567.352" y="-898.9" font-family="Arial" font-size="14.00" fill="#666666">[integer]</text>
<polygon fill="none" stroke="#000000" points="488,-857.5 488,-887.5 841,-887.5 841,-857.5 488,-857.5"/>
<text text-anchor="start" x="495" y="-868.9" font-family="Arial" font-size="14.00" fill="#000000">created_at </text>
<text text-anchor="start" x="565.028" y="-868.9" font-family="Arial" font-size="14.00" fill="#666666">[timestamp without time zone]</text>
<polygon fill="none" stroke="#000000" points="488,-827.5 488,-857.5 841,-857.5 841,-827.5 488,-827.5"/>
<text text-anchor="start" x="495" y="-838.9" font-family="Arial" font-size="14.00" fill="#000000">updated_at </text>
<text text-anchor="start" x="568.9326" y="-838.9" font-family="Arial" font-size="14.00" fill="#666666">[timestamp without time zone]</text>
</g>
<!-- public.user_scenario_histories&#45;&gt;public.scenarios -->
<g id="edge2" class="edge">
<title>public.user_scenario_histories:scenario_id&#45;&gt;public.scenarios:id</title>
<path fill="none" stroke="#000000" d="M478.138,-930.2511C419.2172,-901.5366 458.7859,-607.5 528,-607.5"/>
<polygon fill="#000000" stroke="#000000" points="478.2503,-930.2766 486.9995,-936.8874 483.1251,-931.3883 488,-932.5 488,-932.5 488,-932.5 483.1251,-931.3883 489.0005,-928.1126 478.2503,-930.2766 478.2503,-930.2766"/>
<text text-anchor="start" x="494.7165" y="-942.5" font-family="Arial" font-size="10.00" fill="#000000">FOREIGN KEY (scenario_id) REFERENCES scenarios(id) ON DELETE CASCADE</text>
</g>
<!-- public.user_scenario_quiz_histories -->
<g id="node4" class="node">
<title>public.user_scenario_quiz_histories</title>
<polygon fill="#efefef" stroke="transparent" points="945,-1052.5 945,-1087.5 1341,-1087.5 1341,-1052.5 945,-1052.5"/>
<polygon fill="none" stroke="#000000" points="945,-1052.5 945,-1087.5 1341,-1087.5 1341,-1052.5 945,-1052.5"/>
<text text-anchor="start" x="951.8473" y="-1065.3" font-family="Arial Bold" font-size="18.00" fill="#000000">public.user_scenario_quiz_histories</text>
<text text-anchor="start" x="1236.8989" y="-1065.3" font-family="Arial" font-size="14.00" fill="#000000"> </text>
<text text-anchor="start" x="1240.7895" y="-1065.3" font-family="Arial" font-size="14.00" fill="#666666">[BASE TABLE]</text>
<polygon fill="none" stroke="#000000" points="945,-1022.5 945,-1052.5 1341,-1052.5 1341,-1022.5 945,-1022.5"/>
<text text-anchor="start" x="952" y="-1033.9" font-family="Arial" font-size="14.00" fill="#000000">id </text>
<text text-anchor="start" x="966.7798" y="-1033.9" font-family="Arial" font-size="14.00" fill="#666666">[uuid]</text>
<polygon fill="none" stroke="#000000" points="945,-992.5 945,-1022.5 1341,-1022.5 1341,-992.5 945,-992.5"/>
<text text-anchor="start" x="952" y="-1003.9" font-family="Arial" font-size="14.00" fill="#000000">user_scenario_history_id </text>
<text text-anchor="start" x="1111.474" y="-1003.9" font-family="Arial" font-size="14.00" fill="#666666">[uuid]</text>
<polygon fill="none" stroke="#000000" points="945,-962.5 945,-992.5 1341,-992.5 1341,-962.5 945,-962.5"/>
<text text-anchor="start" x="952" y="-973.9" font-family="Arial" font-size="14.00" fill="#000000">user_id </text>
<text text-anchor="start" x="1001.7882" y="-973.9" font-family="Arial" font-size="14.00" fill="#666666">[uuid]</text>
<polygon fill="none" stroke="#000000" points="945,-932.5 945,-962.5 1341,-962.5 1341,-932.5 945,-932.5"/>
<text text-anchor="start" x="952" y="-943.9" font-family="Arial" font-size="14.00" fill="#000000">scenario_id </text>
<text text-anchor="start" x="1027.46" y="-943.9" font-family="Arial" font-size="14.00" fill="#666666">[uuid]</text>
<polygon fill="none" stroke="#000000" points="945,-902.5 945,-932.5 1341,-932.5 1341,-902.5 945,-902.5"/>
<text text-anchor="start" x="952" y="-913.9" font-family="Arial" font-size="14.00" fill="#000000">quiz_id </text>
<text text-anchor="start" x="1000.2342" y="-913.9" font-family="Arial" font-size="14.00" fill="#666666">[uuid]</text>
<polygon fill="none" stroke="#000000" points="945,-872.5 945,-902.5 1341,-902.5 1341,-872.5 945,-872.5"/>
<text text-anchor="start" x="952" y="-883.9" font-family="Arial" font-size="14.00" fill="#000000">quiz_option_id </text>
<text text-anchor="start" x="1046.1444" y="-883.9" font-family="Arial" font-size="14.00" fill="#666666">[uuid]</text>
<polygon fill="none" stroke="#000000" points="945,-842.5 945,-872.5 1341,-872.5 1341,-842.5 945,-842.5"/>
<text text-anchor="start" x="952" y="-853.9" font-family="Arial" font-size="14.00" fill="#000000">score </text>
<text text-anchor="start" x="990.1164" y="-853.9" font-family="Arial" font-size="14.00" fill="#666666">[integer]</text>
<polygon fill="none" stroke="#000000" points="945,-812.5 945,-842.5 1341,-842.5 1341,-812.5 945,-812.5"/>
<text text-anchor="start" x="952" y="-823.9" font-family="Arial" font-size="14.00" fill="#000000">created_at </text>
<text text-anchor="start" x="1022.028" y="-823.9" font-family="Arial" font-size="14.00" fill="#666666">[timestamp without time zone]</text>
<polygon fill="none" stroke="#000000" points="945,-782.5 945,-812.5 1341,-812.5 1341,-782.5 945,-782.5"/>
<text text-anchor="start" x="952" y="-793.9" font-family="Arial" font-size="14.00" fill="#000000">updated_at </text>
<text text-anchor="start" x="1025.9326" y="-793.9" font-family="Arial" font-size="14.00" fill="#666666">[timestamp without time zone]</text>
</g>
<!-- public.user_scenario_quiz_histories&#45;&gt;public.scenarios -->
<g id="edge3" class="edge">
<title>public.user_scenario_quiz_histories:scenario_id&#45;&gt;public.scenarios:id</title>
<path fill="none" stroke="#000000" d="M934.653,-946.9557C856.1764,-938.1046 930.7721,-823.1862 893,-740 863.3593,-674.7219 872.6924,-607.5 801,-607.5"/>
<polygon fill="#000000" stroke="#000000" points="935.0138,-946.9746 944.7636,-951.9938 940.0069,-947.2373 945,-947.5 945,-947.5 945,-947.5 940.0069,-947.2373 945.2364,-943.0062 935.0138,-946.9746 935.0138,-946.9746"/>
<text text-anchor="start" x="951.7165" y="-957.5" font-family="Arial" font-size="10.00" fill="#000000">FOREIGN KEY (scenario_id) REFERENCES scenarios(id) ON DELETE CASCADE</text>
</g>
</g>
</svg>
