<?xml version="1.0" encoding="UTF-8" standalone="no"?>
<!DOCTYPE svg PUBLIC "-//W3C//DTD SVG 1.1//EN"
 "http://www.w3.org/Graphics/SVG/1.1/DTD/svg11.dtd">
<!-- Generated by graphviz version 2.40.1 (20161225.0304)
 -->
<!-- Title: public.roles Pages: 1 -->
<svg width="744pt" height="1079pt"
 viewBox="0.00 0.00 743.50 1079.00" xmlns="http://www.w3.org/2000/svg" xmlns:xlink="http://www.w3.org/1999/xlink">
<g id="graph0" class="graph" transform="scale(1 1) rotate(0) translate(4 1075)">
<title>public.roles</title>
<polygon fill="#ffffff" stroke="transparent" points="-4,4 -4,-1075 739.5,-1075 739.5,4 -4,4"/>
<!-- public.roles -->
<g id="node1" class="node">
<title>public.roles</title>
<polygon fill="#efefef" stroke="transparent" points="417,-562.5 417,-597.5 690,-597.5 690,-562.5 417,-562.5"/>
<polygon fill="none" stroke="#000000" points="417,-562.5 417,-597.5 690,-597.5 690,-562.5 417,-562.5"/>
<text text-anchor="start" x="459.3691" y="-575.3" font-family="Arial Bold" font-size="18.00" fill="#000000">public.roles</text>
<text text-anchor="start" x="550.3771" y="-575.3" font-family="Arial" font-size="14.00" fill="#000000"> </text>
<text text-anchor="start" x="554.2677" y="-575.3" font-family="Arial" font-size="14.00" fill="#666666">[BASE TABLE]</text>
<polygon fill="none" stroke="#000000" points="417,-532.5 417,-562.5 690,-562.5 690,-532.5 417,-532.5"/>
<text text-anchor="start" x="424" y="-543.9" font-family="Arial" font-size="14.00" fill="#000000">id </text>
<text text-anchor="start" x="438.7798" y="-543.9" font-family="Arial" font-size="14.00" fill="#666666">[uuid]</text>
<polygon fill="none" stroke="#000000" points="417,-502.5 417,-532.5 690,-532.5 690,-502.5 417,-502.5"/>
<text text-anchor="start" x="424" y="-513.9" font-family="Arial" font-size="14.00" fill="#000000">organization_id </text>
<text text-anchor="start" x="522.805" y="-513.9" font-family="Arial" font-size="14.00" fill="#666666">[uuid]</text>
<polygon fill="none" stroke="#000000" points="417,-472.5 417,-502.5 690,-502.5 690,-472.5 417,-472.5"/>
<text text-anchor="start" x="424" y="-483.9" font-family="Arial" font-size="14.00" fill="#000000">name </text>
<text text-anchor="start" x="462.899" y="-483.9" font-family="Arial" font-size="14.00" fill="#666666">[varchar(128)]</text>
<polygon fill="none" stroke="#000000" points="417,-442.5 417,-472.5 690,-472.5 690,-442.5 417,-442.5"/>
<text text-anchor="start" x="424" y="-453.9" font-family="Arial" font-size="14.00" fill="#000000">created_at </text>
<text text-anchor="start" x="494.028" y="-453.9" font-family="Arial" font-size="14.00" fill="#666666">[timestamp without time zone]</text>
<polygon fill="none" stroke="#000000" points="417,-412.5 417,-442.5 690,-442.5 690,-412.5 417,-412.5"/>
<text text-anchor="start" x="423.9636" y="-423.9" font-family="Arial" font-size="14.00" fill="#000000">updated_at </text>
<text text-anchor="start" x="497.8962" y="-423.9" font-family="Arial" font-size="14.00" fill="#666666">[timestamp without time zone]</text>
<polygon fill="none" stroke="#000000" stroke-width="3" points="415,-411.5 415,-599.5 691,-599.5 691,-411.5 415,-411.5"/>
</g>
<!-- public.organizations -->
<g id="node3" class="node">
<title>public.organizations</title>
<polygon fill="#efefef" stroke="transparent" points="417,-252.5 417,-287.5 690,-287.5 690,-252.5 417,-252.5"/>
<polygon fill="none" stroke="#000000" points="417,-252.5 417,-287.5 690,-287.5 690,-252.5 417,-252.5"/>
<text text-anchor="start" x="425.3554" y="-265.3" font-family="Arial Bold" font-size="18.00" fill="#000000">public.organizations</text>
<text text-anchor="start" x="584.3908" y="-265.3" font-family="Arial" font-size="14.00" fill="#000000"> </text>
<text text-anchor="start" x="588.2814" y="-265.3" font-family="Arial" font-size="14.00" fill="#666666">[BASE TABLE]</text>
<polygon fill="none" stroke="#000000" points="417,-222.5 417,-252.5 690,-252.5 690,-222.5 417,-222.5"/>
<text text-anchor="start" x="424" y="-233.9" font-family="Arial" font-size="14.00" fill="#000000">id </text>
<text text-anchor="start" x="438.7798" y="-233.9" font-family="Arial" font-size="14.00" fill="#666666">[uuid]</text>
<polygon fill="none" stroke="#000000" points="417,-192.5 417,-222.5 690,-222.5 690,-192.5 417,-192.5"/>
<text text-anchor="start" x="424" y="-203.9" font-family="Arial" font-size="14.00" fill="#000000">company_id </text>
<text text-anchor="start" x="503.3534" y="-203.9" font-family="Arial" font-size="14.00" fill="#666666">[uuid]</text>
<polygon fill="none" stroke="#000000" points="417,-162.5 417,-192.5 690,-192.5 690,-162.5 417,-162.5"/>
<text text-anchor="start" x="424" y="-173.9" font-family="Arial" font-size="14.00" fill="#000000">display_id </text>
<text text-anchor="start" x="490.1234" y="-173.9" font-family="Arial" font-size="14.00" fill="#666666">[integer]</text>
<polygon fill="none" stroke="#000000" points="417,-132.5 417,-162.5 690,-162.5 690,-132.5 417,-132.5"/>
<text text-anchor="start" x="424" y="-143.9" font-family="Arial" font-size="14.00" fill="#000000">name </text>
<text text-anchor="start" x="462.899" y="-143.9" font-family="Arial" font-size="14.00" fill="#666666">[varchar(128)]</text>
<polygon fill="none" stroke="#000000" points="417,-102.5 417,-132.5 690,-132.5 690,-102.5 417,-102.5"/>
<text text-anchor="start" x="424" y="-113.9" font-family="Arial" font-size="14.00" fill="#000000">report_send_emails </text>
<text text-anchor="start" x="550.8022" y="-113.9" font-family="Arial" font-size="14.00" fill="#666666">[varchar(255)]</text>
<polygon fill="none" stroke="#000000" points="417,-72.5 417,-102.5 690,-102.5 690,-72.5 417,-72.5"/>
<text text-anchor="start" x="424" y="-83.9" font-family="Arial" font-size="14.00" fill="#000000">created_at </text>
<text text-anchor="start" x="494.028" y="-83.9" font-family="Arial" font-size="14.00" fill="#666666">[timestamp without time zone]</text>
<polygon fill="none" stroke="#000000" points="417,-42.5 417,-72.5 690,-72.5 690,-42.5 417,-42.5"/>
<text text-anchor="start" x="423.9636" y="-53.9" font-family="Arial" font-size="14.00" fill="#000000">updated_at </text>
<text text-anchor="start" x="497.8962" y="-53.9" font-family="Arial" font-size="14.00" fill="#666666">[timestamp without time zone]</text>
</g>
<!-- public.roles&#45;&gt;public.organizations -->
<g id="edge2" class="edge">
<title>public.roles:organization_id&#45;&gt;public.organizations:id</title>
<path fill="none" stroke="#000000" d="M407.0259,-514.9069C354.9774,-486.6795 358.3021,-237.5 417,-237.5"/>
<polygon fill="#000000" stroke="#000000" points="407.3217,-514.9837 415.8677,-521.8552 412.1609,-516.2419 417,-517.5 417,-517.5 417,-517.5 412.1609,-516.2419 418.1323,-513.1448 407.3217,-514.9837 407.3217,-514.9837"/>
<text text-anchor="start" x="7.0415" y="-527.5" font-family="Arial" font-size="10.00" fill="#000000">FOREIGN KEY (organization_id) REFERENCES organizations(id) ON DELETE CASCADE</text>
</g>
<!-- public.scenarios -->
<g id="node2" class="node">
<title>public.scenarios</title>
<polygon fill="#efefef" stroke="transparent" points="417,-992.5 417,-1027.5 690,-1027.5 690,-992.5 417,-992.5"/>
<polygon fill="none" stroke="#000000" points="417,-992.5 417,-1027.5 690,-1027.5 690,-992.5 417,-992.5"/>
<text text-anchor="start" x="440.3629" y="-1005.3" font-family="Arial Bold" font-size="18.00" fill="#000000">public.scenarios</text>
<text text-anchor="start" x="569.3833" y="-1005.3" font-family="Arial" font-size="14.00" fill="#000000"> </text>
<text text-anchor="start" x="573.2739" y="-1005.3" font-family="Arial" font-size="14.00" fill="#666666">[BASE TABLE]</text>
<polygon fill="none" stroke="#000000" points="417,-962.5 417,-992.5 690,-992.5 690,-962.5 417,-962.5"/>
<text text-anchor="start" x="424" y="-973.9" font-family="Arial" font-size="14.00" fill="#000000">id </text>
<text text-anchor="start" x="438.7798" y="-973.9" font-family="Arial" font-size="14.00" fill="#666666">[uuid]</text>
<polygon fill="none" stroke="#000000" points="417,-932.5 417,-962.5 690,-962.5 690,-932.5 417,-932.5"/>
<text text-anchor="start" x="424" y="-943.9" font-family="Arial" font-size="14.00" fill="#000000">organization_id </text>
<text text-anchor="start" x="522.805" y="-943.9" font-family="Arial" font-size="14.00" fill="#666666">[uuid]</text>
<polygon fill="none" stroke="#000000" points="417,-902.5 417,-932.5 690,-932.5 690,-902.5 417,-902.5"/>
<text text-anchor="start" x="424" y="-913.9" font-family="Arial" font-size="14.00" fill="#000000">role_id </text>
<text text-anchor="start" x="469.8948" y="-913.9" font-family="Arial" font-size="14.00" fill="#666666">[uuid]</text>
<polygon fill="none" stroke="#000000" points="417,-872.5 417,-902.5 690,-902.5 690,-872.5 417,-872.5"/>
<text text-anchor="start" x="424" y="-883.9" font-family="Arial" font-size="14.00" fill="#000000">scenario_title </text>
<text text-anchor="start" x="510.3478" y="-883.9" font-family="Arial" font-size="14.00" fill="#666666">[varchar(255)]</text>
<polygon fill="none" stroke="#000000" points="417,-842.5 417,-872.5 690,-872.5 690,-842.5 417,-842.5"/>
<text text-anchor="start" x="424" y="-853.9" font-family="Arial" font-size="14.00" fill="#000000">scenario_overview </text>
<text text-anchor="start" x="543.7924" y="-853.9" font-family="Arial" font-size="14.00" fill="#666666">[text]</text>
<polygon fill="none" stroke="#000000" points="417,-812.5 417,-842.5 690,-842.5 690,-812.5 417,-812.5"/>
<text text-anchor="start" x="424" y="-823.9" font-family="Arial" font-size="14.00" fill="#000000">scenario_description </text>
<text text-anchor="start" x="556.2482" y="-823.9" font-family="Arial" font-size="14.00" fill="#666666">[text]</text>
<polygon fill="none" stroke="#000000" points="417,-782.5 417,-812.5 690,-812.5 690,-782.5 417,-782.5"/>
<text text-anchor="start" x="424" y="-793.9" font-family="Arial" font-size="14.00" fill="#000000">total_score </text>
<text text-anchor="start" x="496.352" y="-793.9" font-family="Arial" font-size="14.00" fill="#666666">[integer]</text>
<polygon fill="none" stroke="#000000" points="417,-752.5 417,-782.5 690,-782.5 690,-752.5 417,-752.5"/>
<text text-anchor="start" x="424" y="-763.9" font-family="Arial" font-size="14.00" fill="#000000">created_at </text>
<text text-anchor="start" x="494.028" y="-763.9" font-family="Arial" font-size="14.00" fill="#666666">[timestamp without time zone]</text>
<polygon fill="none" stroke="#000000" points="417,-722.5 417,-752.5 690,-752.5 690,-722.5 417,-722.5"/>
<text text-anchor="start" x="423.9636" y="-733.9" font-family="Arial" font-size="14.00" fill="#000000">updated_at </text>
<text text-anchor="start" x="497.8962" y="-733.9" font-family="Arial" font-size="14.00" fill="#666666">[timestamp without time zone]</text>
</g>
<!-- public.scenarios&#45;&gt;public.roles -->
<g id="edge1" class="edge">
<title>public.scenarios:role_id&#45;&gt;public.roles:id</title>
<path fill="none" stroke="#000000" d="M406.8565,-915.5093C334.9296,-886.3863 338.3108,-547.5 417,-547.5"/>
<polygon fill="#000000" stroke="#000000" points="407.1872,-915.5741 416.1334,-921.9158 412.0936,-916.5371 417,-917.5 417,-917.5 417,-917.5 412.0936,-916.5371 417.8666,-913.0842 407.1872,-915.5741 407.1872,-915.5741"/>
<text text-anchor="start" x="81.8345" y="-927.5" font-family="Arial" font-size="10.00" fill="#000000">FOREIGN KEY (role_id) REFERENCES roles(id) ON DELETE CASCADE</text>
</g>
</g>
</svg>
