<?xml version="1.0" encoding="UTF-8" standalone="no"?>
<!DOCTYPE svg PUBLIC "-//W3C//DTD SVG 1.1//EN"
 "http://www.w3.org/Graphics/SVG/1.1/DTD/svg11.dtd">
<!-- Generated by graphviz version 2.40.1 (20161225.0304)
 -->
<!-- Title: public.scenario_quiz_options Pages: 1 -->
<svg width="881pt" height="1229pt"
 viewBox="0.00 0.00 881.00 1229.00" xmlns="http://www.w3.org/2000/svg" xmlns:xlink="http://www.w3.org/1999/xlink">
<g id="graph0" class="graph" transform="scale(1 1) rotate(0) translate(4 1225)">
<title>public.scenario_quiz_options</title>
<polygon fill="#ffffff" stroke="transparent" points="-4,4 -4,-1225 877,-1225 877,4 -4,4"/>
<!-- public.scenario_quiz_options -->
<g id="node1" class="node">
<title>public.scenario_quiz_options</title>
<polygon fill="#efefef" stroke="transparent" points="46,-712.5 46,-747.5 388,-747.5 388,-712.5 46,-712.5"/>
<polygon fill="none" stroke="#000000" points="46,-712.5 46,-747.5 388,-747.5 388,-712.5 46,-712.5"/>
<text text-anchor="start" x="52.8428" y="-725.3" font-family="Arial Bold" font-size="18.00" fill="#000000">public.scenario_quiz_options</text>
<text text-anchor="start" x="283.9034" y="-725.3" font-family="Arial" font-size="14.00" fill="#000000"> </text>
<text text-anchor="start" x="287.794" y="-725.3" font-family="Arial" font-size="14.00" fill="#666666">[BASE TABLE]</text>
<polygon fill="none" stroke="#000000" points="46,-682.5 46,-712.5 388,-712.5 388,-682.5 46,-682.5"/>
<text text-anchor="start" x="53" y="-693.9" font-family="Arial" font-size="14.00" fill="#000000">id </text>
<text text-anchor="start" x="67.7798" y="-693.9" font-family="Arial" font-size="14.00" fill="#666666">[uuid]</text>
<polygon fill="none" stroke="#000000" points="46,-652.5 46,-682.5 388,-682.5 388,-652.5 46,-652.5"/>
<text text-anchor="start" x="53" y="-663.9" font-family="Arial" font-size="14.00" fill="#000000">scenario_quiz_id </text>
<text text-anchor="start" x="161.9144" y="-663.9" font-family="Arial" font-size="14.00" fill="#666666">[uuid]</text>
<polygon fill="none" stroke="#000000" points="46,-622.5 46,-652.5 388,-652.5 388,-622.5 46,-622.5"/>
<text text-anchor="start" x="53" y="-633.9" font-family="Arial" font-size="14.00" fill="#000000">quiz_option_id </text>
<text text-anchor="start" x="147.1444" y="-633.9" font-family="Arial" font-size="14.00" fill="#666666">[uuid]</text>
<polygon fill="none" stroke="#000000" points="46,-592.5 46,-622.5 388,-622.5 388,-592.5 46,-592.5"/>
<text text-anchor="start" x="53" y="-603.9" font-family="Arial" font-size="14.00" fill="#000000">answer </text>
<text text-anchor="start" x="102.0056" y="-603.9" font-family="Arial" font-size="14.00" fill="#666666">[varchar(255)]</text>
<polygon fill="none" stroke="#000000" points="46,-562.5 46,-592.5 388,-592.5 388,-562.5 46,-562.5"/>
<text text-anchor="start" x="53" y="-573.9" font-family="Arial" font-size="14.00" fill="#000000">score </text>
<text text-anchor="start" x="91.1164" y="-573.9" font-family="Arial" font-size="14.00" fill="#666666">[integer]</text>
<polygon fill="none" stroke="#000000" points="46,-532.5 46,-562.5 388,-562.5 388,-532.5 46,-532.5"/>
<text text-anchor="start" x="53" y="-543.9" font-family="Arial" font-size="14.00" fill="#000000">next_scenario_quiz_id </text>
<text text-anchor="start" x="196.1528" y="-543.9" font-family="Arial" font-size="14.00" fill="#666666">[uuid]</text>
<polygon fill="none" stroke="#000000" points="46,-502.5 46,-532.5 388,-532.5 388,-502.5 46,-502.5"/>
<text text-anchor="start" x="53" y="-513.9" font-family="Arial" font-size="14.00" fill="#000000">status </text>
<text text-anchor="start" x="94.237" y="-513.9" font-family="Arial" font-size="14.00" fill="#666666">[integer]</text>
<polygon fill="none" stroke="#000000" points="46,-472.5 46,-502.5 388,-502.5 388,-472.5 46,-472.5"/>
<text text-anchor="start" x="53" y="-483.9" font-family="Arial" font-size="14.00" fill="#000000">created_at </text>
<text text-anchor="start" x="123.028" y="-483.9" font-family="Arial" font-size="14.00" fill="#666666">[timestamp without time zone]</text>
<polygon fill="none" stroke="#000000" points="46,-442.5 46,-472.5 388,-472.5 388,-442.5 46,-442.5"/>
<text text-anchor="start" x="53" y="-453.9" font-family="Arial" font-size="14.00" fill="#000000">updated_at </text>
<text text-anchor="start" x="126.9326" y="-453.9" font-family="Arial" font-size="14.00" fill="#666666">[timestamp without time zone]</text>
<polygon fill="none" stroke="#000000" stroke-width="3" points="44.5,-441.5 44.5,-749.5 389.5,-749.5 389.5,-441.5 44.5,-441.5"/>
</g>
<!-- public.scenario_quizzes -->
<g id="node3" class="node">
<title>public.scenario_quizzes</title>
<polygon fill="#efefef" stroke="transparent" points="66,-282.5 66,-317.5 368,-317.5 368,-282.5 66,-282.5"/>
<polygon fill="none" stroke="#000000" points="66,-282.5 66,-317.5 368,-317.5 368,-282.5 66,-282.5"/>
<text text-anchor="start" x="72.8534" y="-295.3" font-family="Arial Bold" font-size="18.00" fill="#000000">public.scenario_quizzes</text>
<text text-anchor="start" x="263.8928" y="-295.3" font-family="Arial" font-size="14.00" fill="#000000"> </text>
<text text-anchor="start" x="267.7834" y="-295.3" font-family="Arial" font-size="14.00" fill="#666666">[BASE TABLE]</text>
<polygon fill="none" stroke="#000000" points="66,-252.5 66,-282.5 368,-282.5 368,-252.5 66,-252.5"/>
<text text-anchor="start" x="73" y="-263.9" font-family="Arial" font-size="14.00" fill="#000000">id </text>
<text text-anchor="start" x="87.7798" y="-263.9" font-family="Arial" font-size="14.00" fill="#666666">[uuid]</text>
<polygon fill="none" stroke="#000000" points="66,-222.5 66,-252.5 368,-252.5 368,-222.5 66,-222.5"/>
<text text-anchor="start" x="73" y="-233.9" font-family="Arial" font-size="14.00" fill="#000000">scenario_id </text>
<text text-anchor="start" x="148.46" y="-233.9" font-family="Arial" font-size="14.00" fill="#666666">[uuid]</text>
<polygon fill="none" stroke="#000000" points="66,-192.5 66,-222.5 368,-222.5 368,-192.5 66,-192.5"/>
<text text-anchor="start" x="73" y="-203.9" font-family="Arial" font-size="14.00" fill="#000000">quiz_id </text>
<text text-anchor="start" x="121.2342" y="-203.9" font-family="Arial" font-size="14.00" fill="#666666">[uuid]</text>
<polygon fill="none" stroke="#000000" points="66,-162.5 66,-192.5 368,-192.5 368,-162.5 66,-162.5"/>
<text text-anchor="start" x="73" y="-173.9" font-family="Arial" font-size="14.00" fill="#000000">first </text>
<text text-anchor="start" x="99.439" y="-173.9" font-family="Arial" font-size="14.00" fill="#666666">[boolean]</text>
<polygon fill="none" stroke="#000000" points="66,-132.5 66,-162.5 368,-162.5 368,-132.5 66,-132.5"/>
<text text-anchor="start" x="73" y="-143.9" font-family="Arial" font-size="14.00" fill="#000000">question </text>
<text text-anchor="start" x="129.8008" y="-143.9" font-family="Arial" font-size="14.00" fill="#666666">[text]</text>
<polygon fill="none" stroke="#000000" points="66,-102.5 66,-132.5 368,-132.5 368,-102.5 66,-102.5"/>
<text text-anchor="start" x="73" y="-113.9" font-family="Arial" font-size="14.00" fill="#000000">failure_message </text>
<text text-anchor="start" x="179.5764" y="-113.9" font-family="Arial" font-size="14.00" fill="#666666">[text]</text>
<polygon fill="none" stroke="#000000" points="66,-72.5 66,-102.5 368,-102.5 368,-72.5 66,-72.5"/>
<text text-anchor="start" x="73" y="-83.9" font-family="Arial" font-size="14.00" fill="#000000">created_at </text>
<text text-anchor="start" x="143.028" y="-83.9" font-family="Arial" font-size="14.00" fill="#666666">[timestamp without time zone]</text>
<polygon fill="none" stroke="#000000" points="66,-42.5 66,-72.5 368,-72.5 368,-42.5 66,-42.5"/>
<text text-anchor="start" x="73" y="-53.9" font-family="Arial" font-size="14.00" fill="#000000">updated_at </text>
<text text-anchor="start" x="146.9326" y="-53.9" font-family="Arial" font-size="14.00" fill="#666666">[timestamp without time zone]</text>
</g>
<!-- public.scenario_quiz_options&#45;&gt;public.scenario_quizzes -->
<g id="edge2" class="edge">
<title>public.scenario_quiz_options:scenario_quiz_id&#45;&gt;public.scenario_quizzes:id</title>
<path fill="none" stroke="#000000" d="M396.444,-661.8455C429.5663,-613.2275 409.3711,-267.5 368,-267.5"/>
<polygon fill="#000000" stroke="#000000" points="396.3091,-661.9358 385.4961,-663.7609 392.1545,-664.7179 388,-667.5 388,-667.5 388,-667.5 392.1545,-664.7179 390.5039,-671.2391 396.3091,-661.9358 396.3091,-661.9358"/>
<text text-anchor="start" x="394.541" y="-677.5" font-family="Arial" font-size="10.00" fill="#000000">FOREIGN KEY (scenario_quiz_id) REFERENCES scenario_quizzes(id) ON DELETE CASCADE</text>
</g>
<!-- public.scenario_quiz_options&#45;&gt;public.scenario_quizzes -->
<g id="edge4" class="edge">
<title>public.scenario_quiz_options:next_scenario_quiz_id&#45;&gt;public.scenario_quizzes:id</title>
<path fill="none" stroke="#000000" d="M397.8143,-544.9069C447.9792,-516.6795 426.8475,-267.5 368,-267.5"/>
<polygon fill="#000000" stroke="#000000" points="397.6682,-544.9454 386.8504,-543.1493 392.8341,-546.2227 388,-547.5 388,-547.5 388,-547.5 392.8341,-546.2227 389.1496,-551.8507 397.6682,-544.9454 397.6682,-544.9454"/>
<text text-anchor="start" x="395.313" y="-557.5" font-family="Arial" font-size="10.00" fill="#000000">FOREIGN KEY (next_scenario_quiz_id) REFERENCES scenario_quizzes(id) ON DELETE CASCADE</text>
</g>
<!-- public.quiz_options -->
<g id="node4" class="node">
<title>public.quiz_options</title>
<polygon fill="#efefef" stroke="transparent" points="473,-237.5 473,-272.5 746,-272.5 746,-237.5 473,-237.5"/>
<polygon fill="none" stroke="#000000" points="473,-237.5 473,-272.5 746,-272.5 746,-237.5 473,-237.5"/>
<text text-anchor="start" x="484.3515" y="-250.3" font-family="Arial Bold" font-size="18.00" fill="#000000">public.quiz_options</text>
<text text-anchor="start" x="637.3947" y="-250.3" font-family="Arial" font-size="14.00" fill="#000000"> </text>
<text text-anchor="start" x="641.2853" y="-250.3" font-family="Arial" font-size="14.00" fill="#666666">[BASE TABLE]</text>
<polygon fill="none" stroke="#000000" points="473,-207.5 473,-237.5 746,-237.5 746,-207.5 473,-207.5"/>
<text text-anchor="start" x="480" y="-218.9" font-family="Arial" font-size="14.00" fill="#000000">id </text>
<text text-anchor="start" x="494.7798" y="-218.9" font-family="Arial" font-size="14.00" fill="#666666">[uuid]</text>
<polygon fill="none" stroke="#000000" points="473,-177.5 473,-207.5 746,-207.5 746,-177.5 473,-177.5"/>
<text text-anchor="start" x="480" y="-188.9" font-family="Arial" font-size="14.00" fill="#000000">quiz_id </text>
<text text-anchor="start" x="528.2342" y="-188.9" font-family="Arial" font-size="14.00" fill="#666666">[uuid]</text>
<polygon fill="none" stroke="#000000" points="473,-147.5 473,-177.5 746,-177.5 746,-147.5 473,-147.5"/>
<text text-anchor="start" x="480" y="-158.9" font-family="Arial" font-size="14.00" fill="#000000">answer </text>
<text text-anchor="start" x="529.0056" y="-158.9" font-family="Arial" font-size="14.00" fill="#666666">[varchar(255)]</text>
<polygon fill="none" stroke="#000000" points="473,-117.5 473,-147.5 746,-147.5 746,-117.5 473,-117.5"/>
<text text-anchor="start" x="480" y="-128.9" font-family="Arial" font-size="14.00" fill="#000000">created_at </text>
<text text-anchor="start" x="550.028" y="-128.9" font-family="Arial" font-size="14.00" fill="#666666">[timestamp without time zone]</text>
<polygon fill="none" stroke="#000000" points="473,-87.5 473,-117.5 746,-117.5 746,-87.5 473,-87.5"/>
<text text-anchor="start" x="479.9636" y="-98.9" font-family="Arial" font-size="14.00" fill="#000000">updated_at </text>
<text text-anchor="start" x="553.8962" y="-98.9" font-family="Arial" font-size="14.00" fill="#666666">[timestamp without time zone]</text>
</g>
<!-- public.scenario_quiz_options&#45;&gt;public.quiz_options -->
<g id="edge3" class="edge">
<title>public.scenario_quiz_options:quiz_option_id&#45;&gt;public.quiz_options:id</title>
<path fill="none" stroke="#000000" d="M398.1515,-635.6498C474.3697,-605.7114 382.5405,-222.5 473,-222.5"/>
<polygon fill="#000000" stroke="#000000" points="397.8379,-635.7068 387.1931,-633.0729 392.919,-636.6034 388,-637.5 388,-637.5 388,-637.5 392.919,-636.6034 388.8069,-641.9271 397.8379,-635.7068 397.8379,-635.7068"/>
<text text-anchor="start" x="395.3705" y="-647.5" font-family="Arial" font-size="10.00" fill="#000000">FOREIGN KEY (quiz_option_id) REFERENCES quiz_options(id) ON DELETE CASCADE</text>
</g>
<!-- public.user_quiz_histories -->
<g id="node2" class="node">
<title>public.user_quiz_histories</title>
<polygon fill="#efefef" stroke="transparent" points="58,-1142.5 58,-1177.5 376,-1177.5 376,-1142.5 58,-1142.5"/>
<polygon fill="none" stroke="#000000" points="58,-1142.5 58,-1177.5 376,-1177.5 376,-1142.5 58,-1142.5"/>
<text text-anchor="start" x="64.856" y="-1155.3" font-family="Arial Bold" font-size="18.00" fill="#000000">public.user_quiz_histories</text>
<text text-anchor="start" x="271.8902" y="-1155.3" font-family="Arial" font-size="14.00" fill="#000000"> </text>
<text text-anchor="start" x="275.7808" y="-1155.3" font-family="Arial" font-size="14.00" fill="#666666">[BASE TABLE]</text>
<polygon fill="none" stroke="#000000" points="58,-1112.5 58,-1142.5 376,-1142.5 376,-1112.5 58,-1112.5"/>
<text text-anchor="start" x="65" y="-1123.9" font-family="Arial" font-size="14.00" fill="#000000">id </text>
<text text-anchor="start" x="79.7798" y="-1123.9" font-family="Arial" font-size="14.00" fill="#666666">[uuid]</text>
<polygon fill="none" stroke="#000000" points="58,-1082.5 58,-1112.5 376,-1112.5 376,-1082.5 58,-1082.5"/>
<text text-anchor="start" x="65" y="-1093.9" font-family="Arial" font-size="14.00" fill="#000000">user_scenario_history_id </text>
<text text-anchor="start" x="224.474" y="-1093.9" font-family="Arial" font-size="14.00" fill="#666666">[uuid]</text>
<polygon fill="none" stroke="#000000" points="58,-1052.5 58,-1082.5 376,-1082.5 376,-1052.5 58,-1052.5"/>
<text text-anchor="start" x="65" y="-1063.9" font-family="Arial" font-size="14.00" fill="#000000">user_id </text>
<text text-anchor="start" x="114.7882" y="-1063.9" font-family="Arial" font-size="14.00" fill="#666666">[uuid]</text>
<polygon fill="none" stroke="#000000" points="58,-1022.5 58,-1052.5 376,-1052.5 376,-1022.5 58,-1022.5"/>
<text text-anchor="start" x="65" y="-1033.9" font-family="Arial" font-size="14.00" fill="#000000">scenario_id </text>
<text text-anchor="start" x="140.46" y="-1033.9" font-family="Arial" font-size="14.00" fill="#666666">[uuid]</text>
<polygon fill="none" stroke="#000000" points="58,-992.5 58,-1022.5 376,-1022.5 376,-992.5 58,-992.5"/>
<text text-anchor="start" x="65" y="-1003.9" font-family="Arial" font-size="14.00" fill="#000000">scenario_quiz_id </text>
<text text-anchor="start" x="173.9144" y="-1003.9" font-family="Arial" font-size="14.00" fill="#666666">[uuid]</text>
<polygon fill="none" stroke="#000000" points="58,-962.5 58,-992.5 376,-992.5 376,-962.5 58,-962.5"/>
<text text-anchor="start" x="65" y="-973.9" font-family="Arial" font-size="14.00" fill="#000000">scenario_quiz_option_id </text>
<text text-anchor="start" x="219.8246" y="-973.9" font-family="Arial" font-size="14.00" fill="#666666">[uuid]</text>
<polygon fill="none" stroke="#000000" points="58,-932.5 58,-962.5 376,-962.5 376,-932.5 58,-932.5"/>
<text text-anchor="start" x="65" y="-943.9" font-family="Arial" font-size="14.00" fill="#000000">score </text>
<text text-anchor="start" x="103.1164" y="-943.9" font-family="Arial" font-size="14.00" fill="#666666">[integer]</text>
<polygon fill="none" stroke="#000000" points="58,-902.5 58,-932.5 376,-932.5 376,-902.5 58,-902.5"/>
<text text-anchor="start" x="65" y="-913.9" font-family="Arial" font-size="14.00" fill="#000000">created_at </text>
<text text-anchor="start" x="135.028" y="-913.9" font-family="Arial" font-size="14.00" fill="#666666">[timestamp without time zone]</text>
<polygon fill="none" stroke="#000000" points="58,-872.5 58,-902.5 376,-902.5 376,-872.5 58,-872.5"/>
<text text-anchor="start" x="65" y="-883.9" font-family="Arial" font-size="14.00" fill="#000000">updated_at </text>
<text text-anchor="start" x="138.9326" y="-883.9" font-family="Arial" font-size="14.00" fill="#666666">[timestamp without time zone]</text>
</g>
<!-- public.user_quiz_histories&#45;&gt;public.scenario_quiz_options -->
<g id="edge1" class="edge">
<title>public.user_quiz_histories:scenario_quiz_option_id&#45;&gt;public.scenario_quiz_options:id</title>
<path fill="none" stroke="#000000" d="M386.3112,-976.839C501.1288,-961.8652 509.0311,-697.5 388,-697.5"/>
<polygon fill="#000000" stroke="#000000" points="385.9795,-976.8602 375.7121,-973.0092 380.9898,-977.1801 376,-977.5 376,-977.5 376,-977.5 380.9898,-977.1801 376.2879,-981.9908 385.9795,-976.8602 385.9795,-976.8602"/>
<text text-anchor="start" x="383.0275" y="-987.5" font-family="Arial" font-size="10.00" fill="#000000">FOREIGN KEY (scenario_quiz_option_id) REFERENCES scenario_quiz_options(id) ON DELETE CASCADE</text>
</g>
</g>
</svg>
