<?xml version="1.0" encoding="UTF-8" standalone="no"?>
<!DOCTYPE svg PUBLIC "-//W3C//DTD SVG 1.1//EN"
 "http://www.w3.org/Graphics/SVG/1.1/DTD/svg11.dtd">
<!-- Generated by graphviz version 2.40.1 (20161225.0304)
 -->
<!-- Title: public.stories Pages: 1 -->
<svg width="969pt" height="1079pt"
 viewBox="0.00 0.00 969.00 1079.00" xmlns="http://www.w3.org/2000/svg" xmlns:xlink="http://www.w3.org/1999/xlink">
<g id="graph0" class="graph" transform="scale(1 1) rotate(0) translate(4 1075)">
<title>public.stories</title>
<polygon fill="#ffffff" stroke="transparent" points="-4,4 -4,-1075 965,-1075 965,4 -4,4"/>
<!-- public.stories -->
<g id="node1" class="node">
<title>public.stories</title>
<polygon fill="#efefef" stroke="transparent" points="417,-562.5 417,-597.5 690,-597.5 690,-562.5 417,-562.5"/>
<polygon fill="none" stroke="#000000" points="417,-562.5 417,-597.5 690,-597.5 690,-562.5 417,-562.5"/>
<text text-anchor="start" x="452.368" y="-575.3" font-family="Arial Bold" font-size="18.00" fill="#000000">public.stories</text>
<text text-anchor="start" x="557.3782" y="-575.3" font-family="Arial" font-size="14.00" fill="#000000"> </text>
<text text-anchor="start" x="561.2688" y="-575.3" font-family="Arial" font-size="14.00" fill="#666666">[BASE TABLE]</text>
<polygon fill="none" stroke="#000000" points="417,-532.5 417,-562.5 690,-562.5 690,-532.5 417,-532.5"/>
<text text-anchor="start" x="424" y="-543.9" font-family="Arial" font-size="14.00" fill="#000000">id </text>
<text text-anchor="start" x="438.7798" y="-543.9" font-family="Arial" font-size="14.00" fill="#666666">[uuid]</text>
<polygon fill="none" stroke="#000000" points="417,-502.5 417,-532.5 690,-532.5 690,-502.5 417,-502.5"/>
<text text-anchor="start" x="424" y="-513.9" font-family="Arial" font-size="14.00" fill="#000000">organization_id </text>
<text text-anchor="start" x="522.805" y="-513.9" font-family="Arial" font-size="14.00" fill="#666666">[uuid]</text>
<polygon fill="none" stroke="#000000" points="417,-472.5 417,-502.5 690,-502.5 690,-472.5 417,-472.5"/>
<text text-anchor="start" x="424" y="-483.9" font-family="Arial" font-size="14.00" fill="#000000">title </text>
<text text-anchor="start" x="449.6676" y="-483.9" font-family="Arial" font-size="14.00" fill="#666666">[varchar(255)]</text>
<polygon fill="none" stroke="#000000" points="417,-442.5 417,-472.5 690,-472.5 690,-442.5 417,-442.5"/>
<text text-anchor="start" x="424" y="-453.9" font-family="Arial" font-size="14.00" fill="#000000">created_at </text>
<text text-anchor="start" x="494.028" y="-453.9" font-family="Arial" font-size="14.00" fill="#666666">[timestamp without time zone]</text>
<polygon fill="none" stroke="#000000" points="417,-412.5 417,-442.5 690,-442.5 690,-412.5 417,-412.5"/>
<text text-anchor="start" x="423.9636" y="-423.9" font-family="Arial" font-size="14.00" fill="#000000">updated_at </text>
<text text-anchor="start" x="497.8962" y="-423.9" font-family="Arial" font-size="14.00" fill="#666666">[timestamp without time zone]</text>
<polygon fill="none" stroke="#000000" stroke-width="3" points="415,-411.5 415,-599.5 691,-599.5 691,-411.5 415,-411.5"/>
</g>
<!-- public.organizations -->
<g id="node4" class="node">
<title>public.organizations</title>
<polygon fill="#efefef" stroke="transparent" points="417,-252.5 417,-287.5 690,-287.5 690,-252.5 417,-252.5"/>
<polygon fill="none" stroke="#000000" points="417,-252.5 417,-287.5 690,-287.5 690,-252.5 417,-252.5"/>
<text text-anchor="start" x="425.3554" y="-265.3" font-family="Arial Bold" font-size="18.00" fill="#000000">public.organizations</text>
<text text-anchor="start" x="584.3908" y="-265.3" font-family="Arial" font-size="14.00" fill="#000000"> </text>
<text text-anchor="start" x="588.2814" y="-265.3" font-family="Arial" font-size="14.00" fill="#666666">[BASE TABLE]</text>
<polygon fill="none" stroke="#000000" points="417,-222.5 417,-252.5 690,-252.5 690,-222.5 417,-222.5"/>
<text text-anchor="start" x="424" y="-233.9" font-family="Arial" font-size="14.00" fill="#000000">id </text>
<text text-anchor="start" x="438.7798" y="-233.9" font-family="Arial" font-size="14.00" fill="#666666">[uuid]</text>
<polygon fill="none" stroke="#000000" points="417,-192.5 417,-222.5 690,-222.5 690,-192.5 417,-192.5"/>
<text text-anchor="start" x="424" y="-203.9" font-family="Arial" font-size="14.00" fill="#000000">company_id </text>
<text text-anchor="start" x="503.3534" y="-203.9" font-family="Arial" font-size="14.00" fill="#666666">[uuid]</text>
<polygon fill="none" stroke="#000000" points="417,-162.5 417,-192.5 690,-192.5 690,-162.5 417,-162.5"/>
<text text-anchor="start" x="424" y="-173.9" font-family="Arial" font-size="14.00" fill="#000000">display_id </text>
<text text-anchor="start" x="490.1234" y="-173.9" font-family="Arial" font-size="14.00" fill="#666666">[integer]</text>
<polygon fill="none" stroke="#000000" points="417,-132.5 417,-162.5 690,-162.5 690,-132.5 417,-132.5"/>
<text text-anchor="start" x="424" y="-143.9" font-family="Arial" font-size="14.00" fill="#000000">name </text>
<text text-anchor="start" x="462.899" y="-143.9" font-family="Arial" font-size="14.00" fill="#666666">[varchar(128)]</text>
<polygon fill="none" stroke="#000000" points="417,-102.5 417,-132.5 690,-132.5 690,-102.5 417,-102.5"/>
<text text-anchor="start" x="424" y="-113.9" font-family="Arial" font-size="14.00" fill="#000000">report_send_emails </text>
<text text-anchor="start" x="550.8022" y="-113.9" font-family="Arial" font-size="14.00" fill="#666666">[varchar(255)]</text>
<polygon fill="none" stroke="#000000" points="417,-72.5 417,-102.5 690,-102.5 690,-72.5 417,-72.5"/>
<text text-anchor="start" x="424" y="-83.9" font-family="Arial" font-size="14.00" fill="#000000">created_at </text>
<text text-anchor="start" x="494.028" y="-83.9" font-family="Arial" font-size="14.00" fill="#666666">[timestamp without time zone]</text>
<polygon fill="none" stroke="#000000" points="417,-42.5 417,-72.5 690,-72.5 690,-42.5 417,-42.5"/>
<text text-anchor="start" x="423.9636" y="-53.9" font-family="Arial" font-size="14.00" fill="#000000">updated_at </text>
<text text-anchor="start" x="497.8962" y="-53.9" font-family="Arial" font-size="14.00" fill="#666666">[timestamp without time zone]</text>
</g>
<!-- public.stories&#45;&gt;public.organizations -->
<g id="edge3" class="edge">
<title>public.stories:organization_id&#45;&gt;public.organizations:id</title>
<path fill="none" stroke="#000000" d="M406.7265,-516.839C292.6554,-501.8652 296.0799,-237.5 417,-237.5"/>
<polygon fill="#000000" stroke="#000000" points="407.0206,-516.8578 416.711,-521.9907 412.0103,-517.1789 417,-517.5 417,-517.5 417,-517.5 412.0103,-517.1789 417.289,-513.0093 407.0206,-516.8578 407.0206,-516.8578"/>
<text text-anchor="start" x="7.0415" y="-527.5" font-family="Arial" font-size="10.00" fill="#000000">FOREIGN KEY (organization_id) REFERENCES organizations(id) ON DELETE CASCADE</text>
</g>
<!-- public.stories_tags -->
<g id="node2" class="node">
<title>public.stories_tags</title>
<polygon fill="#efefef" stroke="transparent" points="229,-932.5 229,-967.5 502,-967.5 502,-932.5 229,-932.5"/>
<polygon fill="none" stroke="#000000" points="229,-932.5 229,-967.5 502,-967.5 502,-932.5 229,-932.5"/>
<text text-anchor="start" x="242.3576" y="-945.3" font-family="Arial Bold" font-size="18.00" fill="#000000">public.stories_tags</text>
<text text-anchor="start" x="391.3886" y="-945.3" font-family="Arial" font-size="14.00" fill="#000000"> </text>
<text text-anchor="start" x="395.2792" y="-945.3" font-family="Arial" font-size="14.00" fill="#666666">[BASE TABLE]</text>
<polygon fill="none" stroke="#000000" points="229,-902.5 229,-932.5 502,-932.5 502,-902.5 229,-902.5"/>
<text text-anchor="start" x="236" y="-913.9" font-family="Arial" font-size="14.00" fill="#000000">id </text>
<text text-anchor="start" x="250.7798" y="-913.9" font-family="Arial" font-size="14.00" fill="#666666">[uuid]</text>
<polygon fill="none" stroke="#000000" points="229,-872.5 229,-902.5 502,-902.5 502,-872.5 229,-872.5"/>
<text text-anchor="start" x="236" y="-883.9" font-family="Arial" font-size="14.00" fill="#000000">story_id </text>
<text text-anchor="start" x="288.8962" y="-883.9" font-family="Arial" font-size="14.00" fill="#666666">[uuid]</text>
<polygon fill="none" stroke="#000000" points="229,-842.5 229,-872.5 502,-872.5 502,-842.5 229,-842.5"/>
<text text-anchor="start" x="236" y="-853.9" font-family="Arial" font-size="14.00" fill="#000000">tag_id </text>
<text text-anchor="start" x="278.0182" y="-853.9" font-family="Arial" font-size="14.00" fill="#666666">[uuid]</text>
<polygon fill="none" stroke="#000000" points="229,-812.5 229,-842.5 502,-842.5 502,-812.5 229,-812.5"/>
<text text-anchor="start" x="236" y="-823.9" font-family="Arial" font-size="14.00" fill="#000000">created_at </text>
<text text-anchor="start" x="306.028" y="-823.9" font-family="Arial" font-size="14.00" fill="#666666">[timestamp without time zone]</text>
<polygon fill="none" stroke="#000000" points="229,-782.5 229,-812.5 502,-812.5 502,-782.5 229,-782.5"/>
<text text-anchor="start" x="235.9636" y="-793.9" font-family="Arial" font-size="14.00" fill="#000000">updated_at </text>
<text text-anchor="start" x="309.8962" y="-793.9" font-family="Arial" font-size="14.00" fill="#666666">[timestamp without time zone]</text>
</g>
<!-- public.stories_tags&#45;&gt;public.stories -->
<g id="edge1" class="edge">
<title>public.stories_tags:story_id&#45;&gt;public.stories:id</title>
<path fill="none" stroke="#000000" d="M512.1242,-886.6905C562.8229,-877.8149 523.9214,-797.8268 502,-740 481.7994,-686.7127 437.2006,-697.2873 417,-644 401.7971,-603.896 374.1111,-547.5 417,-547.5"/>
<polygon fill="#000000" stroke="#000000" points="511.9682,-886.7029 501.6413,-883.0143 506.9841,-887.1015 502,-887.5 502,-887.5 502,-887.5 506.9841,-887.1015 502.3587,-891.9857 511.9682,-886.7029 511.9682,-886.7029"/>
<text text-anchor="start" x="154.4445" y="-897.5" font-family="Arial" font-size="10.00" fill="#000000">FOREIGN KEY (story_id) REFERENCES stories(id) ON DELETE CASCADE</text>
</g>
<!-- public.scenarios -->
<g id="node3" class="node">
<title>public.scenarios</title>
<polygon fill="#efefef" stroke="transparent" points="606,-992.5 606,-1027.5 879,-1027.5 879,-992.5 606,-992.5"/>
<polygon fill="none" stroke="#000000" points="606,-992.5 606,-1027.5 879,-1027.5 879,-992.5 606,-992.5"/>
<text text-anchor="start" x="629.3629" y="-1005.3" font-family="Arial Bold" font-size="18.00" fill="#000000">public.scenarios</text>
<text text-anchor="start" x="758.3833" y="-1005.3" font-family="Arial" font-size="14.00" fill="#000000"> </text>
<text text-anchor="start" x="762.2739" y="-1005.3" font-family="Arial" font-size="14.00" fill="#666666">[BASE TABLE]</text>
<polygon fill="none" stroke="#000000" points="606,-962.5 606,-992.5 879,-992.5 879,-962.5 606,-962.5"/>
<text text-anchor="start" x="613" y="-973.9" font-family="Arial" font-size="14.00" fill="#000000">id </text>
<text text-anchor="start" x="627.7798" y="-973.9" font-family="Arial" font-size="14.00" fill="#666666">[uuid]</text>
<polygon fill="none" stroke="#000000" points="606,-932.5 606,-962.5 879,-962.5 879,-932.5 606,-932.5"/>
<text text-anchor="start" x="613" y="-943.9" font-family="Arial" font-size="14.00" fill="#000000">story_id </text>
<text text-anchor="start" x="665.8962" y="-943.9" font-family="Arial" font-size="14.00" fill="#666666">[uuid]</text>
<polygon fill="none" stroke="#000000" points="606,-902.5 606,-932.5 879,-932.5 879,-902.5 606,-902.5"/>
<text text-anchor="start" x="613" y="-913.9" font-family="Arial" font-size="14.00" fill="#000000">role_id </text>
<text text-anchor="start" x="658.8948" y="-913.9" font-family="Arial" font-size="14.00" fill="#666666">[uuid]</text>
<polygon fill="none" stroke="#000000" points="606,-872.5 606,-902.5 879,-902.5 879,-872.5 606,-872.5"/>
<text text-anchor="start" x="613" y="-883.9" font-family="Arial" font-size="14.00" fill="#000000">overview </text>
<text text-anchor="start" x="672.1122" y="-883.9" font-family="Arial" font-size="14.00" fill="#666666">[text]</text>
<polygon fill="none" stroke="#000000" points="606,-842.5 606,-872.5 879,-872.5 879,-842.5 606,-842.5"/>
<text text-anchor="start" x="613" y="-853.9" font-family="Arial" font-size="14.00" fill="#000000">description </text>
<text text-anchor="start" x="684.568" y="-853.9" font-family="Arial" font-size="14.00" fill="#666666">[text]</text>
<polygon fill="none" stroke="#000000" points="606,-812.5 606,-842.5 879,-842.5 879,-812.5 606,-812.5"/>
<text text-anchor="start" x="613" y="-823.9" font-family="Arial" font-size="14.00" fill="#000000">highest_score </text>
<text text-anchor="start" x="704.0266" y="-823.9" font-family="Arial" font-size="14.00" fill="#666666">[integer]</text>
<polygon fill="none" stroke="#000000" points="606,-782.5 606,-812.5 879,-812.5 879,-782.5 606,-782.5"/>
<text text-anchor="start" x="613" y="-793.9" font-family="Arial" font-size="14.00" fill="#000000">result_message </text>
<text text-anchor="start" x="715.6872" y="-793.9" font-family="Arial" font-size="14.00" fill="#666666">[text]</text>
<polygon fill="none" stroke="#000000" points="606,-752.5 606,-782.5 879,-782.5 879,-752.5 606,-752.5"/>
<text text-anchor="start" x="613" y="-763.9" font-family="Arial" font-size="14.00" fill="#000000">created_at </text>
<text text-anchor="start" x="683.028" y="-763.9" font-family="Arial" font-size="14.00" fill="#666666">[timestamp without time zone]</text>
<polygon fill="none" stroke="#000000" points="606,-722.5 606,-752.5 879,-752.5 879,-722.5 606,-722.5"/>
<text text-anchor="start" x="612.9636" y="-733.9" font-family="Arial" font-size="14.00" fill="#000000">updated_at </text>
<text text-anchor="start" x="686.8962" y="-733.9" font-family="Arial" font-size="14.00" fill="#666666">[timestamp without time zone]</text>
</g>
<!-- public.scenarios&#45;&gt;public.stories -->
<g id="edge2" class="edge">
<title>public.scenarios:story_id&#45;&gt;public.stories:id</title>
<path fill="none" stroke="#000000" d="M596.1323,-945.1896C549.8133,-921.7337 575.2577,-726.6219 606,-680 628.3595,-646.0909 667.6405,-677.9091 690,-644 713.6099,-608.1946 732.8889,-547.5 690,-547.5"/>
<polygon fill="#000000" stroke="#000000" points="596.2633,-945.2202 604.9741,-951.8815 601.1317,-946.3601 606,-947.5 606,-947.5 606,-947.5 601.1317,-946.3601 607.0259,-943.1185 596.2633,-945.2202 596.2633,-945.2202"/>
<text text-anchor="start" x="613.4445" y="-957.5" font-family="Arial" font-size="10.00" fill="#000000">FOREIGN KEY (story_id) REFERENCES stories(id) ON DELETE CASCADE</text>
</g>
</g>
</svg>
