<?xml version="1.0" encoding="UTF-8" standalone="no"?>
<!DOCTYPE svg PUBLIC "-//W3C//DTD SVG 1.1//EN"
 "http://www.w3.org/Graphics/SVG/1.1/DTD/svg11.dtd">
<!-- Generated by graphviz version 2.40.1 (20161225.0304)
 -->
<!-- Title: public.quizzes Pages: 1 -->
<svg width="824pt" height="682pt"
 viewBox="0.00 0.00 824.00 682.00" xmlns="http://www.w3.org/2000/svg" xmlns:xlink="http://www.w3.org/1999/xlink">
<g id="graph0" class="graph" transform="scale(1 1) rotate(0) translate(4 678)">
<title>public.quizzes</title>
<polygon fill="#ffffff" stroke="transparent" points="-4,4 -4,-678 820,-678 820,4 -4,4"/>
<!-- public.quizzes -->
<g id="node1" class="node">
<title>public.quizzes</title>
<polygon fill="#efefef" stroke="transparent" points="278,-195.5 278,-230.5 551,-230.5 551,-195.5 278,-195.5"/>
<polygon fill="none" stroke="#000000" points="278,-195.5 278,-230.5 551,-230.5 551,-195.5 278,-195.5"/>
<text text-anchor="start" x="309.3621" y="-208.3" font-family="Arial Bold" font-size="18.00" fill="#000000">public.quizzes</text>
<text text-anchor="start" x="422.3841" y="-208.3" font-family="Arial" font-size="14.00" fill="#000000"> </text>
<text text-anchor="start" x="426.2747" y="-208.3" font-family="Arial" font-size="14.00" fill="#666666">[BASE TABLE]</text>
<polygon fill="none" stroke="#000000" points="278,-165.5 278,-195.5 551,-195.5 551,-165.5 278,-165.5"/>
<text text-anchor="start" x="285" y="-176.9" font-family="Arial" font-size="14.00" fill="#000000">id </text>
<text text-anchor="start" x="299.7798" y="-176.9" font-family="Arial" font-size="14.00" fill="#666666">[uuid]</text>
<polygon fill="none" stroke="#000000" points="278,-135.5 278,-165.5 551,-165.5 551,-135.5 278,-135.5"/>
<text text-anchor="start" x="285" y="-146.9" font-family="Arial" font-size="14.00" fill="#000000">question </text>
<text text-anchor="start" x="341.8008" y="-146.9" font-family="Arial" font-size="14.00" fill="#666666">[text]</text>
<polygon fill="none" stroke="#000000" points="278,-105.5 278,-135.5 551,-135.5 551,-105.5 278,-105.5"/>
<text text-anchor="start" x="285" y="-116.9" font-family="Arial" font-size="14.00" fill="#000000">failure_message </text>
<text text-anchor="start" x="391.5764" y="-116.9" font-family="Arial" font-size="14.00" fill="#666666">[text]</text>
<polygon fill="none" stroke="#000000" points="278,-75.5 278,-105.5 551,-105.5 551,-75.5 278,-75.5"/>
<text text-anchor="start" x="285" y="-86.9" font-family="Arial" font-size="14.00" fill="#000000">created_at </text>
<text text-anchor="start" x="355.028" y="-86.9" font-family="Arial" font-size="14.00" fill="#666666">[timestamp without time zone]</text>
<polygon fill="none" stroke="#000000" points="278,-45.5 278,-75.5 551,-75.5 551,-45.5 278,-45.5"/>
<text text-anchor="start" x="284.9636" y="-56.9" font-family="Arial" font-size="14.00" fill="#000000">updated_at </text>
<text text-anchor="start" x="358.8962" y="-56.9" font-family="Arial" font-size="14.00" fill="#666666">[timestamp without time zone]</text>
<polygon fill="none" stroke="#000000" stroke-width="3" points="276,-44.5 276,-232.5 552,-232.5 552,-44.5 276,-44.5"/>
</g>
<!-- public.quiz_options -->
<g id="node2" class="node">
<title>public.quiz_options</title>
<polygon fill="#efefef" stroke="transparent" points="83,-550.5 83,-585.5 356,-585.5 356,-550.5 83,-550.5"/>
<polygon fill="none" stroke="#000000" points="83,-550.5 83,-585.5 356,-585.5 356,-550.5 83,-550.5"/>
<text text-anchor="start" x="94.3515" y="-563.3" font-family="Arial Bold" font-size="18.00" fill="#000000">public.quiz_options</text>
<text text-anchor="start" x="247.3947" y="-563.3" font-family="Arial" font-size="14.00" fill="#000000"> </text>
<text text-anchor="start" x="251.2853" y="-563.3" font-family="Arial" font-size="14.00" fill="#666666">[BASE TABLE]</text>
<polygon fill="none" stroke="#000000" points="83,-520.5 83,-550.5 356,-550.5 356,-520.5 83,-520.5"/>
<text text-anchor="start" x="90" y="-531.9" font-family="Arial" font-size="14.00" fill="#000000">id </text>
<text text-anchor="start" x="104.7798" y="-531.9" font-family="Arial" font-size="14.00" fill="#666666">[uuid]</text>
<polygon fill="none" stroke="#000000" points="83,-490.5 83,-520.5 356,-520.5 356,-490.5 83,-490.5"/>
<text text-anchor="start" x="90" y="-501.9" font-family="Arial" font-size="14.00" fill="#000000">quiz_id </text>
<text text-anchor="start" x="138.2342" y="-501.9" font-family="Arial" font-size="14.00" fill="#666666">[uuid]</text>
<polygon fill="none" stroke="#000000" points="83,-460.5 83,-490.5 356,-490.5 356,-460.5 83,-460.5"/>
<text text-anchor="start" x="90" y="-471.9" font-family="Arial" font-size="14.00" fill="#000000">answer </text>
<text text-anchor="start" x="139.0056" y="-471.9" font-family="Arial" font-size="14.00" fill="#666666">[varchar(255)]</text>
<polygon fill="none" stroke="#000000" points="83,-430.5 83,-460.5 356,-460.5 356,-430.5 83,-430.5"/>
<text text-anchor="start" x="90" y="-441.9" font-family="Arial" font-size="14.00" fill="#000000">created_at </text>
<text text-anchor="start" x="160.028" y="-441.9" font-family="Arial" font-size="14.00" fill="#666666">[timestamp without time zone]</text>
<polygon fill="none" stroke="#000000" points="83,-400.5 83,-430.5 356,-430.5 356,-400.5 83,-400.5"/>
<text text-anchor="start" x="89.9636" y="-411.9" font-family="Arial" font-size="14.00" fill="#000000">updated_at </text>
<text text-anchor="start" x="163.8962" y="-411.9" font-family="Arial" font-size="14.00" fill="#666666">[timestamp without time zone]</text>
</g>
<!-- public.quiz_options&#45;&gt;public.quizzes -->
<g id="edge1" class="edge">
<title>public.quiz_options:quiz_id&#45;&gt;public.quizzes:id</title>
<path fill="none" stroke="#000000" d="M366.1358,-504.686C416.9594,-495.7615 379.1261,-415.3557 356,-358 337.3107,-311.6482 296.6893,-323.3518 278,-277 261.9616,-237.2228 235.1111,-180.5 278,-180.5"/>
<polygon fill="#000000" stroke="#000000" points="365.9679,-504.6994 355.6397,-501.0144 360.984,-505.0997 356,-505.5 356,-505.5 356,-505.5 360.984,-505.0997 356.3603,-509.9856 365.9679,-504.6994 365.9679,-504.6994"/>
<text text-anchor="start" x="6.884" y="-515.5" font-family="Arial" font-size="10.00" fill="#000000">FOREIGN KEY (quiz_id) REFERENCES quizzes(id) ON DELETE CASCADE</text>
</g>
<!-- public.scenario_quizzes -->
<g id="node3" class="node">
<title>public.scenario_quizzes</title>
<polygon fill="#efefef" stroke="transparent" points="460,-595.5 460,-630.5 762,-630.5 762,-595.5 460,-595.5"/>
<polygon fill="none" stroke="#000000" points="460,-595.5 460,-630.5 762,-630.5 762,-595.5 460,-595.5"/>
<text text-anchor="start" x="466.8534" y="-608.3" font-family="Arial Bold" font-size="18.00" fill="#000000">public.scenario_quizzes</text>
<text text-anchor="start" x="657.8928" y="-608.3" font-family="Arial" font-size="14.00" fill="#000000"> </text>
<text text-anchor="start" x="661.7834" y="-608.3" font-family="Arial" font-size="14.00" fill="#666666">[BASE TABLE]</text>
<polygon fill="none" stroke="#000000" points="460,-565.5 460,-595.5 762,-595.5 762,-565.5 460,-565.5"/>
<text text-anchor="start" x="467" y="-576.9" font-family="Arial" font-size="14.00" fill="#000000">id </text>
<text text-anchor="start" x="481.7798" y="-576.9" font-family="Arial" font-size="14.00" fill="#666666">[uuid]</text>
<polygon fill="none" stroke="#000000" points="460,-535.5 460,-565.5 762,-565.5 762,-535.5 460,-535.5"/>
<text text-anchor="start" x="467" y="-546.9" font-family="Arial" font-size="14.00" fill="#000000">scenario_id </text>
<text text-anchor="start" x="542.46" y="-546.9" font-family="Arial" font-size="14.00" fill="#666666">[uuid]</text>
<polygon fill="none" stroke="#000000" points="460,-505.5 460,-535.5 762,-535.5 762,-505.5 460,-505.5"/>
<text text-anchor="start" x="467" y="-516.9" font-family="Arial" font-size="14.00" fill="#000000">quiz_id </text>
<text text-anchor="start" x="515.2342" y="-516.9" font-family="Arial" font-size="14.00" fill="#666666">[uuid]</text>
<polygon fill="none" stroke="#000000" points="460,-475.5 460,-505.5 762,-505.5 762,-475.5 460,-475.5"/>
<text text-anchor="start" x="467" y="-486.9" font-family="Arial" font-size="14.00" fill="#000000">first </text>
<text text-anchor="start" x="493.439" y="-486.9" font-family="Arial" font-size="14.00" fill="#666666">[boolean]</text>
<polygon fill="none" stroke="#000000" points="460,-445.5 460,-475.5 762,-475.5 762,-445.5 460,-445.5"/>
<text text-anchor="start" x="467" y="-456.9" font-family="Arial" font-size="14.00" fill="#000000">question </text>
<text text-anchor="start" x="523.8008" y="-456.9" font-family="Arial" font-size="14.00" fill="#666666">[text]</text>
<polygon fill="none" stroke="#000000" points="460,-415.5 460,-445.5 762,-445.5 762,-415.5 460,-415.5"/>
<text text-anchor="start" x="467" y="-426.9" font-family="Arial" font-size="14.00" fill="#000000">failure_message </text>
<text text-anchor="start" x="573.5764" y="-426.9" font-family="Arial" font-size="14.00" fill="#666666">[text]</text>
<polygon fill="none" stroke="#000000" points="460,-385.5 460,-415.5 762,-415.5 762,-385.5 460,-385.5"/>
<text text-anchor="start" x="467" y="-396.9" font-family="Arial" font-size="14.00" fill="#000000">created_at </text>
<text text-anchor="start" x="537.028" y="-396.9" font-family="Arial" font-size="14.00" fill="#666666">[timestamp without time zone]</text>
<polygon fill="none" stroke="#000000" points="460,-355.5 460,-385.5 762,-385.5 762,-355.5 460,-355.5"/>
<text text-anchor="start" x="467" y="-366.9" font-family="Arial" font-size="14.00" fill="#000000">updated_at </text>
<text text-anchor="start" x="540.9326" y="-366.9" font-family="Arial" font-size="14.00" fill="#666666">[timestamp without time zone]</text>
</g>
<!-- public.scenario_quizzes&#45;&gt;public.quizzes -->
<g id="edge2" class="edge">
<title>public.scenario_quizzes:quiz_id&#45;&gt;public.quizzes:id</title>
<path fill="none" stroke="#000000" d="M450.3778,-517.5422C417.0782,-494.8375 436.1017,-348.1548 460,-313 484.4524,-277.0301 526.5476,-312.9699 551,-277 575.1121,-241.5308 593.8889,-180.5 551,-180.5"/>
<polygon fill="#000000" stroke="#000000" points="450.4414,-517.5616 458.6777,-524.8014 455.2207,-519.0308 460,-520.5 460,-520.5 460,-520.5 455.2207,-519.0308 461.3223,-516.1986 450.4414,-517.5616 450.4414,-517.5616"/>
<text text-anchor="start" x="466.884" y="-530.5" font-family="Arial" font-size="10.00" fill="#000000">FOREIGN KEY (quiz_id) REFERENCES quizzes(id) ON DELETE CASCADE</text>
</g>
</g>
</svg>
