<?xml version="1.0" encoding="UTF-8" standalone="no"?>
<!DOCTYPE svg PUBLIC "-//W3C//DTD SVG 1.1//EN"
 "http://www.w3.org/Graphics/SVG/1.1/DTD/svg11.dtd">
<!-- Generated by graphviz version 2.40.1 (20161225.0304)
 -->
<!-- Title: public.scenarios Pages: 1 -->
<svg width="1393pt" height="1169pt"
 viewBox="0.00 0.00 1393.00 1169.00" xmlns="http://www.w3.org/2000/svg" xmlns:xlink="http://www.w3.org/1999/xlink">
<g id="graph0" class="graph" transform="scale(1 1) rotate(0) translate(4 1165)">
<title>public.scenarios</title>
<polygon fill="#ffffff" stroke="transparent" points="-4,4 -4,-1165 1389,-1165 1389,4 -4,4"/>
<!-- public.scenarios -->
<g id="node1" class="node">
<title>public.scenarios</title>
<polygon fill="#efefef" stroke="transparent" points="529,-682.5 529,-717.5 802,-717.5 802,-682.5 529,-682.5"/>
<polygon fill="none" stroke="#000000" points="529,-682.5 529,-717.5 802,-717.5 802,-682.5 529,-682.5"/>
<text text-anchor="start" x="552.3629" y="-695.3" font-family="Arial Bold" font-size="18.00" fill="#000000">public.scenarios</text>
<text text-anchor="start" x="681.3833" y="-695.3" font-family="Arial" font-size="14.00" fill="#000000"> </text>
<text text-anchor="start" x="685.2739" y="-695.3" font-family="Arial" font-size="14.00" fill="#666666">[BASE TABLE]</text>
<polygon fill="none" stroke="#000000" points="529,-652.5 529,-682.5 802,-682.5 802,-652.5 529,-652.5"/>
<text text-anchor="start" x="536" y="-663.9" font-family="Arial" font-size="14.00" fill="#000000">id </text>
<text text-anchor="start" x="550.7798" y="-663.9" font-family="Arial" font-size="14.00" fill="#666666">[uuid]</text>
<polygon fill="none" stroke="#000000" points="529,-622.5 529,-652.5 802,-652.5 802,-622.5 529,-622.5"/>
<text text-anchor="start" x="536" y="-633.9" font-family="Arial" font-size="14.00" fill="#000000">organization_id </text>
<text text-anchor="start" x="634.805" y="-633.9" font-family="Arial" font-size="14.00" fill="#666666">[uuid]</text>
<polygon fill="none" stroke="#000000" points="529,-592.5 529,-622.5 802,-622.5 802,-592.5 529,-592.5"/>
<text text-anchor="start" x="536" y="-603.9" font-family="Arial" font-size="14.00" fill="#000000">role_id </text>
<text text-anchor="start" x="581.8948" y="-603.9" font-family="Arial" font-size="14.00" fill="#666666">[uuid]</text>
<polygon fill="none" stroke="#000000" points="529,-562.5 529,-592.5 802,-592.5 802,-562.5 529,-562.5"/>
<text text-anchor="start" x="536" y="-573.9" font-family="Arial" font-size="14.00" fill="#000000">scenario_title </text>
<text text-anchor="start" x="622.3478" y="-573.9" font-family="Arial" font-size="14.00" fill="#666666">[varchar(255)]</text>
<polygon fill="none" stroke="#000000" points="529,-532.5 529,-562.5 802,-562.5 802,-532.5 529,-532.5"/>
<text text-anchor="start" x="536" y="-543.9" font-family="Arial" font-size="14.00" fill="#000000">scenario_overview </text>
<text text-anchor="start" x="655.7924" y="-543.9" font-family="Arial" font-size="14.00" fill="#666666">[text]</text>
<polygon fill="none" stroke="#000000" points="529,-502.5 529,-532.5 802,-532.5 802,-502.5 529,-502.5"/>
<text text-anchor="start" x="536" y="-513.9" font-family="Arial" font-size="14.00" fill="#000000">scenario_description </text>
<text text-anchor="start" x="668.2482" y="-513.9" font-family="Arial" font-size="14.00" fill="#666666">[text]</text>
<polygon fill="none" stroke="#000000" points="529,-472.5 529,-502.5 802,-502.5 802,-472.5 529,-472.5"/>
<text text-anchor="start" x="536" y="-483.9" font-family="Arial" font-size="14.00" fill="#000000">total_score </text>
<text text-anchor="start" x="608.352" y="-483.9" font-family="Arial" font-size="14.00" fill="#666666">[integer]</text>
<polygon fill="none" stroke="#000000" points="529,-442.5 529,-472.5 802,-472.5 802,-442.5 529,-442.5"/>
<text text-anchor="start" x="536" y="-453.9" font-family="Arial" font-size="14.00" fill="#000000">created_at </text>
<text text-anchor="start" x="606.028" y="-453.9" font-family="Arial" font-size="14.00" fill="#666666">[timestamp without time zone]</text>
<polygon fill="none" stroke="#000000" points="529,-412.5 529,-442.5 802,-442.5 802,-412.5 529,-412.5"/>
<text text-anchor="start" x="535.9636" y="-423.9" font-family="Arial" font-size="14.00" fill="#000000">updated_at </text>
<text text-anchor="start" x="609.8962" y="-423.9" font-family="Arial" font-size="14.00" fill="#666666">[timestamp without time zone]</text>
<polygon fill="none" stroke="#000000" stroke-width="3" points="527,-411.5 527,-719.5 803,-719.5 803,-411.5 527,-411.5"/>
</g>
<!-- public.organizations -->
<g id="node5" class="node">
<title>public.organizations</title>
<polygon fill="#efefef" stroke="transparent" points="341,-252.5 341,-287.5 614,-287.5 614,-252.5 341,-252.5"/>
<polygon fill="none" stroke="#000000" points="341,-252.5 341,-287.5 614,-287.5 614,-252.5 341,-252.5"/>
<text text-anchor="start" x="349.3554" y="-265.3" font-family="Arial Bold" font-size="18.00" fill="#000000">public.organizations</text>
<text text-anchor="start" x="508.3908" y="-265.3" font-family="Arial" font-size="14.00" fill="#000000"> </text>
<text text-anchor="start" x="512.2814" y="-265.3" font-family="Arial" font-size="14.00" fill="#666666">[BASE TABLE]</text>
<polygon fill="none" stroke="#000000" points="341,-222.5 341,-252.5 614,-252.5 614,-222.5 341,-222.5"/>
<text text-anchor="start" x="348" y="-233.9" font-family="Arial" font-size="14.00" fill="#000000">id </text>
<text text-anchor="start" x="362.7798" y="-233.9" font-family="Arial" font-size="14.00" fill="#666666">[uuid]</text>
<polygon fill="none" stroke="#000000" points="341,-192.5 341,-222.5 614,-222.5 614,-192.5 341,-192.5"/>
<text text-anchor="start" x="348" y="-203.9" font-family="Arial" font-size="14.00" fill="#000000">company_id </text>
<text text-anchor="start" x="427.3534" y="-203.9" font-family="Arial" font-size="14.00" fill="#666666">[uuid]</text>
<polygon fill="none" stroke="#000000" points="341,-162.5 341,-192.5 614,-192.5 614,-162.5 341,-162.5"/>
<text text-anchor="start" x="348" y="-173.9" font-family="Arial" font-size="14.00" fill="#000000">display_id </text>
<text text-anchor="start" x="414.1234" y="-173.9" font-family="Arial" font-size="14.00" fill="#666666">[integer]</text>
<polygon fill="none" stroke="#000000" points="341,-132.5 341,-162.5 614,-162.5 614,-132.5 341,-132.5"/>
<text text-anchor="start" x="348" y="-143.9" font-family="Arial" font-size="14.00" fill="#000000">name </text>
<text text-anchor="start" x="386.899" y="-143.9" font-family="Arial" font-size="14.00" fill="#666666">[varchar(128)]</text>
<polygon fill="none" stroke="#000000" points="341,-102.5 341,-132.5 614,-132.5 614,-102.5 341,-102.5"/>
<text text-anchor="start" x="348" y="-113.9" font-family="Arial" font-size="14.00" fill="#000000">report_send_emails </text>
<text text-anchor="start" x="474.8022" y="-113.9" font-family="Arial" font-size="14.00" fill="#666666">[varchar(255)]</text>
<polygon fill="none" stroke="#000000" points="341,-72.5 341,-102.5 614,-102.5 614,-72.5 341,-72.5"/>
<text text-anchor="start" x="348" y="-83.9" font-family="Arial" font-size="14.00" fill="#000000">created_at </text>
<text text-anchor="start" x="418.028" y="-83.9" font-family="Arial" font-size="14.00" fill="#666666">[timestamp without time zone]</text>
<polygon fill="none" stroke="#000000" points="341,-42.5 341,-72.5 614,-72.5 614,-42.5 341,-42.5"/>
<text text-anchor="start" x="347.9636" y="-53.9" font-family="Arial" font-size="14.00" fill="#000000">updated_at </text>
<text text-anchor="start" x="421.8962" y="-53.9" font-family="Arial" font-size="14.00" fill="#666666">[timestamp without time zone]</text>
</g>
<!-- public.scenarios&#45;&gt;public.organizations -->
<g id="edge4" class="edge">
<title>public.scenarios:organization_id&#45;&gt;public.organizations:id</title>
<path fill="none" stroke="#000000" d="M518.8777,-637.0676C411.9425,-627.5831 464.5499,-464.2887 529,-367 551.6577,-332.7978 591.3423,-365.2022 614,-331 636.9499,-296.3566 655.5556,-237.5 614,-237.5"/>
<polygon fill="#000000" stroke="#000000" points="519.0091,-637.0731 528.8079,-641.9959 524.0046,-637.2866 529,-637.5 529,-637.5 529,-637.5 524.0046,-637.2866 529.1921,-633.0041 519.0091,-637.0731 519.0091,-637.0731"/>
<text text-anchor="start" x="119.0415" y="-647.5" font-family="Arial" font-size="10.00" fill="#000000">FOREIGN KEY (organization_id) REFERENCES organizations(id) ON DELETE CASCADE</text>
</g>
<!-- public.roles -->
<g id="node6" class="node">
<title>public.roles</title>
<polygon fill="#efefef" stroke="transparent" points="718,-222.5 718,-257.5 991,-257.5 991,-222.5 718,-222.5"/>
<polygon fill="none" stroke="#000000" points="718,-222.5 718,-257.5 991,-257.5 991,-222.5 718,-222.5"/>
<text text-anchor="start" x="760.3691" y="-235.3" font-family="Arial Bold" font-size="18.00" fill="#000000">public.roles</text>
<text text-anchor="start" x="851.3771" y="-235.3" font-family="Arial" font-size="14.00" fill="#000000"> </text>
<text text-anchor="start" x="855.2677" y="-235.3" font-family="Arial" font-size="14.00" fill="#666666">[BASE TABLE]</text>
<polygon fill="none" stroke="#000000" points="718,-192.5 718,-222.5 991,-222.5 991,-192.5 718,-192.5"/>
<text text-anchor="start" x="725" y="-203.9" font-family="Arial" font-size="14.00" fill="#000000">id </text>
<text text-anchor="start" x="739.7798" y="-203.9" font-family="Arial" font-size="14.00" fill="#666666">[uuid]</text>
<polygon fill="none" stroke="#000000" points="718,-162.5 718,-192.5 991,-192.5 991,-162.5 718,-162.5"/>
<text text-anchor="start" x="725" y="-173.9" font-family="Arial" font-size="14.00" fill="#000000">organization_id </text>
<text text-anchor="start" x="823.805" y="-173.9" font-family="Arial" font-size="14.00" fill="#666666">[uuid]</text>
<polygon fill="none" stroke="#000000" points="718,-132.5 718,-162.5 991,-162.5 991,-132.5 718,-132.5"/>
<text text-anchor="start" x="725" y="-143.9" font-family="Arial" font-size="14.00" fill="#000000">name </text>
<text text-anchor="start" x="763.899" y="-143.9" font-family="Arial" font-size="14.00" fill="#666666">[varchar(128)]</text>
<polygon fill="none" stroke="#000000" points="718,-102.5 718,-132.5 991,-132.5 991,-102.5 718,-102.5"/>
<text text-anchor="start" x="725" y="-113.9" font-family="Arial" font-size="14.00" fill="#000000">created_at </text>
<text text-anchor="start" x="795.028" y="-113.9" font-family="Arial" font-size="14.00" fill="#666666">[timestamp without time zone]</text>
<polygon fill="none" stroke="#000000" points="718,-72.5 718,-102.5 991,-102.5 991,-72.5 718,-72.5"/>
<text text-anchor="start" x="724.9636" y="-83.9" font-family="Arial" font-size="14.00" fill="#000000">updated_at </text>
<text text-anchor="start" x="798.8962" y="-83.9" font-family="Arial" font-size="14.00" fill="#666666">[timestamp without time zone]</text>
</g>
<!-- public.scenarios&#45;&gt;public.roles -->
<g id="edge5" class="edge">
<title>public.scenarios:role_id&#45;&gt;public.roles:id</title>
<path fill="none" stroke="#000000" d="M812.1012,-607.0296C904.9085,-597.9665 847.1737,-459.9433 802,-367 781.2453,-324.298 738.7547,-343.702 718,-301 699.8345,-263.6252 676.4444,-207.5 718,-207.5"/>
<polygon fill="#000000" stroke="#000000" points="811.9892,-607.0347 801.7906,-603.0049 806.9946,-607.2674 802,-607.5 802,-607.5 802,-607.5 806.9946,-607.2674 802.2094,-611.9951 811.9892,-607.0347 811.9892,-607.0347"/>
<text text-anchor="start" x="808.8345" y="-617.5" font-family="Arial" font-size="10.00" fill="#000000">FOREIGN KEY (role_id) REFERENCES roles(id) ON DELETE CASCADE</text>
</g>
<!-- public.scenario_quizzes -->
<g id="node2" class="node">
<title>public.scenario_quizzes</title>
<polygon fill="#efefef" stroke="transparent" points="82,-1067.5 82,-1102.5 384,-1102.5 384,-1067.5 82,-1067.5"/>
<polygon fill="none" stroke="#000000" points="82,-1067.5 82,-1102.5 384,-1102.5 384,-1067.5 82,-1067.5"/>
<text text-anchor="start" x="88.8534" y="-1080.3" font-family="Arial Bold" font-size="18.00" fill="#000000">public.scenario_quizzes</text>
<text text-anchor="start" x="279.8928" y="-1080.3" font-family="Arial" font-size="14.00" fill="#000000"> </text>
<text text-anchor="start" x="283.7834" y="-1080.3" font-family="Arial" font-size="14.00" fill="#666666">[BASE TABLE]</text>
<polygon fill="none" stroke="#000000" points="82,-1037.5 82,-1067.5 384,-1067.5 384,-1037.5 82,-1037.5"/>
<text text-anchor="start" x="89" y="-1048.9" font-family="Arial" font-size="14.00" fill="#000000">id </text>
<text text-anchor="start" x="103.7798" y="-1048.9" font-family="Arial" font-size="14.00" fill="#666666">[uuid]</text>
<polygon fill="none" stroke="#000000" points="82,-1007.5 82,-1037.5 384,-1037.5 384,-1007.5 82,-1007.5"/>
<text text-anchor="start" x="89" y="-1018.9" font-family="Arial" font-size="14.00" fill="#000000">scenario_id </text>
<text text-anchor="start" x="164.46" y="-1018.9" font-family="Arial" font-size="14.00" fill="#666666">[uuid]</text>
<polygon fill="none" stroke="#000000" points="82,-977.5 82,-1007.5 384,-1007.5 384,-977.5 82,-977.5"/>
<text text-anchor="start" x="89" y="-988.9" font-family="Arial" font-size="14.00" fill="#000000">question </text>
<text text-anchor="start" x="145.8008" y="-988.9" font-family="Arial" font-size="14.00" fill="#666666">[text]</text>
<polygon fill="none" stroke="#000000" points="82,-947.5 82,-977.5 384,-977.5 384,-947.5 82,-947.5"/>
<text text-anchor="start" x="89" y="-958.9" font-family="Arial" font-size="14.00" fill="#000000">success_message </text>
<text text-anchor="start" x="208.0294" y="-958.9" font-family="Arial" font-size="14.00" fill="#666666">[text]</text>
<polygon fill="none" stroke="#000000" points="82,-917.5 82,-947.5 384,-947.5 384,-917.5 82,-917.5"/>
<text text-anchor="start" x="89" y="-928.9" font-family="Arial" font-size="14.00" fill="#000000">failure_message </text>
<text text-anchor="start" x="195.5764" y="-928.9" font-family="Arial" font-size="14.00" fill="#666666">[text]</text>
<polygon fill="none" stroke="#000000" points="82,-887.5 82,-917.5 384,-917.5 384,-887.5 82,-887.5"/>
<text text-anchor="start" x="89" y="-898.9" font-family="Arial" font-size="14.00" fill="#000000">created_at </text>
<text text-anchor="start" x="159.028" y="-898.9" font-family="Arial" font-size="14.00" fill="#666666">[timestamp without time zone]</text>
<polygon fill="none" stroke="#000000" points="82,-857.5 82,-887.5 384,-887.5 384,-857.5 82,-857.5"/>
<text text-anchor="start" x="89" y="-868.9" font-family="Arial" font-size="14.00" fill="#000000">updated_at </text>
<text text-anchor="start" x="162.9326" y="-868.9" font-family="Arial" font-size="14.00" fill="#666666">[timestamp without time zone]</text>
</g>
<!-- public.scenario_quizzes&#45;&gt;public.scenarios -->
<g id="edge1" class="edge">
<title>public.scenario_quizzes:scenario_id&#45;&gt;public.scenarios:id</title>
<path fill="none" stroke="#000000" d="M394.0108,-1022.0259C479.3164,-1013.4189 395.9757,-889.436 436,-800 465.3889,-734.3293 457.0532,-667.5 529,-667.5"/>
<polygon fill="#000000" stroke="#000000" points="393.9888,-1022.0269 383.7871,-1018.005 388.9944,-1022.2634 384,-1022.5 384,-1022.5 384,-1022.5 388.9944,-1022.2634 384.2129,-1026.995 393.9888,-1022.0269 393.9888,-1022.0269"/>
<text text-anchor="start" x="6.7165" y="-1032.5" font-family="Arial" font-size="10.00" fill="#000000">FOREIGN KEY (scenario_id) REFERENCES scenarios(id) ON DELETE CASCADE</text>
</g>
<!-- public.user_scenario_histories -->
<g id="node3" class="node">
<title>public.user_scenario_histories</title>
<polygon fill="#efefef" stroke="transparent" points="489,-1052.5 489,-1087.5 842,-1087.5 842,-1052.5 489,-1052.5"/>
<polygon fill="none" stroke="#000000" points="489,-1052.5 489,-1087.5 842,-1087.5 842,-1052.5 489,-1052.5"/>
<text text-anchor="start" x="495.8537" y="-1065.3" font-family="Arial Bold" font-size="18.00" fill="#000000">public.user_scenario_histories</text>
<text text-anchor="start" x="737.8925" y="-1065.3" font-family="Arial" font-size="14.00" fill="#000000"> </text>
<text text-anchor="start" x="741.7831" y="-1065.3" font-family="Arial" font-size="14.00" fill="#666666">[BASE TABLE]</text>
<polygon fill="none" stroke="#000000" points="489,-1022.5 489,-1052.5 842,-1052.5 842,-1022.5 489,-1022.5"/>
<text text-anchor="start" x="496" y="-1033.9" font-family="Arial" font-size="14.00" fill="#000000">id </text>
<text text-anchor="start" x="510.7798" y="-1033.9" font-family="Arial" font-size="14.00" fill="#666666">[uuid]</text>
<polygon fill="none" stroke="#000000" points="489,-992.5 489,-1022.5 842,-1022.5 842,-992.5 489,-992.5"/>
<text text-anchor="start" x="496" y="-1003.9" font-family="Arial" font-size="14.00" fill="#000000">user_id </text>
<text text-anchor="start" x="545.7882" y="-1003.9" font-family="Arial" font-size="14.00" fill="#666666">[uuid]</text>
<polygon fill="none" stroke="#000000" points="489,-962.5 489,-992.5 842,-992.5 842,-962.5 489,-962.5"/>
<text text-anchor="start" x="496" y="-973.9" font-family="Arial" font-size="14.00" fill="#000000">scenario_id </text>
<text text-anchor="start" x="571.46" y="-973.9" font-family="Arial" font-size="14.00" fill="#666666">[uuid]</text>
<polygon fill="none" stroke="#000000" points="489,-932.5 489,-962.5 842,-962.5 842,-932.5 489,-932.5"/>
<text text-anchor="start" x="496" y="-943.9" font-family="Arial" font-size="14.00" fill="#000000">total_score </text>
<text text-anchor="start" x="568.352" y="-943.9" font-family="Arial" font-size="14.00" fill="#666666">[integer]</text>
<polygon fill="none" stroke="#000000" points="489,-902.5 489,-932.5 842,-932.5 842,-902.5 489,-902.5"/>
<text text-anchor="start" x="496" y="-913.9" font-family="Arial" font-size="14.00" fill="#000000">created_at </text>
<text text-anchor="start" x="566.028" y="-913.9" font-family="Arial" font-size="14.00" fill="#666666">[timestamp without time zone]</text>
<polygon fill="none" stroke="#000000" points="489,-872.5 489,-902.5 842,-902.5 842,-872.5 489,-872.5"/>
<text text-anchor="start" x="496" y="-883.9" font-family="Arial" font-size="14.00" fill="#000000">updated_at </text>
<text text-anchor="start" x="569.9326" y="-883.9" font-family="Arial" font-size="14.00" fill="#666666">[timestamp without time zone]</text>
</g>
<!-- public.user_scenario_histories&#45;&gt;public.scenarios -->
<g id="edge2" class="edge">
<title>public.user_scenario_histories:scenario_id&#45;&gt;public.scenarios:id</title>
<path fill="none" stroke="#000000" d="M479.2545,-975.183C423.6785,-946.815 463.0673,-667.5 529,-667.5"/>
<polygon fill="#000000" stroke="#000000" points="479.2712,-975.1869 487.9591,-981.878 484.1356,-976.3434 489,-977.5 489,-977.5 489,-977.5 484.1356,-976.3434 490.0409,-973.122 479.2712,-975.1869 479.2712,-975.1869"/>
<text text-anchor="start" x="495.7165" y="-987.5" font-family="Arial" font-size="10.00" fill="#000000">FOREIGN KEY (scenario_id) REFERENCES scenarios(id) ON DELETE CASCADE</text>
</g>
<!-- public.user_scenario_quiz_histories -->
<g id="node4" class="node">
<title>public.user_scenario_quiz_histories</title>
<polygon fill="#efefef" stroke="transparent" points="946,-1082.5 946,-1117.5 1342,-1117.5 1342,-1082.5 946,-1082.5"/>
<polygon fill="none" stroke="#000000" points="946,-1082.5 946,-1117.5 1342,-1117.5 1342,-1082.5 946,-1082.5"/>
<text text-anchor="start" x="952.8473" y="-1095.3" font-family="Arial Bold" font-size="18.00" fill="#000000">public.user_scenario_quiz_histories</text>
<text text-anchor="start" x="1237.8989" y="-1095.3" font-family="Arial" font-size="14.00" fill="#000000"> </text>
<text text-anchor="start" x="1241.7895" y="-1095.3" font-family="Arial" font-size="14.00" fill="#666666">[BASE TABLE]</text>
<polygon fill="none" stroke="#000000" points="946,-1052.5 946,-1082.5 1342,-1082.5 1342,-1052.5 946,-1052.5"/>
<text text-anchor="start" x="953" y="-1063.9" font-family="Arial" font-size="14.00" fill="#000000">id </text>
<text text-anchor="start" x="967.7798" y="-1063.9" font-family="Arial" font-size="14.00" fill="#666666">[uuid]</text>
<polygon fill="none" stroke="#000000" points="946,-1022.5 946,-1052.5 1342,-1052.5 1342,-1022.5 946,-1022.5"/>
<text text-anchor="start" x="953" y="-1033.9" font-family="Arial" font-size="14.00" fill="#000000">user_scenario_history_id </text>
<text text-anchor="start" x="1112.474" y="-1033.9" font-family="Arial" font-size="14.00" fill="#666666">[uuid]</text>
<polygon fill="none" stroke="#000000" points="946,-992.5 946,-1022.5 1342,-1022.5 1342,-992.5 946,-992.5"/>
<text text-anchor="start" x="953" y="-1003.9" font-family="Arial" font-size="14.00" fill="#000000">user_id </text>
<text text-anchor="start" x="1002.7882" y="-1003.9" font-family="Arial" font-size="14.00" fill="#666666">[uuid]</text>
<polygon fill="none" stroke="#000000" points="946,-962.5 946,-992.5 1342,-992.5 1342,-962.5 946,-962.5"/>
<text text-anchor="start" x="953" y="-973.9" font-family="Arial" font-size="14.00" fill="#000000">scenario_id </text>
<text text-anchor="start" x="1028.46" y="-973.9" font-family="Arial" font-size="14.00" fill="#666666">[uuid]</text>
<polygon fill="none" stroke="#000000" points="946,-932.5 946,-962.5 1342,-962.5 1342,-932.5 946,-932.5"/>
<text text-anchor="start" x="953" y="-943.9" font-family="Arial" font-size="14.00" fill="#000000">scenario_quiz_id </text>
<text text-anchor="start" x="1061.9144" y="-943.9" font-family="Arial" font-size="14.00" fill="#666666">[uuid]</text>
<polygon fill="none" stroke="#000000" points="946,-902.5 946,-932.5 1342,-932.5 1342,-902.5 946,-902.5"/>
<text text-anchor="start" x="953" y="-913.9" font-family="Arial" font-size="14.00" fill="#000000">scenario_quiz_option_id </text>
<text text-anchor="start" x="1107.8246" y="-913.9" font-family="Arial" font-size="14.00" fill="#666666">[uuid]</text>
<polygon fill="none" stroke="#000000" points="946,-872.5 946,-902.5 1342,-902.5 1342,-872.5 946,-872.5"/>
<text text-anchor="start" x="953" y="-883.9" font-family="Arial" font-size="14.00" fill="#000000">created_at </text>
<text text-anchor="start" x="1023.028" y="-883.9" font-family="Arial" font-size="14.00" fill="#666666">[timestamp without time zone]</text>
<polygon fill="none" stroke="#000000" points="946,-842.5 946,-872.5 1342,-872.5 1342,-842.5 946,-842.5"/>
<text text-anchor="start" x="953" y="-853.9" font-family="Arial" font-size="14.00" fill="#000000">updated_at </text>
<text text-anchor="start" x="1026.9326" y="-853.9" font-family="Arial" font-size="14.00" fill="#666666">[timestamp without time zone]</text>
</g>
<!-- public.user_scenario_quiz_histories&#45;&gt;public.scenarios -->
<g id="edge3" class="edge">
<title>public.user_scenario_quiz_histories:scenario_id&#45;&gt;public.scenarios:id</title>
<path fill="none" stroke="#000000" d="M935.7943,-976.8864C869.4906,-968.2749 927.8633,-870.8334 894,-800 863.078,-735.319 873.6924,-667.5 802,-667.5"/>
<polygon fill="#000000" stroke="#000000" points="936.018,-976.8998 945.7299,-981.9919 941.009,-977.1999 946,-977.5 946,-977.5 946,-977.5 941.009,-977.1999 946.2701,-973.0081 936.018,-976.8998 936.018,-976.8998"/>
<text text-anchor="start" x="952.7165" y="-987.5" font-family="Arial" font-size="10.00" fill="#000000">FOREIGN KEY (scenario_id) REFERENCES scenarios(id) ON DELETE CASCADE</text>
</g>
</g>
</svg>
