<?xml version="1.0" encoding="UTF-8" standalone="no"?>
<!DOCTYPE svg PUBLIC "-//W3C//DTD SVG 1.1//EN"
 "http://www.w3.org/Graphics/SVG/1.1/DTD/svg11.dtd">
<!-- Generated by graphviz version 2.40.1 (20161225.0304)
 -->
<!-- Title: public.users Pages: 1 -->
<svg width="1913pt" height="832pt"
 viewBox="0.00 0.00 1913.00 832.00" xmlns="http://www.w3.org/2000/svg" xmlns:xlink="http://www.w3.org/1999/xlink">
<g id="graph0" class="graph" transform="scale(1 1) rotate(0) translate(4 828)">
<title>public.users</title>
<polygon fill="#ffffff" stroke="transparent" points="-4,4 -4,-828 1909,-828 1909,4 -4,4"/>
<!-- public.users -->
<g id="node1" class="node">
<title>public.users</title>
<polygon fill="#efefef" stroke="transparent" points="818,-345.5 818,-380.5 1091,-380.5 1091,-345.5 818,-345.5"/>
<polygon fill="none" stroke="#000000" points="818,-345.5 818,-380.5 1091,-380.5 1091,-345.5 818,-345.5"/>
<text text-anchor="start" x="857.8662" y="-358.3" font-family="Arial Bold" font-size="18.00" fill="#000000">public.users</text>
<text text-anchor="start" x="953.88" y="-358.3" font-family="Arial" font-size="14.00" fill="#000000"> </text>
<text text-anchor="start" x="957.7706" y="-358.3" font-family="Arial" font-size="14.00" fill="#666666">[BASE TABLE]</text>
<polygon fill="none" stroke="#000000" points="818,-315.5 818,-345.5 1091,-345.5 1091,-315.5 818,-315.5"/>
<text text-anchor="start" x="825" y="-326.9" font-family="Arial" font-size="14.00" fill="#000000">id </text>
<text text-anchor="start" x="839.7798" y="-326.9" font-family="Arial" font-size="14.00" fill="#666666">[uuid]</text>
<polygon fill="none" stroke="#000000" points="818,-285.5 818,-315.5 1091,-315.5 1091,-285.5 818,-285.5"/>
<text text-anchor="start" x="825" y="-296.9" font-family="Arial" font-size="14.00" fill="#000000">last_name </text>
<text text-anchor="start" x="893.4614" y="-296.9" font-family="Arial" font-size="14.00" fill="#666666">[varchar(128)]</text>
<polygon fill="none" stroke="#000000" points="818,-255.5 818,-285.5 1091,-285.5 1091,-255.5 818,-255.5"/>
<text text-anchor="start" x="825" y="-266.9" font-family="Arial" font-size="14.00" fill="#000000">first_name </text>
<text text-anchor="start" x="894.23" y="-266.9" font-family="Arial" font-size="14.00" fill="#666666">[varchar(128)]</text>
<polygon fill="none" stroke="#000000" points="818,-225.5 818,-255.5 1091,-255.5 1091,-225.5 818,-225.5"/>
<text text-anchor="start" x="825" y="-236.9" font-family="Arial" font-size="14.00" fill="#000000">last_name_kana </text>
<text text-anchor="start" x="931.5918" y="-236.9" font-family="Arial" font-size="14.00" fill="#666666">[varchar(128)]</text>
<polygon fill="none" stroke="#000000" points="818,-195.5 818,-225.5 1091,-225.5 1091,-195.5 818,-195.5"/>
<text text-anchor="start" x="825" y="-206.9" font-family="Arial" font-size="14.00" fill="#000000">first_name_kana </text>
<text text-anchor="start" x="932.3604" y="-206.9" font-family="Arial" font-size="14.00" fill="#666666">[varchar(128)]</text>
<polygon fill="none" stroke="#000000" points="818,-165.5 818,-195.5 1091,-195.5 1091,-165.5 818,-165.5"/>
<text text-anchor="start" x="825" y="-176.9" font-family="Arial" font-size="14.00" fill="#000000">nickname </text>
<text text-anchor="start" x="888.7882" y="-176.9" font-family="Arial" font-size="14.00" fill="#666666">[varchar(20)]</text>
<polygon fill="none" stroke="#000000" points="818,-135.5 818,-165.5 1091,-165.5 1091,-135.5 818,-135.5"/>
<text text-anchor="start" x="825" y="-146.9" font-family="Arial" font-size="14.00" fill="#000000">email </text>
<text text-anchor="start" x="862.3296" y="-146.9" font-family="Arial" font-size="14.00" fill="#666666">[varchar(255)]</text>
<polygon fill="none" stroke="#000000" points="818,-105.5 818,-135.5 1091,-135.5 1091,-105.5 818,-105.5"/>
<text text-anchor="start" x="825" y="-116.9" font-family="Arial" font-size="14.00" fill="#000000">password_hash </text>
<text text-anchor="start" x="926.9186" y="-116.9" font-family="Arial" font-size="14.00" fill="#666666">[text]</text>
<polygon fill="none" stroke="#000000" points="818,-75.5 818,-105.5 1091,-105.5 1091,-75.5 818,-75.5"/>
<text text-anchor="start" x="825" y="-86.9" font-family="Arial" font-size="14.00" fill="#000000">created_at </text>
<text text-anchor="start" x="895.028" y="-86.9" font-family="Arial" font-size="14.00" fill="#666666">[timestamp without time zone]</text>
<polygon fill="none" stroke="#000000" points="818,-45.5 818,-75.5 1091,-75.5 1091,-45.5 818,-45.5"/>
<text text-anchor="start" x="824.9636" y="-56.9" font-family="Arial" font-size="14.00" fill="#000000">updated_at </text>
<text text-anchor="start" x="898.8962" y="-56.9" font-family="Arial" font-size="14.00" fill="#666666">[timestamp without time zone]</text>
<polygon fill="none" stroke="#000000" stroke-width="3" points="816,-44.5 816,-382.5 1092,-382.5 1092,-44.5 816,-44.5"/>
</g>
<!-- public.user_organization_belonging -->
<g id="node2" class="node">
<title>public.user_organization_belonging</title>
<polygon fill="#efefef" stroke="transparent" points="43,-685.5 43,-720.5 437,-720.5 437,-685.5 43,-685.5"/>
<polygon fill="none" stroke="#000000" points="43,-685.5 43,-720.5 437,-720.5 437,-685.5 43,-685.5"/>
<text text-anchor="start" x="49.831" y="-698.3" font-family="Arial Bold" font-size="18.00" fill="#000000">public.user_organization_belonging</text>
<text text-anchor="start" x="332.9152" y="-698.3" font-family="Arial" font-size="14.00" fill="#000000"> </text>
<text text-anchor="start" x="336.8058" y="-698.3" font-family="Arial" font-size="14.00" fill="#666666">[BASE TABLE]</text>
<polygon fill="none" stroke="#000000" points="43,-655.5 43,-685.5 437,-685.5 437,-655.5 43,-655.5"/>
<text text-anchor="start" x="50" y="-666.9" font-family="Arial" font-size="14.00" fill="#000000">user_id </text>
<text text-anchor="start" x="99.7882" y="-666.9" font-family="Arial" font-size="14.00" fill="#666666">[uuid]</text>
<polygon fill="none" stroke="#000000" points="43,-625.5 43,-655.5 437,-655.5 437,-625.5 43,-625.5"/>
<text text-anchor="start" x="50" y="-636.9" font-family="Arial" font-size="14.00" fill="#000000">organization_id </text>
<text text-anchor="start" x="148.805" y="-636.9" font-family="Arial" font-size="14.00" fill="#666666">[uuid]</text>
<polygon fill="none" stroke="#000000" points="43,-595.5 43,-625.5 437,-625.5 437,-595.5 43,-595.5"/>
<text text-anchor="start" x="50" y="-606.9" font-family="Arial" font-size="14.00" fill="#000000">created_at </text>
<text text-anchor="start" x="120.028" y="-606.9" font-family="Arial" font-size="14.00" fill="#666666">[timestamp without time zone]</text>
<polygon fill="none" stroke="#000000" points="43,-565.5 43,-595.5 437,-595.5 437,-565.5 43,-565.5"/>
<text text-anchor="start" x="50" y="-576.9" font-family="Arial" font-size="14.00" fill="#000000">updated_at </text>
<text text-anchor="start" x="123.9326" y="-576.9" font-family="Arial" font-size="14.00" fill="#666666">[timestamp without time zone]</text>
</g>
<!-- public.user_organization_belonging&#45;&gt;public.users -->
<g id="edge1" class="edge">
<title>public.user_organization_belonging:user_id&#45;&gt;public.users:id</title>
<path fill="none" stroke="#000000" d="M447.2452,-669.8902C524.0857,-659.987 428.9828,-531.8811 489,-463 592.5553,-344.1507 660.3649,-330.5 818,-330.5"/>
<polygon fill="#000000" stroke="#000000" points="446.9823,-669.9057 436.7326,-666.008 441.9912,-670.2029 437,-670.5 437,-670.5 437,-670.5 441.9912,-670.2029 437.2674,-674.992 446.9823,-669.9057 446.9823,-669.9057"/>
<text text-anchor="start" x="270.5535" y="-654.5" font-family="Arial" font-size="10.00" fill="#000000">FOREIGN KEY (user_id) REFERENCES users(id) ON DELETE CASCADE</text>
</g>
<!-- public.user_authentication_logs -->
<g id="node3" class="node">
<title>public.user_authentication_logs</title>
<polygon fill="#efefef" stroke="transparent" points="542,-685.5 542,-720.5 905,-720.5 905,-685.5 542,-685.5"/>
<polygon fill="none" stroke="#000000" points="542,-685.5 542,-720.5 905,-720.5 905,-685.5 542,-685.5"/>
<text text-anchor="start" x="548.8344" y="-698.3" font-family="Arial Bold" font-size="18.00" fill="#000000">public.user_authentication_logs</text>
<text text-anchor="start" x="800.9118" y="-698.3" font-family="Arial" font-size="14.00" fill="#000000"> </text>
<text text-anchor="start" x="804.8024" y="-698.3" font-family="Arial" font-size="14.00" fill="#666666">[BASE TABLE]</text>
<polygon fill="none" stroke="#000000" points="542,-655.5 542,-685.5 905,-685.5 905,-655.5 542,-655.5"/>
<text text-anchor="start" x="549" y="-666.9" font-family="Arial" font-size="14.00" fill="#000000">id </text>
<text text-anchor="start" x="563.7798" y="-666.9" font-family="Arial" font-size="14.00" fill="#666666">[uuid]</text>
<polygon fill="none" stroke="#000000" points="542,-625.5 542,-655.5 905,-655.5 905,-625.5 542,-625.5"/>
<text text-anchor="start" x="549" y="-636.9" font-family="Arial" font-size="14.00" fill="#000000">user_id </text>
<text text-anchor="start" x="598.7882" y="-636.9" font-family="Arial" font-size="14.00" fill="#666666">[uuid]</text>
<polygon fill="none" stroke="#000000" points="542,-595.5 542,-625.5 905,-625.5 905,-595.5 542,-595.5"/>
<text text-anchor="start" x="549" y="-606.9" font-family="Arial" font-size="14.00" fill="#000000">created_at </text>
<text text-anchor="start" x="619.028" y="-606.9" font-family="Arial" font-size="14.00" fill="#666666">[timestamp without time zone]</text>
<polygon fill="none" stroke="#000000" points="542,-565.5 542,-595.5 905,-595.5 905,-565.5 542,-565.5"/>
<text text-anchor="start" x="549" y="-576.9" font-family="Arial" font-size="14.00" fill="#000000">updated_at </text>
<text text-anchor="start" x="622.9326" y="-576.9" font-family="Arial" font-size="14.00" fill="#666666">[timestamp without time zone]</text>
</g>
<!-- public.user_authentication_logs&#45;&gt;public.users -->
<g id="edge2" class="edge">
<title>public.user_authentication_logs:user_id&#45;&gt;public.users:id</title>
<path fill="none" stroke="#000000" d="M915.2532,-639.3998C952.3407,-630.4014 922.3984,-568.1073 905,-523 884.2784,-469.2769 838.7216,-480.7231 818,-427 802.5656,-386.9846 775.1111,-330.5 818,-330.5"/>
<polygon fill="#000000" stroke="#000000" points="914.9429,-639.433 904.5198,-636.0257 909.9715,-639.9665 905,-640.5 905,-640.5 905,-640.5 909.9715,-639.9665 905.4802,-644.9743 914.9429,-639.433 914.9429,-639.433"/>
<text text-anchor="start" x="912.0535" y="-650.5" font-family="Arial" font-size="10.00" fill="#000000">FOREIGN KEY (user_id) REFERENCES users(id) ON DELETE CASCADE</text>
</g>
<!-- public.user_scenario_histories -->
<g id="node4" class="node">
<title>public.user_scenario_histories</title>
<polygon fill="#efefef" stroke="transparent" points="1009,-715.5 1009,-750.5 1362,-750.5 1362,-715.5 1009,-715.5"/>
<polygon fill="none" stroke="#000000" points="1009,-715.5 1009,-750.5 1362,-750.5 1362,-715.5 1009,-715.5"/>
<text text-anchor="start" x="1015.8537" y="-728.3" font-family="Arial Bold" font-size="18.00" fill="#000000">public.user_scenario_histories</text>
<text text-anchor="start" x="1257.8925" y="-728.3" font-family="Arial" font-size="14.00" fill="#000000"> </text>
<text text-anchor="start" x="1261.7831" y="-728.3" font-family="Arial" font-size="14.00" fill="#666666">[BASE TABLE]</text>
<polygon fill="none" stroke="#000000" points="1009,-685.5 1009,-715.5 1362,-715.5 1362,-685.5 1009,-685.5"/>
<text text-anchor="start" x="1016" y="-696.9" font-family="Arial" font-size="14.00" fill="#000000">id </text>
<text text-anchor="start" x="1030.7798" y="-696.9" font-family="Arial" font-size="14.00" fill="#666666">[uuid]</text>
<polygon fill="none" stroke="#000000" points="1009,-655.5 1009,-685.5 1362,-685.5 1362,-655.5 1009,-655.5"/>
<text text-anchor="start" x="1016" y="-666.9" font-family="Arial" font-size="14.00" fill="#000000">user_id </text>
<text text-anchor="start" x="1065.7882" y="-666.9" font-family="Arial" font-size="14.00" fill="#666666">[uuid]</text>
<polygon fill="none" stroke="#000000" points="1009,-625.5 1009,-655.5 1362,-655.5 1362,-625.5 1009,-625.5"/>
<text text-anchor="start" x="1016" y="-636.9" font-family="Arial" font-size="14.00" fill="#000000">scenario_id </text>
<text text-anchor="start" x="1091.46" y="-636.9" font-family="Arial" font-size="14.00" fill="#666666">[uuid]</text>
<polygon fill="none" stroke="#000000" points="1009,-595.5 1009,-625.5 1362,-625.5 1362,-595.5 1009,-595.5"/>
<text text-anchor="start" x="1016" y="-606.9" font-family="Arial" font-size="14.00" fill="#000000">total_score </text>
<text text-anchor="start" x="1088.352" y="-606.9" font-family="Arial" font-size="14.00" fill="#666666">[integer]</text>
<polygon fill="none" stroke="#000000" points="1009,-565.5 1009,-595.5 1362,-595.5 1362,-565.5 1009,-565.5"/>
<text text-anchor="start" x="1016" y="-576.9" font-family="Arial" font-size="14.00" fill="#000000">created_at </text>
<text text-anchor="start" x="1086.028" y="-576.9" font-family="Arial" font-size="14.00" fill="#666666">[timestamp without time zone]</text>
<polygon fill="none" stroke="#000000" points="1009,-535.5 1009,-565.5 1362,-565.5 1362,-535.5 1009,-535.5"/>
<text text-anchor="start" x="1016" y="-546.9" font-family="Arial" font-size="14.00" fill="#000000">updated_at </text>
<text text-anchor="start" x="1089.9326" y="-546.9" font-family="Arial" font-size="14.00" fill="#666666">[timestamp without time zone]</text>
</g>
<!-- public.user_scenario_histories&#45;&gt;public.users -->
<g id="edge3" class="edge">
<title>public.user_scenario_histories:user_id&#45;&gt;public.users:id</title>
<path fill="none" stroke="#000000" d="M998.7079,-669.8136C934.2894,-660.6073 976.5287,-560.8181 1009,-493 1029.2033,-450.8044 1070.7967,-469.1956 1091,-427 1109.5216,-388.3166 1133.8889,-330.5 1091,-330.5"/>
<polygon fill="#000000" stroke="#000000" points="999.0222,-669.8344 1008.7005,-674.99 1004.0111,-670.1672 1009,-670.5 1009,-670.5 1009,-670.5 1004.0111,-670.1672 1009.2995,-666.01 999.0222,-669.8344 999.0222,-669.8344"/>
<text text-anchor="start" x="1016.0535" y="-680.5" font-family="Arial" font-size="10.00" fill="#000000">FOREIGN KEY (user_id) REFERENCES users(id) ON DELETE CASCADE</text>
</g>
<!-- public.user_scenario_quiz_histories -->
<g id="node5" class="node">
<title>public.user_scenario_quiz_histories</title>
<polygon fill="#efefef" stroke="transparent" points="1466,-745.5 1466,-780.5 1862,-780.5 1862,-745.5 1466,-745.5"/>
<polygon fill="none" stroke="#000000" points="1466,-745.5 1466,-780.5 1862,-780.5 1862,-745.5 1466,-745.5"/>
<text text-anchor="start" x="1472.8473" y="-758.3" font-family="Arial Bold" font-size="18.00" fill="#000000">public.user_scenario_quiz_histories</text>
<text text-anchor="start" x="1757.8989" y="-758.3" font-family="Arial" font-size="14.00" fill="#000000"> </text>
<text text-anchor="start" x="1761.7895" y="-758.3" font-family="Arial" font-size="14.00" fill="#666666">[BASE TABLE]</text>
<polygon fill="none" stroke="#000000" points="1466,-715.5 1466,-745.5 1862,-745.5 1862,-715.5 1466,-715.5"/>
<text text-anchor="start" x="1473" y="-726.9" font-family="Arial" font-size="14.00" fill="#000000">id </text>
<text text-anchor="start" x="1487.7798" y="-726.9" font-family="Arial" font-size="14.00" fill="#666666">[uuid]</text>
<polygon fill="none" stroke="#000000" points="1466,-685.5 1466,-715.5 1862,-715.5 1862,-685.5 1466,-685.5"/>
<text text-anchor="start" x="1473" y="-696.9" font-family="Arial" font-size="14.00" fill="#000000">user_scenario_history_id </text>
<text text-anchor="start" x="1632.474" y="-696.9" font-family="Arial" font-size="14.00" fill="#666666">[uuid]</text>
<polygon fill="none" stroke="#000000" points="1466,-655.5 1466,-685.5 1862,-685.5 1862,-655.5 1466,-655.5"/>
<text text-anchor="start" x="1473" y="-666.9" font-family="Arial" font-size="14.00" fill="#000000">user_id </text>
<text text-anchor="start" x="1522.7882" y="-666.9" font-family="Arial" font-size="14.00" fill="#666666">[uuid]</text>
<polygon fill="none" stroke="#000000" points="1466,-625.5 1466,-655.5 1862,-655.5 1862,-625.5 1466,-625.5"/>
<text text-anchor="start" x="1473" y="-636.9" font-family="Arial" font-size="14.00" fill="#000000">scenario_id </text>
<text text-anchor="start" x="1548.46" y="-636.9" font-family="Arial" font-size="14.00" fill="#666666">[uuid]</text>
<polygon fill="none" stroke="#000000" points="1466,-595.5 1466,-625.5 1862,-625.5 1862,-595.5 1466,-595.5"/>
<text text-anchor="start" x="1473" y="-606.9" font-family="Arial" font-size="14.00" fill="#000000">scenario_quiz_id </text>
<text text-anchor="start" x="1581.9144" y="-606.9" font-family="Arial" font-size="14.00" fill="#666666">[uuid]</text>
<polygon fill="none" stroke="#000000" points="1466,-565.5 1466,-595.5 1862,-595.5 1862,-565.5 1466,-565.5"/>
<text text-anchor="start" x="1473" y="-576.9" font-family="Arial" font-size="14.00" fill="#000000">scenario_quiz_option_id </text>
<text text-anchor="start" x="1627.8246" y="-576.9" font-family="Arial" font-size="14.00" fill="#666666">[uuid]</text>
<polygon fill="none" stroke="#000000" points="1466,-535.5 1466,-565.5 1862,-565.5 1862,-535.5 1466,-535.5"/>
<text text-anchor="start" x="1473" y="-546.9" font-family="Arial" font-size="14.00" fill="#000000">created_at </text>
<text text-anchor="start" x="1543.028" y="-546.9" font-family="Arial" font-size="14.00" fill="#666666">[timestamp without time zone]</text>
<polygon fill="none" stroke="#000000" points="1466,-505.5 1466,-535.5 1862,-535.5 1862,-505.5 1466,-505.5"/>
<text text-anchor="start" x="1473" y="-516.9" font-family="Arial" font-size="14.00" fill="#000000">updated_at </text>
<text text-anchor="start" x="1546.9326" y="-516.9" font-family="Arial" font-size="14.00" fill="#666666">[timestamp without time zone]</text>
</g>
<!-- public.user_scenario_quiz_histories&#45;&gt;public.users -->
<g id="edge4" class="edge">
<title>public.user_scenario_quiz_histories:user_id&#45;&gt;public.users:id</title>
<path fill="none" stroke="#000000" d="M1455.7538,-669.8911C1378.897,-660.002 1473.7958,-532.0734 1414,-463 1312.4437,-345.6867 1246.1647,-330.5 1091,-330.5"/>
<polygon fill="#000000" stroke="#000000" points="1456.0176,-669.9067 1465.733,-674.9921 1461.0088,-670.2033 1466,-670.5 1466,-670.5 1466,-670.5 1461.0088,-670.2033 1466.267,-666.0079 1456.0176,-669.9067 1456.0176,-669.9067"/>
<text text-anchor="start" x="1473.0535" y="-680.5" font-family="Arial" font-size="10.00" fill="#000000">FOREIGN KEY (user_id) REFERENCES users(id) ON DELETE CASCADE</text>
</g>
</g>
</svg>
