<?xml version="1.0" encoding="UTF-8" standalone="no"?>
<!DOCTYPE svg PUBLIC "-//W3C//DTD SVG 1.1//EN"
 "http://www.w3.org/Graphics/SVG/1.1/DTD/svg11.dtd">
<!-- Generated by graphviz version 2.40.1 (20161225.0304)
 -->
<!-- Title: public.organizations Pages: 1 -->
<svg width="1323pt" height="1109pt"
 viewBox="0.00 0.00 1323.00 1109.00" xmlns="http://www.w3.org/2000/svg" xmlns:xlink="http://www.w3.org/1999/xlink">
<g id="graph0" class="graph" transform="scale(1 1) rotate(0) translate(4 1105)">
<title>public.organizations</title>
<polygon fill="#ffffff" stroke="transparent" points="-4,4 -4,-1105 1319,-1105 1319,4 -4,4"/>
<!-- public.organizations -->
<g id="node1" class="node">
<title>public.organizations</title>
<polygon fill="#efefef" stroke="transparent" points="521,-532.5 521,-567.5 794,-567.5 794,-532.5 521,-532.5"/>
<polygon fill="none" stroke="#000000" points="521,-532.5 521,-567.5 794,-567.5 794,-532.5 521,-532.5"/>
<text text-anchor="start" x="529.3554" y="-545.3" font-family="Arial Bold" font-size="18.00" fill="#000000">public.organizations</text>
<text text-anchor="start" x="688.3908" y="-545.3" font-family="Arial" font-size="14.00" fill="#000000"> </text>
<text text-anchor="start" x="692.2814" y="-545.3" font-family="Arial" font-size="14.00" fill="#666666">[BASE TABLE]</text>
<polygon fill="none" stroke="#000000" points="521,-502.5 521,-532.5 794,-532.5 794,-502.5 521,-502.5"/>
<text text-anchor="start" x="528" y="-513.9" font-family="Arial" font-size="14.00" fill="#000000">id </text>
<text text-anchor="start" x="542.7798" y="-513.9" font-family="Arial" font-size="14.00" fill="#666666">[uuid]</text>
<polygon fill="none" stroke="#000000" points="521,-472.5 521,-502.5 794,-502.5 794,-472.5 521,-472.5"/>
<text text-anchor="start" x="528" y="-483.9" font-family="Arial" font-size="14.00" fill="#000000">company_id </text>
<text text-anchor="start" x="607.3534" y="-483.9" font-family="Arial" font-size="14.00" fill="#666666">[uuid]</text>
<polygon fill="none" stroke="#000000" points="521,-442.5 521,-472.5 794,-472.5 794,-442.5 521,-442.5"/>
<text text-anchor="start" x="528" y="-453.9" font-family="Arial" font-size="14.00" fill="#000000">display_id </text>
<text text-anchor="start" x="594.1234" y="-453.9" font-family="Arial" font-size="14.00" fill="#666666">[integer]</text>
<polygon fill="none" stroke="#000000" points="521,-412.5 521,-442.5 794,-442.5 794,-412.5 521,-412.5"/>
<text text-anchor="start" x="528" y="-423.9" font-family="Arial" font-size="14.00" fill="#000000">name </text>
<text text-anchor="start" x="566.899" y="-423.9" font-family="Arial" font-size="14.00" fill="#666666">[varchar(128)]</text>
<polygon fill="none" stroke="#000000" points="521,-382.5 521,-412.5 794,-412.5 794,-382.5 521,-382.5"/>
<text text-anchor="start" x="528" y="-393.9" font-family="Arial" font-size="14.00" fill="#000000">report_send_emails </text>
<text text-anchor="start" x="654.8022" y="-393.9" font-family="Arial" font-size="14.00" fill="#666666">[varchar(255)]</text>
<polygon fill="none" stroke="#000000" points="521,-352.5 521,-382.5 794,-382.5 794,-352.5 521,-352.5"/>
<text text-anchor="start" x="528" y="-363.9" font-family="Arial" font-size="14.00" fill="#000000">created_at </text>
<text text-anchor="start" x="598.028" y="-363.9" font-family="Arial" font-size="14.00" fill="#666666">[timestamp without time zone]</text>
<polygon fill="none" stroke="#000000" points="521,-322.5 521,-352.5 794,-352.5 794,-322.5 521,-322.5"/>
<text text-anchor="start" x="527.9636" y="-333.9" font-family="Arial" font-size="14.00" fill="#000000">updated_at </text>
<text text-anchor="start" x="601.8962" y="-333.9" font-family="Arial" font-size="14.00" fill="#666666">[timestamp without time zone]</text>
<polygon fill="none" stroke="#000000" stroke-width="3" points="519,-321.5 519,-569.5 795,-569.5 795,-321.5 519,-321.5"/>
</g>
<!-- public.companies -->
<g id="node5" class="node">
<title>public.companies</title>
<polygon fill="#efefef" stroke="transparent" points="521,-162.5 521,-197.5 794,-197.5 794,-162.5 521,-162.5"/>
<polygon fill="none" stroke="#000000" points="521,-162.5 521,-197.5 794,-197.5 794,-162.5 521,-162.5"/>
<text text-anchor="start" x="539.3598" y="-175.3" font-family="Arial Bold" font-size="18.00" fill="#000000">public.companies</text>
<text text-anchor="start" x="678.3864" y="-175.3" font-family="Arial" font-size="14.00" fill="#000000"> </text>
<text text-anchor="start" x="682.277" y="-175.3" font-family="Arial" font-size="14.00" fill="#666666">[BASE TABLE]</text>
<polygon fill="none" stroke="#000000" points="521,-132.5 521,-162.5 794,-162.5 794,-132.5 521,-132.5"/>
<text text-anchor="start" x="528" y="-143.9" font-family="Arial" font-size="14.00" fill="#000000">id </text>
<text text-anchor="start" x="542.7798" y="-143.9" font-family="Arial" font-size="14.00" fill="#666666">[uuid]</text>
<polygon fill="none" stroke="#000000" points="521,-102.5 521,-132.5 794,-132.5 794,-102.5 521,-102.5"/>
<text text-anchor="start" x="528" y="-113.9" font-family="Arial" font-size="14.00" fill="#000000">name </text>
<text text-anchor="start" x="566.899" y="-113.9" font-family="Arial" font-size="14.00" fill="#666666">[varchar(128)]</text>
<polygon fill="none" stroke="#000000" points="521,-72.5 521,-102.5 794,-102.5 794,-72.5 521,-72.5"/>
<text text-anchor="start" x="528" y="-83.9" font-family="Arial" font-size="14.00" fill="#000000">created_at </text>
<text text-anchor="start" x="598.028" y="-83.9" font-family="Arial" font-size="14.00" fill="#666666">[timestamp without time zone]</text>
<polygon fill="none" stroke="#000000" points="521,-42.5 521,-72.5 794,-72.5 794,-42.5 521,-42.5"/>
<text text-anchor="start" x="527.9636" y="-53.9" font-family="Arial" font-size="14.00" fill="#000000">updated_at </text>
<text text-anchor="start" x="601.8962" y="-53.9" font-family="Arial" font-size="14.00" fill="#666666">[timestamp without time zone]</text>
</g>
<!-- public.organizations&#45;&gt;public.companies -->
<g id="edge4" class="edge">
<title>public.organizations:company_id&#45;&gt;public.companies:id</title>
<path fill="none" stroke="#000000" d="M510.624,-486.9485C369.9719,-471.7493 373.4306,-147.5 521,-147.5"/>
<polygon fill="#000000" stroke="#000000" points="511.0141,-486.9691 520.7611,-491.9937 516.007,-487.2345 521,-487.5 521,-487.5 521,-487.5 516.007,-487.2345 521.2389,-483.0063 511.0141,-486.9691 511.0141,-486.9691"/>
<text text-anchor="start" x="135.5465" y="-497.5" font-family="Arial" font-size="10.00" fill="#000000">FOREIGN KEY (company_id) REFERENCES companies(id) ON DELETE CASCADE</text>
</g>
<!-- public.users -->
<g id="node2" class="node">
<title>public.users</title>
<polygon fill="#efefef" stroke="transparent" points="144,-1022.5 144,-1057.5 417,-1057.5 417,-1022.5 144,-1022.5"/>
<polygon fill="none" stroke="#000000" points="144,-1022.5 144,-1057.5 417,-1057.5 417,-1022.5 144,-1022.5"/>
<text text-anchor="start" x="183.8662" y="-1035.3" font-family="Arial Bold" font-size="18.00" fill="#000000">public.users</text>
<text text-anchor="start" x="279.88" y="-1035.3" font-family="Arial" font-size="14.00" fill="#000000"> </text>
<text text-anchor="start" x="283.7706" y="-1035.3" font-family="Arial" font-size="14.00" fill="#666666">[BASE TABLE]</text>
<polygon fill="none" stroke="#000000" points="144,-992.5 144,-1022.5 417,-1022.5 417,-992.5 144,-992.5"/>
<text text-anchor="start" x="151" y="-1003.9" font-family="Arial" font-size="14.00" fill="#000000">id </text>
<text text-anchor="start" x="165.7798" y="-1003.9" font-family="Arial" font-size="14.00" fill="#666666">[uuid]</text>
<polygon fill="none" stroke="#000000" points="144,-962.5 144,-992.5 417,-992.5 417,-962.5 144,-962.5"/>
<text text-anchor="start" x="151" y="-973.9" font-family="Arial" font-size="14.00" fill="#000000">organization_id </text>
<text text-anchor="start" x="249.805" y="-973.9" font-family="Arial" font-size="14.00" fill="#666666">[uuid]</text>
<polygon fill="none" stroke="#000000" points="144,-932.5 144,-962.5 417,-962.5 417,-932.5 144,-932.5"/>
<text text-anchor="start" x="151" y="-943.9" font-family="Arial" font-size="14.00" fill="#000000">last_name </text>
<text text-anchor="start" x="219.4614" y="-943.9" font-family="Arial" font-size="14.00" fill="#666666">[varchar(128)]</text>
<polygon fill="none" stroke="#000000" points="144,-902.5 144,-932.5 417,-932.5 417,-902.5 144,-902.5"/>
<text text-anchor="start" x="151" y="-913.9" font-family="Arial" font-size="14.00" fill="#000000">first_name </text>
<text text-anchor="start" x="220.23" y="-913.9" font-family="Arial" font-size="14.00" fill="#666666">[varchar(128)]</text>
<polygon fill="none" stroke="#000000" points="144,-872.5 144,-902.5 417,-902.5 417,-872.5 144,-872.5"/>
<text text-anchor="start" x="151" y="-883.9" font-family="Arial" font-size="14.00" fill="#000000">last_name_kana </text>
<text text-anchor="start" x="257.5918" y="-883.9" font-family="Arial" font-size="14.00" fill="#666666">[varchar(128)]</text>
<polygon fill="none" stroke="#000000" points="144,-842.5 144,-872.5 417,-872.5 417,-842.5 144,-842.5"/>
<text text-anchor="start" x="151" y="-853.9" font-family="Arial" font-size="14.00" fill="#000000">first_name_kana </text>
<text text-anchor="start" x="258.3604" y="-853.9" font-family="Arial" font-size="14.00" fill="#666666">[varchar(128)]</text>
<polygon fill="none" stroke="#000000" points="144,-812.5 144,-842.5 417,-842.5 417,-812.5 144,-812.5"/>
<text text-anchor="start" x="151" y="-823.9" font-family="Arial" font-size="14.00" fill="#000000">nickname </text>
<text text-anchor="start" x="214.7882" y="-823.9" font-family="Arial" font-size="14.00" fill="#666666">[varchar(20)]</text>
<polygon fill="none" stroke="#000000" points="144,-782.5 144,-812.5 417,-812.5 417,-782.5 144,-782.5"/>
<text text-anchor="start" x="151" y="-793.9" font-family="Arial" font-size="14.00" fill="#000000">email </text>
<text text-anchor="start" x="188.3296" y="-793.9" font-family="Arial" font-size="14.00" fill="#666666">[varchar(255)]</text>
<polygon fill="none" stroke="#000000" points="144,-752.5 144,-782.5 417,-782.5 417,-752.5 144,-752.5"/>
<text text-anchor="start" x="151" y="-763.9" font-family="Arial" font-size="14.00" fill="#000000">password_hash </text>
<text text-anchor="start" x="252.9186" y="-763.9" font-family="Arial" font-size="14.00" fill="#666666">[text]</text>
<polygon fill="none" stroke="#000000" points="144,-722.5 144,-752.5 417,-752.5 417,-722.5 144,-722.5"/>
<text text-anchor="start" x="151" y="-733.9" font-family="Arial" font-size="14.00" fill="#000000">created_at </text>
<text text-anchor="start" x="221.028" y="-733.9" font-family="Arial" font-size="14.00" fill="#666666">[timestamp without time zone]</text>
<polygon fill="none" stroke="#000000" points="144,-692.5 144,-722.5 417,-722.5 417,-692.5 144,-692.5"/>
<text text-anchor="start" x="150.9636" y="-703.9" font-family="Arial" font-size="14.00" fill="#000000">updated_at </text>
<text text-anchor="start" x="224.8962" y="-703.9" font-family="Arial" font-size="14.00" fill="#666666">[timestamp without time zone]</text>
</g>
<!-- public.users&#45;&gt;public.organizations -->
<g id="edge1" class="edge">
<title>public.users:organization_id&#45;&gt;public.organizations:id</title>
<path fill="none" stroke="#000000" d="M426.9818,-975.7171C486.6882,-952.8967 449.4824,-717.5669 468,-650 484.7644,-588.8304 457.5747,-517.5 521,-517.5"/>
<polygon fill="#000000" stroke="#000000" points="426.8442,-975.7416 416.2087,-973.0701 421.9221,-976.6208 417,-977.5 417,-977.5 417,-977.5 421.9221,-976.6208 417.7913,-981.9299 426.8442,-975.7416 426.8442,-975.7416"/>
<text text-anchor="start" x="7.0415" y="-987.5" font-family="Arial" font-size="10.00" fill="#000000">FOREIGN KEY (organization_id) REFERENCES organizations(id) ON DELETE CASCADE</text>
</g>
<!-- public.roles -->
<g id="node3" class="node">
<title>public.roles</title>
<polygon fill="#efefef" stroke="transparent" points="521,-932.5 521,-967.5 794,-967.5 794,-932.5 521,-932.5"/>
<polygon fill="none" stroke="#000000" points="521,-932.5 521,-967.5 794,-967.5 794,-932.5 521,-932.5"/>
<text text-anchor="start" x="563.3691" y="-945.3" font-family="Arial Bold" font-size="18.00" fill="#000000">public.roles</text>
<text text-anchor="start" x="654.3771" y="-945.3" font-family="Arial" font-size="14.00" fill="#000000"> </text>
<text text-anchor="start" x="658.2677" y="-945.3" font-family="Arial" font-size="14.00" fill="#666666">[BASE TABLE]</text>
<polygon fill="none" stroke="#000000" points="521,-902.5 521,-932.5 794,-932.5 794,-902.5 521,-902.5"/>
<text text-anchor="start" x="528" y="-913.9" font-family="Arial" font-size="14.00" fill="#000000">id </text>
<text text-anchor="start" x="542.7798" y="-913.9" font-family="Arial" font-size="14.00" fill="#666666">[uuid]</text>
<polygon fill="none" stroke="#000000" points="521,-872.5 521,-902.5 794,-902.5 794,-872.5 521,-872.5"/>
<text text-anchor="start" x="528" y="-883.9" font-family="Arial" font-size="14.00" fill="#000000">organization_id </text>
<text text-anchor="start" x="626.805" y="-883.9" font-family="Arial" font-size="14.00" fill="#666666">[uuid]</text>
<polygon fill="none" stroke="#000000" points="521,-842.5 521,-872.5 794,-872.5 794,-842.5 521,-842.5"/>
<text text-anchor="start" x="528" y="-853.9" font-family="Arial" font-size="14.00" fill="#000000">name </text>
<text text-anchor="start" x="566.899" y="-853.9" font-family="Arial" font-size="14.00" fill="#666666">[varchar(128)]</text>
<polygon fill="none" stroke="#000000" points="521,-812.5 521,-842.5 794,-842.5 794,-812.5 521,-812.5"/>
<text text-anchor="start" x="528" y="-823.9" font-family="Arial" font-size="14.00" fill="#000000">created_at </text>
<text text-anchor="start" x="598.028" y="-823.9" font-family="Arial" font-size="14.00" fill="#666666">[timestamp without time zone]</text>
<polygon fill="none" stroke="#000000" points="521,-782.5 521,-812.5 794,-812.5 794,-782.5 521,-782.5"/>
<text text-anchor="start" x="527.9636" y="-793.9" font-family="Arial" font-size="14.00" fill="#000000">updated_at </text>
<text text-anchor="start" x="601.8962" y="-793.9" font-family="Arial" font-size="14.00" fill="#666666">[timestamp without time zone]</text>
</g>
<!-- public.roles&#45;&gt;public.organizations -->
<g id="edge2" class="edge">
<title>public.roles:organization_id&#45;&gt;public.organizations:id</title>
<path fill="none" stroke="#000000" d="M512.5257,-881.6882C480.1153,-834.6162 482.9401,-517.5 521,-517.5"/>
<polygon fill="#000000" stroke="#000000" points="512.7531,-881.8441 518.4548,-891.2111 516.8765,-884.672 521,-887.5 521,-887.5 521,-887.5 516.8765,-884.672 523.5452,-883.7889 512.7531,-881.8441 512.7531,-881.8441"/>
<text text-anchor="start" x="319.5415" y="-871.5" font-family="Arial" font-size="10.00" fill="#000000">FOREIGN KEY (organization_id) REFERENCES organizations(id) ON DELETE CASCADE</text>
</g>
<!-- public.scenarios -->
<g id="node4" class="node">
<title>public.scenarios</title>
<polygon fill="#efefef" stroke="transparent" points="898,-1007.5 898,-1042.5 1171,-1042.5 1171,-1007.5 898,-1007.5"/>
<polygon fill="none" stroke="#000000" points="898,-1007.5 898,-1042.5 1171,-1042.5 1171,-1007.5 898,-1007.5"/>
<text text-anchor="start" x="921.3629" y="-1020.3" font-family="Arial Bold" font-size="18.00" fill="#000000">public.scenarios</text>
<text text-anchor="start" x="1050.3833" y="-1020.3" font-family="Arial" font-size="14.00" fill="#000000"> </text>
<text text-anchor="start" x="1054.2739" y="-1020.3" font-family="Arial" font-size="14.00" fill="#666666">[BASE TABLE]</text>
<polygon fill="none" stroke="#000000" points="898,-977.5 898,-1007.5 1171,-1007.5 1171,-977.5 898,-977.5"/>
<text text-anchor="start" x="905" y="-988.9" font-family="Arial" font-size="14.00" fill="#000000">id </text>
<text text-anchor="start" x="919.7798" y="-988.9" font-family="Arial" font-size="14.00" fill="#666666">[uuid]</text>
<polygon fill="none" stroke="#000000" points="898,-947.5 898,-977.5 1171,-977.5 1171,-947.5 898,-947.5"/>
<text text-anchor="start" x="905" y="-958.9" font-family="Arial" font-size="14.00" fill="#000000">organization_id </text>
<text text-anchor="start" x="1003.805" y="-958.9" font-family="Arial" font-size="14.00" fill="#666666">[uuid]</text>
<polygon fill="none" stroke="#000000" points="898,-917.5 898,-947.5 1171,-947.5 1171,-917.5 898,-917.5"/>
<text text-anchor="start" x="905" y="-928.9" font-family="Arial" font-size="14.00" fill="#000000">role_id </text>
<text text-anchor="start" x="950.8948" y="-928.9" font-family="Arial" font-size="14.00" fill="#666666">[uuid]</text>
<polygon fill="none" stroke="#000000" points="898,-887.5 898,-917.5 1171,-917.5 1171,-887.5 898,-887.5"/>
<text text-anchor="start" x="905" y="-898.9" font-family="Arial" font-size="14.00" fill="#000000">title </text>
<text text-anchor="start" x="930.6676" y="-898.9" font-family="Arial" font-size="14.00" fill="#666666">[varchar(255)]</text>
<polygon fill="none" stroke="#000000" points="898,-857.5 898,-887.5 1171,-887.5 1171,-857.5 898,-857.5"/>
<text text-anchor="start" x="905" y="-868.9" font-family="Arial" font-size="14.00" fill="#000000">overview </text>
<text text-anchor="start" x="964.1122" y="-868.9" font-family="Arial" font-size="14.00" fill="#666666">[text]</text>
<polygon fill="none" stroke="#000000" points="898,-827.5 898,-857.5 1171,-857.5 1171,-827.5 898,-827.5"/>
<text text-anchor="start" x="905" y="-838.9" font-family="Arial" font-size="14.00" fill="#000000">description </text>
<text text-anchor="start" x="976.568" y="-838.9" font-family="Arial" font-size="14.00" fill="#666666">[text]</text>
<polygon fill="none" stroke="#000000" points="898,-797.5 898,-827.5 1171,-827.5 1171,-797.5 898,-797.5"/>
<text text-anchor="start" x="905" y="-808.9" font-family="Arial" font-size="14.00" fill="#000000">highest_score </text>
<text text-anchor="start" x="996.0266" y="-808.9" font-family="Arial" font-size="14.00" fill="#666666">[integer]</text>
<polygon fill="none" stroke="#000000" points="898,-767.5 898,-797.5 1171,-797.5 1171,-767.5 898,-767.5"/>
<text text-anchor="start" x="905" y="-778.9" font-family="Arial" font-size="14.00" fill="#000000">result_message </text>
<text text-anchor="start" x="1007.6872" y="-778.9" font-family="Arial" font-size="14.00" fill="#666666">[text]</text>
<polygon fill="none" stroke="#000000" points="898,-737.5 898,-767.5 1171,-767.5 1171,-737.5 898,-737.5"/>
<text text-anchor="start" x="905" y="-748.9" font-family="Arial" font-size="14.00" fill="#000000">created_at </text>
<text text-anchor="start" x="975.028" y="-748.9" font-family="Arial" font-size="14.00" fill="#666666">[timestamp without time zone]</text>
<polygon fill="none" stroke="#000000" points="898,-707.5 898,-737.5 1171,-737.5 1171,-707.5 898,-707.5"/>
<text text-anchor="start" x="904.9636" y="-718.9" font-family="Arial" font-size="14.00" fill="#000000">updated_at </text>
<text text-anchor="start" x="978.8962" y="-718.9" font-family="Arial" font-size="14.00" fill="#666666">[timestamp without time zone]</text>
</g>
<!-- public.scenarios&#45;&gt;public.organizations -->
<g id="edge3" class="edge">
<title>public.scenarios:organization_id&#45;&gt;public.organizations:id</title>
<path fill="none" stroke="#000000" d="M888.0856,-960.6626C831.2285,-938.1096 863.7878,-714.4134 846,-650 829.1605,-589.0208 857.2616,-517.5 794,-517.5"/>
<polygon fill="#000000" stroke="#000000" points="888.1674,-960.6777 897.18,-966.9247 893.0837,-961.5888 898,-962.5 898,-962.5 898,-962.5 893.0837,-961.5888 898.82,-958.0753 888.1674,-960.6777 888.1674,-960.6777"/>
<text text-anchor="start" x="905.0415" y="-972.5" font-family="Arial" font-size="10.00" fill="#000000">FOREIGN KEY (organization_id) REFERENCES organizations(id) ON DELETE CASCADE</text>
</g>
</g>
</svg>
