<?xml version="1.0" encoding="UTF-8" standalone="no"?>
<!DOCTYPE svg PUBLIC "-//W3C//DTD SVG 1.1//EN"
 "http://www.w3.org/Graphics/SVG/1.1/DTD/svg11.dtd">
<!-- Generated by graphviz version 2.40.1 (20161225.0304)
 -->
<!-- Title: public.stories_tags Pages: 1 -->
<svg width="972pt" height="592pt"
 viewBox="0.00 0.00 972.00 592.00" xmlns="http://www.w3.org/2000/svg" xmlns:xlink="http://www.w3.org/1999/xlink">
<g id="graph0" class="graph" transform="scale(1 1) rotate(0) translate(4 588)">
<title>public.stories_tags</title>
<polygon fill="#ffffff" stroke="transparent" points="-4,4 -4,-588 968,-588 968,4 -4,4"/>
<!-- public.stories_tags -->
<g id="node1" class="node">
<title>public.stories_tags</title>
<polygon fill="#efefef" stroke="transparent" points="355,-502.5 355,-537.5 628,-537.5 628,-502.5 355,-502.5"/>
<polygon fill="none" stroke="#000000" points="355,-502.5 355,-537.5 628,-537.5 628,-502.5 355,-502.5"/>
<text text-anchor="start" x="368.3576" y="-515.3" font-family="Arial Bold" font-size="18.00" fill="#000000">public.stories_tags</text>
<text text-anchor="start" x="517.3886" y="-515.3" font-family="Arial" font-size="14.00" fill="#000000"> </text>
<text text-anchor="start" x="521.2792" y="-515.3" font-family="Arial" font-size="14.00" fill="#666666">[BASE TABLE]</text>
<polygon fill="none" stroke="#000000" points="355,-472.5 355,-502.5 628,-502.5 628,-472.5 355,-472.5"/>
<text text-anchor="start" x="362" y="-483.9" font-family="Arial" font-size="14.00" fill="#000000">id </text>
<text text-anchor="start" x="376.7798" y="-483.9" font-family="Arial" font-size="14.00" fill="#666666">[uuid]</text>
<polygon fill="none" stroke="#000000" points="355,-442.5 355,-472.5 628,-472.5 628,-442.5 355,-442.5"/>
<text text-anchor="start" x="362" y="-453.9" font-family="Arial" font-size="14.00" fill="#000000">story_id </text>
<text text-anchor="start" x="414.8962" y="-453.9" font-family="Arial" font-size="14.00" fill="#666666">[uuid]</text>
<polygon fill="none" stroke="#000000" points="355,-412.5 355,-442.5 628,-442.5 628,-412.5 355,-412.5"/>
<text text-anchor="start" x="362" y="-423.9" font-family="Arial" font-size="14.00" fill="#000000">tag_id </text>
<text text-anchor="start" x="404.0182" y="-423.9" font-family="Arial" font-size="14.00" fill="#666666">[uuid]</text>
<polygon fill="none" stroke="#000000" points="355,-382.5 355,-412.5 628,-412.5 628,-382.5 355,-382.5"/>
<text text-anchor="start" x="362" y="-393.9" font-family="Arial" font-size="14.00" fill="#000000">created_at </text>
<text text-anchor="start" x="432.028" y="-393.9" font-family="Arial" font-size="14.00" fill="#666666">[timestamp without time zone]</text>
<polygon fill="none" stroke="#000000" points="355,-352.5 355,-382.5 628,-382.5 628,-352.5 355,-352.5"/>
<text text-anchor="start" x="361.9636" y="-363.9" font-family="Arial" font-size="14.00" fill="#000000">updated_at </text>
<text text-anchor="start" x="435.8962" y="-363.9" font-family="Arial" font-size="14.00" fill="#666666">[timestamp without time zone]</text>
<polygon fill="none" stroke="#000000" stroke-width="3" points="353,-351.5 353,-539.5 629,-539.5 629,-351.5 353,-351.5"/>
</g>
<!-- public.stories -->
<g id="node2" class="node">
<title>public.stories</title>
<polygon fill="#efefef" stroke="transparent" points="167,-192.5 167,-227.5 440,-227.5 440,-192.5 167,-192.5"/>
<polygon fill="none" stroke="#000000" points="167,-192.5 167,-227.5 440,-227.5 440,-192.5 167,-192.5"/>
<text text-anchor="start" x="202.368" y="-205.3" font-family="Arial Bold" font-size="18.00" fill="#000000">public.stories</text>
<text text-anchor="start" x="307.3782" y="-205.3" font-family="Arial" font-size="14.00" fill="#000000"> </text>
<text text-anchor="start" x="311.2688" y="-205.3" font-family="Arial" font-size="14.00" fill="#666666">[BASE TABLE]</text>
<polygon fill="none" stroke="#000000" points="167,-162.5 167,-192.5 440,-192.5 440,-162.5 167,-162.5"/>
<text text-anchor="start" x="174" y="-173.9" font-family="Arial" font-size="14.00" fill="#000000">id </text>
<text text-anchor="start" x="188.7798" y="-173.9" font-family="Arial" font-size="14.00" fill="#666666">[uuid]</text>
<polygon fill="none" stroke="#000000" points="167,-132.5 167,-162.5 440,-162.5 440,-132.5 167,-132.5"/>
<text text-anchor="start" x="174" y="-143.9" font-family="Arial" font-size="14.00" fill="#000000">organization_id </text>
<text text-anchor="start" x="272.805" y="-143.9" font-family="Arial" font-size="14.00" fill="#666666">[uuid]</text>
<polygon fill="none" stroke="#000000" points="167,-102.5 167,-132.5 440,-132.5 440,-102.5 167,-102.5"/>
<text text-anchor="start" x="174" y="-113.9" font-family="Arial" font-size="14.00" fill="#000000">title </text>
<text text-anchor="start" x="199.6676" y="-113.9" font-family="Arial" font-size="14.00" fill="#666666">[varchar(255)]</text>
<polygon fill="none" stroke="#000000" points="167,-72.5 167,-102.5 440,-102.5 440,-72.5 167,-72.5"/>
<text text-anchor="start" x="174" y="-83.9" font-family="Arial" font-size="14.00" fill="#000000">created_at </text>
<text text-anchor="start" x="244.028" y="-83.9" font-family="Arial" font-size="14.00" fill="#666666">[timestamp without time zone]</text>
<polygon fill="none" stroke="#000000" points="167,-42.5 167,-72.5 440,-72.5 440,-42.5 167,-42.5"/>
<text text-anchor="start" x="173.9636" y="-53.9" font-family="Arial" font-size="14.00" fill="#000000">updated_at </text>
<text text-anchor="start" x="247.8962" y="-53.9" font-family="Arial" font-size="14.00" fill="#666666">[timestamp without time zone]</text>
</g>
<!-- public.stories_tags&#45;&gt;public.stories -->
<g id="edge1" class="edge">
<title>public.stories_tags:story_id&#45;&gt;public.stories:id</title>
<path fill="none" stroke="#000000" d="M344.8802,-456.6719C291.4076,-447.2547 320.0794,-359.7134 355,-307 377.6577,-272.7978 417.3423,-305.2022 440,-271 462.9499,-236.3566 481.5556,-177.5 440,-177.5"/>
<polygon fill="#000000" stroke="#000000" points="345.0333,-456.6843 354.6329,-461.985 350.0167,-457.0922 355,-457.5 355,-457.5 355,-457.5 350.0167,-457.0922 355.3671,-453.015 345.0333,-456.6843 345.0333,-456.6843"/>
<text text-anchor="start" x="7.4445" y="-467.5" font-family="Arial" font-size="10.00" fill="#000000">FOREIGN KEY (story_id) REFERENCES stories(id) ON DELETE CASCADE</text>
</g>
<!-- public.tags -->
<g id="node3" class="node">
<title>public.tags</title>
<polygon fill="#efefef" stroke="transparent" points="544,-177.5 544,-212.5 817,-212.5 817,-177.5 544,-177.5"/>
<polygon fill="none" stroke="#000000" points="544,-177.5 544,-212.5 817,-212.5 817,-177.5 544,-177.5"/>
<text text-anchor="start" x="588.8612" y="-190.3" font-family="Arial Bold" font-size="18.00" fill="#000000">public.tags</text>
<text text-anchor="start" x="674.885" y="-190.3" font-family="Arial" font-size="14.00" fill="#000000"> </text>
<text text-anchor="start" x="678.7756" y="-190.3" font-family="Arial" font-size="14.00" fill="#666666">[BASE TABLE]</text>
<polygon fill="none" stroke="#000000" points="544,-147.5 544,-177.5 817,-177.5 817,-147.5 544,-147.5"/>
<text text-anchor="start" x="551" y="-158.9" font-family="Arial" font-size="14.00" fill="#000000">id </text>
<text text-anchor="start" x="565.7798" y="-158.9" font-family="Arial" font-size="14.00" fill="#666666">[uuid]</text>
<polygon fill="none" stroke="#000000" points="544,-117.5 544,-147.5 817,-147.5 817,-117.5 544,-117.5"/>
<text text-anchor="start" x="551" y="-128.9" font-family="Arial" font-size="14.00" fill="#000000">name </text>
<text text-anchor="start" x="589.899" y="-128.9" font-family="Arial" font-size="14.00" fill="#666666">[varchar(128)]</text>
<polygon fill="none" stroke="#000000" points="544,-87.5 544,-117.5 817,-117.5 817,-87.5 544,-87.5"/>
<text text-anchor="start" x="551" y="-98.9" font-family="Arial" font-size="14.00" fill="#000000">created_at </text>
<text text-anchor="start" x="621.028" y="-98.9" font-family="Arial" font-size="14.00" fill="#666666">[timestamp without time zone]</text>
<polygon fill="none" stroke="#000000" points="544,-57.5 544,-87.5 817,-87.5 817,-57.5 544,-57.5"/>
<text text-anchor="start" x="550.9636" y="-68.9" font-family="Arial" font-size="14.00" fill="#000000">updated_at </text>
<text text-anchor="start" x="624.8962" y="-68.9" font-family="Arial" font-size="14.00" fill="#666666">[timestamp without time zone]</text>
</g>
<!-- public.stories_tags&#45;&gt;public.tags -->
<g id="edge2" class="edge">
<title>public.stories_tags:tag_id&#45;&gt;public.tags:id</title>
<path fill="none" stroke="#000000" d="M638.1263,-426.4401C677.7228,-417.2523 652.4179,-350.3913 628,-307 606.5807,-268.9373 565.4193,-294.0627 544,-256 523.6204,-219.7849 502.4444,-162.5 544,-162.5"/>
<polygon fill="#000000" stroke="#000000" points="637.9457,-426.4589 627.5315,-423.0244 632.9728,-426.9795 628,-427.5 628,-427.5 628,-427.5 632.9728,-426.9795 628.4685,-431.9756 637.9457,-426.4589 637.9457,-426.4589"/>
<text text-anchor="start" x="634.6035" y="-437.5" font-family="Arial" font-size="10.00" fill="#000000">FOREIGN KEY (tag_id) REFERENCES tags(id) ON DELETE CASCADE</text>
</g>
</g>
</svg>
