<?xml version="1.0" encoding="UTF-8" standalone="no"?>
<!DOCTYPE svg PUBLIC "-//W3C//DTD SVG 1.1//EN"
 "http://www.w3.org/Graphics/SVG/1.1/DTD/svg11.dtd">
<!-- Generated by graphviz version 2.40.1 (20161225.0304)
 -->
<!-- Title: public.user_authentication_logs Pages: 1 -->
<svg width="764pt" height="742pt"
 viewBox="0.00 0.00 763.50 742.00" xmlns="http://www.w3.org/2000/svg" xmlns:xlink="http://www.w3.org/1999/xlink">
<g id="graph0" class="graph" transform="scale(1 1) rotate(0) translate(4 738)">
<title>public.user_authentication_logs</title>
<polygon fill="#ffffff" stroke="transparent" points="-4,4 -4,-738 759.5,-738 759.5,4 -4,4"/>
<!-- public.user_authentication_logs -->
<g id="node1" class="node">
<title>public.user_authentication_logs</title>
<polygon fill="#efefef" stroke="transparent" points="347,-652.5 347,-687.5 710,-687.5 710,-652.5 347,-652.5"/>
<polygon fill="none" stroke="#000000" points="347,-652.5 347,-687.5 710,-687.5 710,-652.5 347,-652.5"/>
<text text-anchor="start" x="353.8344" y="-665.3" font-family="Arial Bold" font-size="18.00" fill="#000000">public.user_authentication_logs</text>
<text text-anchor="start" x="605.9118" y="-665.3" font-family="Arial" font-size="14.00" fill="#000000"> </text>
<text text-anchor="start" x="609.8024" y="-665.3" font-family="Arial" font-size="14.00" fill="#666666">[BASE TABLE]</text>
<polygon fill="none" stroke="#000000" points="347,-622.5 347,-652.5 710,-652.5 710,-622.5 347,-622.5"/>
<text text-anchor="start" x="354" y="-633.9" font-family="Arial" font-size="14.00" fill="#000000">id </text>
<text text-anchor="start" x="368.7798" y="-633.9" font-family="Arial" font-size="14.00" fill="#666666">[uuid]</text>
<polygon fill="none" stroke="#000000" points="347,-592.5 347,-622.5 710,-622.5 710,-592.5 347,-592.5"/>
<text text-anchor="start" x="354" y="-603.9" font-family="Arial" font-size="14.00" fill="#000000">user_id </text>
<text text-anchor="start" x="403.7882" y="-603.9" font-family="Arial" font-size="14.00" fill="#666666">[uuid]</text>
<polygon fill="none" stroke="#000000" points="347,-562.5 347,-592.5 710,-592.5 710,-562.5 347,-562.5"/>
<text text-anchor="start" x="354" y="-573.9" font-family="Arial" font-size="14.00" fill="#000000">created_at </text>
<text text-anchor="start" x="424.028" y="-573.9" font-family="Arial" font-size="14.00" fill="#666666">[timestamp without time zone]</text>
<polygon fill="none" stroke="#000000" points="347,-532.5 347,-562.5 710,-562.5 710,-532.5 347,-532.5"/>
<text text-anchor="start" x="354" y="-543.9" font-family="Arial" font-size="14.00" fill="#000000">updated_at </text>
<text text-anchor="start" x="427.9326" y="-543.9" font-family="Arial" font-size="14.00" fill="#666666">[timestamp without time zone]</text>
<polygon fill="none" stroke="#000000" stroke-width="3" points="345,-531.5 345,-689.5 711,-689.5 711,-531.5 345,-531.5"/>
</g>
<!-- public.users -->
<g id="node2" class="node">
<title>public.users</title>
<polygon fill="#efefef" stroke="transparent" points="392,-372.5 392,-407.5 665,-407.5 665,-372.5 392,-372.5"/>
<polygon fill="none" stroke="#000000" points="392,-372.5 392,-407.5 665,-407.5 665,-372.5 392,-372.5"/>
<text text-anchor="start" x="431.8662" y="-385.3" font-family="Arial Bold" font-size="18.00" fill="#000000">public.users</text>
<text text-anchor="start" x="527.88" y="-385.3" font-family="Arial" font-size="14.00" fill="#000000"> </text>
<text text-anchor="start" x="531.7706" y="-385.3" font-family="Arial" font-size="14.00" fill="#666666">[BASE TABLE]</text>
<polygon fill="none" stroke="#000000" points="392,-342.5 392,-372.5 665,-372.5 665,-342.5 392,-342.5"/>
<text text-anchor="start" x="399" y="-353.9" font-family="Arial" font-size="14.00" fill="#000000">id </text>
<text text-anchor="start" x="413.7798" y="-353.9" font-family="Arial" font-size="14.00" fill="#666666">[uuid]</text>
<polygon fill="none" stroke="#000000" points="392,-312.5 392,-342.5 665,-342.5 665,-312.5 392,-312.5"/>
<text text-anchor="start" x="399" y="-323.9" font-family="Arial" font-size="14.00" fill="#000000">organization_id </text>
<text text-anchor="start" x="497.805" y="-323.9" font-family="Arial" font-size="14.00" fill="#666666">[uuid]</text>
<polygon fill="none" stroke="#000000" points="392,-282.5 392,-312.5 665,-312.5 665,-282.5 392,-282.5"/>
<text text-anchor="start" x="399" y="-293.9" font-family="Arial" font-size="14.00" fill="#000000">last_name </text>
<text text-anchor="start" x="467.4614" y="-293.9" font-family="Arial" font-size="14.00" fill="#666666">[varchar(128)]</text>
<polygon fill="none" stroke="#000000" points="392,-252.5 392,-282.5 665,-282.5 665,-252.5 392,-252.5"/>
<text text-anchor="start" x="399" y="-263.9" font-family="Arial" font-size="14.00" fill="#000000">first_name </text>
<text text-anchor="start" x="468.23" y="-263.9" font-family="Arial" font-size="14.00" fill="#666666">[varchar(128)]</text>
<polygon fill="none" stroke="#000000" points="392,-222.5 392,-252.5 665,-252.5 665,-222.5 392,-222.5"/>
<text text-anchor="start" x="399" y="-233.9" font-family="Arial" font-size="14.00" fill="#000000">last_name_kana </text>
<text text-anchor="start" x="505.5918" y="-233.9" font-family="Arial" font-size="14.00" fill="#666666">[varchar(128)]</text>
<polygon fill="none" stroke="#000000" points="392,-192.5 392,-222.5 665,-222.5 665,-192.5 392,-192.5"/>
<text text-anchor="start" x="399" y="-203.9" font-family="Arial" font-size="14.00" fill="#000000">first_name_kana </text>
<text text-anchor="start" x="506.3604" y="-203.9" font-family="Arial" font-size="14.00" fill="#666666">[varchar(128)]</text>
<polygon fill="none" stroke="#000000" points="392,-162.5 392,-192.5 665,-192.5 665,-162.5 392,-162.5"/>
<text text-anchor="start" x="399" y="-173.9" font-family="Arial" font-size="14.00" fill="#000000">nickname </text>
<text text-anchor="start" x="462.7882" y="-173.9" font-family="Arial" font-size="14.00" fill="#666666">[varchar(20)]</text>
<polygon fill="none" stroke="#000000" points="392,-132.5 392,-162.5 665,-162.5 665,-132.5 392,-132.5"/>
<text text-anchor="start" x="399" y="-143.9" font-family="Arial" font-size="14.00" fill="#000000">email </text>
<text text-anchor="start" x="436.3296" y="-143.9" font-family="Arial" font-size="14.00" fill="#666666">[varchar(255)]</text>
<polygon fill="none" stroke="#000000" points="392,-102.5 392,-132.5 665,-132.5 665,-102.5 392,-102.5"/>
<text text-anchor="start" x="399" y="-113.9" font-family="Arial" font-size="14.00" fill="#000000">password_hash </text>
<text text-anchor="start" x="500.9186" y="-113.9" font-family="Arial" font-size="14.00" fill="#666666">[text]</text>
<polygon fill="none" stroke="#000000" points="392,-72.5 392,-102.5 665,-102.5 665,-72.5 392,-72.5"/>
<text text-anchor="start" x="399" y="-83.9" font-family="Arial" font-size="14.00" fill="#000000">created_at </text>
<text text-anchor="start" x="469.028" y="-83.9" font-family="Arial" font-size="14.00" fill="#666666">[timestamp without time zone]</text>
<polygon fill="none" stroke="#000000" points="392,-42.5 392,-72.5 665,-72.5 665,-42.5 392,-42.5"/>
<text text-anchor="start" x="398.9636" y="-53.9" font-family="Arial" font-size="14.00" fill="#000000">updated_at </text>
<text text-anchor="start" x="472.8962" y="-53.9" font-family="Arial" font-size="14.00" fill="#666666">[timestamp without time zone]</text>
</g>
<!-- public.user_authentication_logs&#45;&gt;public.users -->
<g id="edge1" class="edge">
<title>public.user_authentication_logs:user_id&#45;&gt;public.users:id</title>
<path fill="none" stroke="#000000" d="M336.8758,-606.7828C236.982,-592.1191 282.6313,-357.5 392,-357.5"/>
<polygon fill="#000000" stroke="#000000" points="337.025,-606.7933 346.682,-611.9888 342.0125,-607.1467 347,-607.5 347,-607.5 347,-607.5 342.0125,-607.1467 347.318,-603.0112 337.025,-606.7933 337.025,-606.7933"/>
<text text-anchor="start" x="7.0535" y="-617.5" font-family="Arial" font-size="10.00" fill="#000000">FOREIGN KEY (user_id) REFERENCES users(id) ON DELETE CASCADE</text>
</g>
</g>
</svg>
