<?xml version="1.0" encoding="UTF-8" standalone="no"?>
<!DOCTYPE svg PUBLIC "-//W3C//DTD SVG 1.1//EN"
 "http://www.w3.org/Graphics/SVG/1.1/DTD/svg11.dtd">
<!-- Generated by graphviz version 2.40.1 (20161225.0304)
 -->
<!-- Title: public.user_scenario_histories Pages: 1 -->
<svg width="1273pt" height="1199pt"
 viewBox="0.00 0.00 1273.00 1199.00" xmlns="http://www.w3.org/2000/svg" xmlns:xlink="http://www.w3.org/1999/xlink">
<g id="graph0" class="graph" transform="scale(1 1) rotate(0) translate(4 1195)">
<title>public.user_scenario_histories</title>
<polygon fill="#ffffff" stroke="transparent" points="-4,4 -4,-1195 1269,-1195 1269,4 -4,4"/>
<!-- public.user_scenario_histories -->
<g id="node1" class="node">
<title>public.user_scenario_histories</title>
<polygon fill="#efefef" stroke="transparent" points="528,-712.5 528,-747.5 881,-747.5 881,-712.5 528,-712.5"/>
<polygon fill="none" stroke="#000000" points="528,-712.5 528,-747.5 881,-747.5 881,-712.5 528,-712.5"/>
<text text-anchor="start" x="534.8537" y="-725.3" font-family="Arial Bold" font-size="18.00" fill="#000000">public.user_scenario_histories</text>
<text text-anchor="start" x="776.8925" y="-725.3" font-family="Arial" font-size="14.00" fill="#000000"> </text>
<text text-anchor="start" x="780.7831" y="-725.3" font-family="Arial" font-size="14.00" fill="#666666">[BASE TABLE]</text>
<polygon fill="none" stroke="#000000" points="528,-682.5 528,-712.5 881,-712.5 881,-682.5 528,-682.5"/>
<text text-anchor="start" x="535" y="-693.9" font-family="Arial" font-size="14.00" fill="#000000">id </text>
<text text-anchor="start" x="549.7798" y="-693.9" font-family="Arial" font-size="14.00" fill="#666666">[uuid]</text>
<polygon fill="none" stroke="#000000" points="528,-652.5 528,-682.5 881,-682.5 881,-652.5 528,-652.5"/>
<text text-anchor="start" x="535" y="-663.9" font-family="Arial" font-size="14.00" fill="#000000">user_id </text>
<text text-anchor="start" x="584.7882" y="-663.9" font-family="Arial" font-size="14.00" fill="#666666">[uuid]</text>
<polygon fill="none" stroke="#000000" points="528,-622.5 528,-652.5 881,-652.5 881,-622.5 528,-622.5"/>
<text text-anchor="start" x="535" y="-633.9" font-family="Arial" font-size="14.00" fill="#000000">scenario_id </text>
<text text-anchor="start" x="610.46" y="-633.9" font-family="Arial" font-size="14.00" fill="#666666">[uuid]</text>
<polygon fill="none" stroke="#000000" points="528,-592.5 528,-622.5 881,-622.5 881,-592.5 528,-592.5"/>
<text text-anchor="start" x="535" y="-603.9" font-family="Arial" font-size="14.00" fill="#000000">total_score </text>
<text text-anchor="start" x="607.352" y="-603.9" font-family="Arial" font-size="14.00" fill="#666666">[integer]</text>
<polygon fill="none" stroke="#000000" points="528,-562.5 528,-592.5 881,-592.5 881,-562.5 528,-562.5"/>
<text text-anchor="start" x="535" y="-573.9" font-family="Arial" font-size="14.00" fill="#000000">created_at </text>
<text text-anchor="start" x="605.028" y="-573.9" font-family="Arial" font-size="14.00" fill="#666666">[timestamp without time zone]</text>
<polygon fill="none" stroke="#000000" points="528,-532.5 528,-562.5 881,-562.5 881,-532.5 528,-532.5"/>
<text text-anchor="start" x="535" y="-543.9" font-family="Arial" font-size="14.00" fill="#000000">updated_at </text>
<text text-anchor="start" x="608.9326" y="-543.9" font-family="Arial" font-size="14.00" fill="#666666">[timestamp without time zone]</text>
<polygon fill="none" stroke="#000000" stroke-width="3" points="526,-531.5 526,-749.5 882,-749.5 882,-531.5 526,-531.5"/>
</g>
<!-- public.users -->
<g id="node3" class="node">
<title>public.users</title>
<polygon fill="#efefef" stroke="transparent" points="380,-372.5 380,-407.5 653,-407.5 653,-372.5 380,-372.5"/>
<polygon fill="none" stroke="#000000" points="380,-372.5 380,-407.5 653,-407.5 653,-372.5 380,-372.5"/>
<text text-anchor="start" x="419.8662" y="-385.3" font-family="Arial Bold" font-size="18.00" fill="#000000">public.users</text>
<text text-anchor="start" x="515.88" y="-385.3" font-family="Arial" font-size="14.00" fill="#000000"> </text>
<text text-anchor="start" x="519.7706" y="-385.3" font-family="Arial" font-size="14.00" fill="#666666">[BASE TABLE]</text>
<polygon fill="none" stroke="#000000" points="380,-342.5 380,-372.5 653,-372.5 653,-342.5 380,-342.5"/>
<text text-anchor="start" x="387" y="-353.9" font-family="Arial" font-size="14.00" fill="#000000">id </text>
<text text-anchor="start" x="401.7798" y="-353.9" font-family="Arial" font-size="14.00" fill="#666666">[uuid]</text>
<polygon fill="none" stroke="#000000" points="380,-312.5 380,-342.5 653,-342.5 653,-312.5 380,-312.5"/>
<text text-anchor="start" x="387" y="-323.9" font-family="Arial" font-size="14.00" fill="#000000">organization_id </text>
<text text-anchor="start" x="485.805" y="-323.9" font-family="Arial" font-size="14.00" fill="#666666">[uuid]</text>
<polygon fill="none" stroke="#000000" points="380,-282.5 380,-312.5 653,-312.5 653,-282.5 380,-282.5"/>
<text text-anchor="start" x="387" y="-293.9" font-family="Arial" font-size="14.00" fill="#000000">last_name </text>
<text text-anchor="start" x="455.4614" y="-293.9" font-family="Arial" font-size="14.00" fill="#666666">[varchar(128)]</text>
<polygon fill="none" stroke="#000000" points="380,-252.5 380,-282.5 653,-282.5 653,-252.5 380,-252.5"/>
<text text-anchor="start" x="387" y="-263.9" font-family="Arial" font-size="14.00" fill="#000000">first_name </text>
<text text-anchor="start" x="456.23" y="-263.9" font-family="Arial" font-size="14.00" fill="#666666">[varchar(128)]</text>
<polygon fill="none" stroke="#000000" points="380,-222.5 380,-252.5 653,-252.5 653,-222.5 380,-222.5"/>
<text text-anchor="start" x="387" y="-233.9" font-family="Arial" font-size="14.00" fill="#000000">last_name_kana </text>
<text text-anchor="start" x="493.5918" y="-233.9" font-family="Arial" font-size="14.00" fill="#666666">[varchar(128)]</text>
<polygon fill="none" stroke="#000000" points="380,-192.5 380,-222.5 653,-222.5 653,-192.5 380,-192.5"/>
<text text-anchor="start" x="387" y="-203.9" font-family="Arial" font-size="14.00" fill="#000000">first_name_kana </text>
<text text-anchor="start" x="494.3604" y="-203.9" font-family="Arial" font-size="14.00" fill="#666666">[varchar(128)]</text>
<polygon fill="none" stroke="#000000" points="380,-162.5 380,-192.5 653,-192.5 653,-162.5 380,-162.5"/>
<text text-anchor="start" x="387" y="-173.9" font-family="Arial" font-size="14.00" fill="#000000">nickname </text>
<text text-anchor="start" x="450.7882" y="-173.9" font-family="Arial" font-size="14.00" fill="#666666">[varchar(20)]</text>
<polygon fill="none" stroke="#000000" points="380,-132.5 380,-162.5 653,-162.5 653,-132.5 380,-132.5"/>
<text text-anchor="start" x="387" y="-143.9" font-family="Arial" font-size="14.00" fill="#000000">email </text>
<text text-anchor="start" x="424.3296" y="-143.9" font-family="Arial" font-size="14.00" fill="#666666">[varchar(255)]</text>
<polygon fill="none" stroke="#000000" points="380,-102.5 380,-132.5 653,-132.5 653,-102.5 380,-102.5"/>
<text text-anchor="start" x="387" y="-113.9" font-family="Arial" font-size="14.00" fill="#000000">password_hash </text>
<text text-anchor="start" x="488.9186" y="-113.9" font-family="Arial" font-size="14.00" fill="#666666">[text]</text>
<polygon fill="none" stroke="#000000" points="380,-72.5 380,-102.5 653,-102.5 653,-72.5 380,-72.5"/>
<text text-anchor="start" x="387" y="-83.9" font-family="Arial" font-size="14.00" fill="#000000">created_at </text>
<text text-anchor="start" x="457.028" y="-83.9" font-family="Arial" font-size="14.00" fill="#666666">[timestamp without time zone]</text>
<polygon fill="none" stroke="#000000" points="380,-42.5 380,-72.5 653,-72.5 653,-42.5 380,-42.5"/>
<text text-anchor="start" x="386.9636" y="-53.9" font-family="Arial" font-size="14.00" fill="#000000">updated_at </text>
<text text-anchor="start" x="460.8962" y="-53.9" font-family="Arial" font-size="14.00" fill="#666666">[timestamp without time zone]</text>
</g>
<!-- public.user_scenario_histories&#45;&gt;public.users -->
<g id="edge2" class="edge">
<title>public.user_scenario_histories:user_id&#45;&gt;public.users:id</title>
<path fill="none" stroke="#000000" d="M517.8594,-666.8106C450.6838,-657.1474 481.9253,-548.217 528,-487 562.7664,-440.8078 618.2336,-497.1922 653,-451 677.9895,-417.7978 694.5556,-357.5 653,-357.5"/>
<polygon fill="#000000" stroke="#000000" points="518.023,-666.8216 527.6947,-671.9896 523.0115,-667.1608 528,-667.5 528,-667.5 528,-667.5 523.0115,-667.1608 528.3053,-663.0104 518.023,-666.8216 518.023,-666.8216"/>
<text text-anchor="start" x="188.0535" y="-677.5" font-family="Arial" font-size="10.00" fill="#000000">FOREIGN KEY (user_id) REFERENCES users(id) ON DELETE CASCADE</text>
</g>
<!-- public.scenarios -->
<g id="node4" class="node">
<title>public.scenarios</title>
<polygon fill="#efefef" stroke="transparent" points="757,-357.5 757,-392.5 1030,-392.5 1030,-357.5 757,-357.5"/>
<polygon fill="none" stroke="#000000" points="757,-357.5 757,-392.5 1030,-392.5 1030,-357.5 757,-357.5"/>
<text text-anchor="start" x="780.3629" y="-370.3" font-family="Arial Bold" font-size="18.00" fill="#000000">public.scenarios</text>
<text text-anchor="start" x="909.3833" y="-370.3" font-family="Arial" font-size="14.00" fill="#000000"> </text>
<text text-anchor="start" x="913.2739" y="-370.3" font-family="Arial" font-size="14.00" fill="#666666">[BASE TABLE]</text>
<polygon fill="none" stroke="#000000" points="757,-327.5 757,-357.5 1030,-357.5 1030,-327.5 757,-327.5"/>
<text text-anchor="start" x="764" y="-338.9" font-family="Arial" font-size="14.00" fill="#000000">id </text>
<text text-anchor="start" x="778.7798" y="-338.9" font-family="Arial" font-size="14.00" fill="#666666">[uuid]</text>
<polygon fill="none" stroke="#000000" points="757,-297.5 757,-327.5 1030,-327.5 1030,-297.5 757,-297.5"/>
<text text-anchor="start" x="764" y="-308.9" font-family="Arial" font-size="14.00" fill="#000000">organization_id </text>
<text text-anchor="start" x="862.805" y="-308.9" font-family="Arial" font-size="14.00" fill="#666666">[uuid]</text>
<polygon fill="none" stroke="#000000" points="757,-267.5 757,-297.5 1030,-297.5 1030,-267.5 757,-267.5"/>
<text text-anchor="start" x="764" y="-278.9" font-family="Arial" font-size="14.00" fill="#000000">role_id </text>
<text text-anchor="start" x="809.8948" y="-278.9" font-family="Arial" font-size="14.00" fill="#666666">[uuid]</text>
<polygon fill="none" stroke="#000000" points="757,-237.5 757,-267.5 1030,-267.5 1030,-237.5 757,-237.5"/>
<text text-anchor="start" x="764" y="-248.9" font-family="Arial" font-size="14.00" fill="#000000">title </text>
<text text-anchor="start" x="789.6676" y="-248.9" font-family="Arial" font-size="14.00" fill="#666666">[varchar(255)]</text>
<polygon fill="none" stroke="#000000" points="757,-207.5 757,-237.5 1030,-237.5 1030,-207.5 757,-207.5"/>
<text text-anchor="start" x="764" y="-218.9" font-family="Arial" font-size="14.00" fill="#000000">overview </text>
<text text-anchor="start" x="823.1122" y="-218.9" font-family="Arial" font-size="14.00" fill="#666666">[text]</text>
<polygon fill="none" stroke="#000000" points="757,-177.5 757,-207.5 1030,-207.5 1030,-177.5 757,-177.5"/>
<text text-anchor="start" x="764" y="-188.9" font-family="Arial" font-size="14.00" fill="#000000">description </text>
<text text-anchor="start" x="835.568" y="-188.9" font-family="Arial" font-size="14.00" fill="#666666">[text]</text>
<polygon fill="none" stroke="#000000" points="757,-147.5 757,-177.5 1030,-177.5 1030,-147.5 757,-147.5"/>
<text text-anchor="start" x="764" y="-158.9" font-family="Arial" font-size="14.00" fill="#000000">highest_score </text>
<text text-anchor="start" x="855.0266" y="-158.9" font-family="Arial" font-size="14.00" fill="#666666">[integer]</text>
<polygon fill="none" stroke="#000000" points="757,-117.5 757,-147.5 1030,-147.5 1030,-117.5 757,-117.5"/>
<text text-anchor="start" x="764" y="-128.9" font-family="Arial" font-size="14.00" fill="#000000">result_message </text>
<text text-anchor="start" x="866.6872" y="-128.9" font-family="Arial" font-size="14.00" fill="#666666">[text]</text>
<polygon fill="none" stroke="#000000" points="757,-87.5 757,-117.5 1030,-117.5 1030,-87.5 757,-87.5"/>
<text text-anchor="start" x="764" y="-98.9" font-family="Arial" font-size="14.00" fill="#000000">created_at </text>
<text text-anchor="start" x="834.028" y="-98.9" font-family="Arial" font-size="14.00" fill="#666666">[timestamp without time zone]</text>
<polygon fill="none" stroke="#000000" points="757,-57.5 757,-87.5 1030,-87.5 1030,-57.5 757,-57.5"/>
<text text-anchor="start" x="763.9636" y="-68.9" font-family="Arial" font-size="14.00" fill="#000000">updated_at </text>
<text text-anchor="start" x="837.8962" y="-68.9" font-family="Arial" font-size="14.00" fill="#666666">[timestamp without time zone]</text>
</g>
<!-- public.user_scenario_histories&#45;&gt;public.scenarios -->
<g id="edge3" class="edge">
<title>public.user_scenario_histories:scenario_id&#45;&gt;public.scenarios:id</title>
<path fill="none" stroke="#000000" d="M891.1223,-636.6702C944.6224,-627.2347 916.1948,-539.5307 881,-487 847.8315,-437.4938 790.1685,-485.5062 757,-436 733.8698,-401.4767 715.4444,-342.5 757,-342.5"/>
<polygon fill="#000000" stroke="#000000" points="890.9666,-636.6829 880.6323,-633.015 885.9833,-637.0915 881,-637.5 881,-637.5 881,-637.5 885.9833,-637.0915 881.3677,-641.985 890.9666,-636.6829 890.9666,-636.6829"/>
<text text-anchor="start" x="887.7165" y="-647.5" font-family="Arial" font-size="10.00" fill="#000000">FOREIGN KEY (scenario_id) REFERENCES scenarios(id) ON DELETE CASCADE</text>
</g>
<!-- public.user_scenario_quiz_histories -->
<g id="node2" class="node">
<title>public.user_scenario_quiz_histories</title>
<polygon fill="#efefef" stroke="transparent" points="507,-1112.5 507,-1147.5 903,-1147.5 903,-1112.5 507,-1112.5"/>
<polygon fill="none" stroke="#000000" points="507,-1112.5 507,-1147.5 903,-1147.5 903,-1112.5 507,-1112.5"/>
<text text-anchor="start" x="513.8473" y="-1125.3" font-family="Arial Bold" font-size="18.00" fill="#000000">public.user_scenario_quiz_histories</text>
<text text-anchor="start" x="798.8989" y="-1125.3" font-family="Arial" font-size="14.00" fill="#000000"> </text>
<text text-anchor="start" x="802.7895" y="-1125.3" font-family="Arial" font-size="14.00" fill="#666666">[BASE TABLE]</text>
<polygon fill="none" stroke="#000000" points="507,-1082.5 507,-1112.5 903,-1112.5 903,-1082.5 507,-1082.5"/>
<text text-anchor="start" x="514" y="-1093.9" font-family="Arial" font-size="14.00" fill="#000000">id </text>
<text text-anchor="start" x="528.7798" y="-1093.9" font-family="Arial" font-size="14.00" fill="#666666">[uuid]</text>
<polygon fill="none" stroke="#000000" points="507,-1052.5 507,-1082.5 903,-1082.5 903,-1052.5 507,-1052.5"/>
<text text-anchor="start" x="514" y="-1063.9" font-family="Arial" font-size="14.00" fill="#000000">user_scenario_history_id </text>
<text text-anchor="start" x="673.474" y="-1063.9" font-family="Arial" font-size="14.00" fill="#666666">[uuid]</text>
<polygon fill="none" stroke="#000000" points="507,-1022.5 507,-1052.5 903,-1052.5 903,-1022.5 507,-1022.5"/>
<text text-anchor="start" x="514" y="-1033.9" font-family="Arial" font-size="14.00" fill="#000000">user_id </text>
<text text-anchor="start" x="563.7882" y="-1033.9" font-family="Arial" font-size="14.00" fill="#666666">[uuid]</text>
<polygon fill="none" stroke="#000000" points="507,-992.5 507,-1022.5 903,-1022.5 903,-992.5 507,-992.5"/>
<text text-anchor="start" x="514" y="-1003.9" font-family="Arial" font-size="14.00" fill="#000000">scenario_id </text>
<text text-anchor="start" x="589.46" y="-1003.9" font-family="Arial" font-size="14.00" fill="#666666">[uuid]</text>
<polygon fill="none" stroke="#000000" points="507,-962.5 507,-992.5 903,-992.5 903,-962.5 507,-962.5"/>
<text text-anchor="start" x="514" y="-973.9" font-family="Arial" font-size="14.00" fill="#000000">scenario_quiz_id </text>
<text text-anchor="start" x="622.9144" y="-973.9" font-family="Arial" font-size="14.00" fill="#666666">[uuid]</text>
<polygon fill="none" stroke="#000000" points="507,-932.5 507,-962.5 903,-962.5 903,-932.5 507,-932.5"/>
<text text-anchor="start" x="514" y="-943.9" font-family="Arial" font-size="14.00" fill="#000000">scenario_quiz_option_id </text>
<text text-anchor="start" x="668.8246" y="-943.9" font-family="Arial" font-size="14.00" fill="#666666">[uuid]</text>
<polygon fill="none" stroke="#000000" points="507,-902.5 507,-932.5 903,-932.5 903,-902.5 507,-902.5"/>
<text text-anchor="start" x="514" y="-913.9" font-family="Arial" font-size="14.00" fill="#000000">created_at </text>
<text text-anchor="start" x="584.028" y="-913.9" font-family="Arial" font-size="14.00" fill="#666666">[timestamp without time zone]</text>
<polygon fill="none" stroke="#000000" points="507,-872.5 507,-902.5 903,-902.5 903,-872.5 507,-872.5"/>
<text text-anchor="start" x="514" y="-883.9" font-family="Arial" font-size="14.00" fill="#000000">updated_at </text>
<text text-anchor="start" x="587.9326" y="-883.9" font-family="Arial" font-size="14.00" fill="#666666">[timestamp without time zone]</text>
</g>
<!-- public.user_scenario_quiz_histories&#45;&gt;public.user_scenario_histories -->
<g id="edge1" class="edge">
<title>public.user_scenario_quiz_histories:user_scenario_history_id&#45;&gt;public.user_scenario_histories:id</title>
<path fill="none" stroke="#000000" d="M496.9454,-1066.9817C403.781,-1057.0066 438.3832,-905.5387 507,-830 563.1404,-768.1962 824.8596,-855.8038 881,-794 909.8376,-762.2533 923.8889,-697.5 881,-697.5"/>
<polygon fill="#000000" stroke="#000000" points="497.0133,-1066.9851 506.7683,-1071.994 502.0066,-1067.2426 507,-1067.5 507,-1067.5 507,-1067.5 502.0066,-1067.2426 507.2317,-1063.006 497.0133,-1066.9851 497.0133,-1066.9851"/>
<text text-anchor="start" x="7.3175" y="-1077.5" font-family="Arial" font-size="10.00" fill="#000000">FOREIGN KEY (user_scenario_history_id) REFERENCES user_scenario_histories(id) ON DELETE CASCADE</text>
</g>
</g>
</svg>
