<?xml version="1.0" encoding="UTF-8" standalone="no"?>
<!DOCTYPE svg PUBLIC "-//W3C//DTD SVG 1.1//EN"
 "http://www.w3.org/Graphics/SVG/1.1/DTD/svg11.dtd">
<!-- Generated by graphviz version 2.40.1 (20161225.0304)
 -->
<!-- Title: public.scenario_quiz_options Pages: 1 -->
<svg width="944pt" height="1109pt"
 viewBox="0.00 0.00 944.00 1109.00" xmlns="http://www.w3.org/2000/svg" xmlns:xlink="http://www.w3.org/1999/xlink">
<g id="graph0" class="graph" transform="scale(1 1) rotate(0) translate(4 1105)">
<title>public.scenario_quiz_options</title>
<polygon fill="#ffffff" stroke="transparent" points="-4,4 -4,-1105 940,-1105 940,4 -4,4"/>
<!-- public.scenario_quiz_options -->
<g id="node1" class="node">
<title>public.scenario_quiz_options</title>
<polygon fill="#efefef" stroke="transparent" points="70,-622.5 70,-657.5 412,-657.5 412,-622.5 70,-622.5"/>
<polygon fill="none" stroke="#000000" points="70,-622.5 70,-657.5 412,-657.5 412,-622.5 70,-622.5"/>
<text text-anchor="start" x="76.8428" y="-635.3" font-family="Arial Bold" font-size="18.00" fill="#000000">public.scenario_quiz_options</text>
<text text-anchor="start" x="307.9034" y="-635.3" font-family="Arial" font-size="14.00" fill="#000000"> </text>
<text text-anchor="start" x="311.794" y="-635.3" font-family="Arial" font-size="14.00" fill="#666666">[BASE TABLE]</text>
<polygon fill="none" stroke="#000000" points="70,-592.5 70,-622.5 412,-622.5 412,-592.5 70,-592.5"/>
<text text-anchor="start" x="77" y="-603.9" font-family="Arial" font-size="14.00" fill="#000000">id </text>
<text text-anchor="start" x="91.7798" y="-603.9" font-family="Arial" font-size="14.00" fill="#666666">[uuid]</text>
<polygon fill="none" stroke="#000000" points="70,-562.5 70,-592.5 412,-592.5 412,-562.5 70,-562.5"/>
<text text-anchor="start" x="77" y="-573.9" font-family="Arial" font-size="14.00" fill="#000000">scenario_quiz_id </text>
<text text-anchor="start" x="185.9144" y="-573.9" font-family="Arial" font-size="14.00" fill="#666666">[uuid]</text>
<polygon fill="none" stroke="#000000" points="70,-532.5 70,-562.5 412,-562.5 412,-532.5 70,-532.5"/>
<text text-anchor="start" x="77" y="-543.9" font-family="Arial" font-size="14.00" fill="#000000">answer </text>
<text text-anchor="start" x="126.0056" y="-543.9" font-family="Arial" font-size="14.00" fill="#666666">[varchar(255)]</text>
<polygon fill="none" stroke="#000000" points="70,-502.5 70,-532.5 412,-532.5 412,-502.5 70,-502.5"/>
<text text-anchor="start" x="77" y="-513.9" font-family="Arial" font-size="14.00" fill="#000000">score </text>
<text text-anchor="start" x="115.1164" y="-513.9" font-family="Arial" font-size="14.00" fill="#666666">[integer]</text>
<polygon fill="none" stroke="#000000" points="70,-472.5 70,-502.5 412,-502.5 412,-472.5 70,-472.5"/>
<text text-anchor="start" x="77" y="-483.9" font-family="Arial" font-size="14.00" fill="#000000">next_scenario_quiz_id </text>
<text text-anchor="start" x="220.1528" y="-483.9" font-family="Arial" font-size="14.00" fill="#666666">[uuid]</text>
<polygon fill="none" stroke="#000000" points="70,-442.5 70,-472.5 412,-472.5 412,-442.5 70,-442.5"/>
<text text-anchor="start" x="77" y="-453.9" font-family="Arial" font-size="14.00" fill="#000000">next_status </text>
<text text-anchor="start" x="152.4754" y="-453.9" font-family="Arial" font-size="14.00" fill="#666666">[integer]</text>
<polygon fill="none" stroke="#000000" points="70,-412.5 70,-442.5 412,-442.5 412,-412.5 70,-412.5"/>
<text text-anchor="start" x="77" y="-423.9" font-family="Arial" font-size="14.00" fill="#000000">created_at </text>
<text text-anchor="start" x="147.028" y="-423.9" font-family="Arial" font-size="14.00" fill="#666666">[timestamp without time zone]</text>
<polygon fill="none" stroke="#000000" points="70,-382.5 70,-412.5 412,-412.5 412,-382.5 70,-382.5"/>
<text text-anchor="start" x="77" y="-393.9" font-family="Arial" font-size="14.00" fill="#000000">updated_at </text>
<text text-anchor="start" x="150.9326" y="-393.9" font-family="Arial" font-size="14.00" fill="#666666">[timestamp without time zone]</text>
<polygon fill="none" stroke="#000000" stroke-width="3" points="68.5,-381.5 68.5,-659.5 413.5,-659.5 413.5,-381.5 68.5,-381.5"/>
</g>
<!-- public.scenario_quizzes -->
<g id="node3" class="node">
<title>public.scenario_quizzes</title>
<polygon fill="#efefef" stroke="transparent" points="90,-222.5 90,-257.5 392,-257.5 392,-222.5 90,-222.5"/>
<polygon fill="none" stroke="#000000" points="90,-222.5 90,-257.5 392,-257.5 392,-222.5 90,-222.5"/>
<text text-anchor="start" x="96.8534" y="-235.3" font-family="Arial Bold" font-size="18.00" fill="#000000">public.scenario_quizzes</text>
<text text-anchor="start" x="287.8928" y="-235.3" font-family="Arial" font-size="14.00" fill="#000000"> </text>
<text text-anchor="start" x="291.7834" y="-235.3" font-family="Arial" font-size="14.00" fill="#666666">[BASE TABLE]</text>
<polygon fill="none" stroke="#000000" points="90,-192.5 90,-222.5 392,-222.5 392,-192.5 90,-192.5"/>
<text text-anchor="start" x="97" y="-203.9" font-family="Arial" font-size="14.00" fill="#000000">id </text>
<text text-anchor="start" x="111.7798" y="-203.9" font-family="Arial" font-size="14.00" fill="#666666">[uuid]</text>
<polygon fill="none" stroke="#000000" points="90,-162.5 90,-192.5 392,-192.5 392,-162.5 90,-162.5"/>
<text text-anchor="start" x="97" y="-173.9" font-family="Arial" font-size="14.00" fill="#000000">scenario_id </text>
<text text-anchor="start" x="172.46" y="-173.9" font-family="Arial" font-size="14.00" fill="#666666">[uuid]</text>
<polygon fill="none" stroke="#000000" points="90,-132.5 90,-162.5 392,-162.5 392,-132.5 90,-132.5"/>
<text text-anchor="start" x="97" y="-143.9" font-family="Arial" font-size="14.00" fill="#000000">question </text>
<text text-anchor="start" x="153.8008" y="-143.9" font-family="Arial" font-size="14.00" fill="#666666">[text]</text>
<polygon fill="none" stroke="#000000" points="90,-102.5 90,-132.5 392,-132.5 392,-102.5 90,-102.5"/>
<text text-anchor="start" x="97" y="-113.9" font-family="Arial" font-size="14.00" fill="#000000">failure_message </text>
<text text-anchor="start" x="203.5764" y="-113.9" font-family="Arial" font-size="14.00" fill="#666666">[text]</text>
<polygon fill="none" stroke="#000000" points="90,-72.5 90,-102.5 392,-102.5 392,-72.5 90,-72.5"/>
<text text-anchor="start" x="97" y="-83.9" font-family="Arial" font-size="14.00" fill="#000000">created_at </text>
<text text-anchor="start" x="167.028" y="-83.9" font-family="Arial" font-size="14.00" fill="#666666">[timestamp without time zone]</text>
<polygon fill="none" stroke="#000000" points="90,-42.5 90,-72.5 392,-72.5 392,-42.5 90,-42.5"/>
<text text-anchor="start" x="97" y="-53.9" font-family="Arial" font-size="14.00" fill="#000000">updated_at </text>
<text text-anchor="start" x="170.9326" y="-53.9" font-family="Arial" font-size="14.00" fill="#666666">[timestamp without time zone]</text>
</g>
<!-- public.scenario_quiz_options&#45;&gt;public.scenario_quizzes -->
<g id="edge2" class="edge">
<title>public.scenario_quiz_options:scenario_quiz_id&#45;&gt;public.scenario_quizzes:id</title>
<path fill="none" stroke="#000000" d="M422.3591,-576.995C575.7584,-561.7723 553.1464,-207.5 392,-207.5"/>
<polygon fill="#000000" stroke="#000000" points="421.9881,-577.013 411.7808,-573.0053 416.9941,-577.2565 412,-577.5 412,-577.5 412,-577.5 416.9941,-577.2565 412.2192,-581.9947 421.9881,-577.013 421.9881,-577.013"/>
<text text-anchor="start" x="418.541" y="-587.5" font-family="Arial" font-size="10.00" fill="#000000">FOREIGN KEY (scenario_quiz_id) REFERENCES scenario_quizzes(id) ON DELETE CASCADE</text>
</g>
<!-- public.scenario_quiz_options&#45;&gt;public.scenario_quizzes -->
<g id="edge3" class="edge">
<title>public.scenario_quiz_options:next_scenario_quiz_id&#45;&gt;public.scenario_quizzes:id</title>
<path fill="none" stroke="#000000" d="M422.2524,-486.839C535.5447,-471.8652 513.2282,-207.5 392,-207.5"/>
<polygon fill="#000000" stroke="#000000" points="421.9793,-486.8565 411.7104,-483.0093 416.9896,-487.1783 412,-487.5 412,-487.5 412,-487.5 416.9896,-487.1783 412.2896,-491.9907 421.9793,-486.8565 421.9793,-486.8565"/>
<text text-anchor="start" x="419.313" y="-497.5" font-family="Arial" font-size="10.00" fill="#000000">FOREIGN KEY (next_scenario_quiz_id) REFERENCES scenario_quizzes(id) ON DELETE CASCADE</text>
</g>
<!-- public.user_scenario_quiz_histories -->
<g id="node2" class="node">
<title>public.user_scenario_quiz_histories</title>
<polygon fill="#efefef" stroke="transparent" points="43,-1022.5 43,-1057.5 439,-1057.5 439,-1022.5 43,-1022.5"/>
<polygon fill="none" stroke="#000000" points="43,-1022.5 43,-1057.5 439,-1057.5 439,-1022.5 43,-1022.5"/>
<text text-anchor="start" x="49.8473" y="-1035.3" font-family="Arial Bold" font-size="18.00" fill="#000000">public.user_scenario_quiz_histories</text>
<text text-anchor="start" x="334.8989" y="-1035.3" font-family="Arial" font-size="14.00" fill="#000000"> </text>
<text text-anchor="start" x="338.7895" y="-1035.3" font-family="Arial" font-size="14.00" fill="#666666">[BASE TABLE]</text>
<polygon fill="none" stroke="#000000" points="43,-992.5 43,-1022.5 439,-1022.5 439,-992.5 43,-992.5"/>
<text text-anchor="start" x="50" y="-1003.9" font-family="Arial" font-size="14.00" fill="#000000">id </text>
<text text-anchor="start" x="64.7798" y="-1003.9" font-family="Arial" font-size="14.00" fill="#666666">[uuid]</text>
<polygon fill="none" stroke="#000000" points="43,-962.5 43,-992.5 439,-992.5 439,-962.5 43,-962.5"/>
<text text-anchor="start" x="50" y="-973.9" font-family="Arial" font-size="14.00" fill="#000000">user_scenario_history_id </text>
<text text-anchor="start" x="209.474" y="-973.9" font-family="Arial" font-size="14.00" fill="#666666">[uuid]</text>
<polygon fill="none" stroke="#000000" points="43,-932.5 43,-962.5 439,-962.5 439,-932.5 43,-932.5"/>
<text text-anchor="start" x="50" y="-943.9" font-family="Arial" font-size="14.00" fill="#000000">user_id </text>
<text text-anchor="start" x="99.7882" y="-943.9" font-family="Arial" font-size="14.00" fill="#666666">[uuid]</text>
<polygon fill="none" stroke="#000000" points="43,-902.5 43,-932.5 439,-932.5 439,-902.5 43,-902.5"/>
<text text-anchor="start" x="50" y="-913.9" font-family="Arial" font-size="14.00" fill="#000000">scenario_id </text>
<text text-anchor="start" x="125.46" y="-913.9" font-family="Arial" font-size="14.00" fill="#666666">[uuid]</text>
<polygon fill="none" stroke="#000000" points="43,-872.5 43,-902.5 439,-902.5 439,-872.5 43,-872.5"/>
<text text-anchor="start" x="50" y="-883.9" font-family="Arial" font-size="14.00" fill="#000000">scenario_quiz_id </text>
<text text-anchor="start" x="158.9144" y="-883.9" font-family="Arial" font-size="14.00" fill="#666666">[uuid]</text>
<polygon fill="none" stroke="#000000" points="43,-842.5 43,-872.5 439,-872.5 439,-842.5 43,-842.5"/>
<text text-anchor="start" x="50" y="-853.9" font-family="Arial" font-size="14.00" fill="#000000">scenario_quiz_option_id </text>
<text text-anchor="start" x="204.8246" y="-853.9" font-family="Arial" font-size="14.00" fill="#666666">[uuid]</text>
<polygon fill="none" stroke="#000000" points="43,-812.5 43,-842.5 439,-842.5 439,-812.5 43,-812.5"/>
<text text-anchor="start" x="50" y="-823.9" font-family="Arial" font-size="14.00" fill="#000000">created_at </text>
<text text-anchor="start" x="120.028" y="-823.9" font-family="Arial" font-size="14.00" fill="#666666">[timestamp without time zone]</text>
<polygon fill="none" stroke="#000000" points="43,-782.5 43,-812.5 439,-812.5 439,-782.5 43,-782.5"/>
<text text-anchor="start" x="50" y="-793.9" font-family="Arial" font-size="14.00" fill="#000000">updated_at </text>
<text text-anchor="start" x="123.9326" y="-793.9" font-family="Arial" font-size="14.00" fill="#666666">[timestamp without time zone]</text>
</g>
<!-- public.user_scenario_quiz_histories&#45;&gt;public.scenario_quiz_options -->
<g id="edge1" class="edge">
<title>public.user_scenario_quiz_histories:scenario_quiz_option_id&#45;&gt;public.scenario_quiz_options:id</title>
<path fill="none" stroke="#000000" d="M449.0724,-856.7828C548.987,-842.1191 520.2648,-607.5 412,-607.5"/>
<polygon fill="#000000" stroke="#000000" points="448.9747,-856.7897 438.6804,-853.0114 443.9874,-857.1448 439,-857.5 439,-857.5 439,-857.5 443.9874,-857.1448 439.3196,-861.9886 448.9747,-856.7897 448.9747,-856.7897"/>
<text text-anchor="start" x="446.0275" y="-867.5" font-family="Arial" font-size="10.00" fill="#000000">FOREIGN KEY (scenario_quiz_option_id) REFERENCES scenario_quiz_options(id) ON DELETE CASCADE</text>
</g>
</g>
</svg>
