<?xml version="1.0" encoding="UTF-8" standalone="no"?>
<!DOCTYPE svg PUBLIC "-//W3C//DTD SVG 1.1//EN"
 "http://www.w3.org/Graphics/SVG/1.1/DTD/svg11.dtd">
<!-- Generated by graphviz version 2.40.1 (20161225.0304)
 -->
<!-- Title: public.user_authentication_logs Pages: 1 -->
<svg width="764pt" height="622pt"
 viewBox="0.00 0.00 763.50 622.00" xmlns="http://www.w3.org/2000/svg" xmlns:xlink="http://www.w3.org/1999/xlink">
<g id="graph0" class="graph" transform="scale(1 1) rotate(0) translate(4 618)">
<title>public.user_authentication_logs</title>
<polygon fill="#ffffff" stroke="transparent" points="-4,4 -4,-618 759.5,-618 759.5,4 -4,4"/>
<!-- public.user_authentication_logs -->
<g id="node1" class="node">
<title>public.user_authentication_logs</title>
<polygon fill="#efefef" stroke="transparent" points="347,-532.5 347,-567.5 710,-567.5 710,-532.5 347,-532.5"/>
<polygon fill="none" stroke="#000000" points="347,-532.5 347,-567.5 710,-567.5 710,-532.5 347,-532.5"/>
<text text-anchor="start" x="353.8344" y="-545.3" font-family="Arial Bold" font-size="18.00" fill="#000000">public.user_authentication_logs</text>
<text text-anchor="start" x="605.9118" y="-545.3" font-family="Arial" font-size="14.00" fill="#000000"> </text>
<text text-anchor="start" x="609.8024" y="-545.3" font-family="Arial" font-size="14.00" fill="#666666">[BASE TABLE]</text>
<polygon fill="none" stroke="#000000" points="347,-502.5 347,-532.5 710,-532.5 710,-502.5 347,-502.5"/>
<text text-anchor="start" x="354" y="-513.9" font-family="Arial" font-size="14.00" fill="#000000">id </text>
<text text-anchor="start" x="368.7798" y="-513.9" font-family="Arial" font-size="14.00" fill="#666666">[uuid]</text>
<polygon fill="none" stroke="#000000" points="347,-472.5 347,-502.5 710,-502.5 710,-472.5 347,-472.5"/>
<text text-anchor="start" x="354" y="-483.9" font-family="Arial" font-size="14.00" fill="#000000">user_id </text>
<text text-anchor="start" x="403.7882" y="-483.9" font-family="Arial" font-size="14.00" fill="#666666">[uuid]</text>
<polygon fill="none" stroke="#000000" points="347,-442.5 347,-472.5 710,-472.5 710,-442.5 347,-442.5"/>
<text text-anchor="start" x="354" y="-453.9" font-family="Arial" font-size="14.00" fill="#000000">created_at </text>
<text text-anchor="start" x="424.028" y="-453.9" font-family="Arial" font-size="14.00" fill="#666666">[timestamp without time zone]</text>
<polygon fill="none" stroke="#000000" points="347,-412.5 347,-442.5 710,-442.5 710,-412.5 347,-412.5"/>
<text text-anchor="start" x="354" y="-423.9" font-family="Arial" font-size="14.00" fill="#000000">updated_at </text>
<text text-anchor="start" x="427.9326" y="-423.9" font-family="Arial" font-size="14.00" fill="#666666">[timestamp without time zone]</text>
<polygon fill="none" stroke="#000000" stroke-width="3" points="345,-411.5 345,-569.5 711,-569.5 711,-411.5 345,-411.5"/>
</g>
<!-- public.users -->
<g id="node2" class="node">
<title>public.users</title>
<polygon fill="#efefef" stroke="transparent" points="392,-252.5 392,-287.5 665,-287.5 665,-252.5 392,-252.5"/>
<polygon fill="none" stroke="#000000" points="392,-252.5 392,-287.5 665,-287.5 665,-252.5 392,-252.5"/>
<text text-anchor="start" x="431.8662" y="-265.3" font-family="Arial Bold" font-size="18.00" fill="#000000">public.users</text>
<text text-anchor="start" x="527.88" y="-265.3" font-family="Arial" font-size="14.00" fill="#000000"> </text>
<text text-anchor="start" x="531.7706" y="-265.3" font-family="Arial" font-size="14.00" fill="#666666">[BASE TABLE]</text>
<polygon fill="none" stroke="#000000" points="392,-222.5 392,-252.5 665,-252.5 665,-222.5 392,-222.5"/>
<text text-anchor="start" x="399" y="-233.9" font-family="Arial" font-size="14.00" fill="#000000">id </text>
<text text-anchor="start" x="413.7798" y="-233.9" font-family="Arial" font-size="14.00" fill="#666666">[uuid]</text>
<polygon fill="none" stroke="#000000" points="392,-192.5 392,-222.5 665,-222.5 665,-192.5 392,-192.5"/>
<text text-anchor="start" x="399" y="-203.9" font-family="Arial" font-size="14.00" fill="#000000">organization_id </text>
<text text-anchor="start" x="497.805" y="-203.9" font-family="Arial" font-size="14.00" fill="#666666">[uuid]</text>
<polygon fill="none" stroke="#000000" points="392,-162.5 392,-192.5 665,-192.5 665,-162.5 392,-162.5"/>
<text text-anchor="start" x="399" y="-173.9" font-family="Arial" font-size="14.00" fill="#000000">nickname </text>
<text text-anchor="start" x="462.7882" y="-173.9" font-family="Arial" font-size="14.00" fill="#666666">[varchar(20)]</text>
<polygon fill="none" stroke="#000000" points="392,-132.5 392,-162.5 665,-162.5 665,-132.5 392,-132.5"/>
<text text-anchor="start" x="399" y="-143.9" font-family="Arial" font-size="14.00" fill="#000000">email </text>
<text text-anchor="start" x="436.3296" y="-143.9" font-family="Arial" font-size="14.00" fill="#666666">[varchar(255)]</text>
<polygon fill="none" stroke="#000000" points="392,-102.5 392,-132.5 665,-132.5 665,-102.5 392,-102.5"/>
<text text-anchor="start" x="399" y="-113.9" font-family="Arial" font-size="14.00" fill="#000000">password_hash </text>
<text text-anchor="start" x="500.9186" y="-113.9" font-family="Arial" font-size="14.00" fill="#666666">[text]</text>
<polygon fill="none" stroke="#000000" points="392,-72.5 392,-102.5 665,-102.5 665,-72.5 392,-72.5"/>
<text text-anchor="start" x="399" y="-83.9" font-family="Arial" font-size="14.00" fill="#000000">created_at </text>
<text text-anchor="start" x="469.028" y="-83.9" font-family="Arial" font-size="14.00" fill="#666666">[timestamp without time zone]</text>
<polygon fill="none" stroke="#000000" points="392,-42.5 392,-72.5 665,-72.5 665,-42.5 392,-42.5"/>
<text text-anchor="start" x="398.9636" y="-53.9" font-family="Arial" font-size="14.00" fill="#000000">updated_at </text>
<text text-anchor="start" x="472.8962" y="-53.9" font-family="Arial" font-size="14.00" fill="#666666">[timestamp without time zone]</text>
</g>
<!-- public.user_authentication_logs&#45;&gt;public.users -->
<g id="edge1" class="edge">
<title>public.user_authentication_logs:user_id&#45;&gt;public.users:id</title>
<path fill="none" stroke="#000000" d="M336.8758,-486.7828C236.982,-472.1191 282.6313,-237.5 392,-237.5"/>
<polygon fill="#000000" stroke="#000000" points="337.025,-486.7933 346.682,-491.9888 342.0125,-487.1467 347,-487.5 347,-487.5 347,-487.5 342.0125,-487.1467 347.318,-483.0112 337.025,-486.7933 337.025,-486.7933"/>
<text text-anchor="start" x="7.0535" y="-497.5" font-family="Arial" font-size="10.00" fill="#000000">FOREIGN KEY (user_id) REFERENCES users(id) ON DELETE CASCADE</text>
</g>
</g>
</svg>
