<?xml version="1.0" encoding="UTF-8" standalone="no"?>
<!DOCTYPE svg PUBLIC "-//W3C//DTD SVG 1.1//EN"
 "http://www.w3.org/Graphics/SVG/1.1/DTD/svg11.dtd">
<!-- Generated by graphviz version 2.40.1 (20161225.0304)
 -->
<!-- Title: public.quizzes Pages: 1 -->
<svg width="1208pt" height="1169pt"
 viewBox="0.00 0.00 1208.00 1169.00" xmlns="http://www.w3.org/2000/svg" xmlns:xlink="http://www.w3.org/1999/xlink">
<g id="graph0" class="graph" transform="scale(1 1) rotate(0) translate(4 1165)">
<title>public.quizzes</title>
<polygon fill="#ffffff" stroke="transparent" points="-4,4 -4,-1165 1204,-1165 1204,4 -4,4"/>
<!-- public.quizzes -->
<g id="node1" class="node">
<title>public.quizzes</title>
<polygon fill="#efefef" stroke="transparent" points="384,-652.5 384,-687.5 657,-687.5 657,-652.5 384,-652.5"/>
<polygon fill="none" stroke="#000000" points="384,-652.5 384,-687.5 657,-687.5 657,-652.5 384,-652.5"/>
<text text-anchor="start" x="415.3621" y="-665.3" font-family="Arial Bold" font-size="18.00" fill="#000000">public.quizzes</text>
<text text-anchor="start" x="528.3841" y="-665.3" font-family="Arial" font-size="14.00" fill="#000000"> </text>
<text text-anchor="start" x="532.2747" y="-665.3" font-family="Arial" font-size="14.00" fill="#666666">[BASE TABLE]</text>
<polygon fill="none" stroke="#000000" points="384,-622.5 384,-652.5 657,-652.5 657,-622.5 384,-622.5"/>
<text text-anchor="start" x="391" y="-633.9" font-family="Arial" font-size="14.00" fill="#000000">id </text>
<text text-anchor="start" x="405.7798" y="-633.9" font-family="Arial" font-size="14.00" fill="#666666">[uuid]</text>
<polygon fill="none" stroke="#000000" points="384,-592.5 384,-622.5 657,-622.5 657,-592.5 384,-592.5"/>
<text text-anchor="start" x="391" y="-603.9" font-family="Arial" font-size="14.00" fill="#000000">scenario_id </text>
<text text-anchor="start" x="466.46" y="-603.9" font-family="Arial" font-size="14.00" fill="#666666">[uuid]</text>
<polygon fill="none" stroke="#000000" points="384,-562.5 384,-592.5 657,-592.5 657,-562.5 384,-562.5"/>
<text text-anchor="start" x="391" y="-573.9" font-family="Arial" font-size="14.00" fill="#000000">question </text>
<text text-anchor="start" x="447.8008" y="-573.9" font-family="Arial" font-size="14.00" fill="#666666">[text]</text>
<polygon fill="none" stroke="#000000" points="384,-532.5 384,-562.5 657,-562.5 657,-532.5 384,-532.5"/>
<text text-anchor="start" x="391" y="-543.9" font-family="Arial" font-size="14.00" fill="#000000">failure_message </text>
<text text-anchor="start" x="497.5764" y="-543.9" font-family="Arial" font-size="14.00" fill="#666666">[text]</text>
<polygon fill="none" stroke="#000000" points="384,-502.5 384,-532.5 657,-532.5 657,-502.5 384,-502.5"/>
<text text-anchor="start" x="391" y="-513.9" font-family="Arial" font-size="14.00" fill="#000000">created_at </text>
<text text-anchor="start" x="461.028" y="-513.9" font-family="Arial" font-size="14.00" fill="#666666">[timestamp without time zone]</text>
<polygon fill="none" stroke="#000000" points="384,-472.5 384,-502.5 657,-502.5 657,-472.5 384,-472.5"/>
<text text-anchor="start" x="390.9636" y="-483.9" font-family="Arial" font-size="14.00" fill="#000000">updated_at </text>
<text text-anchor="start" x="464.8962" y="-483.9" font-family="Arial" font-size="14.00" fill="#666666">[timestamp without time zone]</text>
<polygon fill="none" stroke="#000000" stroke-width="3" points="382,-471.5 382,-689.5 658,-689.5 658,-471.5 382,-471.5"/>
</g>
<!-- public.scenarios -->
<g id="node4" class="node">
<title>public.scenarios</title>
<polygon fill="#efefef" stroke="transparent" points="384,-312.5 384,-347.5 657,-347.5 657,-312.5 384,-312.5"/>
<polygon fill="none" stroke="#000000" points="384,-312.5 384,-347.5 657,-347.5 657,-312.5 384,-312.5"/>
<text text-anchor="start" x="407.3629" y="-325.3" font-family="Arial Bold" font-size="18.00" fill="#000000">public.scenarios</text>
<text text-anchor="start" x="536.3833" y="-325.3" font-family="Arial" font-size="14.00" fill="#000000"> </text>
<text text-anchor="start" x="540.2739" y="-325.3" font-family="Arial" font-size="14.00" fill="#666666">[BASE TABLE]</text>
<polygon fill="none" stroke="#000000" points="384,-282.5 384,-312.5 657,-312.5 657,-282.5 384,-282.5"/>
<text text-anchor="start" x="391" y="-293.9" font-family="Arial" font-size="14.00" fill="#000000">id </text>
<text text-anchor="start" x="405.7798" y="-293.9" font-family="Arial" font-size="14.00" fill="#666666">[uuid]</text>
<polygon fill="none" stroke="#000000" points="384,-252.5 384,-282.5 657,-282.5 657,-252.5 384,-252.5"/>
<text text-anchor="start" x="391" y="-263.9" font-family="Arial" font-size="14.00" fill="#000000">story_id </text>
<text text-anchor="start" x="443.8962" y="-263.9" font-family="Arial" font-size="14.00" fill="#666666">[uuid]</text>
<polygon fill="none" stroke="#000000" points="384,-222.5 384,-252.5 657,-252.5 657,-222.5 384,-222.5"/>
<text text-anchor="start" x="391" y="-233.9" font-family="Arial" font-size="14.00" fill="#000000">role_id </text>
<text text-anchor="start" x="436.8948" y="-233.9" font-family="Arial" font-size="14.00" fill="#666666">[uuid]</text>
<polygon fill="none" stroke="#000000" points="384,-192.5 384,-222.5 657,-222.5 657,-192.5 384,-192.5"/>
<text text-anchor="start" x="391" y="-203.9" font-family="Arial" font-size="14.00" fill="#000000">overview </text>
<text text-anchor="start" x="450.1122" y="-203.9" font-family="Arial" font-size="14.00" fill="#666666">[text]</text>
<polygon fill="none" stroke="#000000" points="384,-162.5 384,-192.5 657,-192.5 657,-162.5 384,-162.5"/>
<text text-anchor="start" x="391" y="-173.9" font-family="Arial" font-size="14.00" fill="#000000">description </text>
<text text-anchor="start" x="462.568" y="-173.9" font-family="Arial" font-size="14.00" fill="#666666">[text]</text>
<polygon fill="none" stroke="#000000" points="384,-132.5 384,-162.5 657,-162.5 657,-132.5 384,-132.5"/>
<text text-anchor="start" x="391" y="-143.9" font-family="Arial" font-size="14.00" fill="#000000">highest_score </text>
<text text-anchor="start" x="482.0266" y="-143.9" font-family="Arial" font-size="14.00" fill="#666666">[integer]</text>
<polygon fill="none" stroke="#000000" points="384,-102.5 384,-132.5 657,-132.5 657,-102.5 384,-102.5"/>
<text text-anchor="start" x="391" y="-113.9" font-family="Arial" font-size="14.00" fill="#000000">result_message </text>
<text text-anchor="start" x="493.6872" y="-113.9" font-family="Arial" font-size="14.00" fill="#666666">[text]</text>
<polygon fill="none" stroke="#000000" points="384,-72.5 384,-102.5 657,-102.5 657,-72.5 384,-72.5"/>
<text text-anchor="start" x="391" y="-83.9" font-family="Arial" font-size="14.00" fill="#000000">created_at </text>
<text text-anchor="start" x="461.028" y="-83.9" font-family="Arial" font-size="14.00" fill="#666666">[timestamp without time zone]</text>
<polygon fill="none" stroke="#000000" points="384,-42.5 384,-72.5 657,-72.5 657,-42.5 384,-42.5"/>
<text text-anchor="start" x="390.9636" y="-53.9" font-family="Arial" font-size="14.00" fill="#000000">updated_at </text>
<text text-anchor="start" x="464.8962" y="-53.9" font-family="Arial" font-size="14.00" fill="#666666">[timestamp without time zone]</text>
</g>
<!-- public.quizzes&#45;&gt;public.scenarios -->
<g id="edge4" class="edge">
<title>public.quizzes:scenario_id&#45;&gt;public.scenarios:id</title>
<path fill="none" stroke="#000000" d="M374.0381,-605.183C315.2888,-576.815 318.6094,-297.5 384,-297.5"/>
<polygon fill="#000000" stroke="#000000" points="374.26,-605.2345 382.9805,-611.883 379.13,-606.3672 384,-607.5 384,-607.5 384,-607.5 379.13,-606.3672 385.0195,-603.117 374.26,-605.2345 374.26,-605.2345"/>
<text text-anchor="start" x="6.7165" y="-617.5" font-family="Arial" font-size="10.00" fill="#000000">FOREIGN KEY (scenario_id) REFERENCES scenarios(id) ON DELETE CASCADE</text>
</g>
<!-- public.quiz_options -->
<g id="node2" class="node">
<title>public.quiz_options</title>
<polygon fill="#efefef" stroke="transparent" points="384,-1067.5 384,-1102.5 657,-1102.5 657,-1067.5 384,-1067.5"/>
<polygon fill="none" stroke="#000000" points="384,-1067.5 384,-1102.5 657,-1102.5 657,-1067.5 384,-1067.5"/>
<text text-anchor="start" x="395.3515" y="-1080.3" font-family="Arial Bold" font-size="18.00" fill="#000000">public.quiz_options</text>
<text text-anchor="start" x="548.3947" y="-1080.3" font-family="Arial" font-size="14.00" fill="#000000"> </text>
<text text-anchor="start" x="552.2853" y="-1080.3" font-family="Arial" font-size="14.00" fill="#666666">[BASE TABLE]</text>
<polygon fill="none" stroke="#000000" points="384,-1037.5 384,-1067.5 657,-1067.5 657,-1037.5 384,-1037.5"/>
<text text-anchor="start" x="391" y="-1048.9" font-family="Arial" font-size="14.00" fill="#000000">id </text>
<text text-anchor="start" x="405.7798" y="-1048.9" font-family="Arial" font-size="14.00" fill="#666666">[uuid]</text>
<polygon fill="none" stroke="#000000" points="384,-1007.5 384,-1037.5 657,-1037.5 657,-1007.5 384,-1007.5"/>
<text text-anchor="start" x="391" y="-1018.9" font-family="Arial" font-size="14.00" fill="#000000">quiz_id </text>
<text text-anchor="start" x="439.2342" y="-1018.9" font-family="Arial" font-size="14.00" fill="#666666">[uuid]</text>
<polygon fill="none" stroke="#000000" points="384,-977.5 384,-1007.5 657,-1007.5 657,-977.5 384,-977.5"/>
<text text-anchor="start" x="391" y="-988.9" font-family="Arial" font-size="14.00" fill="#000000">answer </text>
<text text-anchor="start" x="440.0056" y="-988.9" font-family="Arial" font-size="14.00" fill="#666666">[varchar(255)]</text>
<polygon fill="none" stroke="#000000" points="384,-947.5 384,-977.5 657,-977.5 657,-947.5 384,-947.5"/>
<text text-anchor="start" x="391" y="-958.9" font-family="Arial" font-size="14.00" fill="#000000">score </text>
<text text-anchor="start" x="429.1164" y="-958.9" font-family="Arial" font-size="14.00" fill="#666666">[integer]</text>
<polygon fill="none" stroke="#000000" points="384,-917.5 384,-947.5 657,-947.5 657,-917.5 384,-917.5"/>
<text text-anchor="start" x="391" y="-928.9" font-family="Arial" font-size="14.00" fill="#000000">next_quiz_id </text>
<text text-anchor="start" x="473.4726" y="-928.9" font-family="Arial" font-size="14.00" fill="#666666">[uuid]</text>
<polygon fill="none" stroke="#000000" points="384,-887.5 384,-917.5 657,-917.5 657,-887.5 384,-887.5"/>
<text text-anchor="start" x="391" y="-898.9" font-family="Arial" font-size="14.00" fill="#000000">next_status </text>
<text text-anchor="start" x="466.4754" y="-898.9" font-family="Arial" font-size="14.00" fill="#666666">[integer]</text>
<polygon fill="none" stroke="#000000" points="384,-857.5 384,-887.5 657,-887.5 657,-857.5 384,-857.5"/>
<text text-anchor="start" x="391" y="-868.9" font-family="Arial" font-size="14.00" fill="#000000">created_at </text>
<text text-anchor="start" x="461.028" y="-868.9" font-family="Arial" font-size="14.00" fill="#666666">[timestamp without time zone]</text>
<polygon fill="none" stroke="#000000" points="384,-827.5 384,-857.5 657,-857.5 657,-827.5 384,-827.5"/>
<text text-anchor="start" x="390.9636" y="-838.9" font-family="Arial" font-size="14.00" fill="#000000">updated_at </text>
<text text-anchor="start" x="464.8962" y="-838.9" font-family="Arial" font-size="14.00" fill="#666666">[timestamp without time zone]</text>
</g>
<!-- public.quiz_options&#45;&gt;public.quizzes -->
<g id="edge1" class="edge">
<title>public.quiz_options:next_quiz_id&#45;&gt;public.quizzes:id</title>
<path fill="none" stroke="#000000" d="M374.1758,-930.1254C318.6267,-902.2071 321.9015,-637.5 384,-637.5"/>
<polygon fill="#000000" stroke="#000000" points="374.2799,-930.1505 382.9427,-936.874 379.14,-931.3252 384,-932.5 384,-932.5 384,-932.5 379.14,-931.3252 385.0573,-928.126 374.2799,-930.1505 374.2799,-930.1505"/>
<text text-anchor="start" x="10.656" y="-942.5" font-family="Arial" font-size="10.00" fill="#000000">FOREIGN KEY (next_quiz_id) REFERENCES quizzes(id) ON DELETE CASCADE</text>
</g>
<!-- public.quiz_options&#45;&gt;public.quizzes -->
<g id="edge2" class="edge">
<title>public.quiz_options:quiz_id&#45;&gt;public.quizzes:id</title>
<path fill="none" stroke="#000000" d="M373.9044,-1020.6101C298.5884,-991.5656 301.9536,-637.5 384,-637.5"/>
<polygon fill="#000000" stroke="#000000" points="374.1707,-1020.6599 383.1719,-1026.9232 379.0854,-1021.5799 384,-1022.5 384,-1022.5 384,-1022.5 379.0854,-1021.5799 384.8281,-1018.0768 374.1707,-1020.6599 374.1707,-1020.6599"/>
<text text-anchor="start" x="34.884" y="-1032.5" font-family="Arial" font-size="10.00" fill="#000000">FOREIGN KEY (quiz_id) REFERENCES quizzes(id) ON DELETE CASCADE</text>
</g>
<!-- public.user_scenario_quiz_histories -->
<g id="node3" class="node">
<title>public.user_scenario_quiz_histories</title>
<polygon fill="#efefef" stroke="transparent" points="761,-1082.5 761,-1117.5 1157,-1117.5 1157,-1082.5 761,-1082.5"/>
<polygon fill="none" stroke="#000000" points="761,-1082.5 761,-1117.5 1157,-1117.5 1157,-1082.5 761,-1082.5"/>
<text text-anchor="start" x="767.8473" y="-1095.3" font-family="Arial Bold" font-size="18.00" fill="#000000">public.user_scenario_quiz_histories</text>
<text text-anchor="start" x="1052.8989" y="-1095.3" font-family="Arial" font-size="14.00" fill="#000000"> </text>
<text text-anchor="start" x="1056.7895" y="-1095.3" font-family="Arial" font-size="14.00" fill="#666666">[BASE TABLE]</text>
<polygon fill="none" stroke="#000000" points="761,-1052.5 761,-1082.5 1157,-1082.5 1157,-1052.5 761,-1052.5"/>
<text text-anchor="start" x="768" y="-1063.9" font-family="Arial" font-size="14.00" fill="#000000">id </text>
<text text-anchor="start" x="782.7798" y="-1063.9" font-family="Arial" font-size="14.00" fill="#666666">[uuid]</text>
<polygon fill="none" stroke="#000000" points="761,-1022.5 761,-1052.5 1157,-1052.5 1157,-1022.5 761,-1022.5"/>
<text text-anchor="start" x="768" y="-1033.9" font-family="Arial" font-size="14.00" fill="#000000">user_scenario_history_id </text>
<text text-anchor="start" x="927.474" y="-1033.9" font-family="Arial" font-size="14.00" fill="#666666">[uuid]</text>
<polygon fill="none" stroke="#000000" points="761,-992.5 761,-1022.5 1157,-1022.5 1157,-992.5 761,-992.5"/>
<text text-anchor="start" x="768" y="-1003.9" font-family="Arial" font-size="14.00" fill="#000000">user_id </text>
<text text-anchor="start" x="817.7882" y="-1003.9" font-family="Arial" font-size="14.00" fill="#666666">[uuid]</text>
<polygon fill="none" stroke="#000000" points="761,-962.5 761,-992.5 1157,-992.5 1157,-962.5 761,-962.5"/>
<text text-anchor="start" x="768" y="-973.9" font-family="Arial" font-size="14.00" fill="#000000">scenario_id </text>
<text text-anchor="start" x="843.46" y="-973.9" font-family="Arial" font-size="14.00" fill="#666666">[uuid]</text>
<polygon fill="none" stroke="#000000" points="761,-932.5 761,-962.5 1157,-962.5 1157,-932.5 761,-932.5"/>
<text text-anchor="start" x="768" y="-943.9" font-family="Arial" font-size="14.00" fill="#000000">quiz_id </text>
<text text-anchor="start" x="816.2342" y="-943.9" font-family="Arial" font-size="14.00" fill="#666666">[uuid]</text>
<polygon fill="none" stroke="#000000" points="761,-902.5 761,-932.5 1157,-932.5 1157,-902.5 761,-902.5"/>
<text text-anchor="start" x="768" y="-913.9" font-family="Arial" font-size="14.00" fill="#000000">quiz_option_id </text>
<text text-anchor="start" x="862.1444" y="-913.9" font-family="Arial" font-size="14.00" fill="#666666">[uuid]</text>
<polygon fill="none" stroke="#000000" points="761,-872.5 761,-902.5 1157,-902.5 1157,-872.5 761,-872.5"/>
<text text-anchor="start" x="768" y="-883.9" font-family="Arial" font-size="14.00" fill="#000000">score </text>
<text text-anchor="start" x="806.1164" y="-883.9" font-family="Arial" font-size="14.00" fill="#666666">[integer]</text>
<polygon fill="none" stroke="#000000" points="761,-842.5 761,-872.5 1157,-872.5 1157,-842.5 761,-842.5"/>
<text text-anchor="start" x="768" y="-853.9" font-family="Arial" font-size="14.00" fill="#000000">created_at </text>
<text text-anchor="start" x="838.028" y="-853.9" font-family="Arial" font-size="14.00" fill="#666666">[timestamp without time zone]</text>
<polygon fill="none" stroke="#000000" points="761,-812.5 761,-842.5 1157,-842.5 1157,-812.5 761,-812.5"/>
<text text-anchor="start" x="768" y="-823.9" font-family="Arial" font-size="14.00" fill="#000000">updated_at </text>
<text text-anchor="start" x="841.9326" y="-823.9" font-family="Arial" font-size="14.00" fill="#666666">[timestamp without time zone]</text>
</g>
<!-- public.user_scenario_quiz_histories&#45;&gt;public.quizzes -->
<g id="edge3" class="edge">
<title>public.user_scenario_quiz_histories:quiz_id&#45;&gt;public.quizzes:id</title>
<path fill="none" stroke="#000000" d="M750.743,-946.9073C683.7305,-938.5853 734.4028,-844.2885 709,-770 688.5315,-710.1413 720.2616,-637.5 657,-637.5"/>
<polygon fill="#000000" stroke="#000000" points="751.0167,-946.9231 760.7404,-951.9925 756.0083,-947.2115 761,-947.5 761,-947.5 761,-947.5 756.0083,-947.2115 761.2596,-943.0075 751.0167,-946.9231 751.0167,-946.9231"/>
<text text-anchor="start" x="767.884" y="-957.5" font-family="Arial" font-size="10.00" fill="#000000">FOREIGN KEY (quiz_id) REFERENCES quizzes(id) ON DELETE CASCADE</text>
</g>
</g>
</svg>
