<?xml version="1.0" encoding="UTF-8" standalone="no"?>
<!DOCTYPE svg PUBLIC "-//W3C//DTD SVG 1.1//EN"
 "http://www.w3.org/Graphics/SVG/1.1/DTD/svg11.dtd">
<!-- Generated by graphviz version 2.40.1 (20161225.0304)
 -->
<!-- Title: public.quiz_options Pages: 1 -->
<svg width="858pt" height="1139pt"
 viewBox="0.00 0.00 858.00 1139.00" xmlns="http://www.w3.org/2000/svg" xmlns:xlink="http://www.w3.org/1999/xlink">
<g id="graph0" class="graph" transform="scale(1 1) rotate(0) translate(4 1135)">
<title>public.quiz_options</title>
<polygon fill="#ffffff" stroke="transparent" points="-4,4 -4,-1135 854,-1135 854,4 -4,4"/>
<!-- public.quiz_options -->
<g id="node1" class="node">
<title>public.quiz_options</title>
<polygon fill="#efefef" stroke="transparent" points="472,-622.5 472,-657.5 745,-657.5 745,-622.5 472,-622.5"/>
<polygon fill="none" stroke="#000000" points="472,-622.5 472,-657.5 745,-657.5 745,-622.5 472,-622.5"/>
<text text-anchor="start" x="483.3515" y="-635.3" font-family="Arial Bold" font-size="18.00" fill="#000000">public.quiz_options</text>
<text text-anchor="start" x="636.3947" y="-635.3" font-family="Arial" font-size="14.00" fill="#000000"> </text>
<text text-anchor="start" x="640.2853" y="-635.3" font-family="Arial" font-size="14.00" fill="#666666">[BASE TABLE]</text>
<polygon fill="none" stroke="#000000" points="472,-592.5 472,-622.5 745,-622.5 745,-592.5 472,-592.5"/>
<text text-anchor="start" x="479" y="-603.9" font-family="Arial" font-size="14.00" fill="#000000">id </text>
<text text-anchor="start" x="493.7798" y="-603.9" font-family="Arial" font-size="14.00" fill="#666666">[uuid]</text>
<polygon fill="none" stroke="#000000" points="472,-562.5 472,-592.5 745,-592.5 745,-562.5 472,-562.5"/>
<text text-anchor="start" x="479" y="-573.9" font-family="Arial" font-size="14.00" fill="#000000">quiz_id </text>
<text text-anchor="start" x="527.2342" y="-573.9" font-family="Arial" font-size="14.00" fill="#666666">[uuid]</text>
<polygon fill="none" stroke="#000000" points="472,-532.5 472,-562.5 745,-562.5 745,-532.5 472,-532.5"/>
<text text-anchor="start" x="479" y="-543.9" font-family="Arial" font-size="14.00" fill="#000000">answer </text>
<text text-anchor="start" x="528.0056" y="-543.9" font-family="Arial" font-size="14.00" fill="#666666">[varchar(255)]</text>
<polygon fill="none" stroke="#000000" points="472,-502.5 472,-532.5 745,-532.5 745,-502.5 472,-502.5"/>
<text text-anchor="start" x="479" y="-513.9" font-family="Arial" font-size="14.00" fill="#000000">score </text>
<text text-anchor="start" x="517.1164" y="-513.9" font-family="Arial" font-size="14.00" fill="#666666">[integer]</text>
<polygon fill="none" stroke="#000000" points="472,-472.5 472,-502.5 745,-502.5 745,-472.5 472,-472.5"/>
<text text-anchor="start" x="479" y="-483.9" font-family="Arial" font-size="14.00" fill="#000000">next_quiz_id </text>
<text text-anchor="start" x="561.4726" y="-483.9" font-family="Arial" font-size="14.00" fill="#666666">[uuid]</text>
<polygon fill="none" stroke="#000000" points="472,-442.5 472,-472.5 745,-472.5 745,-442.5 472,-442.5"/>
<text text-anchor="start" x="479" y="-453.9" font-family="Arial" font-size="14.00" fill="#000000">next_status </text>
<text text-anchor="start" x="554.4754" y="-453.9" font-family="Arial" font-size="14.00" fill="#666666">[integer]</text>
<polygon fill="none" stroke="#000000" points="472,-412.5 472,-442.5 745,-442.5 745,-412.5 472,-412.5"/>
<text text-anchor="start" x="479" y="-423.9" font-family="Arial" font-size="14.00" fill="#000000">created_at </text>
<text text-anchor="start" x="549.028" y="-423.9" font-family="Arial" font-size="14.00" fill="#666666">[timestamp without time zone]</text>
<polygon fill="none" stroke="#000000" points="472,-382.5 472,-412.5 745,-412.5 745,-382.5 472,-382.5"/>
<text text-anchor="start" x="478.9636" y="-393.9" font-family="Arial" font-size="14.00" fill="#000000">updated_at </text>
<text text-anchor="start" x="552.8962" y="-393.9" font-family="Arial" font-size="14.00" fill="#666666">[timestamp without time zone]</text>
<polygon fill="none" stroke="#000000" stroke-width="3" points="470,-381.5 470,-659.5 746,-659.5 746,-381.5 470,-381.5"/>
</g>
<!-- public.quizzes -->
<g id="node3" class="node">
<title>public.quizzes</title>
<polygon fill="#efefef" stroke="transparent" points="472,-222.5 472,-257.5 745,-257.5 745,-222.5 472,-222.5"/>
<polygon fill="none" stroke="#000000" points="472,-222.5 472,-257.5 745,-257.5 745,-222.5 472,-222.5"/>
<text text-anchor="start" x="503.3621" y="-235.3" font-family="Arial Bold" font-size="18.00" fill="#000000">public.quizzes</text>
<text text-anchor="start" x="616.3841" y="-235.3" font-family="Arial" font-size="14.00" fill="#000000"> </text>
<text text-anchor="start" x="620.2747" y="-235.3" font-family="Arial" font-size="14.00" fill="#666666">[BASE TABLE]</text>
<polygon fill="none" stroke="#000000" points="472,-192.5 472,-222.5 745,-222.5 745,-192.5 472,-192.5"/>
<text text-anchor="start" x="479" y="-203.9" font-family="Arial" font-size="14.00" fill="#000000">id </text>
<text text-anchor="start" x="493.7798" y="-203.9" font-family="Arial" font-size="14.00" fill="#666666">[uuid]</text>
<polygon fill="none" stroke="#000000" points="472,-162.5 472,-192.5 745,-192.5 745,-162.5 472,-162.5"/>
<text text-anchor="start" x="479" y="-173.9" font-family="Arial" font-size="14.00" fill="#000000">scenario_id </text>
<text text-anchor="start" x="554.46" y="-173.9" font-family="Arial" font-size="14.00" fill="#666666">[uuid]</text>
<polygon fill="none" stroke="#000000" points="472,-132.5 472,-162.5 745,-162.5 745,-132.5 472,-132.5"/>
<text text-anchor="start" x="479" y="-143.9" font-family="Arial" font-size="14.00" fill="#000000">question </text>
<text text-anchor="start" x="535.8008" y="-143.9" font-family="Arial" font-size="14.00" fill="#666666">[text]</text>
<polygon fill="none" stroke="#000000" points="472,-102.5 472,-132.5 745,-132.5 745,-102.5 472,-102.5"/>
<text text-anchor="start" x="479" y="-113.9" font-family="Arial" font-size="14.00" fill="#000000">failure_message </text>
<text text-anchor="start" x="585.5764" y="-113.9" font-family="Arial" font-size="14.00" fill="#666666">[text]</text>
<polygon fill="none" stroke="#000000" points="472,-72.5 472,-102.5 745,-102.5 745,-72.5 472,-72.5"/>
<text text-anchor="start" x="479" y="-83.9" font-family="Arial" font-size="14.00" fill="#000000">created_at </text>
<text text-anchor="start" x="549.028" y="-83.9" font-family="Arial" font-size="14.00" fill="#666666">[timestamp without time zone]</text>
<polygon fill="none" stroke="#000000" points="472,-42.5 472,-72.5 745,-72.5 745,-42.5 472,-42.5"/>
<text text-anchor="start" x="478.9636" y="-53.9" font-family="Arial" font-size="14.00" fill="#000000">updated_at </text>
<text text-anchor="start" x="552.8962" y="-53.9" font-family="Arial" font-size="14.00" fill="#666666">[timestamp without time zone]</text>
</g>
<!-- public.quiz_options&#45;&gt;public.quizzes -->
<g id="edge2" class="edge">
<title>public.quiz_options:quiz_id&#45;&gt;public.quizzes:id</title>
<path fill="none" stroke="#000000" d="M461.6288,-576.995C307.6315,-561.7723 311.0885,-207.5 472,-207.5"/>
<polygon fill="#000000" stroke="#000000" points="462.0118,-577.0135 471.7811,-581.9947 467.0059,-577.2568 472,-577.5 472,-577.5 472,-577.5 467.0059,-577.2568 472.2189,-573.0053 462.0118,-577.0135 462.0118,-577.0135"/>
<text text-anchor="start" x="122.884" y="-587.5" font-family="Arial" font-size="10.00" fill="#000000">FOREIGN KEY (quiz_id) REFERENCES quizzes(id) ON DELETE CASCADE</text>
</g>
<!-- public.quiz_options&#45;&gt;public.quizzes -->
<g id="edge3" class="edge">
<title>public.quiz_options:next_quiz_id&#45;&gt;public.quizzes:id</title>
<path fill="none" stroke="#000000" d="M461.7265,-486.839C347.6554,-471.8652 351.0799,-207.5 472,-207.5"/>
<polygon fill="#000000" stroke="#000000" points="462.0206,-486.8578 471.711,-491.9907 467.0103,-487.1789 472,-487.5 472,-487.5 472,-487.5 467.0103,-487.1789 472.289,-483.0093 462.0206,-486.8578 462.0206,-486.8578"/>
<text text-anchor="start" x="98.656" y="-497.5" font-family="Arial" font-size="10.00" fill="#000000">FOREIGN KEY (next_quiz_id) REFERENCES quizzes(id) ON DELETE CASCADE</text>
</g>
<!-- public.user_scenario_quiz_histories -->
<g id="node2" class="node">
<title>public.user_scenario_quiz_histories</title>
<polygon fill="#efefef" stroke="transparent" points="411,-1052.5 411,-1087.5 807,-1087.5 807,-1052.5 411,-1052.5"/>
<polygon fill="none" stroke="#000000" points="411,-1052.5 411,-1087.5 807,-1087.5 807,-1052.5 411,-1052.5"/>
<text text-anchor="start" x="417.8473" y="-1065.3" font-family="Arial Bold" font-size="18.00" fill="#000000">public.user_scenario_quiz_histories</text>
<text text-anchor="start" x="702.8989" y="-1065.3" font-family="Arial" font-size="14.00" fill="#000000"> </text>
<text text-anchor="start" x="706.7895" y="-1065.3" font-family="Arial" font-size="14.00" fill="#666666">[BASE TABLE]</text>
<polygon fill="none" stroke="#000000" points="411,-1022.5 411,-1052.5 807,-1052.5 807,-1022.5 411,-1022.5"/>
<text text-anchor="start" x="418" y="-1033.9" font-family="Arial" font-size="14.00" fill="#000000">id </text>
<text text-anchor="start" x="432.7798" y="-1033.9" font-family="Arial" font-size="14.00" fill="#666666">[uuid]</text>
<polygon fill="none" stroke="#000000" points="411,-992.5 411,-1022.5 807,-1022.5 807,-992.5 411,-992.5"/>
<text text-anchor="start" x="418" y="-1003.9" font-family="Arial" font-size="14.00" fill="#000000">user_scenario_history_id </text>
<text text-anchor="start" x="577.474" y="-1003.9" font-family="Arial" font-size="14.00" fill="#666666">[uuid]</text>
<polygon fill="none" stroke="#000000" points="411,-962.5 411,-992.5 807,-992.5 807,-962.5 411,-962.5"/>
<text text-anchor="start" x="418" y="-973.9" font-family="Arial" font-size="14.00" fill="#000000">user_id </text>
<text text-anchor="start" x="467.7882" y="-973.9" font-family="Arial" font-size="14.00" fill="#666666">[uuid]</text>
<polygon fill="none" stroke="#000000" points="411,-932.5 411,-962.5 807,-962.5 807,-932.5 411,-932.5"/>
<text text-anchor="start" x="418" y="-943.9" font-family="Arial" font-size="14.00" fill="#000000">scenario_id </text>
<text text-anchor="start" x="493.46" y="-943.9" font-family="Arial" font-size="14.00" fill="#666666">[uuid]</text>
<polygon fill="none" stroke="#000000" points="411,-902.5 411,-932.5 807,-932.5 807,-902.5 411,-902.5"/>
<text text-anchor="start" x="418" y="-913.9" font-family="Arial" font-size="14.00" fill="#000000">quiz_id </text>
<text text-anchor="start" x="466.2342" y="-913.9" font-family="Arial" font-size="14.00" fill="#666666">[uuid]</text>
<polygon fill="none" stroke="#000000" points="411,-872.5 411,-902.5 807,-902.5 807,-872.5 411,-872.5"/>
<text text-anchor="start" x="418" y="-883.9" font-family="Arial" font-size="14.00" fill="#000000">quiz_option_id </text>
<text text-anchor="start" x="512.1444" y="-883.9" font-family="Arial" font-size="14.00" fill="#666666">[uuid]</text>
<polygon fill="none" stroke="#000000" points="411,-842.5 411,-872.5 807,-872.5 807,-842.5 411,-842.5"/>
<text text-anchor="start" x="418" y="-853.9" font-family="Arial" font-size="14.00" fill="#000000">score </text>
<text text-anchor="start" x="456.1164" y="-853.9" font-family="Arial" font-size="14.00" fill="#666666">[integer]</text>
<polygon fill="none" stroke="#000000" points="411,-812.5 411,-842.5 807,-842.5 807,-812.5 411,-812.5"/>
<text text-anchor="start" x="418" y="-823.9" font-family="Arial" font-size="14.00" fill="#000000">created_at </text>
<text text-anchor="start" x="488.028" y="-823.9" font-family="Arial" font-size="14.00" fill="#666666">[timestamp without time zone]</text>
<polygon fill="none" stroke="#000000" points="411,-782.5 411,-812.5 807,-812.5 807,-782.5 411,-782.5"/>
<text text-anchor="start" x="418" y="-793.9" font-family="Arial" font-size="14.00" fill="#000000">updated_at </text>
<text text-anchor="start" x="491.9326" y="-793.9" font-family="Arial" font-size="14.00" fill="#666666">[timestamp without time zone]</text>
</g>
<!-- public.user_scenario_quiz_histories&#45;&gt;public.quiz_options -->
<g id="edge1" class="edge">
<title>public.user_scenario_quiz_histories:quiz_option_id&#45;&gt;public.quiz_options:id</title>
<path fill="none" stroke="#000000" d="M401.0175,-886.6385C347.8898,-876.8514 369.5947,-786.108 411,-740 460.8785,-684.4565 695.1215,-759.5435 745,-704 773.656,-672.0893 787.8889,-607.5 745,-607.5"/>
<polygon fill="#000000" stroke="#000000" points="401.037,-886.6401 410.6131,-891.9833 406.0185,-887.0701 411,-887.5 411,-887.5 411,-887.5 406.0185,-887.0701 411.3869,-883.0167 401.037,-886.6401 401.037,-886.6401"/>
<text text-anchor="start" x="7.3705" y="-897.5" font-family="Arial" font-size="10.00" fill="#000000">FOREIGN KEY (quiz_option_id) REFERENCES quiz_options(id) ON DELETE CASCADE</text>
</g>
</g>
</svg>
