<?xml version="1.0" encoding="UTF-8" standalone="no"?>
<!DOCTYPE svg PUBLIC "-//W3C//DTD SVG 1.1//EN"
 "http://www.w3.org/Graphics/SVG/1.1/DTD/svg11.dtd">
<!-- Generated by graphviz version 2.40.1 (20161225.0304)
 -->
<!-- Title: public.tags Pages: 1 -->
<svg width="664pt" height="532pt"
 viewBox="0.00 0.00 663.50 532.00" xmlns="http://www.w3.org/2000/svg" xmlns:xlink="http://www.w3.org/1999/xlink">
<g id="graph0" class="graph" transform="scale(1 1) rotate(0) translate(4 528)">
<title>public.tags</title>
<polygon fill="#ffffff" stroke="transparent" points="-4,4 -4,-528 659.5,-528 659.5,4 -4,4"/>
<!-- public.tags -->
<g id="node1" class="node">
<title>public.tags</title>
<polygon fill="#efefef" stroke="transparent" points="337,-165.5 337,-200.5 610,-200.5 610,-165.5 337,-165.5"/>
<polygon fill="none" stroke="#000000" points="337,-165.5 337,-200.5 610,-200.5 610,-165.5 337,-165.5"/>
<text text-anchor="start" x="381.8612" y="-178.3" font-family="Arial Bold" font-size="18.00" fill="#000000">public.tags</text>
<text text-anchor="start" x="467.885" y="-178.3" font-family="Arial" font-size="14.00" fill="#000000"> </text>
<text text-anchor="start" x="471.7756" y="-178.3" font-family="Arial" font-size="14.00" fill="#666666">[BASE TABLE]</text>
<polygon fill="none" stroke="#000000" points="337,-135.5 337,-165.5 610,-165.5 610,-135.5 337,-135.5"/>
<text text-anchor="start" x="344" y="-146.9" font-family="Arial" font-size="14.00" fill="#000000">id </text>
<text text-anchor="start" x="358.7798" y="-146.9" font-family="Arial" font-size="14.00" fill="#666666">[uuid]</text>
<polygon fill="none" stroke="#000000" points="337,-105.5 337,-135.5 610,-135.5 610,-105.5 337,-105.5"/>
<text text-anchor="start" x="344" y="-116.9" font-family="Arial" font-size="14.00" fill="#000000">name </text>
<text text-anchor="start" x="382.899" y="-116.9" font-family="Arial" font-size="14.00" fill="#666666">[varchar(128)]</text>
<polygon fill="none" stroke="#000000" points="337,-75.5 337,-105.5 610,-105.5 610,-75.5 337,-75.5"/>
<text text-anchor="start" x="344" y="-86.9" font-family="Arial" font-size="14.00" fill="#000000">created_at </text>
<text text-anchor="start" x="414.028" y="-86.9" font-family="Arial" font-size="14.00" fill="#666666">[timestamp without time zone]</text>
<polygon fill="none" stroke="#000000" points="337,-45.5 337,-75.5 610,-75.5 610,-45.5 337,-45.5"/>
<text text-anchor="start" x="343.9636" y="-56.9" font-family="Arial" font-size="14.00" fill="#000000">updated_at </text>
<text text-anchor="start" x="417.8962" y="-56.9" font-family="Arial" font-size="14.00" fill="#666666">[timestamp without time zone]</text>
<polygon fill="none" stroke="#000000" stroke-width="3" points="335,-44.5 335,-202.5 611,-202.5 611,-44.5 335,-44.5"/>
</g>
<!-- public.scenario_tags -->
<g id="node2" class="node">
<title>public.scenario_tags</title>
<polygon fill="#efefef" stroke="transparent" points="336,-445.5 336,-480.5 611,-480.5 611,-445.5 336,-445.5"/>
<polygon fill="none" stroke="#000000" points="336,-445.5 336,-480.5 611,-480.5 611,-445.5 336,-445.5"/>
<text text-anchor="start" x="342.8525" y="-458.3" font-family="Arial Bold" font-size="18.00" fill="#000000">public.scenario_tags</text>
<text text-anchor="start" x="506.8937" y="-458.3" font-family="Arial" font-size="14.00" fill="#000000"> </text>
<text text-anchor="start" x="510.7843" y="-458.3" font-family="Arial" font-size="14.00" fill="#666666">[BASE TABLE]</text>
<polygon fill="none" stroke="#000000" points="336,-415.5 336,-445.5 611,-445.5 611,-415.5 336,-415.5"/>
<text text-anchor="start" x="343" y="-426.9" font-family="Arial" font-size="14.00" fill="#000000">id </text>
<text text-anchor="start" x="357.7798" y="-426.9" font-family="Arial" font-size="14.00" fill="#666666">[uuid]</text>
<polygon fill="none" stroke="#000000" points="336,-385.5 336,-415.5 611,-415.5 611,-385.5 336,-385.5"/>
<text text-anchor="start" x="343" y="-396.9" font-family="Arial" font-size="14.00" fill="#000000">tag_id </text>
<text text-anchor="start" x="385.0182" y="-396.9" font-family="Arial" font-size="14.00" fill="#666666">[uuid]</text>
<polygon fill="none" stroke="#000000" points="336,-355.5 336,-385.5 611,-385.5 611,-355.5 336,-355.5"/>
<text text-anchor="start" x="343" y="-366.9" font-family="Arial" font-size="14.00" fill="#000000">created_at </text>
<text text-anchor="start" x="413.028" y="-366.9" font-family="Arial" font-size="14.00" fill="#666666">[timestamp without time zone]</text>
<polygon fill="none" stroke="#000000" points="336,-325.5 336,-355.5 611,-355.5 611,-325.5 336,-325.5"/>
<text text-anchor="start" x="343" y="-336.9" font-family="Arial" font-size="14.00" fill="#000000">updated_at </text>
<text text-anchor="start" x="416.9326" y="-336.9" font-family="Arial" font-size="14.00" fill="#666666">[timestamp without time zone]</text>
</g>
<!-- public.scenario_tags&#45;&gt;public.tags -->
<g id="edge1" class="edge">
<title>public.scenario_tags:tag_id&#45;&gt;public.tags:id</title>
<path fill="none" stroke="#000000" d="M326.2455,-397.6924C280.7821,-370.2266 284.9163,-150.5 337,-150.5"/>
<polygon fill="#000000" stroke="#000000" points="326.3901,-397.7339 334.7553,-404.8244 331.1951,-399.117 336,-400.5 336,-400.5 336,-400.5 331.1951,-399.117 337.2447,-396.1756 326.3901,-397.7339 326.3901,-397.7339"/>
<text text-anchor="start" x="6.6035" y="-410.5" font-family="Arial" font-size="10.00" fill="#000000">FOREIGN KEY (tag_id) REFERENCES tags(id) ON DELETE CASCADE</text>
</g>
</g>
</svg>
