<?xml version="1.0" encoding="UTF-8" standalone="no"?>
<!DOCTYPE svg PUBLIC "-//W3C//DTD SVG 1.1//EN"
 "http://www.w3.org/Graphics/SVG/1.1/DTD/svg11.dtd">
<!-- Generated by graphviz version 2.40.1 (20161225.0304)
 -->
<!-- Title: public.user_scenario_quiz_histories Pages: 1 -->
<svg width="2054pt" height="832pt"
 viewBox="0.00 0.00 2053.50 832.00" xmlns="http://www.w3.org/2000/svg" xmlns:xlink="http://www.w3.org/1999/xlink">
<g id="graph0" class="graph" transform="scale(1 1) rotate(0) translate(4 828)">
<title>public.user_scenario_quiz_histories</title>
<polygon fill="#ffffff" stroke="transparent" points="-4,4 -4,-828 2049.5,-828 2049.5,4 -4,4"/>
<!-- public.user_scenario_quiz_histories -->
<g id="node1" class="node">
<title>public.user_scenario_quiz_histories</title>
<polygon fill="#efefef" stroke="transparent" points="816.5,-742.5 816.5,-777.5 1212.5,-777.5 1212.5,-742.5 816.5,-742.5"/>
<polygon fill="none" stroke="#000000" points="816.5,-742.5 816.5,-777.5 1212.5,-777.5 1212.5,-742.5 816.5,-742.5"/>
<text text-anchor="start" x="823.3473" y="-755.3" font-family="Arial Bold" font-size="18.00" fill="#000000">public.user_scenario_quiz_histories</text>
<text text-anchor="start" x="1108.3989" y="-755.3" font-family="Arial" font-size="14.00" fill="#000000"> </text>
<text text-anchor="start" x="1112.2895" y="-755.3" font-family="Arial" font-size="14.00" fill="#666666">[BASE TABLE]</text>
<polygon fill="none" stroke="#000000" points="816.5,-712.5 816.5,-742.5 1212.5,-742.5 1212.5,-712.5 816.5,-712.5"/>
<text text-anchor="start" x="823.5" y="-723.9" font-family="Arial" font-size="14.00" fill="#000000">id </text>
<text text-anchor="start" x="838.2798" y="-723.9" font-family="Arial" font-size="14.00" fill="#666666">[uuid]</text>
<polygon fill="none" stroke="#000000" points="816.5,-682.5 816.5,-712.5 1212.5,-712.5 1212.5,-682.5 816.5,-682.5"/>
<text text-anchor="start" x="823.5" y="-693.9" font-family="Arial" font-size="14.00" fill="#000000">user_scenario_history_id </text>
<text text-anchor="start" x="982.974" y="-693.9" font-family="Arial" font-size="14.00" fill="#666666">[uuid]</text>
<polygon fill="none" stroke="#000000" points="816.5,-652.5 816.5,-682.5 1212.5,-682.5 1212.5,-652.5 816.5,-652.5"/>
<text text-anchor="start" x="823.5" y="-663.9" font-family="Arial" font-size="14.00" fill="#000000">user_id </text>
<text text-anchor="start" x="873.2882" y="-663.9" font-family="Arial" font-size="14.00" fill="#666666">[uuid]</text>
<polygon fill="none" stroke="#000000" points="816.5,-622.5 816.5,-652.5 1212.5,-652.5 1212.5,-622.5 816.5,-622.5"/>
<text text-anchor="start" x="823.5" y="-633.9" font-family="Arial" font-size="14.00" fill="#000000">scenario_id </text>
<text text-anchor="start" x="898.96" y="-633.9" font-family="Arial" font-size="14.00" fill="#666666">[uuid]</text>
<polygon fill="none" stroke="#000000" points="816.5,-592.5 816.5,-622.5 1212.5,-622.5 1212.5,-592.5 816.5,-592.5"/>
<text text-anchor="start" x="823.5" y="-603.9" font-family="Arial" font-size="14.00" fill="#000000">scenario_quiz_id </text>
<text text-anchor="start" x="932.4144" y="-603.9" font-family="Arial" font-size="14.00" fill="#666666">[uuid]</text>
<polygon fill="none" stroke="#000000" points="816.5,-562.5 816.5,-592.5 1212.5,-592.5 1212.5,-562.5 816.5,-562.5"/>
<text text-anchor="start" x="823.5" y="-573.9" font-family="Arial" font-size="14.00" fill="#000000">scenario_quiz_option_id </text>
<text text-anchor="start" x="978.3246" y="-573.9" font-family="Arial" font-size="14.00" fill="#666666">[uuid]</text>
<polygon fill="none" stroke="#000000" points="816.5,-532.5 816.5,-562.5 1212.5,-562.5 1212.5,-532.5 816.5,-532.5"/>
<text text-anchor="start" x="823.5" y="-543.9" font-family="Arial" font-size="14.00" fill="#000000">created_at </text>
<text text-anchor="start" x="893.528" y="-543.9" font-family="Arial" font-size="14.00" fill="#666666">[timestamp without time zone]</text>
<polygon fill="none" stroke="#000000" points="816.5,-502.5 816.5,-532.5 1212.5,-532.5 1212.5,-502.5 816.5,-502.5"/>
<text text-anchor="start" x="823.5" y="-513.9" font-family="Arial" font-size="14.00" fill="#000000">updated_at </text>
<text text-anchor="start" x="897.4326" y="-513.9" font-family="Arial" font-size="14.00" fill="#666666">[timestamp without time zone]</text>
<polygon fill="none" stroke="#000000" stroke-width="3" points="815,-501.5 815,-779.5 1214,-779.5 1214,-501.5 815,-501.5"/>
</g>
<!-- public.user_scenario_histories -->
<g id="node2" class="node">
<title>public.user_scenario_histories</title>
<polygon fill="#efefef" stroke="transparent" points="43.5,-282.5 43.5,-317.5 396.5,-317.5 396.5,-282.5 43.5,-282.5"/>
<polygon fill="none" stroke="#000000" points="43.5,-282.5 43.5,-317.5 396.5,-317.5 396.5,-282.5 43.5,-282.5"/>
<text text-anchor="start" x="50.3537" y="-295.3" font-family="Arial Bold" font-size="18.00" fill="#000000">public.user_scenario_histories</text>
<text text-anchor="start" x="292.3925" y="-295.3" font-family="Arial" font-size="14.00" fill="#000000"> </text>
<text text-anchor="start" x="296.2831" y="-295.3" font-family="Arial" font-size="14.00" fill="#666666">[BASE TABLE]</text>
<polygon fill="none" stroke="#000000" points="43.5,-252.5 43.5,-282.5 396.5,-282.5 396.5,-252.5 43.5,-252.5"/>
<text text-anchor="start" x="50.5" y="-263.9" font-family="Arial" font-size="14.00" fill="#000000">id </text>
<text text-anchor="start" x="65.2798" y="-263.9" font-family="Arial" font-size="14.00" fill="#666666">[uuid]</text>
<polygon fill="none" stroke="#000000" points="43.5,-222.5 43.5,-252.5 396.5,-252.5 396.5,-222.5 43.5,-222.5"/>
<text text-anchor="start" x="50.5" y="-233.9" font-family="Arial" font-size="14.00" fill="#000000">user_id </text>
<text text-anchor="start" x="100.2882" y="-233.9" font-family="Arial" font-size="14.00" fill="#666666">[uuid]</text>
<polygon fill="none" stroke="#000000" points="43.5,-192.5 43.5,-222.5 396.5,-222.5 396.5,-192.5 43.5,-192.5"/>
<text text-anchor="start" x="50.5" y="-203.9" font-family="Arial" font-size="14.00" fill="#000000">scenario_id </text>
<text text-anchor="start" x="125.96" y="-203.9" font-family="Arial" font-size="14.00" fill="#666666">[uuid]</text>
<polygon fill="none" stroke="#000000" points="43.5,-162.5 43.5,-192.5 396.5,-192.5 396.5,-162.5 43.5,-162.5"/>
<text text-anchor="start" x="50.5" y="-173.9" font-family="Arial" font-size="14.00" fill="#000000">total_score </text>
<text text-anchor="start" x="122.852" y="-173.9" font-family="Arial" font-size="14.00" fill="#666666">[integer]</text>
<polygon fill="none" stroke="#000000" points="43.5,-132.5 43.5,-162.5 396.5,-162.5 396.5,-132.5 43.5,-132.5"/>
<text text-anchor="start" x="50.5" y="-143.9" font-family="Arial" font-size="14.00" fill="#000000">created_at </text>
<text text-anchor="start" x="120.528" y="-143.9" font-family="Arial" font-size="14.00" fill="#666666">[timestamp without time zone]</text>
<polygon fill="none" stroke="#000000" points="43.5,-102.5 43.5,-132.5 396.5,-132.5 396.5,-102.5 43.5,-102.5"/>
<text text-anchor="start" x="50.5" y="-113.9" font-family="Arial" font-size="14.00" fill="#000000">updated_at </text>
<text text-anchor="start" x="124.4326" y="-113.9" font-family="Arial" font-size="14.00" fill="#666666">[timestamp without time zone]</text>
</g>
<!-- public.user_scenario_quiz_histories&#45;&gt;public.user_scenario_histories -->
<g id="edge1" class="edge">
<title>public.user_scenario_quiz_histories:user_scenario_history_id&#45;&gt;public.user_scenario_histories:id</title>
<path fill="none" stroke="#000000" d="M806.4251,-697.4091C610.0754,-693.825 565.2929,-584.5226 447.5,-421 405.4815,-362.6691 468.3891,-267.5 396.5,-267.5"/>
<polygon fill="#000000" stroke="#000000" points="806.5004,-697.4097 816.4594,-701.9998 811.5002,-697.4548 816.5,-697.5 816.5,-697.5 816.5,-697.5 811.5002,-697.4548 816.5406,-693.0002 806.5004,-697.4097 806.5004,-697.4097"/>
<text text-anchor="start" x="316.8175" y="-707.5" font-family="Arial" font-size="10.00" fill="#000000">FOREIGN KEY (user_scenario_history_id) REFERENCES user_scenario_histories(id) ON DELETE CASCADE</text>
</g>
<!-- public.users -->
<g id="node3" class="node">
<title>public.users</title>
<polygon fill="#efefef" stroke="transparent" points="500.5,-342.5 500.5,-377.5 773.5,-377.5 773.5,-342.5 500.5,-342.5"/>
<polygon fill="none" stroke="#000000" points="500.5,-342.5 500.5,-377.5 773.5,-377.5 773.5,-342.5 500.5,-342.5"/>
<text text-anchor="start" x="540.3662" y="-355.3" font-family="Arial Bold" font-size="18.00" fill="#000000">public.users</text>
<text text-anchor="start" x="636.38" y="-355.3" font-family="Arial" font-size="14.00" fill="#000000"> </text>
<text text-anchor="start" x="640.2706" y="-355.3" font-family="Arial" font-size="14.00" fill="#666666">[BASE TABLE]</text>
<polygon fill="none" stroke="#000000" points="500.5,-312.5 500.5,-342.5 773.5,-342.5 773.5,-312.5 500.5,-312.5"/>
<text text-anchor="start" x="507.5" y="-323.9" font-family="Arial" font-size="14.00" fill="#000000">id </text>
<text text-anchor="start" x="522.2798" y="-323.9" font-family="Arial" font-size="14.00" fill="#666666">[uuid]</text>
<polygon fill="none" stroke="#000000" points="500.5,-282.5 500.5,-312.5 773.5,-312.5 773.5,-282.5 500.5,-282.5"/>
<text text-anchor="start" x="507.5" y="-293.9" font-family="Arial" font-size="14.00" fill="#000000">last_name </text>
<text text-anchor="start" x="575.9614" y="-293.9" font-family="Arial" font-size="14.00" fill="#666666">[varchar(128)]</text>
<polygon fill="none" stroke="#000000" points="500.5,-252.5 500.5,-282.5 773.5,-282.5 773.5,-252.5 500.5,-252.5"/>
<text text-anchor="start" x="507.5" y="-263.9" font-family="Arial" font-size="14.00" fill="#000000">first_name </text>
<text text-anchor="start" x="576.73" y="-263.9" font-family="Arial" font-size="14.00" fill="#666666">[varchar(128)]</text>
<polygon fill="none" stroke="#000000" points="500.5,-222.5 500.5,-252.5 773.5,-252.5 773.5,-222.5 500.5,-222.5"/>
<text text-anchor="start" x="507.5" y="-233.9" font-family="Arial" font-size="14.00" fill="#000000">last_name_kana </text>
<text text-anchor="start" x="614.0918" y="-233.9" font-family="Arial" font-size="14.00" fill="#666666">[varchar(128)]</text>
<polygon fill="none" stroke="#000000" points="500.5,-192.5 500.5,-222.5 773.5,-222.5 773.5,-192.5 500.5,-192.5"/>
<text text-anchor="start" x="507.5" y="-203.9" font-family="Arial" font-size="14.00" fill="#000000">first_name_kana </text>
<text text-anchor="start" x="614.8604" y="-203.9" font-family="Arial" font-size="14.00" fill="#666666">[varchar(128)]</text>
<polygon fill="none" stroke="#000000" points="500.5,-162.5 500.5,-192.5 773.5,-192.5 773.5,-162.5 500.5,-162.5"/>
<text text-anchor="start" x="507.5" y="-173.9" font-family="Arial" font-size="14.00" fill="#000000">nickname </text>
<text text-anchor="start" x="571.2882" y="-173.9" font-family="Arial" font-size="14.00" fill="#666666">[varchar(20)]</text>
<polygon fill="none" stroke="#000000" points="500.5,-132.5 500.5,-162.5 773.5,-162.5 773.5,-132.5 500.5,-132.5"/>
<text text-anchor="start" x="507.5" y="-143.9" font-family="Arial" font-size="14.00" fill="#000000">email </text>
<text text-anchor="start" x="544.8296" y="-143.9" font-family="Arial" font-size="14.00" fill="#666666">[varchar(255)]</text>
<polygon fill="none" stroke="#000000" points="500.5,-102.5 500.5,-132.5 773.5,-132.5 773.5,-102.5 500.5,-102.5"/>
<text text-anchor="start" x="507.5" y="-113.9" font-family="Arial" font-size="14.00" fill="#000000">password_hash </text>
<text text-anchor="start" x="609.4186" y="-113.9" font-family="Arial" font-size="14.00" fill="#666666">[text]</text>
<polygon fill="none" stroke="#000000" points="500.5,-72.5 500.5,-102.5 773.5,-102.5 773.5,-72.5 500.5,-72.5"/>
<text text-anchor="start" x="507.5" y="-83.9" font-family="Arial" font-size="14.00" fill="#000000">created_at </text>
<text text-anchor="start" x="577.528" y="-83.9" font-family="Arial" font-size="14.00" fill="#666666">[timestamp without time zone]</text>
<polygon fill="none" stroke="#000000" points="500.5,-42.5 500.5,-72.5 773.5,-72.5 773.5,-42.5 500.5,-42.5"/>
<text text-anchor="start" x="507.4636" y="-53.9" font-family="Arial" font-size="14.00" fill="#000000">updated_at </text>
<text text-anchor="start" x="581.3962" y="-53.9" font-family="Arial" font-size="14.00" fill="#666666">[timestamp without time zone]</text>
</g>
<!-- public.user_scenario_quiz_histories&#45;&gt;public.users -->
<g id="edge2" class="edge">
<title>public.user_scenario_quiz_histories:user_id&#45;&gt;public.users:id</title>
<path fill="none" stroke="#000000" d="M806.4619,-666.9485C676.2217,-651.7493 922.2449,-327.5 773.5,-327.5"/>
<polygon fill="#000000" stroke="#000000" points="806.5151,-666.9513 816.2531,-671.9932 811.5075,-667.2256 816.5,-667.5 816.5,-667.5 816.5,-667.5 811.5075,-667.2256 816.7469,-663.0068 806.5151,-666.9513 806.5151,-666.9513"/>
<text text-anchor="start" x="476.5535" y="-677.5" font-family="Arial" font-size="10.00" fill="#000000">FOREIGN KEY (user_id) REFERENCES users(id) ON DELETE CASCADE</text>
</g>
<!-- public.scenarios -->
<g id="node4" class="node">
<title>public.scenarios</title>
<polygon fill="#efefef" stroke="transparent" points="877.5,-327.5 877.5,-362.5 1150.5,-362.5 1150.5,-327.5 877.5,-327.5"/>
<polygon fill="none" stroke="#000000" points="877.5,-327.5 877.5,-362.5 1150.5,-362.5 1150.5,-327.5 877.5,-327.5"/>
<text text-anchor="start" x="900.8629" y="-340.3" font-family="Arial Bold" font-size="18.00" fill="#000000">public.scenarios</text>
<text text-anchor="start" x="1029.8833" y="-340.3" font-family="Arial" font-size="14.00" fill="#000000"> </text>
<text text-anchor="start" x="1033.7739" y="-340.3" font-family="Arial" font-size="14.00" fill="#666666">[BASE TABLE]</text>
<polygon fill="none" stroke="#000000" points="877.5,-297.5 877.5,-327.5 1150.5,-327.5 1150.5,-297.5 877.5,-297.5"/>
<text text-anchor="start" x="884.5" y="-308.9" font-family="Arial" font-size="14.00" fill="#000000">id </text>
<text text-anchor="start" x="899.2798" y="-308.9" font-family="Arial" font-size="14.00" fill="#666666">[uuid]</text>
<polygon fill="none" stroke="#000000" points="877.5,-267.5 877.5,-297.5 1150.5,-297.5 1150.5,-267.5 877.5,-267.5"/>
<text text-anchor="start" x="884.5" y="-278.9" font-family="Arial" font-size="14.00" fill="#000000">organization_id </text>
<text text-anchor="start" x="983.305" y="-278.9" font-family="Arial" font-size="14.00" fill="#666666">[uuid]</text>
<polygon fill="none" stroke="#000000" points="877.5,-237.5 877.5,-267.5 1150.5,-267.5 1150.5,-237.5 877.5,-237.5"/>
<text text-anchor="start" x="884.5" y="-248.9" font-family="Arial" font-size="14.00" fill="#000000">role_id </text>
<text text-anchor="start" x="930.3948" y="-248.9" font-family="Arial" font-size="14.00" fill="#666666">[uuid]</text>
<polygon fill="none" stroke="#000000" points="877.5,-207.5 877.5,-237.5 1150.5,-237.5 1150.5,-207.5 877.5,-207.5"/>
<text text-anchor="start" x="884.5" y="-218.9" font-family="Arial" font-size="14.00" fill="#000000">scenario_title </text>
<text text-anchor="start" x="970.8478" y="-218.9" font-family="Arial" font-size="14.00" fill="#666666">[varchar(255)]</text>
<polygon fill="none" stroke="#000000" points="877.5,-177.5 877.5,-207.5 1150.5,-207.5 1150.5,-177.5 877.5,-177.5"/>
<text text-anchor="start" x="884.5" y="-188.9" font-family="Arial" font-size="14.00" fill="#000000">scenario_overview </text>
<text text-anchor="start" x="1004.2924" y="-188.9" font-family="Arial" font-size="14.00" fill="#666666">[text]</text>
<polygon fill="none" stroke="#000000" points="877.5,-147.5 877.5,-177.5 1150.5,-177.5 1150.5,-147.5 877.5,-147.5"/>
<text text-anchor="start" x="884.5" y="-158.9" font-family="Arial" font-size="14.00" fill="#000000">scenario_description </text>
<text text-anchor="start" x="1016.7482" y="-158.9" font-family="Arial" font-size="14.00" fill="#666666">[text]</text>
<polygon fill="none" stroke="#000000" points="877.5,-117.5 877.5,-147.5 1150.5,-147.5 1150.5,-117.5 877.5,-117.5"/>
<text text-anchor="start" x="884.5" y="-128.9" font-family="Arial" font-size="14.00" fill="#000000">total_score </text>
<text text-anchor="start" x="956.852" y="-128.9" font-family="Arial" font-size="14.00" fill="#666666">[integer]</text>
<polygon fill="none" stroke="#000000" points="877.5,-87.5 877.5,-117.5 1150.5,-117.5 1150.5,-87.5 877.5,-87.5"/>
<text text-anchor="start" x="884.5" y="-98.9" font-family="Arial" font-size="14.00" fill="#000000">created_at </text>
<text text-anchor="start" x="954.528" y="-98.9" font-family="Arial" font-size="14.00" fill="#666666">[timestamp without time zone]</text>
<polygon fill="none" stroke="#000000" points="877.5,-57.5 877.5,-87.5 1150.5,-87.5 1150.5,-57.5 877.5,-57.5"/>
<text text-anchor="start" x="884.4636" y="-68.9" font-family="Arial" font-size="14.00" fill="#000000">updated_at </text>
<text text-anchor="start" x="958.3962" y="-68.9" font-family="Arial" font-size="14.00" fill="#666666">[timestamp without time zone]</text>
</g>
<!-- public.user_scenario_quiz_histories&#45;&gt;public.scenarios -->
<g id="edge3" class="edge">
<title>public.user_scenario_quiz_histories:scenario_id&#45;&gt;public.scenarios:id</title>
<path fill="none" stroke="#000000" d="M806.3361,-636.7919C738.8382,-626.8694 766.5786,-515.1227 816.5,-457 914.3412,-343.085 1052.6588,-519.915 1150.5,-406 1177.5758,-374.476 1192.0556,-312.5 1150.5,-312.5"/>
<polygon fill="#000000" stroke="#000000" points="806.5242,-636.8049 816.1872,-641.9891 811.5121,-637.1524 816.5,-637.5 816.5,-637.5 816.5,-637.5 811.5121,-637.1524 816.8128,-633.0109 806.5242,-636.8049 806.5242,-636.8049"/>
<text text-anchor="start" x="439.2165" y="-647.5" font-family="Arial" font-size="10.00" fill="#000000">FOREIGN KEY (scenario_id) REFERENCES scenarios(id) ON DELETE CASCADE</text>
</g>
<!-- public.scenario_quizzes -->
<g id="node5" class="node">
<title>public.scenario_quizzes</title>
<polygon fill="#efefef" stroke="transparent" points="1254.5,-297.5 1254.5,-332.5 1556.5,-332.5 1556.5,-297.5 1254.5,-297.5"/>
<polygon fill="none" stroke="#000000" points="1254.5,-297.5 1254.5,-332.5 1556.5,-332.5 1556.5,-297.5 1254.5,-297.5"/>
<text text-anchor="start" x="1261.3534" y="-310.3" font-family="Arial Bold" font-size="18.00" fill="#000000">public.scenario_quizzes</text>
<text text-anchor="start" x="1452.3928" y="-310.3" font-family="Arial" font-size="14.00" fill="#000000"> </text>
<text text-anchor="start" x="1456.2834" y="-310.3" font-family="Arial" font-size="14.00" fill="#666666">[BASE TABLE]</text>
<polygon fill="none" stroke="#000000" points="1254.5,-267.5 1254.5,-297.5 1556.5,-297.5 1556.5,-267.5 1254.5,-267.5"/>
<text text-anchor="start" x="1261.5" y="-278.9" font-family="Arial" font-size="14.00" fill="#000000">id </text>
<text text-anchor="start" x="1276.2798" y="-278.9" font-family="Arial" font-size="14.00" fill="#666666">[uuid]</text>
<polygon fill="none" stroke="#000000" points="1254.5,-237.5 1254.5,-267.5 1556.5,-267.5 1556.5,-237.5 1254.5,-237.5"/>
<text text-anchor="start" x="1261.5" y="-248.9" font-family="Arial" font-size="14.00" fill="#000000">scenario_id </text>
<text text-anchor="start" x="1336.96" y="-248.9" font-family="Arial" font-size="14.00" fill="#666666">[uuid]</text>
<polygon fill="none" stroke="#000000" points="1254.5,-207.5 1254.5,-237.5 1556.5,-237.5 1556.5,-207.5 1254.5,-207.5"/>
<text text-anchor="start" x="1261.5" y="-218.9" font-family="Arial" font-size="14.00" fill="#000000">question </text>
<text text-anchor="start" x="1318.3008" y="-218.9" font-family="Arial" font-size="14.00" fill="#666666">[text]</text>
<polygon fill="none" stroke="#000000" points="1254.5,-177.5 1254.5,-207.5 1556.5,-207.5 1556.5,-177.5 1254.5,-177.5"/>
<text text-anchor="start" x="1261.5" y="-188.9" font-family="Arial" font-size="14.00" fill="#000000">success_message </text>
<text text-anchor="start" x="1380.5294" y="-188.9" font-family="Arial" font-size="14.00" fill="#666666">[text]</text>
<polygon fill="none" stroke="#000000" points="1254.5,-147.5 1254.5,-177.5 1556.5,-177.5 1556.5,-147.5 1254.5,-147.5"/>
<text text-anchor="start" x="1261.5" y="-158.9" font-family="Arial" font-size="14.00" fill="#000000">failure_message </text>
<text text-anchor="start" x="1368.0764" y="-158.9" font-family="Arial" font-size="14.00" fill="#666666">[text]</text>
<polygon fill="none" stroke="#000000" points="1254.5,-117.5 1254.5,-147.5 1556.5,-147.5 1556.5,-117.5 1254.5,-117.5"/>
<text text-anchor="start" x="1261.5" y="-128.9" font-family="Arial" font-size="14.00" fill="#000000">created_at </text>
<text text-anchor="start" x="1331.528" y="-128.9" font-family="Arial" font-size="14.00" fill="#666666">[timestamp without time zone]</text>
<polygon fill="none" stroke="#000000" points="1254.5,-87.5 1254.5,-117.5 1556.5,-117.5 1556.5,-87.5 1254.5,-87.5"/>
<text text-anchor="start" x="1261.5" y="-98.9" font-family="Arial" font-size="14.00" fill="#000000">updated_at </text>
<text text-anchor="start" x="1335.4326" y="-98.9" font-family="Arial" font-size="14.00" fill="#666666">[timestamp without time zone]</text>
</g>
<!-- public.user_scenario_quiz_histories&#45;&gt;public.scenario_quizzes -->
<g id="edge4" class="edge">
<title>public.user_scenario_quiz_histories:scenario_quiz_id&#45;&gt;public.scenario_quizzes:id</title>
<path fill="none" stroke="#000000" d="M1222.8432,-606.8821C1345.7409,-591.2056 1112.5524,-282.5 1254.5,-282.5"/>
<polygon fill="#000000" stroke="#000000" points="1222.4822,-606.9035 1212.2316,-603.008 1217.4911,-607.2018 1212.5,-607.5 1212.5,-607.5 1212.5,-607.5 1217.4911,-607.2018 1212.7684,-611.992 1222.4822,-606.9035 1222.4822,-606.9035"/>
<text text-anchor="start" x="1219.041" y="-617.5" font-family="Arial" font-size="10.00" fill="#000000">FOREIGN KEY (scenario_quiz_id) REFERENCES scenario_quizzes(id) ON DELETE CASCADE</text>
</g>
<!-- public.scenario_quiz_options -->
<g id="node6" class="node">
<title>public.scenario_quiz_options</title>
<polygon fill="#efefef" stroke="transparent" points="1660.5,-312.5 1660.5,-347.5 2002.5,-347.5 2002.5,-312.5 1660.5,-312.5"/>
<polygon fill="none" stroke="#000000" points="1660.5,-312.5 1660.5,-347.5 2002.5,-347.5 2002.5,-312.5 1660.5,-312.5"/>
<text text-anchor="start" x="1667.3428" y="-325.3" font-family="Arial Bold" font-size="18.00" fill="#000000">public.scenario_quiz_options</text>
<text text-anchor="start" x="1898.4034" y="-325.3" font-family="Arial" font-size="14.00" fill="#000000"> </text>
<text text-anchor="start" x="1902.294" y="-325.3" font-family="Arial" font-size="14.00" fill="#666666">[BASE TABLE]</text>
<polygon fill="none" stroke="#000000" points="1660.5,-282.5 1660.5,-312.5 2002.5,-312.5 2002.5,-282.5 1660.5,-282.5"/>
<text text-anchor="start" x="1667.5" y="-293.9" font-family="Arial" font-size="14.00" fill="#000000">id </text>
<text text-anchor="start" x="1682.2798" y="-293.9" font-family="Arial" font-size="14.00" fill="#666666">[uuid]</text>
<polygon fill="none" stroke="#000000" points="1660.5,-252.5 1660.5,-282.5 2002.5,-282.5 2002.5,-252.5 1660.5,-252.5"/>
<text text-anchor="start" x="1667.5" y="-263.9" font-family="Arial" font-size="14.00" fill="#000000">scenario_quiz_id </text>
<text text-anchor="start" x="1776.4144" y="-263.9" font-family="Arial" font-size="14.00" fill="#666666">[uuid]</text>
<polygon fill="none" stroke="#000000" points="1660.5,-222.5 1660.5,-252.5 2002.5,-252.5 2002.5,-222.5 1660.5,-222.5"/>
<text text-anchor="start" x="1667.5" y="-233.9" font-family="Arial" font-size="14.00" fill="#000000">answer </text>
<text text-anchor="start" x="1716.5056" y="-233.9" font-family="Arial" font-size="14.00" fill="#666666">[varchar(255)]</text>
<polygon fill="none" stroke="#000000" points="1660.5,-192.5 1660.5,-222.5 2002.5,-222.5 2002.5,-192.5 1660.5,-192.5"/>
<text text-anchor="start" x="1667.5" y="-203.9" font-family="Arial" font-size="14.00" fill="#000000">score </text>
<text text-anchor="start" x="1705.6164" y="-203.9" font-family="Arial" font-size="14.00" fill="#666666">[integer]</text>
<polygon fill="none" stroke="#000000" points="1660.5,-162.5 1660.5,-192.5 2002.5,-192.5 2002.5,-162.5 1660.5,-162.5"/>
<text text-anchor="start" x="1667.5" y="-173.9" font-family="Arial" font-size="14.00" fill="#000000">next_scenario_quiz_id </text>
<text text-anchor="start" x="1810.6528" y="-173.9" font-family="Arial" font-size="14.00" fill="#666666">[uuid]</text>
<polygon fill="none" stroke="#000000" points="1660.5,-132.5 1660.5,-162.5 2002.5,-162.5 2002.5,-132.5 1660.5,-132.5"/>
<text text-anchor="start" x="1667.5" y="-143.9" font-family="Arial" font-size="14.00" fill="#000000">next_status </text>
<text text-anchor="start" x="1742.9754" y="-143.9" font-family="Arial" font-size="14.00" fill="#666666">[integer]</text>
<polygon fill="none" stroke="#000000" points="1660.5,-102.5 1660.5,-132.5 2002.5,-132.5 2002.5,-102.5 1660.5,-102.5"/>
<text text-anchor="start" x="1667.5" y="-113.9" font-family="Arial" font-size="14.00" fill="#000000">created_at </text>
<text text-anchor="start" x="1737.528" y="-113.9" font-family="Arial" font-size="14.00" fill="#666666">[timestamp without time zone]</text>
<polygon fill="none" stroke="#000000" points="1660.5,-72.5 1660.5,-102.5 2002.5,-102.5 2002.5,-72.5 1660.5,-72.5"/>
<text text-anchor="start" x="1667.5" y="-83.9" font-family="Arial" font-size="14.00" fill="#000000">updated_at </text>
<text text-anchor="start" x="1741.4326" y="-83.9" font-family="Arial" font-size="14.00" fill="#666666">[timestamp without time zone]</text>
</g>
<!-- public.user_scenario_quiz_histories&#45;&gt;public.scenario_quiz_options -->
<g id="edge5" class="edge">
<title>public.user_scenario_quiz_histories:scenario_quiz_option_id&#45;&gt;public.scenario_quiz_options:id</title>
<path fill="none" stroke="#000000" d="M1222.6427,-577.4758C1404.3488,-576.5912 1475.6528,-550.9355 1608.5,-421 1651.0764,-379.3567 1600.944,-297.5 1660.5,-297.5"/>
<polygon fill="#000000" stroke="#000000" points="1222.5,-577.4761 1212.4892,-573 1217.5,-577.488 1212.5,-577.5 1212.5,-577.5 1212.5,-577.5 1217.5,-577.488 1212.5108,-582 1222.5,-577.4761 1222.5,-577.4761"/>
<text text-anchor="start" x="1219.5275" y="-587.5" font-family="Arial" font-size="10.00" fill="#000000">FOREIGN KEY (scenario_quiz_option_id) REFERENCES scenario_quiz_options(id) ON DELETE CASCADE</text>
</g>
</g>
</svg>
