<?xml version="1.0" encoding="UTF-8" standalone="no"?>
<!DOCTYPE svg PUBLIC "-//W3C//DTD SVG 1.1//EN"
 "http://www.w3.org/Graphics/SVG/1.1/DTD/svg11.dtd">
<!-- Generated by graphviz version 2.40.1 (20161225.0304)
 -->
<!-- Title: public.companies Pages: 1 -->
<svg width="719pt" height="622pt"
 viewBox="0.00 0.00 718.50 622.00" xmlns="http://www.w3.org/2000/svg" xmlns:xlink="http://www.w3.org/1999/xlink">
<g id="graph0" class="graph" transform="scale(1 1) rotate(0) translate(4 618)">
<title>public.companies</title>
<polygon fill="#ffffff" stroke="transparent" points="-4,4 -4,-618 714.5,-618 714.5,4 -4,4"/>
<!-- public.companies -->
<g id="node1" class="node">
<title>public.companies</title>
<polygon fill="#efefef" stroke="transparent" points="392,-165.5 392,-200.5 665,-200.5 665,-165.5 392,-165.5"/>
<polygon fill="none" stroke="#000000" points="392,-165.5 392,-200.5 665,-200.5 665,-165.5 392,-165.5"/>
<text text-anchor="start" x="410.3598" y="-178.3" font-family="Arial Bold" font-size="18.00" fill="#000000">public.companies</text>
<text text-anchor="start" x="549.3864" y="-178.3" font-family="Arial" font-size="14.00" fill="#000000"> </text>
<text text-anchor="start" x="553.277" y="-178.3" font-family="Arial" font-size="14.00" fill="#666666">[BASE TABLE]</text>
<polygon fill="none" stroke="#000000" points="392,-135.5 392,-165.5 665,-165.5 665,-135.5 392,-135.5"/>
<text text-anchor="start" x="399" y="-146.9" font-family="Arial" font-size="14.00" fill="#000000">id </text>
<text text-anchor="start" x="413.7798" y="-146.9" font-family="Arial" font-size="14.00" fill="#666666">[uuid]</text>
<polygon fill="none" stroke="#000000" points="392,-105.5 392,-135.5 665,-135.5 665,-105.5 392,-105.5"/>
<text text-anchor="start" x="399" y="-116.9" font-family="Arial" font-size="14.00" fill="#000000">name </text>
<text text-anchor="start" x="437.899" y="-116.9" font-family="Arial" font-size="14.00" fill="#666666">[varchar(128)]</text>
<polygon fill="none" stroke="#000000" points="392,-75.5 392,-105.5 665,-105.5 665,-75.5 392,-75.5"/>
<text text-anchor="start" x="399" y="-86.9" font-family="Arial" font-size="14.00" fill="#000000">created_at </text>
<text text-anchor="start" x="469.028" y="-86.9" font-family="Arial" font-size="14.00" fill="#666666">[timestamp without time zone]</text>
<polygon fill="none" stroke="#000000" points="392,-45.5 392,-75.5 665,-75.5 665,-45.5 392,-45.5"/>
<text text-anchor="start" x="398.9636" y="-56.9" font-family="Arial" font-size="14.00" fill="#000000">updated_at </text>
<text text-anchor="start" x="472.8962" y="-56.9" font-family="Arial" font-size="14.00" fill="#666666">[timestamp without time zone]</text>
<polygon fill="none" stroke="#000000" stroke-width="3" points="390,-44.5 390,-202.5 666,-202.5 666,-44.5 390,-44.5"/>
</g>
<!-- public.organizations -->
<g id="node2" class="node">
<title>public.organizations</title>
<polygon fill="#efefef" stroke="transparent" points="392,-535.5 392,-570.5 665,-570.5 665,-535.5 392,-535.5"/>
<polygon fill="none" stroke="#000000" points="392,-535.5 392,-570.5 665,-570.5 665,-535.5 392,-535.5"/>
<text text-anchor="start" x="400.3554" y="-548.3" font-family="Arial Bold" font-size="18.00" fill="#000000">public.organizations</text>
<text text-anchor="start" x="559.3908" y="-548.3" font-family="Arial" font-size="14.00" fill="#000000"> </text>
<text text-anchor="start" x="563.2814" y="-548.3" font-family="Arial" font-size="14.00" fill="#666666">[BASE TABLE]</text>
<polygon fill="none" stroke="#000000" points="392,-505.5 392,-535.5 665,-535.5 665,-505.5 392,-505.5"/>
<text text-anchor="start" x="399" y="-516.9" font-family="Arial" font-size="14.00" fill="#000000">id </text>
<text text-anchor="start" x="413.7798" y="-516.9" font-family="Arial" font-size="14.00" fill="#666666">[uuid]</text>
<polygon fill="none" stroke="#000000" points="392,-475.5 392,-505.5 665,-505.5 665,-475.5 392,-475.5"/>
<text text-anchor="start" x="399" y="-486.9" font-family="Arial" font-size="14.00" fill="#000000">company_id </text>
<text text-anchor="start" x="478.3534" y="-486.9" font-family="Arial" font-size="14.00" fill="#666666">[uuid]</text>
<polygon fill="none" stroke="#000000" points="392,-445.5 392,-475.5 665,-475.5 665,-445.5 392,-445.5"/>
<text text-anchor="start" x="399" y="-456.9" font-family="Arial" font-size="14.00" fill="#000000">display_id </text>
<text text-anchor="start" x="465.1234" y="-456.9" font-family="Arial" font-size="14.00" fill="#666666">[integer]</text>
<polygon fill="none" stroke="#000000" points="392,-415.5 392,-445.5 665,-445.5 665,-415.5 392,-415.5"/>
<text text-anchor="start" x="399" y="-426.9" font-family="Arial" font-size="14.00" fill="#000000">name </text>
<text text-anchor="start" x="437.899" y="-426.9" font-family="Arial" font-size="14.00" fill="#666666">[varchar(128)]</text>
<polygon fill="none" stroke="#000000" points="392,-385.5 392,-415.5 665,-415.5 665,-385.5 392,-385.5"/>
<text text-anchor="start" x="399" y="-396.9" font-family="Arial" font-size="14.00" fill="#000000">report_send_emails </text>
<text text-anchor="start" x="525.8022" y="-396.9" font-family="Arial" font-size="14.00" fill="#666666">[varchar(255)]</text>
<polygon fill="none" stroke="#000000" points="392,-355.5 392,-385.5 665,-385.5 665,-355.5 392,-355.5"/>
<text text-anchor="start" x="399" y="-366.9" font-family="Arial" font-size="14.00" fill="#000000">created_at </text>
<text text-anchor="start" x="469.028" y="-366.9" font-family="Arial" font-size="14.00" fill="#666666">[timestamp without time zone]</text>
<polygon fill="none" stroke="#000000" points="392,-325.5 392,-355.5 665,-355.5 665,-325.5 392,-325.5"/>
<text text-anchor="start" x="398.9636" y="-336.9" font-family="Arial" font-size="14.00" fill="#000000">updated_at </text>
<text text-anchor="start" x="472.8962" y="-336.9" font-family="Arial" font-size="14.00" fill="#666666">[timestamp without time zone]</text>
</g>
<!-- public.organizations&#45;&gt;public.companies -->
<g id="edge1" class="edge">
<title>public.organizations:company_id&#45;&gt;public.companies:id</title>
<path fill="none" stroke="#000000" d="M381.873,-488.3288C316.6105,-459.3721 319.9861,-150.5 392,-150.5"/>
<polygon fill="#000000" stroke="#000000" points="382.2222,-488.4036 391.0566,-494.9 387.1111,-489.4518 392,-490.5 392,-490.5 392,-490.5 387.1111,-489.4518 392.9434,-486.1 382.2222,-488.4036 382.2222,-488.4036"/>
<text text-anchor="start" x="6.5465" y="-500.5" font-family="Arial" font-size="10.00" fill="#000000">FOREIGN KEY (company_id) REFERENCES companies(id) ON DELETE CASCADE</text>
</g>
</g>
</svg>
