<?xml version="1.0" encoding="UTF-8" standalone="no"?>
<!DOCTYPE svg PUBLIC "-//W3C//DTD SVG 1.1//EN"
 "http://www.w3.org/Graphics/SVG/1.1/DTD/svg11.dtd">
<!-- Generated by graphviz version 2.40.1 (20161225.0304)
 -->
<!-- Title: public.user_organization_belonging Pages: 1 -->
<svg width="1166pt" height="712pt"
 viewBox="0.00 0.00 1166.00 712.00" xmlns="http://www.w3.org/2000/svg" xmlns:xlink="http://www.w3.org/1999/xlink">
<g id="graph0" class="graph" transform="scale(1 1) rotate(0) translate(4 708)">
<title>public.user_organization_belonging</title>
<polygon fill="#ffffff" stroke="transparent" points="-4,4 -4,-708 1162,-708 1162,4 -4,4"/>
<!-- public.user_organization_belonging -->
<g id="node1" class="node">
<title>public.user_organization_belonging</title>
<polygon fill="#efefef" stroke="transparent" points="347,-622.5 347,-657.5 741,-657.5 741,-622.5 347,-622.5"/>
<polygon fill="none" stroke="#000000" points="347,-622.5 347,-657.5 741,-657.5 741,-622.5 347,-622.5"/>
<text text-anchor="start" x="353.831" y="-635.3" font-family="Arial Bold" font-size="18.00" fill="#000000">public.user_organization_belonging</text>
<text text-anchor="start" x="636.9152" y="-635.3" font-family="Arial" font-size="14.00" fill="#000000"> </text>
<text text-anchor="start" x="640.8058" y="-635.3" font-family="Arial" font-size="14.00" fill="#666666">[BASE TABLE]</text>
<polygon fill="none" stroke="#000000" points="347,-592.5 347,-622.5 741,-622.5 741,-592.5 347,-592.5"/>
<text text-anchor="start" x="354" y="-603.9" font-family="Arial" font-size="14.00" fill="#000000">user_id </text>
<text text-anchor="start" x="403.7882" y="-603.9" font-family="Arial" font-size="14.00" fill="#666666">[uuid]</text>
<polygon fill="none" stroke="#000000" points="347,-562.5 347,-592.5 741,-592.5 741,-562.5 347,-562.5"/>
<text text-anchor="start" x="354" y="-573.9" font-family="Arial" font-size="14.00" fill="#000000">organization_id </text>
<text text-anchor="start" x="452.805" y="-573.9" font-family="Arial" font-size="14.00" fill="#666666">[uuid]</text>
<polygon fill="none" stroke="#000000" points="347,-532.5 347,-562.5 741,-562.5 741,-532.5 347,-532.5"/>
<text text-anchor="start" x="354" y="-543.9" font-family="Arial" font-size="14.00" fill="#000000">created_at </text>
<text text-anchor="start" x="424.028" y="-543.9" font-family="Arial" font-size="14.00" fill="#666666">[timestamp without time zone]</text>
<polygon fill="none" stroke="#000000" points="347,-502.5 347,-532.5 741,-532.5 741,-502.5 347,-502.5"/>
<text text-anchor="start" x="354" y="-513.9" font-family="Arial" font-size="14.00" fill="#000000">updated_at </text>
<text text-anchor="start" x="427.9326" y="-513.9" font-family="Arial" font-size="14.00" fill="#666666">[timestamp without time zone]</text>
<polygon fill="none" stroke="#000000" stroke-width="3" points="345.5,-501.5 345.5,-659.5 742.5,-659.5 742.5,-501.5 345.5,-501.5"/>
</g>
<!-- public.users -->
<g id="node2" class="node">
<title>public.users</title>
<polygon fill="#efefef" stroke="transparent" points="219,-342.5 219,-377.5 492,-377.5 492,-342.5 219,-342.5"/>
<polygon fill="none" stroke="#000000" points="219,-342.5 219,-377.5 492,-377.5 492,-342.5 219,-342.5"/>
<text text-anchor="start" x="258.8662" y="-355.3" font-family="Arial Bold" font-size="18.00" fill="#000000">public.users</text>
<text text-anchor="start" x="354.88" y="-355.3" font-family="Arial" font-size="14.00" fill="#000000"> </text>
<text text-anchor="start" x="358.7706" y="-355.3" font-family="Arial" font-size="14.00" fill="#666666">[BASE TABLE]</text>
<polygon fill="none" stroke="#000000" points="219,-312.5 219,-342.5 492,-342.5 492,-312.5 219,-312.5"/>
<text text-anchor="start" x="226" y="-323.9" font-family="Arial" font-size="14.00" fill="#000000">id </text>
<text text-anchor="start" x="240.7798" y="-323.9" font-family="Arial" font-size="14.00" fill="#666666">[uuid]</text>
<polygon fill="none" stroke="#000000" points="219,-282.5 219,-312.5 492,-312.5 492,-282.5 219,-282.5"/>
<text text-anchor="start" x="226" y="-293.9" font-family="Arial" font-size="14.00" fill="#000000">last_name </text>
<text text-anchor="start" x="294.4614" y="-293.9" font-family="Arial" font-size="14.00" fill="#666666">[varchar(128)]</text>
<polygon fill="none" stroke="#000000" points="219,-252.5 219,-282.5 492,-282.5 492,-252.5 219,-252.5"/>
<text text-anchor="start" x="226" y="-263.9" font-family="Arial" font-size="14.00" fill="#000000">first_name </text>
<text text-anchor="start" x="295.23" y="-263.9" font-family="Arial" font-size="14.00" fill="#666666">[varchar(128)]</text>
<polygon fill="none" stroke="#000000" points="219,-222.5 219,-252.5 492,-252.5 492,-222.5 219,-222.5"/>
<text text-anchor="start" x="226" y="-233.9" font-family="Arial" font-size="14.00" fill="#000000">last_name_kana </text>
<text text-anchor="start" x="332.5918" y="-233.9" font-family="Arial" font-size="14.00" fill="#666666">[varchar(128)]</text>
<polygon fill="none" stroke="#000000" points="219,-192.5 219,-222.5 492,-222.5 492,-192.5 219,-192.5"/>
<text text-anchor="start" x="226" y="-203.9" font-family="Arial" font-size="14.00" fill="#000000">first_name_kana </text>
<text text-anchor="start" x="333.3604" y="-203.9" font-family="Arial" font-size="14.00" fill="#666666">[varchar(128)]</text>
<polygon fill="none" stroke="#000000" points="219,-162.5 219,-192.5 492,-192.5 492,-162.5 219,-162.5"/>
<text text-anchor="start" x="226" y="-173.9" font-family="Arial" font-size="14.00" fill="#000000">nickname </text>
<text text-anchor="start" x="289.7882" y="-173.9" font-family="Arial" font-size="14.00" fill="#666666">[varchar(20)]</text>
<polygon fill="none" stroke="#000000" points="219,-132.5 219,-162.5 492,-162.5 492,-132.5 219,-132.5"/>
<text text-anchor="start" x="226" y="-143.9" font-family="Arial" font-size="14.00" fill="#000000">email </text>
<text text-anchor="start" x="263.3296" y="-143.9" font-family="Arial" font-size="14.00" fill="#666666">[varchar(255)]</text>
<polygon fill="none" stroke="#000000" points="219,-102.5 219,-132.5 492,-132.5 492,-102.5 219,-102.5"/>
<text text-anchor="start" x="226" y="-113.9" font-family="Arial" font-size="14.00" fill="#000000">password_hash </text>
<text text-anchor="start" x="327.9186" y="-113.9" font-family="Arial" font-size="14.00" fill="#666666">[text]</text>
<polygon fill="none" stroke="#000000" points="219,-72.5 219,-102.5 492,-102.5 492,-72.5 219,-72.5"/>
<text text-anchor="start" x="226" y="-83.9" font-family="Arial" font-size="14.00" fill="#000000">created_at </text>
<text text-anchor="start" x="296.028" y="-83.9" font-family="Arial" font-size="14.00" fill="#666666">[timestamp without time zone]</text>
<polygon fill="none" stroke="#000000" points="219,-42.5 219,-72.5 492,-72.5 492,-42.5 219,-42.5"/>
<text text-anchor="start" x="225.9636" y="-53.9" font-family="Arial" font-size="14.00" fill="#000000">updated_at </text>
<text text-anchor="start" x="299.8962" y="-53.9" font-family="Arial" font-size="14.00" fill="#666666">[timestamp without time zone]</text>
</g>
<!-- public.user_organization_belonging&#45;&gt;public.users -->
<g id="edge1" class="edge">
<title>public.user_organization_belonging:user_id&#45;&gt;public.users:id</title>
<path fill="none" stroke="#000000" d="M336.844,-606.6458C282.9665,-596.9368 308.0465,-506.8073 347,-457 387.9064,-404.6956 451.0936,-473.3044 492,-421 517.6004,-388.2665 533.5556,-327.5 492,-327.5"/>
<polygon fill="#000000" stroke="#000000" points="337.0352,-606.6618 346.6228,-611.9842 342.0176,-607.0809 347,-607.5 347,-607.5 347,-607.5 342.0176,-607.0809 347.3772,-603.0158 337.0352,-606.6618 337.0352,-606.6618"/>
<text text-anchor="start" x="7.0535" y="-617.5" font-family="Arial" font-size="10.00" fill="#000000">FOREIGN KEY (user_id) REFERENCES users(id) ON DELETE CASCADE</text>
</g>
<!-- public.organizations -->
<g id="node3" class="node">
<title>public.organizations</title>
<polygon fill="#efefef" stroke="transparent" points="596,-297.5 596,-332.5 869,-332.5 869,-297.5 596,-297.5"/>
<polygon fill="none" stroke="#000000" points="596,-297.5 596,-332.5 869,-332.5 869,-297.5 596,-297.5"/>
<text text-anchor="start" x="604.3554" y="-310.3" font-family="Arial Bold" font-size="18.00" fill="#000000">public.organizations</text>
<text text-anchor="start" x="763.3908" y="-310.3" font-family="Arial" font-size="14.00" fill="#000000"> </text>
<text text-anchor="start" x="767.2814" y="-310.3" font-family="Arial" font-size="14.00" fill="#666666">[BASE TABLE]</text>
<polygon fill="none" stroke="#000000" points="596,-267.5 596,-297.5 869,-297.5 869,-267.5 596,-267.5"/>
<text text-anchor="start" x="603" y="-278.9" font-family="Arial" font-size="14.00" fill="#000000">id </text>
<text text-anchor="start" x="617.7798" y="-278.9" font-family="Arial" font-size="14.00" fill="#666666">[uuid]</text>
<polygon fill="none" stroke="#000000" points="596,-237.5 596,-267.5 869,-267.5 869,-237.5 596,-237.5"/>
<text text-anchor="start" x="603" y="-248.9" font-family="Arial" font-size="14.00" fill="#000000">company_id </text>
<text text-anchor="start" x="682.3534" y="-248.9" font-family="Arial" font-size="14.00" fill="#666666">[uuid]</text>
<polygon fill="none" stroke="#000000" points="596,-207.5 596,-237.5 869,-237.5 869,-207.5 596,-207.5"/>
<text text-anchor="start" x="603" y="-218.9" font-family="Arial" font-size="14.00" fill="#000000">display_id </text>
<text text-anchor="start" x="669.1234" y="-218.9" font-family="Arial" font-size="14.00" fill="#666666">[integer]</text>
<polygon fill="none" stroke="#000000" points="596,-177.5 596,-207.5 869,-207.5 869,-177.5 596,-177.5"/>
<text text-anchor="start" x="603" y="-188.9" font-family="Arial" font-size="14.00" fill="#000000">name </text>
<text text-anchor="start" x="641.899" y="-188.9" font-family="Arial" font-size="14.00" fill="#666666">[varchar(128)]</text>
<polygon fill="none" stroke="#000000" points="596,-147.5 596,-177.5 869,-177.5 869,-147.5 596,-147.5"/>
<text text-anchor="start" x="603" y="-158.9" font-family="Arial" font-size="14.00" fill="#000000">report_send_emails </text>
<text text-anchor="start" x="729.8022" y="-158.9" font-family="Arial" font-size="14.00" fill="#666666">[varchar(255)]</text>
<polygon fill="none" stroke="#000000" points="596,-117.5 596,-147.5 869,-147.5 869,-117.5 596,-117.5"/>
<text text-anchor="start" x="603" y="-128.9" font-family="Arial" font-size="14.00" fill="#000000">created_at </text>
<text text-anchor="start" x="673.028" y="-128.9" font-family="Arial" font-size="14.00" fill="#666666">[timestamp without time zone]</text>
<polygon fill="none" stroke="#000000" points="596,-87.5 596,-117.5 869,-117.5 869,-87.5 596,-87.5"/>
<text text-anchor="start" x="602.9636" y="-98.9" font-family="Arial" font-size="14.00" fill="#000000">updated_at </text>
<text text-anchor="start" x="676.8962" y="-98.9" font-family="Arial" font-size="14.00" fill="#666666">[timestamp without time zone]</text>
</g>
<!-- public.user_organization_belonging&#45;&gt;public.organizations -->
<g id="edge2" class="edge">
<title>public.user_organization_belonging:organization_id&#45;&gt;public.organizations:id</title>
<path fill="none" stroke="#000000" d="M751.1379,-576.4335C790.8328,-567.1891 766.1996,-499.942 741,-457 703.6393,-393.3347 633.3607,-439.6653 596,-376 574.9679,-340.1599 554.4444,-282.5 596,-282.5"/>
<polygon fill="#000000" stroke="#000000" points="750.9451,-576.4537 740.5291,-573.0247 745.9726,-576.9768 741,-577.5 741,-577.5 741,-577.5 745.9726,-576.9768 741.4709,-581.9753 750.9451,-576.4537 750.9451,-576.4537"/>
<text text-anchor="start" x="748.0415" y="-587.5" font-family="Arial" font-size="10.00" fill="#000000">FOREIGN KEY (organization_id) REFERENCES organizations(id) ON DELETE CASCADE</text>
</g>
</g>
</svg>
