<?xml version="1.0" encoding="UTF-8" standalone="no"?>
<!DOCTYPE svg PUBLIC "-//W3C//DTD SVG 1.1//EN"
 "http://www.w3.org/Graphics/SVG/1.1/DTD/svg11.dtd">
<!-- Generated by graphviz version 2.40.1 (20161225.0304)
 -->
<!-- Title: public.scenarios Pages: 1 -->
<svg width="1393pt" height="1199pt"
 viewBox="0.00 0.00 1393.00 1199.00" xmlns="http://www.w3.org/2000/svg" xmlns:xlink="http://www.w3.org/1999/xlink">
<g id="graph0" class="graph" transform="scale(1 1) rotate(0) translate(4 1195)">
<title>public.scenarios</title>
<polygon fill="#ffffff" stroke="transparent" points="-4,4 -4,-1195 1389,-1195 1389,4 -4,4"/>
<!-- public.scenarios -->
<g id="node1" class="node">
<title>public.scenarios</title>
<polygon fill="#efefef" stroke="transparent" points="529,-712.5 529,-747.5 802,-747.5 802,-712.5 529,-712.5"/>
<polygon fill="none" stroke="#000000" points="529,-712.5 529,-747.5 802,-747.5 802,-712.5 529,-712.5"/>
<text text-anchor="start" x="552.3629" y="-725.3" font-family="Arial Bold" font-size="18.00" fill="#000000">public.scenarios</text>
<text text-anchor="start" x="681.3833" y="-725.3" font-family="Arial" font-size="14.00" fill="#000000"> </text>
<text text-anchor="start" x="685.2739" y="-725.3" font-family="Arial" font-size="14.00" fill="#666666">[BASE TABLE]</text>
<polygon fill="none" stroke="#000000" points="529,-682.5 529,-712.5 802,-712.5 802,-682.5 529,-682.5"/>
<text text-anchor="start" x="536" y="-693.9" font-family="Arial" font-size="14.00" fill="#000000">id </text>
<text text-anchor="start" x="550.7798" y="-693.9" font-family="Arial" font-size="14.00" fill="#666666">[uuid]</text>
<polygon fill="none" stroke="#000000" points="529,-652.5 529,-682.5 802,-682.5 802,-652.5 529,-652.5"/>
<text text-anchor="start" x="536" y="-663.9" font-family="Arial" font-size="14.00" fill="#000000">organization_id </text>
<text text-anchor="start" x="634.805" y="-663.9" font-family="Arial" font-size="14.00" fill="#666666">[uuid]</text>
<polygon fill="none" stroke="#000000" points="529,-622.5 529,-652.5 802,-652.5 802,-622.5 529,-622.5"/>
<text text-anchor="start" x="536" y="-633.9" font-family="Arial" font-size="14.00" fill="#000000">role_id </text>
<text text-anchor="start" x="581.8948" y="-633.9" font-family="Arial" font-size="14.00" fill="#666666">[uuid]</text>
<polygon fill="none" stroke="#000000" points="529,-592.5 529,-622.5 802,-622.5 802,-592.5 529,-592.5"/>
<text text-anchor="start" x="536" y="-603.9" font-family="Arial" font-size="14.00" fill="#000000">title </text>
<text text-anchor="start" x="561.6676" y="-603.9" font-family="Arial" font-size="14.00" fill="#666666">[varchar(255)]</text>
<polygon fill="none" stroke="#000000" points="529,-562.5 529,-592.5 802,-592.5 802,-562.5 529,-562.5"/>
<text text-anchor="start" x="536" y="-573.9" font-family="Arial" font-size="14.00" fill="#000000">overview </text>
<text text-anchor="start" x="595.1122" y="-573.9" font-family="Arial" font-size="14.00" fill="#666666">[text]</text>
<polygon fill="none" stroke="#000000" points="529,-532.5 529,-562.5 802,-562.5 802,-532.5 529,-532.5"/>
<text text-anchor="start" x="536" y="-543.9" font-family="Arial" font-size="14.00" fill="#000000">description </text>
<text text-anchor="start" x="607.568" y="-543.9" font-family="Arial" font-size="14.00" fill="#666666">[text]</text>
<polygon fill="none" stroke="#000000" points="529,-502.5 529,-532.5 802,-532.5 802,-502.5 529,-502.5"/>
<text text-anchor="start" x="536" y="-513.9" font-family="Arial" font-size="14.00" fill="#000000">highest_score </text>
<text text-anchor="start" x="627.0266" y="-513.9" font-family="Arial" font-size="14.00" fill="#666666">[integer]</text>
<polygon fill="none" stroke="#000000" points="529,-472.5 529,-502.5 802,-502.5 802,-472.5 529,-472.5"/>
<text text-anchor="start" x="536" y="-483.9" font-family="Arial" font-size="14.00" fill="#000000">result_message </text>
<text text-anchor="start" x="638.6872" y="-483.9" font-family="Arial" font-size="14.00" fill="#666666">[text]</text>
<polygon fill="none" stroke="#000000" points="529,-442.5 529,-472.5 802,-472.5 802,-442.5 529,-442.5"/>
<text text-anchor="start" x="536" y="-453.9" font-family="Arial" font-size="14.00" fill="#000000">created_at </text>
<text text-anchor="start" x="606.028" y="-453.9" font-family="Arial" font-size="14.00" fill="#666666">[timestamp without time zone]</text>
<polygon fill="none" stroke="#000000" points="529,-412.5 529,-442.5 802,-442.5 802,-412.5 529,-412.5"/>
<text text-anchor="start" x="535.9636" y="-423.9" font-family="Arial" font-size="14.00" fill="#000000">updated_at </text>
<text text-anchor="start" x="609.8962" y="-423.9" font-family="Arial" font-size="14.00" fill="#666666">[timestamp without time zone]</text>
<polygon fill="none" stroke="#000000" stroke-width="3" points="527,-411.5 527,-749.5 803,-749.5 803,-411.5 527,-411.5"/>
</g>
<!-- public.organizations -->
<g id="node5" class="node">
<title>public.organizations</title>
<polygon fill="#efefef" stroke="transparent" points="341,-252.5 341,-287.5 614,-287.5 614,-252.5 341,-252.5"/>
<polygon fill="none" stroke="#000000" points="341,-252.5 341,-287.5 614,-287.5 614,-252.5 341,-252.5"/>
<text text-anchor="start" x="349.3554" y="-265.3" font-family="Arial Bold" font-size="18.00" fill="#000000">public.organizations</text>
<text text-anchor="start" x="508.3908" y="-265.3" font-family="Arial" font-size="14.00" fill="#000000"> </text>
<text text-anchor="start" x="512.2814" y="-265.3" font-family="Arial" font-size="14.00" fill="#666666">[BASE TABLE]</text>
<polygon fill="none" stroke="#000000" points="341,-222.5 341,-252.5 614,-252.5 614,-222.5 341,-222.5"/>
<text text-anchor="start" x="348" y="-233.9" font-family="Arial" font-size="14.00" fill="#000000">id </text>
<text text-anchor="start" x="362.7798" y="-233.9" font-family="Arial" font-size="14.00" fill="#666666">[uuid]</text>
<polygon fill="none" stroke="#000000" points="341,-192.5 341,-222.5 614,-222.5 614,-192.5 341,-192.5"/>
<text text-anchor="start" x="348" y="-203.9" font-family="Arial" font-size="14.00" fill="#000000">company_id </text>
<text text-anchor="start" x="427.3534" y="-203.9" font-family="Arial" font-size="14.00" fill="#666666">[uuid]</text>
<polygon fill="none" stroke="#000000" points="341,-162.5 341,-192.5 614,-192.5 614,-162.5 341,-162.5"/>
<text text-anchor="start" x="348" y="-173.9" font-family="Arial" font-size="14.00" fill="#000000">display_id </text>
<text text-anchor="start" x="414.1234" y="-173.9" font-family="Arial" font-size="14.00" fill="#666666">[integer]</text>
<polygon fill="none" stroke="#000000" points="341,-132.5 341,-162.5 614,-162.5 614,-132.5 341,-132.5"/>
<text text-anchor="start" x="348" y="-143.9" font-family="Arial" font-size="14.00" fill="#000000">name </text>
<text text-anchor="start" x="386.899" y="-143.9" font-family="Arial" font-size="14.00" fill="#666666">[varchar(128)]</text>
<polygon fill="none" stroke="#000000" points="341,-102.5 341,-132.5 614,-132.5 614,-102.5 341,-102.5"/>
<text text-anchor="start" x="348" y="-113.9" font-family="Arial" font-size="14.00" fill="#000000">report_send_emails </text>
<text text-anchor="start" x="474.8022" y="-113.9" font-family="Arial" font-size="14.00" fill="#666666">[varchar(255)]</text>
<polygon fill="none" stroke="#000000" points="341,-72.5 341,-102.5 614,-102.5 614,-72.5 341,-72.5"/>
<text text-anchor="start" x="348" y="-83.9" font-family="Arial" font-size="14.00" fill="#000000">created_at </text>
<text text-anchor="start" x="418.028" y="-83.9" font-family="Arial" font-size="14.00" fill="#666666">[timestamp without time zone]</text>
<polygon fill="none" stroke="#000000" points="341,-42.5 341,-72.5 614,-72.5 614,-42.5 341,-42.5"/>
<text text-anchor="start" x="347.9636" y="-53.9" font-family="Arial" font-size="14.00" fill="#000000">updated_at </text>
<text text-anchor="start" x="421.8962" y="-53.9" font-family="Arial" font-size="14.00" fill="#666666">[timestamp without time zone]</text>
</g>
<!-- public.scenarios&#45;&gt;public.organizations -->
<g id="edge4" class="edge">
<title>public.scenarios:organization_id&#45;&gt;public.organizations:id</title>
<path fill="none" stroke="#000000" d="M518.8355,-667.1104C398.6075,-657.5789 457.1859,-475.4048 529,-367 551.6577,-332.7978 591.3423,-365.2022 614,-331 636.9499,-296.3566 655.5556,-237.5 614,-237.5"/>
<polygon fill="#000000" stroke="#000000" points="519.0073,-667.1169 528.8276,-671.9967 524.0037,-667.3084 529,-667.5 529,-667.5 529,-667.5 524.0037,-667.3084 529.1724,-663.0033 519.0073,-667.1169 519.0073,-667.1169"/>
<text text-anchor="start" x="119.0415" y="-677.5" font-family="Arial" font-size="10.00" fill="#000000">FOREIGN KEY (organization_id) REFERENCES organizations(id) ON DELETE CASCADE</text>
</g>
<!-- public.roles -->
<g id="node6" class="node">
<title>public.roles</title>
<polygon fill="#efefef" stroke="transparent" points="718,-222.5 718,-257.5 991,-257.5 991,-222.5 718,-222.5"/>
<polygon fill="none" stroke="#000000" points="718,-222.5 718,-257.5 991,-257.5 991,-222.5 718,-222.5"/>
<text text-anchor="start" x="760.3691" y="-235.3" font-family="Arial Bold" font-size="18.00" fill="#000000">public.roles</text>
<text text-anchor="start" x="851.3771" y="-235.3" font-family="Arial" font-size="14.00" fill="#000000"> </text>
<text text-anchor="start" x="855.2677" y="-235.3" font-family="Arial" font-size="14.00" fill="#666666">[BASE TABLE]</text>
<polygon fill="none" stroke="#000000" points="718,-192.5 718,-222.5 991,-222.5 991,-192.5 718,-192.5"/>
<text text-anchor="start" x="725" y="-203.9" font-family="Arial" font-size="14.00" fill="#000000">id </text>
<text text-anchor="start" x="739.7798" y="-203.9" font-family="Arial" font-size="14.00" fill="#666666">[uuid]</text>
<polygon fill="none" stroke="#000000" points="718,-162.5 718,-192.5 991,-192.5 991,-162.5 718,-162.5"/>
<text text-anchor="start" x="725" y="-173.9" font-family="Arial" font-size="14.00" fill="#000000">organization_id </text>
<text text-anchor="start" x="823.805" y="-173.9" font-family="Arial" font-size="14.00" fill="#666666">[uuid]</text>
<polygon fill="none" stroke="#000000" points="718,-132.5 718,-162.5 991,-162.5 991,-132.5 718,-132.5"/>
<text text-anchor="start" x="725" y="-143.9" font-family="Arial" font-size="14.00" fill="#000000">name </text>
<text text-anchor="start" x="763.899" y="-143.9" font-family="Arial" font-size="14.00" fill="#666666">[varchar(128)]</text>
<polygon fill="none" stroke="#000000" points="718,-102.5 718,-132.5 991,-132.5 991,-102.5 718,-102.5"/>
<text text-anchor="start" x="725" y="-113.9" font-family="Arial" font-size="14.00" fill="#000000">created_at </text>
<text text-anchor="start" x="795.028" y="-113.9" font-family="Arial" font-size="14.00" fill="#666666">[timestamp without time zone]</text>
<polygon fill="none" stroke="#000000" points="718,-72.5 718,-102.5 991,-102.5 991,-72.5 718,-72.5"/>
<text text-anchor="start" x="724.9636" y="-83.9" font-family="Arial" font-size="14.00" fill="#000000">updated_at </text>
<text text-anchor="start" x="798.8962" y="-83.9" font-family="Arial" font-size="14.00" fill="#666666">[timestamp without time zone]</text>
</g>
<!-- public.scenarios&#45;&gt;public.roles -->
<g id="edge5" class="edge">
<title>public.scenarios:role_id&#45;&gt;public.roles:id</title>
<path fill="none" stroke="#000000" d="M812.0877,-637.0874C918.2702,-628.0325 853.014,-471.9594 802,-367 781.2453,-324.298 738.7547,-343.702 718,-301 699.8345,-263.6252 676.4444,-207.5 718,-207.5"/>
<polygon fill="#000000" stroke="#000000" points="811.9916,-637.0912 801.816,-633.0038 806.9958,-637.2956 802,-637.5 802,-637.5 802,-637.5 806.9958,-637.2956 802.184,-641.9962 811.9916,-637.0912 811.9916,-637.0912"/>
<text text-anchor="start" x="808.8345" y="-647.5" font-family="Arial" font-size="10.00" fill="#000000">FOREIGN KEY (role_id) REFERENCES roles(id) ON DELETE CASCADE</text>
</g>
<!-- public.scenario_quizzes -->
<g id="node2" class="node">
<title>public.scenario_quizzes</title>
<polygon fill="#efefef" stroke="transparent" points="82,-1082.5 82,-1117.5 384,-1117.5 384,-1082.5 82,-1082.5"/>
<polygon fill="none" stroke="#000000" points="82,-1082.5 82,-1117.5 384,-1117.5 384,-1082.5 82,-1082.5"/>
<text text-anchor="start" x="88.8534" y="-1095.3" font-family="Arial Bold" font-size="18.00" fill="#000000">public.scenario_quizzes</text>
<text text-anchor="start" x="279.8928" y="-1095.3" font-family="Arial" font-size="14.00" fill="#000000"> </text>
<text text-anchor="start" x="283.7834" y="-1095.3" font-family="Arial" font-size="14.00" fill="#666666">[BASE TABLE]</text>
<polygon fill="none" stroke="#000000" points="82,-1052.5 82,-1082.5 384,-1082.5 384,-1052.5 82,-1052.5"/>
<text text-anchor="start" x="89" y="-1063.9" font-family="Arial" font-size="14.00" fill="#000000">id </text>
<text text-anchor="start" x="103.7798" y="-1063.9" font-family="Arial" font-size="14.00" fill="#666666">[uuid]</text>
<polygon fill="none" stroke="#000000" points="82,-1022.5 82,-1052.5 384,-1052.5 384,-1022.5 82,-1022.5"/>
<text text-anchor="start" x="89" y="-1033.9" font-family="Arial" font-size="14.00" fill="#000000">scenario_id </text>
<text text-anchor="start" x="164.46" y="-1033.9" font-family="Arial" font-size="14.00" fill="#666666">[uuid]</text>
<polygon fill="none" stroke="#000000" points="82,-992.5 82,-1022.5 384,-1022.5 384,-992.5 82,-992.5"/>
<text text-anchor="start" x="89" y="-1003.9" font-family="Arial" font-size="14.00" fill="#000000">question </text>
<text text-anchor="start" x="145.8008" y="-1003.9" font-family="Arial" font-size="14.00" fill="#666666">[text]</text>
<polygon fill="none" stroke="#000000" points="82,-962.5 82,-992.5 384,-992.5 384,-962.5 82,-962.5"/>
<text text-anchor="start" x="89" y="-973.9" font-family="Arial" font-size="14.00" fill="#000000">failure_message </text>
<text text-anchor="start" x="195.5764" y="-973.9" font-family="Arial" font-size="14.00" fill="#666666">[text]</text>
<polygon fill="none" stroke="#000000" points="82,-932.5 82,-962.5 384,-962.5 384,-932.5 82,-932.5"/>
<text text-anchor="start" x="89" y="-943.9" font-family="Arial" font-size="14.00" fill="#000000">created_at </text>
<text text-anchor="start" x="159.028" y="-943.9" font-family="Arial" font-size="14.00" fill="#666666">[timestamp without time zone]</text>
<polygon fill="none" stroke="#000000" points="82,-902.5 82,-932.5 384,-932.5 384,-902.5 82,-902.5"/>
<text text-anchor="start" x="89" y="-913.9" font-family="Arial" font-size="14.00" fill="#000000">updated_at </text>
<text text-anchor="start" x="162.9326" y="-913.9" font-family="Arial" font-size="14.00" fill="#666666">[timestamp without time zone]</text>
</g>
<!-- public.scenario_quizzes&#45;&gt;public.scenarios -->
<g id="edge1" class="edge">
<title>public.scenario_quizzes:scenario_id&#45;&gt;public.scenarios:id</title>
<path fill="none" stroke="#000000" d="M394.346,-1036.9552C472.8071,-1028.0971 398.0169,-913.0901 436,-830 465.912,-764.5659 457.0532,-697.5 529,-697.5"/>
<polygon fill="#000000" stroke="#000000" points="393.9862,-1036.9741 383.7633,-1033.0062 388.9931,-1037.237 384,-1037.5 384,-1037.5 384,-1037.5 388.9931,-1037.237 384.2367,-1041.9938 393.9862,-1036.9741 393.9862,-1036.9741"/>
<text text-anchor="start" x="6.7165" y="-1047.5" font-family="Arial" font-size="10.00" fill="#000000">FOREIGN KEY (scenario_id) REFERENCES scenarios(id) ON DELETE CASCADE</text>
</g>
<!-- public.user_scenario_histories -->
<g id="node3" class="node">
<title>public.user_scenario_histories</title>
<polygon fill="#efefef" stroke="transparent" points="489,-1082.5 489,-1117.5 842,-1117.5 842,-1082.5 489,-1082.5"/>
<polygon fill="none" stroke="#000000" points="489,-1082.5 489,-1117.5 842,-1117.5 842,-1082.5 489,-1082.5"/>
<text text-anchor="start" x="495.8537" y="-1095.3" font-family="Arial Bold" font-size="18.00" fill="#000000">public.user_scenario_histories</text>
<text text-anchor="start" x="737.8925" y="-1095.3" font-family="Arial" font-size="14.00" fill="#000000"> </text>
<text text-anchor="start" x="741.7831" y="-1095.3" font-family="Arial" font-size="14.00" fill="#666666">[BASE TABLE]</text>
<polygon fill="none" stroke="#000000" points="489,-1052.5 489,-1082.5 842,-1082.5 842,-1052.5 489,-1052.5"/>
<text text-anchor="start" x="496" y="-1063.9" font-family="Arial" font-size="14.00" fill="#000000">id </text>
<text text-anchor="start" x="510.7798" y="-1063.9" font-family="Arial" font-size="14.00" fill="#666666">[uuid]</text>
<polygon fill="none" stroke="#000000" points="489,-1022.5 489,-1052.5 842,-1052.5 842,-1022.5 489,-1022.5"/>
<text text-anchor="start" x="496" y="-1033.9" font-family="Arial" font-size="14.00" fill="#000000">user_id </text>
<text text-anchor="start" x="545.7882" y="-1033.9" font-family="Arial" font-size="14.00" fill="#666666">[uuid]</text>
<polygon fill="none" stroke="#000000" points="489,-992.5 489,-1022.5 842,-1022.5 842,-992.5 489,-992.5"/>
<text text-anchor="start" x="496" y="-1003.9" font-family="Arial" font-size="14.00" fill="#000000">scenario_id </text>
<text text-anchor="start" x="571.46" y="-1003.9" font-family="Arial" font-size="14.00" fill="#666666">[uuid]</text>
<polygon fill="none" stroke="#000000" points="489,-962.5 489,-992.5 842,-992.5 842,-962.5 489,-962.5"/>
<text text-anchor="start" x="496" y="-973.9" font-family="Arial" font-size="14.00" fill="#000000">total_score </text>
<text text-anchor="start" x="568.352" y="-973.9" font-family="Arial" font-size="14.00" fill="#666666">[integer]</text>
<polygon fill="none" stroke="#000000" points="489,-932.5 489,-962.5 842,-962.5 842,-932.5 489,-932.5"/>
<text text-anchor="start" x="496" y="-943.9" font-family="Arial" font-size="14.00" fill="#000000">created_at </text>
<text text-anchor="start" x="566.028" y="-943.9" font-family="Arial" font-size="14.00" fill="#666666">[timestamp without time zone]</text>
<polygon fill="none" stroke="#000000" points="489,-902.5 489,-932.5 842,-932.5 842,-902.5 489,-902.5"/>
<text text-anchor="start" x="496" y="-913.9" font-family="Arial" font-size="14.00" fill="#000000">updated_at </text>
<text text-anchor="start" x="569.9326" y="-913.9" font-family="Arial" font-size="14.00" fill="#666666">[timestamp without time zone]</text>
</g>
<!-- public.user_scenario_histories&#45;&gt;public.scenarios -->
<g id="edge2" class="edge">
<title>public.user_scenario_histories:scenario_id&#45;&gt;public.scenarios:id</title>
<path fill="none" stroke="#000000" d="M479.2545,-1005.183C423.6785,-976.815 463.0673,-697.5 529,-697.5"/>
<polygon fill="#000000" stroke="#000000" points="479.2712,-1005.1869 487.9591,-1011.878 484.1356,-1006.3434 489,-1007.5 489,-1007.5 489,-1007.5 484.1356,-1006.3434 490.0409,-1003.122 479.2712,-1005.1869 479.2712,-1005.1869"/>
<text text-anchor="start" x="495.7165" y="-1017.5" font-family="Arial" font-size="10.00" fill="#000000">FOREIGN KEY (scenario_id) REFERENCES scenarios(id) ON DELETE CASCADE</text>
</g>
<!-- public.user_scenario_quiz_histories -->
<g id="node4" class="node">
<title>public.user_scenario_quiz_histories</title>
<polygon fill="#efefef" stroke="transparent" points="946,-1112.5 946,-1147.5 1342,-1147.5 1342,-1112.5 946,-1112.5"/>
<polygon fill="none" stroke="#000000" points="946,-1112.5 946,-1147.5 1342,-1147.5 1342,-1112.5 946,-1112.5"/>
<text text-anchor="start" x="952.8473" y="-1125.3" font-family="Arial Bold" font-size="18.00" fill="#000000">public.user_scenario_quiz_histories</text>
<text text-anchor="start" x="1237.8989" y="-1125.3" font-family="Arial" font-size="14.00" fill="#000000"> </text>
<text text-anchor="start" x="1241.7895" y="-1125.3" font-family="Arial" font-size="14.00" fill="#666666">[BASE TABLE]</text>
<polygon fill="none" stroke="#000000" points="946,-1082.5 946,-1112.5 1342,-1112.5 1342,-1082.5 946,-1082.5"/>
<text text-anchor="start" x="953" y="-1093.9" font-family="Arial" font-size="14.00" fill="#000000">id </text>
<text text-anchor="start" x="967.7798" y="-1093.9" font-family="Arial" font-size="14.00" fill="#666666">[uuid]</text>
<polygon fill="none" stroke="#000000" points="946,-1052.5 946,-1082.5 1342,-1082.5 1342,-1052.5 946,-1052.5"/>
<text text-anchor="start" x="953" y="-1063.9" font-family="Arial" font-size="14.00" fill="#000000">user_scenario_history_id </text>
<text text-anchor="start" x="1112.474" y="-1063.9" font-family="Arial" font-size="14.00" fill="#666666">[uuid]</text>
<polygon fill="none" stroke="#000000" points="946,-1022.5 946,-1052.5 1342,-1052.5 1342,-1022.5 946,-1022.5"/>
<text text-anchor="start" x="953" y="-1033.9" font-family="Arial" font-size="14.00" fill="#000000">user_id </text>
<text text-anchor="start" x="1002.7882" y="-1033.9" font-family="Arial" font-size="14.00" fill="#666666">[uuid]</text>
<polygon fill="none" stroke="#000000" points="946,-992.5 946,-1022.5 1342,-1022.5 1342,-992.5 946,-992.5"/>
<text text-anchor="start" x="953" y="-1003.9" font-family="Arial" font-size="14.00" fill="#000000">scenario_id </text>
<text text-anchor="start" x="1028.46" y="-1003.9" font-family="Arial" font-size="14.00" fill="#666666">[uuid]</text>
<polygon fill="none" stroke="#000000" points="946,-962.5 946,-992.5 1342,-992.5 1342,-962.5 946,-962.5"/>
<text text-anchor="start" x="953" y="-973.9" font-family="Arial" font-size="14.00" fill="#000000">scenario_quiz_id </text>
<text text-anchor="start" x="1061.9144" y="-973.9" font-family="Arial" font-size="14.00" fill="#666666">[uuid]</text>
<polygon fill="none" stroke="#000000" points="946,-932.5 946,-962.5 1342,-962.5 1342,-932.5 946,-932.5"/>
<text text-anchor="start" x="953" y="-943.9" font-family="Arial" font-size="14.00" fill="#000000">scenario_quiz_option_id </text>
<text text-anchor="start" x="1107.8246" y="-943.9" font-family="Arial" font-size="14.00" fill="#666666">[uuid]</text>
<polygon fill="none" stroke="#000000" points="946,-902.5 946,-932.5 1342,-932.5 1342,-902.5 946,-902.5"/>
<text text-anchor="start" x="953" y="-913.9" font-family="Arial" font-size="14.00" fill="#000000">created_at </text>
<text text-anchor="start" x="1023.028" y="-913.9" font-family="Arial" font-size="14.00" fill="#666666">[timestamp without time zone]</text>
<polygon fill="none" stroke="#000000" points="946,-872.5 946,-902.5 1342,-902.5 1342,-872.5 946,-872.5"/>
<text text-anchor="start" x="953" y="-883.9" font-family="Arial" font-size="14.00" fill="#000000">updated_at </text>
<text text-anchor="start" x="1026.9326" y="-883.9" font-family="Arial" font-size="14.00" fill="#666666">[timestamp without time zone]</text>
</g>
<!-- public.user_scenario_quiz_histories&#45;&gt;public.scenarios -->
<g id="edge3" class="edge">
<title>public.user_scenario_quiz_histories:scenario_id&#45;&gt;public.scenarios:id</title>
<path fill="none" stroke="#000000" d="M935.7943,-1006.8864C869.4906,-998.2749 927.8633,-900.8334 894,-830 863.078,-765.319 873.6924,-697.5 802,-697.5"/>
<polygon fill="#000000" stroke="#000000" points="936.018,-1006.8998 945.7299,-1011.9919 941.009,-1007.1999 946,-1007.5 946,-1007.5 946,-1007.5 941.009,-1007.1999 946.2701,-1003.0081 936.018,-1006.8998 936.018,-1006.8998"/>
<text text-anchor="start" x="952.7165" y="-1017.5" font-family="Arial" font-size="10.00" fill="#000000">FOREIGN KEY (scenario_id) REFERENCES scenarios(id) ON DELETE CASCADE</text>
</g>
</g>
</svg>
