<?xml version="1.0" encoding="UTF-8" standalone="no"?>
<!DOCTYPE svg PUBLIC "-//W3C//DTD SVG 1.1//EN"
 "http://www.w3.org/Graphics/SVG/1.1/DTD/svg11.dtd">
<!-- Generated by graphviz version 2.40.1 (20161225.0304)
 -->
<!-- Title: public.tags Pages: 1 -->
<svg width="667pt" height="562pt"
 viewBox="0.00 0.00 667.00 562.00" xmlns="http://www.w3.org/2000/svg" xmlns:xlink="http://www.w3.org/1999/xlink">
<g id="graph0" class="graph" transform="scale(1 1) rotate(0) translate(4 558)">
<title>public.tags</title>
<polygon fill="#ffffff" stroke="transparent" points="-4,4 -4,-558 663,-558 663,4 -4,4"/>
<!-- public.tags -->
<g id="node1" class="node">
<title>public.tags</title>
<polygon fill="#efefef" stroke="transparent" points="339,-165.5 339,-200.5 612,-200.5 612,-165.5 339,-165.5"/>
<polygon fill="none" stroke="#000000" points="339,-165.5 339,-200.5 612,-200.5 612,-165.5 339,-165.5"/>
<text text-anchor="start" x="383.8612" y="-178.3" font-family="Arial Bold" font-size="18.00" fill="#000000">public.tags</text>
<text text-anchor="start" x="469.885" y="-178.3" font-family="Arial" font-size="14.00" fill="#000000"> </text>
<text text-anchor="start" x="473.7756" y="-178.3" font-family="Arial" font-size="14.00" fill="#666666">[BASE TABLE]</text>
<polygon fill="none" stroke="#000000" points="339,-135.5 339,-165.5 612,-165.5 612,-135.5 339,-135.5"/>
<text text-anchor="start" x="346" y="-146.9" font-family="Arial" font-size="14.00" fill="#000000">id </text>
<text text-anchor="start" x="360.7798" y="-146.9" font-family="Arial" font-size="14.00" fill="#666666">[uuid]</text>
<polygon fill="none" stroke="#000000" points="339,-105.5 339,-135.5 612,-135.5 612,-105.5 339,-105.5"/>
<text text-anchor="start" x="346" y="-116.9" font-family="Arial" font-size="14.00" fill="#000000">name </text>
<text text-anchor="start" x="384.899" y="-116.9" font-family="Arial" font-size="14.00" fill="#666666">[varchar(128)]</text>
<polygon fill="none" stroke="#000000" points="339,-75.5 339,-105.5 612,-105.5 612,-75.5 339,-75.5"/>
<text text-anchor="start" x="346" y="-86.9" font-family="Arial" font-size="14.00" fill="#000000">created_at </text>
<text text-anchor="start" x="416.028" y="-86.9" font-family="Arial" font-size="14.00" fill="#666666">[timestamp without time zone]</text>
<polygon fill="none" stroke="#000000" points="339,-45.5 339,-75.5 612,-75.5 612,-45.5 339,-45.5"/>
<text text-anchor="start" x="345.9636" y="-56.9" font-family="Arial" font-size="14.00" fill="#000000">updated_at </text>
<text text-anchor="start" x="419.8962" y="-56.9" font-family="Arial" font-size="14.00" fill="#666666">[timestamp without time zone]</text>
<polygon fill="none" stroke="#000000" stroke-width="3" points="337,-44.5 337,-202.5 613,-202.5 613,-44.5 337,-44.5"/>
</g>
<!-- public.story_taggings -->
<g id="node2" class="node">
<title>public.story_taggings</title>
<polygon fill="#efefef" stroke="transparent" points="336,-475.5 336,-510.5 616,-510.5 616,-475.5 336,-475.5"/>
<polygon fill="none" stroke="#000000" points="336,-475.5 336,-510.5 616,-510.5 616,-475.5 336,-475.5"/>
<text text-anchor="start" x="342.8514" y="-488.3" font-family="Arial Bold" font-size="18.00" fill="#000000">public.story_taggings</text>
<text text-anchor="start" x="511.8948" y="-488.3" font-family="Arial" font-size="14.00" fill="#000000"> </text>
<text text-anchor="start" x="515.7854" y="-488.3" font-family="Arial" font-size="14.00" fill="#666666">[BASE TABLE]</text>
<polygon fill="none" stroke="#000000" points="336,-445.5 336,-475.5 616,-475.5 616,-445.5 336,-445.5"/>
<text text-anchor="start" x="343" y="-456.9" font-family="Arial" font-size="14.00" fill="#000000">id </text>
<text text-anchor="start" x="357.7798" y="-456.9" font-family="Arial" font-size="14.00" fill="#666666">[uuid]</text>
<polygon fill="none" stroke="#000000" points="336,-415.5 336,-445.5 616,-445.5 616,-415.5 336,-415.5"/>
<text text-anchor="start" x="343" y="-426.9" font-family="Arial" font-size="14.00" fill="#000000">story_id </text>
<text text-anchor="start" x="395.8962" y="-426.9" font-family="Arial" font-size="14.00" fill="#666666">[uuid]</text>
<polygon fill="none" stroke="#000000" points="336,-385.5 336,-415.5 616,-415.5 616,-385.5 336,-385.5"/>
<text text-anchor="start" x="343" y="-396.9" font-family="Arial" font-size="14.00" fill="#000000">tag_id </text>
<text text-anchor="start" x="385.0182" y="-396.9" font-family="Arial" font-size="14.00" fill="#666666">[uuid]</text>
<polygon fill="none" stroke="#000000" points="336,-355.5 336,-385.5 616,-385.5 616,-355.5 336,-355.5"/>
<text text-anchor="start" x="343" y="-366.9" font-family="Arial" font-size="14.00" fill="#000000">created_at </text>
<text text-anchor="start" x="413.028" y="-366.9" font-family="Arial" font-size="14.00" fill="#666666">[timestamp without time zone]</text>
<polygon fill="none" stroke="#000000" points="336,-325.5 336,-355.5 616,-355.5 616,-325.5 336,-325.5"/>
<text text-anchor="start" x="343" y="-336.9" font-family="Arial" font-size="14.00" fill="#000000">updated_at </text>
<text text-anchor="start" x="416.9326" y="-336.9" font-family="Arial" font-size="14.00" fill="#666666">[timestamp without time zone]</text>
</g>
<!-- public.story_taggings&#45;&gt;public.tags -->
<g id="edge1" class="edge">
<title>public.story_taggings:tag_id&#45;&gt;public.tags:id</title>
<path fill="none" stroke="#000000" d="M326.0039,-399.3801C286.3587,-389.6879 303.9667,-319.4829 336,-283 417.6205,-190.0419 530.3795,-339.9581 612,-247 640.2979,-214.7714 654.8889,-150.5 612,-150.5"/>
<polygon fill="#000000" stroke="#000000" points="326.0622,-399.3865 335.4989,-404.972 331.0311,-399.9433 336,-400.5 336,-400.5 336,-400.5 331.0311,-399.9433 336.5011,-396.028 326.0622,-399.3865 326.0622,-399.3865"/>
<text text-anchor="start" x="6.6035" y="-410.5" font-family="Arial" font-size="10.00" fill="#000000">FOREIGN KEY (tag_id) REFERENCES tags(id) ON DELETE CASCADE</text>
</g>
</g>
</svg>
