<?xml version="1.0" encoding="UTF-8" standalone="no"?>
<!DOCTYPE svg PUBLIC "-//W3C//DTD SVG 1.1//EN"
 "http://www.w3.org/Graphics/SVG/1.1/DTD/svg11.dtd">
<!-- Generated by graphviz version 2.40.1 (20161225.0304)
 -->
<!-- Title: public.scenario_quizzes Pages: 1 -->
<svg width="1260pt" height="1169pt"
 viewBox="0.00 0.00 1260.00 1169.00" xmlns="http://www.w3.org/2000/svg" xmlns:xlink="http://www.w3.org/1999/xlink">
<g id="graph0" class="graph" transform="scale(1 1) rotate(0) translate(4 1165)">
<title>public.scenario_quizzes</title>
<polygon fill="#ffffff" stroke="transparent" points="-4,4 -4,-1165 1256,-1165 1256,4 -4,4"/>
<!-- public.scenario_quizzes -->
<g id="node1" class="node">
<title>public.scenario_quizzes</title>
<polygon fill="#efefef" stroke="transparent" points="384,-682.5 384,-717.5 686,-717.5 686,-682.5 384,-682.5"/>
<polygon fill="none" stroke="#000000" points="384,-682.5 384,-717.5 686,-717.5 686,-682.5 384,-682.5"/>
<text text-anchor="start" x="390.8534" y="-695.3" font-family="Arial Bold" font-size="18.00" fill="#000000">public.scenario_quizzes</text>
<text text-anchor="start" x="581.8928" y="-695.3" font-family="Arial" font-size="14.00" fill="#000000"> </text>
<text text-anchor="start" x="585.7834" y="-695.3" font-family="Arial" font-size="14.00" fill="#666666">[BASE TABLE]</text>
<polygon fill="none" stroke="#000000" points="384,-652.5 384,-682.5 686,-682.5 686,-652.5 384,-652.5"/>
<text text-anchor="start" x="391" y="-663.9" font-family="Arial" font-size="14.00" fill="#000000">id </text>
<text text-anchor="start" x="405.7798" y="-663.9" font-family="Arial" font-size="14.00" fill="#666666">[uuid]</text>
<polygon fill="none" stroke="#000000" points="384,-622.5 384,-652.5 686,-652.5 686,-622.5 384,-622.5"/>
<text text-anchor="start" x="391" y="-633.9" font-family="Arial" font-size="14.00" fill="#000000">scenario_id </text>
<text text-anchor="start" x="466.46" y="-633.9" font-family="Arial" font-size="14.00" fill="#666666">[uuid]</text>
<polygon fill="none" stroke="#000000" points="384,-592.5 384,-622.5 686,-622.5 686,-592.5 384,-592.5"/>
<text text-anchor="start" x="391" y="-603.9" font-family="Arial" font-size="14.00" fill="#000000">question </text>
<text text-anchor="start" x="447.8008" y="-603.9" font-family="Arial" font-size="14.00" fill="#666666">[text]</text>
<polygon fill="none" stroke="#000000" points="384,-562.5 384,-592.5 686,-592.5 686,-562.5 384,-562.5"/>
<text text-anchor="start" x="391" y="-573.9" font-family="Arial" font-size="14.00" fill="#000000">success_message </text>
<text text-anchor="start" x="510.0294" y="-573.9" font-family="Arial" font-size="14.00" fill="#666666">[text]</text>
<polygon fill="none" stroke="#000000" points="384,-532.5 384,-562.5 686,-562.5 686,-532.5 384,-532.5"/>
<text text-anchor="start" x="391" y="-543.9" font-family="Arial" font-size="14.00" fill="#000000">failure_message </text>
<text text-anchor="start" x="497.5764" y="-543.9" font-family="Arial" font-size="14.00" fill="#666666">[text]</text>
<polygon fill="none" stroke="#000000" points="384,-502.5 384,-532.5 686,-532.5 686,-502.5 384,-502.5"/>
<text text-anchor="start" x="391" y="-513.9" font-family="Arial" font-size="14.00" fill="#000000">created_at </text>
<text text-anchor="start" x="461.028" y="-513.9" font-family="Arial" font-size="14.00" fill="#666666">[timestamp without time zone]</text>
<polygon fill="none" stroke="#000000" points="384,-472.5 384,-502.5 686,-502.5 686,-472.5 384,-472.5"/>
<text text-anchor="start" x="391" y="-483.9" font-family="Arial" font-size="14.00" fill="#000000">updated_at </text>
<text text-anchor="start" x="464.9326" y="-483.9" font-family="Arial" font-size="14.00" fill="#666666">[timestamp without time zone]</text>
<polygon fill="none" stroke="#000000" stroke-width="3" points="382.5,-471.5 382.5,-719.5 687.5,-719.5 687.5,-471.5 382.5,-471.5"/>
</g>
<!-- public.scenarios -->
<g id="node4" class="node">
<title>public.scenarios</title>
<polygon fill="#efefef" stroke="transparent" points="398,-312.5 398,-347.5 671,-347.5 671,-312.5 398,-312.5"/>
<polygon fill="none" stroke="#000000" points="398,-312.5 398,-347.5 671,-347.5 671,-312.5 398,-312.5"/>
<text text-anchor="start" x="421.3629" y="-325.3" font-family="Arial Bold" font-size="18.00" fill="#000000">public.scenarios</text>
<text text-anchor="start" x="550.3833" y="-325.3" font-family="Arial" font-size="14.00" fill="#000000"> </text>
<text text-anchor="start" x="554.2739" y="-325.3" font-family="Arial" font-size="14.00" fill="#666666">[BASE TABLE]</text>
<polygon fill="none" stroke="#000000" points="398,-282.5 398,-312.5 671,-312.5 671,-282.5 398,-282.5"/>
<text text-anchor="start" x="405" y="-293.9" font-family="Arial" font-size="14.00" fill="#000000">id </text>
<text text-anchor="start" x="419.7798" y="-293.9" font-family="Arial" font-size="14.00" fill="#666666">[uuid]</text>
<polygon fill="none" stroke="#000000" points="398,-252.5 398,-282.5 671,-282.5 671,-252.5 398,-252.5"/>
<text text-anchor="start" x="405" y="-263.9" font-family="Arial" font-size="14.00" fill="#000000">organization_id </text>
<text text-anchor="start" x="503.805" y="-263.9" font-family="Arial" font-size="14.00" fill="#666666">[uuid]</text>
<polygon fill="none" stroke="#000000" points="398,-222.5 398,-252.5 671,-252.5 671,-222.5 398,-222.5"/>
<text text-anchor="start" x="405" y="-233.9" font-family="Arial" font-size="14.00" fill="#000000">role_id </text>
<text text-anchor="start" x="450.8948" y="-233.9" font-family="Arial" font-size="14.00" fill="#666666">[uuid]</text>
<polygon fill="none" stroke="#000000" points="398,-192.5 398,-222.5 671,-222.5 671,-192.5 398,-192.5"/>
<text text-anchor="start" x="405" y="-203.9" font-family="Arial" font-size="14.00" fill="#000000">scenario_title </text>
<text text-anchor="start" x="491.3478" y="-203.9" font-family="Arial" font-size="14.00" fill="#666666">[varchar(255)]</text>
<polygon fill="none" stroke="#000000" points="398,-162.5 398,-192.5 671,-192.5 671,-162.5 398,-162.5"/>
<text text-anchor="start" x="405" y="-173.9" font-family="Arial" font-size="14.00" fill="#000000">scenario_overview </text>
<text text-anchor="start" x="524.7924" y="-173.9" font-family="Arial" font-size="14.00" fill="#666666">[text]</text>
<polygon fill="none" stroke="#000000" points="398,-132.5 398,-162.5 671,-162.5 671,-132.5 398,-132.5"/>
<text text-anchor="start" x="405" y="-143.9" font-family="Arial" font-size="14.00" fill="#000000">scenario_description </text>
<text text-anchor="start" x="537.2482" y="-143.9" font-family="Arial" font-size="14.00" fill="#666666">[text]</text>
<polygon fill="none" stroke="#000000" points="398,-102.5 398,-132.5 671,-132.5 671,-102.5 398,-102.5"/>
<text text-anchor="start" x="405" y="-113.9" font-family="Arial" font-size="14.00" fill="#000000">total_score </text>
<text text-anchor="start" x="477.352" y="-113.9" font-family="Arial" font-size="14.00" fill="#666666">[integer]</text>
<polygon fill="none" stroke="#000000" points="398,-72.5 398,-102.5 671,-102.5 671,-72.5 398,-72.5"/>
<text text-anchor="start" x="405" y="-83.9" font-family="Arial" font-size="14.00" fill="#000000">created_at </text>
<text text-anchor="start" x="475.028" y="-83.9" font-family="Arial" font-size="14.00" fill="#666666">[timestamp without time zone]</text>
<polygon fill="none" stroke="#000000" points="398,-42.5 398,-72.5 671,-72.5 671,-42.5 398,-42.5"/>
<text text-anchor="start" x="404.9636" y="-53.9" font-family="Arial" font-size="14.00" fill="#000000">updated_at </text>
<text text-anchor="start" x="478.8962" y="-53.9" font-family="Arial" font-size="14.00" fill="#666666">[timestamp without time zone]</text>
</g>
<!-- public.scenario_quizzes&#45;&gt;public.scenarios -->
<g id="edge4" class="edge">
<title>public.scenario_quizzes:scenario_id&#45;&gt;public.scenarios:id</title>
<path fill="none" stroke="#000000" d="M373.604,-636.8701C292.9637,-626.6423 324.5177,-494.4096 384,-427 469.0574,-330.6068 585.9426,-487.3932 671,-391 698.4949,-359.8408 712.5556,-297.5 671,-297.5"/>
<polygon fill="#000000" stroke="#000000" points="374.0183,-636.8951 383.7278,-641.9918 379.0092,-637.1975 384,-637.5 384,-637.5 384,-637.5 379.0092,-637.1975 384.2722,-633.0082 374.0183,-636.8951 374.0183,-636.8951"/>
<text text-anchor="start" x="6.7165" y="-647.5" font-family="Arial" font-size="10.00" fill="#000000">FOREIGN KEY (scenario_id) REFERENCES scenarios(id) ON DELETE CASCADE</text>
</g>
<!-- public.scenario_quiz_options -->
<g id="node2" class="node">
<title>public.scenario_quiz_options</title>
<polygon fill="#efefef" stroke="transparent" points="364,-1082.5 364,-1117.5 706,-1117.5 706,-1082.5 364,-1082.5"/>
<polygon fill="none" stroke="#000000" points="364,-1082.5 364,-1117.5 706,-1117.5 706,-1082.5 364,-1082.5"/>
<text text-anchor="start" x="370.8428" y="-1095.3" font-family="Arial Bold" font-size="18.00" fill="#000000">public.scenario_quiz_options</text>
<text text-anchor="start" x="601.9034" y="-1095.3" font-family="Arial" font-size="14.00" fill="#000000"> </text>
<text text-anchor="start" x="605.794" y="-1095.3" font-family="Arial" font-size="14.00" fill="#666666">[BASE TABLE]</text>
<polygon fill="none" stroke="#000000" points="364,-1052.5 364,-1082.5 706,-1082.5 706,-1052.5 364,-1052.5"/>
<text text-anchor="start" x="371" y="-1063.9" font-family="Arial" font-size="14.00" fill="#000000">id </text>
<text text-anchor="start" x="385.7798" y="-1063.9" font-family="Arial" font-size="14.00" fill="#666666">[uuid]</text>
<polygon fill="none" stroke="#000000" points="364,-1022.5 364,-1052.5 706,-1052.5 706,-1022.5 364,-1022.5"/>
<text text-anchor="start" x="371" y="-1033.9" font-family="Arial" font-size="14.00" fill="#000000">scenario_quiz_id </text>
<text text-anchor="start" x="479.9144" y="-1033.9" font-family="Arial" font-size="14.00" fill="#666666">[uuid]</text>
<polygon fill="none" stroke="#000000" points="364,-992.5 364,-1022.5 706,-1022.5 706,-992.5 364,-992.5"/>
<text text-anchor="start" x="371" y="-1003.9" font-family="Arial" font-size="14.00" fill="#000000">answer </text>
<text text-anchor="start" x="420.0056" y="-1003.9" font-family="Arial" font-size="14.00" fill="#666666">[varchar(255)]</text>
<polygon fill="none" stroke="#000000" points="364,-962.5 364,-992.5 706,-992.5 706,-962.5 364,-962.5"/>
<text text-anchor="start" x="371" y="-973.9" font-family="Arial" font-size="14.00" fill="#000000">score </text>
<text text-anchor="start" x="409.1164" y="-973.9" font-family="Arial" font-size="14.00" fill="#666666">[integer]</text>
<polygon fill="none" stroke="#000000" points="364,-932.5 364,-962.5 706,-962.5 706,-932.5 364,-932.5"/>
<text text-anchor="start" x="371" y="-943.9" font-family="Arial" font-size="14.00" fill="#000000">next_scenario_quiz_id </text>
<text text-anchor="start" x="514.1528" y="-943.9" font-family="Arial" font-size="14.00" fill="#666666">[uuid]</text>
<polygon fill="none" stroke="#000000" points="364,-902.5 364,-932.5 706,-932.5 706,-902.5 364,-902.5"/>
<text text-anchor="start" x="371" y="-913.9" font-family="Arial" font-size="14.00" fill="#000000">next_status </text>
<text text-anchor="start" x="446.4754" y="-913.9" font-family="Arial" font-size="14.00" fill="#666666">[integer]</text>
<polygon fill="none" stroke="#000000" points="364,-872.5 364,-902.5 706,-902.5 706,-872.5 364,-872.5"/>
<text text-anchor="start" x="371" y="-883.9" font-family="Arial" font-size="14.00" fill="#000000">created_at </text>
<text text-anchor="start" x="441.028" y="-883.9" font-family="Arial" font-size="14.00" fill="#666666">[timestamp without time zone]</text>
<polygon fill="none" stroke="#000000" points="364,-842.5 364,-872.5 706,-872.5 706,-842.5 364,-842.5"/>
<text text-anchor="start" x="371" y="-853.9" font-family="Arial" font-size="14.00" fill="#000000">updated_at </text>
<text text-anchor="start" x="444.9326" y="-853.9" font-family="Arial" font-size="14.00" fill="#666666">[timestamp without time zone]</text>
</g>
<!-- public.scenario_quiz_options&#45;&gt;public.scenario_quizzes -->
<g id="edge1" class="edge">
<title>public.scenario_quiz_options:next_scenario_quiz_id&#45;&gt;public.scenario_quizzes:id</title>
<path fill="none" stroke="#000000" d="M715.8143,-944.9069C765.9792,-916.6795 744.8475,-667.5 686,-667.5"/>
<polygon fill="#000000" stroke="#000000" points="715.6682,-944.9454 704.8504,-943.1493 710.8341,-946.2227 706,-947.5 706,-947.5 706,-947.5 710.8341,-946.2227 707.1496,-951.8507 715.6682,-944.9454 715.6682,-944.9454"/>
<text text-anchor="start" x="246.313" y="-957.5" font-family="Arial" font-size="10.00" fill="#000000">FOREIGN KEY (next_scenario_quiz_id) REFERENCES scenario_quizzes(id) ON DELETE CASCADE</text>
</g>
<!-- public.scenario_quiz_options&#45;&gt;public.scenario_quizzes -->
<g id="edge2" class="edge">
<title>public.scenario_quiz_options:scenario_quiz_id&#45;&gt;public.scenario_quizzes:id</title>
<path fill="none" stroke="#000000" d="M714.1725,-1031.6882C744.0858,-984.6162 724.1155,-667.5 686,-667.5"/>
<polygon fill="#000000" stroke="#000000" points="714.1494,-1031.7045 703.392,-1033.8327 710.0747,-1034.6023 706,-1037.5 706,-1037.5 706,-1037.5 710.0747,-1034.6023 708.608,-1041.1673 714.1494,-1031.7045 714.1494,-1031.7045"/>
<text text-anchor="start" x="270.541" y="-1047.5" font-family="Arial" font-size="10.00" fill="#000000">FOREIGN KEY (scenario_quiz_id) REFERENCES scenario_quizzes(id) ON DELETE CASCADE</text>
</g>
<!-- public.user_scenario_quiz_histories -->
<g id="node3" class="node">
<title>public.user_scenario_quiz_histories</title>
<polygon fill="#efefef" stroke="transparent" points="810,-1082.5 810,-1117.5 1206,-1117.5 1206,-1082.5 810,-1082.5"/>
<polygon fill="none" stroke="#000000" points="810,-1082.5 810,-1117.5 1206,-1117.5 1206,-1082.5 810,-1082.5"/>
<text text-anchor="start" x="816.8473" y="-1095.3" font-family="Arial Bold" font-size="18.00" fill="#000000">public.user_scenario_quiz_histories</text>
<text text-anchor="start" x="1101.8989" y="-1095.3" font-family="Arial" font-size="14.00" fill="#000000"> </text>
<text text-anchor="start" x="1105.7895" y="-1095.3" font-family="Arial" font-size="14.00" fill="#666666">[BASE TABLE]</text>
<polygon fill="none" stroke="#000000" points="810,-1052.5 810,-1082.5 1206,-1082.5 1206,-1052.5 810,-1052.5"/>
<text text-anchor="start" x="817" y="-1063.9" font-family="Arial" font-size="14.00" fill="#000000">id </text>
<text text-anchor="start" x="831.7798" y="-1063.9" font-family="Arial" font-size="14.00" fill="#666666">[uuid]</text>
<polygon fill="none" stroke="#000000" points="810,-1022.5 810,-1052.5 1206,-1052.5 1206,-1022.5 810,-1022.5"/>
<text text-anchor="start" x="817" y="-1033.9" font-family="Arial" font-size="14.00" fill="#000000">user_scenario_history_id </text>
<text text-anchor="start" x="976.474" y="-1033.9" font-family="Arial" font-size="14.00" fill="#666666">[uuid]</text>
<polygon fill="none" stroke="#000000" points="810,-992.5 810,-1022.5 1206,-1022.5 1206,-992.5 810,-992.5"/>
<text text-anchor="start" x="817" y="-1003.9" font-family="Arial" font-size="14.00" fill="#000000">user_id </text>
<text text-anchor="start" x="866.7882" y="-1003.9" font-family="Arial" font-size="14.00" fill="#666666">[uuid]</text>
<polygon fill="none" stroke="#000000" points="810,-962.5 810,-992.5 1206,-992.5 1206,-962.5 810,-962.5"/>
<text text-anchor="start" x="817" y="-973.9" font-family="Arial" font-size="14.00" fill="#000000">scenario_id </text>
<text text-anchor="start" x="892.46" y="-973.9" font-family="Arial" font-size="14.00" fill="#666666">[uuid]</text>
<polygon fill="none" stroke="#000000" points="810,-932.5 810,-962.5 1206,-962.5 1206,-932.5 810,-932.5"/>
<text text-anchor="start" x="817" y="-943.9" font-family="Arial" font-size="14.00" fill="#000000">scenario_quiz_id </text>
<text text-anchor="start" x="925.9144" y="-943.9" font-family="Arial" font-size="14.00" fill="#666666">[uuid]</text>
<polygon fill="none" stroke="#000000" points="810,-902.5 810,-932.5 1206,-932.5 1206,-902.5 810,-902.5"/>
<text text-anchor="start" x="817" y="-913.9" font-family="Arial" font-size="14.00" fill="#000000">scenario_quiz_option_id </text>
<text text-anchor="start" x="971.8246" y="-913.9" font-family="Arial" font-size="14.00" fill="#666666">[uuid]</text>
<polygon fill="none" stroke="#000000" points="810,-872.5 810,-902.5 1206,-902.5 1206,-872.5 810,-872.5"/>
<text text-anchor="start" x="817" y="-883.9" font-family="Arial" font-size="14.00" fill="#000000">created_at </text>
<text text-anchor="start" x="887.028" y="-883.9" font-family="Arial" font-size="14.00" fill="#666666">[timestamp without time zone]</text>
<polygon fill="none" stroke="#000000" points="810,-842.5 810,-872.5 1206,-872.5 1206,-842.5 810,-842.5"/>
<text text-anchor="start" x="817" y="-853.9" font-family="Arial" font-size="14.00" fill="#000000">updated_at </text>
<text text-anchor="start" x="890.9326" y="-853.9" font-family="Arial" font-size="14.00" fill="#666666">[timestamp without time zone]</text>
</g>
<!-- public.user_scenario_quiz_histories&#45;&gt;public.scenario_quizzes -->
<g id="edge3" class="edge">
<title>public.user_scenario_quiz_histories:scenario_quiz_id&#45;&gt;public.scenario_quizzes:id</title>
<path fill="none" stroke="#000000" d="M799.9371,-946.8147C745.1092,-938.6992 784.7495,-860.1662 758,-800 730.7723,-738.7582 753.0216,-667.5 686,-667.5"/>
<polygon fill="#000000" stroke="#000000" points="800.0231,-946.8204 809.6942,-951.9896 805.0116,-947.1602 810,-947.5 810,-947.5 810,-947.5 805.0116,-947.1602 810.3058,-943.0104 800.0231,-946.8204 800.0231,-946.8204"/>
<text text-anchor="start" x="816.541" y="-957.5" font-family="Arial" font-size="10.00" fill="#000000">FOREIGN KEY (scenario_quiz_id) REFERENCES scenario_quizzes(id) ON DELETE CASCADE</text>
</g>
</g>
</svg>
