<?xml version="1.0" encoding="UTF-8" standalone="no"?>
<!DOCTYPE svg PUBLIC "-//W3C//DTD SVG 1.1//EN"
 "http://www.w3.org/Graphics/SVG/1.1/DTD/svg11.dtd">
<!-- Generated by graphviz version 2.40.1 (20161225.0304)
 -->
<!-- Title: public.stories Pages: 1 -->
<svg width="971pt" height="1079pt"
 viewBox="0.00 0.00 971.00 1079.00" xmlns="http://www.w3.org/2000/svg" xmlns:xlink="http://www.w3.org/1999/xlink">
<g id="graph0" class="graph" transform="scale(1 1) rotate(0) translate(4 1075)">
<title>public.stories</title>
<polygon fill="#ffffff" stroke="transparent" points="-4,4 -4,-1075 967,-1075 967,4 -4,4"/>
<!-- public.stories -->
<g id="node1" class="node">
<title>public.stories</title>
<polygon fill="#efefef" stroke="transparent" points="417,-562.5 417,-597.5 690,-597.5 690,-562.5 417,-562.5"/>
<polygon fill="none" stroke="#000000" points="417,-562.5 417,-597.5 690,-597.5 690,-562.5 417,-562.5"/>
<text text-anchor="start" x="452.368" y="-575.3" font-family="Arial Bold" font-size="18.00" fill="#000000">public.stories</text>
<text text-anchor="start" x="557.3782" y="-575.3" font-family="Arial" font-size="14.00" fill="#000000"> </text>
<text text-anchor="start" x="561.2688" y="-575.3" font-family="Arial" font-size="14.00" fill="#666666">[BASE TABLE]</text>
<polygon fill="none" stroke="#000000" points="417,-532.5 417,-562.5 690,-562.5 690,-532.5 417,-532.5"/>
<text text-anchor="start" x="424" y="-543.9" font-family="Arial" font-size="14.00" fill="#000000">id </text>
<text text-anchor="start" x="438.7798" y="-543.9" font-family="Arial" font-size="14.00" fill="#666666">[uuid]</text>
<polygon fill="none" stroke="#000000" points="417,-502.5 417,-532.5 690,-532.5 690,-502.5 417,-502.5"/>
<text text-anchor="start" x="424" y="-513.9" font-family="Arial" font-size="14.00" fill="#000000">organization_id </text>
<text text-anchor="start" x="522.805" y="-513.9" font-family="Arial" font-size="14.00" fill="#666666">[uuid]</text>
<polygon fill="none" stroke="#000000" points="417,-472.5 417,-502.5 690,-502.5 690,-472.5 417,-472.5"/>
<text text-anchor="start" x="424" y="-483.9" font-family="Arial" font-size="14.00" fill="#000000">title </text>
<text text-anchor="start" x="449.6676" y="-483.9" font-family="Arial" font-size="14.00" fill="#666666">[varchar(255)]</text>
<polygon fill="none" stroke="#000000" points="417,-442.5 417,-472.5 690,-472.5 690,-442.5 417,-442.5"/>
<text text-anchor="start" x="424" y="-453.9" font-family="Arial" font-size="14.00" fill="#000000">created_at </text>
<text text-anchor="start" x="494.028" y="-453.9" font-family="Arial" font-size="14.00" fill="#666666">[timestamp without time zone]</text>
<polygon fill="none" stroke="#000000" points="417,-412.5 417,-442.5 690,-442.5 690,-412.5 417,-412.5"/>
<text text-anchor="start" x="423.9636" y="-423.9" font-family="Arial" font-size="14.00" fill="#000000">updated_at </text>
<text text-anchor="start" x="497.8962" y="-423.9" font-family="Arial" font-size="14.00" fill="#666666">[timestamp without time zone]</text>
<polygon fill="none" stroke="#000000" stroke-width="3" points="415,-411.5 415,-599.5 691,-599.5 691,-411.5 415,-411.5"/>
</g>
<!-- public.organizations -->
<g id="node4" class="node">
<title>public.organizations</title>
<polygon fill="#efefef" stroke="transparent" points="417,-252.5 417,-287.5 690,-287.5 690,-252.5 417,-252.5"/>
<polygon fill="none" stroke="#000000" points="417,-252.5 417,-287.5 690,-287.5 690,-252.5 417,-252.5"/>
<text text-anchor="start" x="425.3554" y="-265.3" font-family="Arial Bold" font-size="18.00" fill="#000000">public.organizations</text>
<text text-anchor="start" x="584.3908" y="-265.3" font-family="Arial" font-size="14.00" fill="#000000"> </text>
<text text-anchor="start" x="588.2814" y="-265.3" font-family="Arial" font-size="14.00" fill="#666666">[BASE TABLE]</text>
<polygon fill="none" stroke="#000000" points="417,-222.5 417,-252.5 690,-252.5 690,-222.5 417,-222.5"/>
<text text-anchor="start" x="424" y="-233.9" font-family="Arial" font-size="14.00" fill="#000000">id </text>
<text text-anchor="start" x="438.7798" y="-233.9" font-family="Arial" font-size="14.00" fill="#666666">[uuid]</text>
<polygon fill="none" stroke="#000000" points="417,-192.5 417,-222.5 690,-222.5 690,-192.5 417,-192.5"/>
<text text-anchor="start" x="424" y="-203.9" font-family="Arial" font-size="14.00" fill="#000000">company_id </text>
<text text-anchor="start" x="503.3534" y="-203.9" font-family="Arial" font-size="14.00" fill="#666666">[uuid]</text>
<polygon fill="none" stroke="#000000" points="417,-162.5 417,-192.5 690,-192.5 690,-162.5 417,-162.5"/>
<text text-anchor="start" x="424" y="-173.9" font-family="Arial" font-size="14.00" fill="#000000">display_id </text>
<text text-anchor="start" x="490.1234" y="-173.9" font-family="Arial" font-size="14.00" fill="#666666">[integer]</text>
<polygon fill="none" stroke="#000000" points="417,-132.5 417,-162.5 690,-162.5 690,-132.5 417,-132.5"/>
<text text-anchor="start" x="424" y="-143.9" font-family="Arial" font-size="14.00" fill="#000000">name </text>
<text text-anchor="start" x="462.899" y="-143.9" font-family="Arial" font-size="14.00" fill="#666666">[varchar(128)]</text>
<polygon fill="none" stroke="#000000" points="417,-102.5 417,-132.5 690,-132.5 690,-102.5 417,-102.5"/>
<text text-anchor="start" x="424" y="-113.9" font-family="Arial" font-size="14.00" fill="#000000">report_send_emails </text>
<text text-anchor="start" x="550.8022" y="-113.9" font-family="Arial" font-size="14.00" fill="#666666">[varchar(255)]</text>
<polygon fill="none" stroke="#000000" points="417,-72.5 417,-102.5 690,-102.5 690,-72.5 417,-72.5"/>
<text text-anchor="start" x="424" y="-83.9" font-family="Arial" font-size="14.00" fill="#000000">created_at </text>
<text text-anchor="start" x="494.028" y="-83.9" font-family="Arial" font-size="14.00" fill="#666666">[timestamp without time zone]</text>
<polygon fill="none" stroke="#000000" points="417,-42.5 417,-72.5 690,-72.5 690,-42.5 417,-42.5"/>
<text text-anchor="start" x="423.9636" y="-53.9" font-family="Arial" font-size="14.00" fill="#000000">updated_at </text>
<text text-anchor="start" x="497.8962" y="-53.9" font-family="Arial" font-size="14.00" fill="#666666">[timestamp without time zone]</text>
</g>
<!-- public.stories&#45;&gt;public.organizations -->
<g id="edge3" class="edge">
<title>public.stories:organization_id&#45;&gt;public.organizations:id</title>
<path fill="none" stroke="#000000" d="M406.7265,-516.839C292.6554,-501.8652 296.0799,-237.5 417,-237.5"/>
<polygon fill="#000000" stroke="#000000" points="407.0206,-516.8578 416.711,-521.9907 412.0103,-517.1789 417,-517.5 417,-517.5 417,-517.5 412.0103,-517.1789 417.289,-513.0093 407.0206,-516.8578 407.0206,-516.8578"/>
<text text-anchor="start" x="7.0415" y="-527.5" font-family="Arial" font-size="10.00" fill="#000000">FOREIGN KEY (organization_id) REFERENCES organizations(id) ON DELETE CASCADE</text>
</g>
<!-- public.story_taggings -->
<g id="node2" class="node">
<title>public.story_taggings</title>
<polygon fill="#efefef" stroke="transparent" points="223,-932.5 223,-967.5 503,-967.5 503,-932.5 223,-932.5"/>
<polygon fill="none" stroke="#000000" points="223,-932.5 223,-967.5 503,-967.5 503,-932.5 223,-932.5"/>
<text text-anchor="start" x="229.8514" y="-945.3" font-family="Arial Bold" font-size="18.00" fill="#000000">public.story_taggings</text>
<text text-anchor="start" x="398.8948" y="-945.3" font-family="Arial" font-size="14.00" fill="#000000"> </text>
<text text-anchor="start" x="402.7854" y="-945.3" font-family="Arial" font-size="14.00" fill="#666666">[BASE TABLE]</text>
<polygon fill="none" stroke="#000000" points="223,-902.5 223,-932.5 503,-932.5 503,-902.5 223,-902.5"/>
<text text-anchor="start" x="230" y="-913.9" font-family="Arial" font-size="14.00" fill="#000000">id </text>
<text text-anchor="start" x="244.7798" y="-913.9" font-family="Arial" font-size="14.00" fill="#666666">[uuid]</text>
<polygon fill="none" stroke="#000000" points="223,-872.5 223,-902.5 503,-902.5 503,-872.5 223,-872.5"/>
<text text-anchor="start" x="230" y="-883.9" font-family="Arial" font-size="14.00" fill="#000000">story_id </text>
<text text-anchor="start" x="282.8962" y="-883.9" font-family="Arial" font-size="14.00" fill="#666666">[uuid]</text>
<polygon fill="none" stroke="#000000" points="223,-842.5 223,-872.5 503,-872.5 503,-842.5 223,-842.5"/>
<text text-anchor="start" x="230" y="-853.9" font-family="Arial" font-size="14.00" fill="#000000">tag_id </text>
<text text-anchor="start" x="272.0182" y="-853.9" font-family="Arial" font-size="14.00" fill="#666666">[uuid]</text>
<polygon fill="none" stroke="#000000" points="223,-812.5 223,-842.5 503,-842.5 503,-812.5 223,-812.5"/>
<text text-anchor="start" x="230" y="-823.9" font-family="Arial" font-size="14.00" fill="#000000">created_at </text>
<text text-anchor="start" x="300.028" y="-823.9" font-family="Arial" font-size="14.00" fill="#666666">[timestamp without time zone]</text>
<polygon fill="none" stroke="#000000" points="223,-782.5 223,-812.5 503,-812.5 503,-782.5 223,-782.5"/>
<text text-anchor="start" x="230" y="-793.9" font-family="Arial" font-size="14.00" fill="#000000">updated_at </text>
<text text-anchor="start" x="303.9326" y="-793.9" font-family="Arial" font-size="14.00" fill="#666666">[timestamp without time zone]</text>
</g>
<!-- public.story_taggings&#45;&gt;public.stories -->
<g id="edge1" class="edge">
<title>public.story_taggings:story_id&#45;&gt;public.stories:id</title>
<path fill="none" stroke="#000000" d="M513.1258,-886.6899C563.842,-877.8077 525.0893,-797.7629 503,-740 482.5391,-686.4955 437.4609,-697.5045 417,-644 401.6807,-603.9404 374.1111,-547.5 417,-547.5"/>
<polygon fill="#000000" stroke="#000000" points="512.9682,-886.7025 502.6411,-883.0143 507.9841,-887.1012 503,-887.5 503,-887.5 503,-887.5 507.9841,-887.1012 503.3589,-891.9857 512.9682,-886.7025 512.9682,-886.7025"/>
<text text-anchor="start" x="155.4445" y="-897.5" font-family="Arial" font-size="10.00" fill="#000000">FOREIGN KEY (story_id) REFERENCES stories(id) ON DELETE CASCADE</text>
</g>
<!-- public.scenarios -->
<g id="node3" class="node">
<title>public.scenarios</title>
<polygon fill="#efefef" stroke="transparent" points="608,-992.5 608,-1027.5 881,-1027.5 881,-992.5 608,-992.5"/>
<polygon fill="none" stroke="#000000" points="608,-992.5 608,-1027.5 881,-1027.5 881,-992.5 608,-992.5"/>
<text text-anchor="start" x="631.3629" y="-1005.3" font-family="Arial Bold" font-size="18.00" fill="#000000">public.scenarios</text>
<text text-anchor="start" x="760.3833" y="-1005.3" font-family="Arial" font-size="14.00" fill="#000000"> </text>
<text text-anchor="start" x="764.2739" y="-1005.3" font-family="Arial" font-size="14.00" fill="#666666">[BASE TABLE]</text>
<polygon fill="none" stroke="#000000" points="608,-962.5 608,-992.5 881,-992.5 881,-962.5 608,-962.5"/>
<text text-anchor="start" x="615" y="-973.9" font-family="Arial" font-size="14.00" fill="#000000">id </text>
<text text-anchor="start" x="629.7798" y="-973.9" font-family="Arial" font-size="14.00" fill="#666666">[uuid]</text>
<polygon fill="none" stroke="#000000" points="608,-932.5 608,-962.5 881,-962.5 881,-932.5 608,-932.5"/>
<text text-anchor="start" x="615" y="-943.9" font-family="Arial" font-size="14.00" fill="#000000">story_id </text>
<text text-anchor="start" x="667.8962" y="-943.9" font-family="Arial" font-size="14.00" fill="#666666">[uuid]</text>
<polygon fill="none" stroke="#000000" points="608,-902.5 608,-932.5 881,-932.5 881,-902.5 608,-902.5"/>
<text text-anchor="start" x="615" y="-913.9" font-family="Arial" font-size="14.00" fill="#000000">role_id </text>
<text text-anchor="start" x="660.8948" y="-913.9" font-family="Arial" font-size="14.00" fill="#666666">[uuid]</text>
<polygon fill="none" stroke="#000000" points="608,-872.5 608,-902.5 881,-902.5 881,-872.5 608,-872.5"/>
<text text-anchor="start" x="615" y="-883.9" font-family="Arial" font-size="14.00" fill="#000000">overview </text>
<text text-anchor="start" x="674.1122" y="-883.9" font-family="Arial" font-size="14.00" fill="#666666">[text]</text>
<polygon fill="none" stroke="#000000" points="608,-842.5 608,-872.5 881,-872.5 881,-842.5 608,-842.5"/>
<text text-anchor="start" x="615" y="-853.9" font-family="Arial" font-size="14.00" fill="#000000">description </text>
<text text-anchor="start" x="686.568" y="-853.9" font-family="Arial" font-size="14.00" fill="#666666">[text]</text>
<polygon fill="none" stroke="#000000" points="608,-812.5 608,-842.5 881,-842.5 881,-812.5 608,-812.5"/>
<text text-anchor="start" x="615" y="-823.9" font-family="Arial" font-size="14.00" fill="#000000">highest_score </text>
<text text-anchor="start" x="706.0266" y="-823.9" font-family="Arial" font-size="14.00" fill="#666666">[integer]</text>
<polygon fill="none" stroke="#000000" points="608,-782.5 608,-812.5 881,-812.5 881,-782.5 608,-782.5"/>
<text text-anchor="start" x="615" y="-793.9" font-family="Arial" font-size="14.00" fill="#000000">result_message </text>
<text text-anchor="start" x="717.6872" y="-793.9" font-family="Arial" font-size="14.00" fill="#666666">[text]</text>
<polygon fill="none" stroke="#000000" points="608,-752.5 608,-782.5 881,-782.5 881,-752.5 608,-752.5"/>
<text text-anchor="start" x="615" y="-763.9" font-family="Arial" font-size="14.00" fill="#000000">created_at </text>
<text text-anchor="start" x="685.028" y="-763.9" font-family="Arial" font-size="14.00" fill="#666666">[timestamp without time zone]</text>
<polygon fill="none" stroke="#000000" points="608,-722.5 608,-752.5 881,-752.5 881,-722.5 608,-722.5"/>
<text text-anchor="start" x="614.9636" y="-733.9" font-family="Arial" font-size="14.00" fill="#000000">updated_at </text>
<text text-anchor="start" x="688.8962" y="-733.9" font-family="Arial" font-size="14.00" fill="#666666">[timestamp without time zone]</text>
</g>
<!-- public.scenarios&#45;&gt;public.stories -->
<g id="edge2" class="edge">
<title>public.scenarios:story_id&#45;&gt;public.stories:id</title>
<path fill="none" stroke="#000000" d="M598.1346,-945.1911C551.8382,-921.75 577.4631,-726.7567 608,-680 629.7643,-646.6756 668.2357,-677.3244 690,-644 713.4522,-608.0911 732.8889,-547.5 690,-547.5"/>
<polygon fill="#000000" stroke="#000000" points="598.2631,-945.2211 606.9745,-951.8816 603.1316,-946.3605 608,-947.5 608,-947.5 608,-947.5 603.1316,-946.3605 609.0255,-943.1184 598.2631,-945.2211 598.2631,-945.2211"/>
<text text-anchor="start" x="615.4445" y="-957.5" font-family="Arial" font-size="10.00" fill="#000000">FOREIGN KEY (story_id) REFERENCES stories(id) ON DELETE CASCADE</text>
</g>
</g>
</svg>
