<?xml version="1.0" encoding="UTF-8" standalone="no"?>
<!DOCTYPE svg PUBLIC "-//W3C//DTD SVG 1.1//EN"
 "http://www.w3.org/Graphics/SVG/1.1/DTD/svg11.dtd">
<!-- Generated by graphviz version 2.40.1 (20161225.0304)
 -->
<!-- Title: public.scenario_tags Pages: 1 -->
<svg width="665pt" height="532pt"
 viewBox="0.00 0.00 664.50 532.00" xmlns="http://www.w3.org/2000/svg" xmlns:xlink="http://www.w3.org/1999/xlink">
<g id="graph0" class="graph" transform="scale(1 1) rotate(0) translate(4 528)">
<title>public.scenario_tags</title>
<polygon fill="#ffffff" stroke="transparent" points="-4,4 -4,-528 660.5,-528 660.5,4 -4,4"/>
<!-- public.scenario_tags -->
<g id="node1" class="node">
<title>public.scenario_tags</title>
<polygon fill="#efefef" stroke="transparent" points="336,-442.5 336,-477.5 611,-477.5 611,-442.5 336,-442.5"/>
<polygon fill="none" stroke="#000000" points="336,-442.5 336,-477.5 611,-477.5 611,-442.5 336,-442.5"/>
<text text-anchor="start" x="342.8525" y="-455.3" font-family="Arial Bold" font-size="18.00" fill="#000000">public.scenario_tags</text>
<text text-anchor="start" x="506.8937" y="-455.3" font-family="Arial" font-size="14.00" fill="#000000"> </text>
<text text-anchor="start" x="510.7843" y="-455.3" font-family="Arial" font-size="14.00" fill="#666666">[BASE TABLE]</text>
<polygon fill="none" stroke="#000000" points="336,-412.5 336,-442.5 611,-442.5 611,-412.5 336,-412.5"/>
<text text-anchor="start" x="343" y="-423.9" font-family="Arial" font-size="14.00" fill="#000000">id </text>
<text text-anchor="start" x="357.7798" y="-423.9" font-family="Arial" font-size="14.00" fill="#666666">[uuid]</text>
<polygon fill="none" stroke="#000000" points="336,-382.5 336,-412.5 611,-412.5 611,-382.5 336,-382.5"/>
<text text-anchor="start" x="343" y="-393.9" font-family="Arial" font-size="14.00" fill="#000000">tag_id </text>
<text text-anchor="start" x="385.0182" y="-393.9" font-family="Arial" font-size="14.00" fill="#666666">[uuid]</text>
<polygon fill="none" stroke="#000000" points="336,-352.5 336,-382.5 611,-382.5 611,-352.5 336,-352.5"/>
<text text-anchor="start" x="343" y="-363.9" font-family="Arial" font-size="14.00" fill="#000000">created_at </text>
<text text-anchor="start" x="413.028" y="-363.9" font-family="Arial" font-size="14.00" fill="#666666">[timestamp without time zone]</text>
<polygon fill="none" stroke="#000000" points="336,-322.5 336,-352.5 611,-352.5 611,-322.5 336,-322.5"/>
<text text-anchor="start" x="343" y="-333.9" font-family="Arial" font-size="14.00" fill="#000000">updated_at </text>
<text text-anchor="start" x="416.9326" y="-333.9" font-family="Arial" font-size="14.00" fill="#666666">[timestamp without time zone]</text>
<polygon fill="none" stroke="#000000" stroke-width="3" points="334,-321.5 334,-479.5 612,-479.5 612,-321.5 334,-321.5"/>
</g>
<!-- public.tags -->
<g id="node2" class="node">
<title>public.tags</title>
<polygon fill="#efefef" stroke="transparent" points="337,-162.5 337,-197.5 610,-197.5 610,-162.5 337,-162.5"/>
<polygon fill="none" stroke="#000000" points="337,-162.5 337,-197.5 610,-197.5 610,-162.5 337,-162.5"/>
<text text-anchor="start" x="381.8612" y="-175.3" font-family="Arial Bold" font-size="18.00" fill="#000000">public.tags</text>
<text text-anchor="start" x="467.885" y="-175.3" font-family="Arial" font-size="14.00" fill="#000000"> </text>
<text text-anchor="start" x="471.7756" y="-175.3" font-family="Arial" font-size="14.00" fill="#666666">[BASE TABLE]</text>
<polygon fill="none" stroke="#000000" points="337,-132.5 337,-162.5 610,-162.5 610,-132.5 337,-132.5"/>
<text text-anchor="start" x="344" y="-143.9" font-family="Arial" font-size="14.00" fill="#000000">id </text>
<text text-anchor="start" x="358.7798" y="-143.9" font-family="Arial" font-size="14.00" fill="#666666">[uuid]</text>
<polygon fill="none" stroke="#000000" points="337,-102.5 337,-132.5 610,-132.5 610,-102.5 337,-102.5"/>
<text text-anchor="start" x="344" y="-113.9" font-family="Arial" font-size="14.00" fill="#000000">name </text>
<text text-anchor="start" x="382.899" y="-113.9" font-family="Arial" font-size="14.00" fill="#666666">[varchar(128)]</text>
<polygon fill="none" stroke="#000000" points="337,-72.5 337,-102.5 610,-102.5 610,-72.5 337,-72.5"/>
<text text-anchor="start" x="344" y="-83.9" font-family="Arial" font-size="14.00" fill="#000000">created_at </text>
<text text-anchor="start" x="414.028" y="-83.9" font-family="Arial" font-size="14.00" fill="#666666">[timestamp without time zone]</text>
<polygon fill="none" stroke="#000000" points="337,-42.5 337,-72.5 610,-72.5 610,-42.5 337,-42.5"/>
<text text-anchor="start" x="343.9636" y="-53.9" font-family="Arial" font-size="14.00" fill="#000000">updated_at </text>
<text text-anchor="start" x="417.8962" y="-53.9" font-family="Arial" font-size="14.00" fill="#666666">[timestamp without time zone]</text>
</g>
<!-- public.scenario_tags&#45;&gt;public.tags -->
<g id="edge1" class="edge">
<title>public.scenario_tags:tag_id&#45;&gt;public.tags:id</title>
<path fill="none" stroke="#000000" d="M326.2455,-394.6924C280.7821,-367.2266 284.9163,-147.5 337,-147.5"/>
<polygon fill="#000000" stroke="#000000" points="326.3901,-394.7339 334.7553,-401.8244 331.1951,-396.117 336,-397.5 336,-397.5 336,-397.5 331.1951,-396.117 337.2447,-393.1756 326.3901,-394.7339 326.3901,-394.7339"/>
<text text-anchor="start" x="6.6035" y="-407.5" font-family="Arial" font-size="10.00" fill="#000000">FOREIGN KEY (tag_id) REFERENCES tags(id) ON DELETE CASCADE</text>
</g>
</g>
</svg>
