<?xml version="1.0" encoding="UTF-8" standalone="no"?>
<!DOCTYPE svg PUBLIC "-//W3C//DTD SVG 1.1//EN"
 "http://www.w3.org/Graphics/SVG/1.1/DTD/svg11.dtd">
<!-- Generated by graphviz version 2.40.1 (20161225.0304)
 -->
<!-- Title: public.tags Pages: 1 -->
<svg width="663pt" height="562pt"
 viewBox="0.00 0.00 662.50 562.00" xmlns="http://www.w3.org/2000/svg" xmlns:xlink="http://www.w3.org/1999/xlink">
<g id="graph0" class="graph" transform="scale(1 1) rotate(0) translate(4 558)">
<title>public.tags</title>
<polygon fill="#ffffff" stroke="transparent" points="-4,4 -4,-558 658.5,-558 658.5,4 -4,4"/>
<!-- public.tags -->
<g id="node1" class="node">
<title>public.tags</title>
<polygon fill="#efefef" stroke="transparent" points="336,-165.5 336,-200.5 609,-200.5 609,-165.5 336,-165.5"/>
<polygon fill="none" stroke="#000000" points="336,-165.5 336,-200.5 609,-200.5 609,-165.5 336,-165.5"/>
<text text-anchor="start" x="380.8612" y="-178.3" font-family="Arial Bold" font-size="18.00" fill="#000000">public.tags</text>
<text text-anchor="start" x="466.885" y="-178.3" font-family="Arial" font-size="14.00" fill="#000000"> </text>
<text text-anchor="start" x="470.7756" y="-178.3" font-family="Arial" font-size="14.00" fill="#666666">[BASE TABLE]</text>
<polygon fill="none" stroke="#000000" points="336,-135.5 336,-165.5 609,-165.5 609,-135.5 336,-135.5"/>
<text text-anchor="start" x="343" y="-146.9" font-family="Arial" font-size="14.00" fill="#000000">id </text>
<text text-anchor="start" x="357.7798" y="-146.9" font-family="Arial" font-size="14.00" fill="#666666">[uuid]</text>
<polygon fill="none" stroke="#000000" points="336,-105.5 336,-135.5 609,-135.5 609,-105.5 336,-105.5"/>
<text text-anchor="start" x="343" y="-116.9" font-family="Arial" font-size="14.00" fill="#000000">name </text>
<text text-anchor="start" x="381.899" y="-116.9" font-family="Arial" font-size="14.00" fill="#666666">[varchar(128)]</text>
<polygon fill="none" stroke="#000000" points="336,-75.5 336,-105.5 609,-105.5 609,-75.5 336,-75.5"/>
<text text-anchor="start" x="343" y="-86.9" font-family="Arial" font-size="14.00" fill="#000000">created_at </text>
<text text-anchor="start" x="413.028" y="-86.9" font-family="Arial" font-size="14.00" fill="#666666">[timestamp without time zone]</text>
<polygon fill="none" stroke="#000000" points="336,-45.5 336,-75.5 609,-75.5 609,-45.5 336,-45.5"/>
<text text-anchor="start" x="342.9636" y="-56.9" font-family="Arial" font-size="14.00" fill="#000000">updated_at </text>
<text text-anchor="start" x="416.8962" y="-56.9" font-family="Arial" font-size="14.00" fill="#666666">[timestamp without time zone]</text>
<polygon fill="none" stroke="#000000" stroke-width="3" points="334,-44.5 334,-202.5 610,-202.5 610,-44.5 334,-44.5"/>
</g>
<!-- public.stories_tags -->
<g id="node2" class="node">
<title>public.stories_tags</title>
<polygon fill="#efefef" stroke="transparent" points="336,-475.5 336,-510.5 609,-510.5 609,-475.5 336,-475.5"/>
<polygon fill="none" stroke="#000000" points="336,-475.5 336,-510.5 609,-510.5 609,-475.5 336,-475.5"/>
<text text-anchor="start" x="349.3576" y="-488.3" font-family="Arial Bold" font-size="18.00" fill="#000000">public.stories_tags</text>
<text text-anchor="start" x="498.3886" y="-488.3" font-family="Arial" font-size="14.00" fill="#000000"> </text>
<text text-anchor="start" x="502.2792" y="-488.3" font-family="Arial" font-size="14.00" fill="#666666">[BASE TABLE]</text>
<polygon fill="none" stroke="#000000" points="336,-445.5 336,-475.5 609,-475.5 609,-445.5 336,-445.5"/>
<text text-anchor="start" x="343" y="-456.9" font-family="Arial" font-size="14.00" fill="#000000">id </text>
<text text-anchor="start" x="357.7798" y="-456.9" font-family="Arial" font-size="14.00" fill="#666666">[uuid]</text>
<polygon fill="none" stroke="#000000" points="336,-415.5 336,-445.5 609,-445.5 609,-415.5 336,-415.5"/>
<text text-anchor="start" x="343" y="-426.9" font-family="Arial" font-size="14.00" fill="#000000">story_id </text>
<text text-anchor="start" x="395.8962" y="-426.9" font-family="Arial" font-size="14.00" fill="#666666">[uuid]</text>
<polygon fill="none" stroke="#000000" points="336,-385.5 336,-415.5 609,-415.5 609,-385.5 336,-385.5"/>
<text text-anchor="start" x="343" y="-396.9" font-family="Arial" font-size="14.00" fill="#000000">tag_id </text>
<text text-anchor="start" x="385.0182" y="-396.9" font-family="Arial" font-size="14.00" fill="#666666">[uuid]</text>
<polygon fill="none" stroke="#000000" points="336,-355.5 336,-385.5 609,-385.5 609,-355.5 336,-355.5"/>
<text text-anchor="start" x="343" y="-366.9" font-family="Arial" font-size="14.00" fill="#000000">created_at </text>
<text text-anchor="start" x="413.028" y="-366.9" font-family="Arial" font-size="14.00" fill="#666666">[timestamp without time zone]</text>
<polygon fill="none" stroke="#000000" points="336,-325.5 336,-355.5 609,-355.5 609,-325.5 336,-325.5"/>
<text text-anchor="start" x="342.9636" y="-336.9" font-family="Arial" font-size="14.00" fill="#000000">updated_at </text>
<text text-anchor="start" x="416.8962" y="-336.9" font-family="Arial" font-size="14.00" fill="#666666">[timestamp without time zone]</text>
</g>
<!-- public.stories_tags&#45;&gt;public.tags -->
<g id="edge1" class="edge">
<title>public.stories_tags:tag_id&#45;&gt;public.tags:id</title>
<path fill="none" stroke="#000000" d="M326.2344,-397.6924C280.6615,-370.2266 283.9167,-150.5 336,-150.5"/>
<polygon fill="#000000" stroke="#000000" points="326.3893,-397.7369 334.7566,-404.8248 331.1947,-399.1184 336,-400.5 336,-400.5 336,-400.5 331.1947,-399.1184 337.2434,-396.1752 326.3893,-397.7369 326.3893,-397.7369"/>
<text text-anchor="start" x="6.6035" y="-410.5" font-family="Arial" font-size="10.00" fill="#000000">FOREIGN KEY (tag_id) REFERENCES tags(id) ON DELETE CASCADE</text>
</g>
</g>
</svg>
