<?xml version="1.0" encoding="UTF-8" standalone="no"?>
<!DOCTYPE svg PUBLIC "-//W3C//DTD SVG 1.1//EN"
 "http://www.w3.org/Graphics/SVG/1.1/DTD/svg11.dtd">
<!-- Generated by graphviz version 2.40.1 (20161225.0304)
 -->
<!-- Title: public.story_taggings Pages: 1 -->
<svg width="979pt" height="592pt"
 viewBox="0.00 0.00 979.00 592.00" xmlns="http://www.w3.org/2000/svg" xmlns:xlink="http://www.w3.org/1999/xlink">
<g id="graph0" class="graph" transform="scale(1 1) rotate(0) translate(4 588)">
<title>public.story_taggings</title>
<polygon fill="#ffffff" stroke="transparent" points="-4,4 -4,-588 975,-588 975,4 -4,4"/>
<!-- public.story_taggings -->
<g id="node1" class="node">
<title>public.story_taggings</title>
<polygon fill="#efefef" stroke="transparent" points="355,-502.5 355,-537.5 635,-537.5 635,-502.5 355,-502.5"/>
<polygon fill="none" stroke="#000000" points="355,-502.5 355,-537.5 635,-537.5 635,-502.5 355,-502.5"/>
<text text-anchor="start" x="361.8514" y="-515.3" font-family="Arial Bold" font-size="18.00" fill="#000000">public.story_taggings</text>
<text text-anchor="start" x="530.8948" y="-515.3" font-family="Arial" font-size="14.00" fill="#000000"> </text>
<text text-anchor="start" x="534.7854" y="-515.3" font-family="Arial" font-size="14.00" fill="#666666">[BASE TABLE]</text>
<polygon fill="none" stroke="#000000" points="355,-472.5 355,-502.5 635,-502.5 635,-472.5 355,-472.5"/>
<text text-anchor="start" x="362" y="-483.9" font-family="Arial" font-size="14.00" fill="#000000">id </text>
<text text-anchor="start" x="376.7798" y="-483.9" font-family="Arial" font-size="14.00" fill="#666666">[uuid]</text>
<polygon fill="none" stroke="#000000" points="355,-442.5 355,-472.5 635,-472.5 635,-442.5 355,-442.5"/>
<text text-anchor="start" x="362" y="-453.9" font-family="Arial" font-size="14.00" fill="#000000">story_id </text>
<text text-anchor="start" x="414.8962" y="-453.9" font-family="Arial" font-size="14.00" fill="#666666">[uuid]</text>
<polygon fill="none" stroke="#000000" points="355,-412.5 355,-442.5 635,-442.5 635,-412.5 355,-412.5"/>
<text text-anchor="start" x="362" y="-423.9" font-family="Arial" font-size="14.00" fill="#000000">tag_id </text>
<text text-anchor="start" x="404.0182" y="-423.9" font-family="Arial" font-size="14.00" fill="#666666">[uuid]</text>
<polygon fill="none" stroke="#000000" points="355,-382.5 355,-412.5 635,-412.5 635,-382.5 355,-382.5"/>
<text text-anchor="start" x="362" y="-393.9" font-family="Arial" font-size="14.00" fill="#000000">created_at </text>
<text text-anchor="start" x="432.028" y="-393.9" font-family="Arial" font-size="14.00" fill="#666666">[timestamp without time zone]</text>
<polygon fill="none" stroke="#000000" points="355,-352.5 355,-382.5 635,-382.5 635,-352.5 355,-352.5"/>
<text text-anchor="start" x="362" y="-363.9" font-family="Arial" font-size="14.00" fill="#000000">updated_at </text>
<text text-anchor="start" x="435.9326" y="-363.9" font-family="Arial" font-size="14.00" fill="#666666">[timestamp without time zone]</text>
<polygon fill="none" stroke="#000000" stroke-width="3" points="353.5,-351.5 353.5,-539.5 636.5,-539.5 636.5,-351.5 353.5,-351.5"/>
</g>
<!-- public.stories -->
<g id="node2" class="node">
<title>public.stories</title>
<polygon fill="#efefef" stroke="transparent" points="170,-192.5 170,-227.5 443,-227.5 443,-192.5 170,-192.5"/>
<polygon fill="none" stroke="#000000" points="170,-192.5 170,-227.5 443,-227.5 443,-192.5 170,-192.5"/>
<text text-anchor="start" x="205.368" y="-205.3" font-family="Arial Bold" font-size="18.00" fill="#000000">public.stories</text>
<text text-anchor="start" x="310.3782" y="-205.3" font-family="Arial" font-size="14.00" fill="#000000"> </text>
<text text-anchor="start" x="314.2688" y="-205.3" font-family="Arial" font-size="14.00" fill="#666666">[BASE TABLE]</text>
<polygon fill="none" stroke="#000000" points="170,-162.5 170,-192.5 443,-192.5 443,-162.5 170,-162.5"/>
<text text-anchor="start" x="177" y="-173.9" font-family="Arial" font-size="14.00" fill="#000000">id </text>
<text text-anchor="start" x="191.7798" y="-173.9" font-family="Arial" font-size="14.00" fill="#666666">[uuid]</text>
<polygon fill="none" stroke="#000000" points="170,-132.5 170,-162.5 443,-162.5 443,-132.5 170,-132.5"/>
<text text-anchor="start" x="177" y="-143.9" font-family="Arial" font-size="14.00" fill="#000000">organization_id </text>
<text text-anchor="start" x="275.805" y="-143.9" font-family="Arial" font-size="14.00" fill="#666666">[uuid]</text>
<polygon fill="none" stroke="#000000" points="170,-102.5 170,-132.5 443,-132.5 443,-102.5 170,-102.5"/>
<text text-anchor="start" x="177" y="-113.9" font-family="Arial" font-size="14.00" fill="#000000">title </text>
<text text-anchor="start" x="202.6676" y="-113.9" font-family="Arial" font-size="14.00" fill="#666666">[varchar(255)]</text>
<polygon fill="none" stroke="#000000" points="170,-72.5 170,-102.5 443,-102.5 443,-72.5 170,-72.5"/>
<text text-anchor="start" x="177" y="-83.9" font-family="Arial" font-size="14.00" fill="#000000">created_at </text>
<text text-anchor="start" x="247.028" y="-83.9" font-family="Arial" font-size="14.00" fill="#666666">[timestamp without time zone]</text>
<polygon fill="none" stroke="#000000" points="170,-42.5 170,-72.5 443,-72.5 443,-42.5 170,-42.5"/>
<text text-anchor="start" x="176.9636" y="-53.9" font-family="Arial" font-size="14.00" fill="#000000">updated_at </text>
<text text-anchor="start" x="250.8962" y="-53.9" font-family="Arial" font-size="14.00" fill="#666666">[timestamp without time zone]</text>
</g>
<!-- public.story_taggings&#45;&gt;public.stories -->
<g id="edge1" class="edge">
<title>public.story_taggings:story_id&#45;&gt;public.stories:id</title>
<path fill="none" stroke="#000000" d="M344.8773,-456.6699C291.3722,-447.2311 319.7557,-359.4975 355,-307 378.5538,-271.9158 419.4462,-306.0842 443,-271 466.1626,-236.4985 484.5556,-177.5 443,-177.5"/>
<polygon fill="#000000" stroke="#000000" points="345.0335,-456.6827 354.6322,-461.9849 350.0167,-457.0913 355,-457.5 355,-457.5 355,-457.5 350.0167,-457.0913 355.3678,-453.0151 345.0335,-456.6827 345.0335,-456.6827"/>
<text text-anchor="start" x="7.4445" y="-467.5" font-family="Arial" font-size="10.00" fill="#000000">FOREIGN KEY (story_id) REFERENCES stories(id) ON DELETE CASCADE</text>
</g>
<!-- public.tags -->
<g id="node3" class="node">
<title>public.tags</title>
<polygon fill="#efefef" stroke="transparent" points="547,-177.5 547,-212.5 820,-212.5 820,-177.5 547,-177.5"/>
<polygon fill="none" stroke="#000000" points="547,-177.5 547,-212.5 820,-212.5 820,-177.5 547,-177.5"/>
<text text-anchor="start" x="591.8612" y="-190.3" font-family="Arial Bold" font-size="18.00" fill="#000000">public.tags</text>
<text text-anchor="start" x="677.885" y="-190.3" font-family="Arial" font-size="14.00" fill="#000000"> </text>
<text text-anchor="start" x="681.7756" y="-190.3" font-family="Arial" font-size="14.00" fill="#666666">[BASE TABLE]</text>
<polygon fill="none" stroke="#000000" points="547,-147.5 547,-177.5 820,-177.5 820,-147.5 547,-147.5"/>
<text text-anchor="start" x="554" y="-158.9" font-family="Arial" font-size="14.00" fill="#000000">id </text>
<text text-anchor="start" x="568.7798" y="-158.9" font-family="Arial" font-size="14.00" fill="#666666">[uuid]</text>
<polygon fill="none" stroke="#000000" points="547,-117.5 547,-147.5 820,-147.5 820,-117.5 547,-117.5"/>
<text text-anchor="start" x="554" y="-128.9" font-family="Arial" font-size="14.00" fill="#000000">name </text>
<text text-anchor="start" x="592.899" y="-128.9" font-family="Arial" font-size="14.00" fill="#666666">[varchar(128)]</text>
<polygon fill="none" stroke="#000000" points="547,-87.5 547,-117.5 820,-117.5 820,-87.5 547,-87.5"/>
<text text-anchor="start" x="554" y="-98.9" font-family="Arial" font-size="14.00" fill="#000000">created_at </text>
<text text-anchor="start" x="624.028" y="-98.9" font-family="Arial" font-size="14.00" fill="#666666">[timestamp without time zone]</text>
<polygon fill="none" stroke="#000000" points="547,-57.5 547,-87.5 820,-87.5 820,-57.5 547,-57.5"/>
<text text-anchor="start" x="553.9636" y="-68.9" font-family="Arial" font-size="14.00" fill="#000000">updated_at </text>
<text text-anchor="start" x="627.8962" y="-68.9" font-family="Arial" font-size="14.00" fill="#666666">[timestamp without time zone]</text>
</g>
<!-- public.story_taggings&#45;&gt;public.tags -->
<g id="edge2" class="edge">
<title>public.story_taggings:tag_id&#45;&gt;public.tags:id</title>
<path fill="none" stroke="#000000" d="M645.1328,-426.4364C684.7849,-417.217 659.8595,-350.1398 635,-307 612.4299,-267.8331 569.5701,-295.1669 547,-256 526.2518,-219.9948 505.4444,-162.5 547,-162.5"/>
<polygon fill="#000000" stroke="#000000" points="644.9454,-426.456 634.5302,-423.0246 639.9727,-426.978 635,-427.5 635,-427.5 635,-427.5 639.9727,-426.978 635.4698,-431.9754 644.9454,-426.456 644.9454,-426.456"/>
<text text-anchor="start" x="641.6035" y="-437.5" font-family="Arial" font-size="10.00" fill="#000000">FOREIGN KEY (tag_id) REFERENCES tags(id) ON DELETE CASCADE</text>
</g>
</g>
</svg>
