<?xml version="1.0" encoding="UTF-8" standalone="no"?>
<!DOCTYPE svg PUBLIC "-//W3C//DTD SVG 1.1//EN"
 "http://www.w3.org/Graphics/SVG/1.1/DTD/svg11.dtd">
<!-- Generated by graphviz version 2.40.1 (20161225.0304)
 -->
<!-- Title: public.users Pages: 1 -->
<svg width="1337pt" height="1139pt"
 viewBox="0.00 0.00 1336.50 1139.00" xmlns="http://www.w3.org/2000/svg" xmlns:xlink="http://www.w3.org/1999/xlink">
<g id="graph0" class="graph" transform="scale(1 1) rotate(0) translate(4 1135)">
<title>public.users</title>
<polygon fill="#ffffff" stroke="transparent" points="-4,4 -4,-1135 1332.5,-1135 1332.5,4 -4,4"/>
<!-- public.users -->
<g id="node1" class="node">
<title>public.users</title>
<polygon fill="#efefef" stroke="transparent" points="550.5,-622.5 550.5,-657.5 823.5,-657.5 823.5,-622.5 550.5,-622.5"/>
<polygon fill="none" stroke="#000000" points="550.5,-622.5 550.5,-657.5 823.5,-657.5 823.5,-622.5 550.5,-622.5"/>
<text text-anchor="start" x="590.3662" y="-635.3" font-family="Arial Bold" font-size="18.00" fill="#000000">public.users</text>
<text text-anchor="start" x="686.38" y="-635.3" font-family="Arial" font-size="14.00" fill="#000000"> </text>
<text text-anchor="start" x="690.2706" y="-635.3" font-family="Arial" font-size="14.00" fill="#666666">[BASE TABLE]</text>
<polygon fill="none" stroke="#000000" points="550.5,-592.5 550.5,-622.5 823.5,-622.5 823.5,-592.5 550.5,-592.5"/>
<text text-anchor="start" x="557.5" y="-603.9" font-family="Arial" font-size="14.00" fill="#000000">id </text>
<text text-anchor="start" x="572.2798" y="-603.9" font-family="Arial" font-size="14.00" fill="#666666">[uuid]</text>
<polygon fill="none" stroke="#000000" points="550.5,-562.5 550.5,-592.5 823.5,-592.5 823.5,-562.5 550.5,-562.5"/>
<text text-anchor="start" x="557.5" y="-573.9" font-family="Arial" font-size="14.00" fill="#000000">organization_id </text>
<text text-anchor="start" x="656.305" y="-573.9" font-family="Arial" font-size="14.00" fill="#666666">[uuid]</text>
<polygon fill="none" stroke="#000000" points="550.5,-532.5 550.5,-562.5 823.5,-562.5 823.5,-532.5 550.5,-532.5"/>
<text text-anchor="start" x="557.5" y="-543.9" font-family="Arial" font-size="14.00" fill="#000000">nickname </text>
<text text-anchor="start" x="621.2882" y="-543.9" font-family="Arial" font-size="14.00" fill="#666666">[varchar(20)]</text>
<polygon fill="none" stroke="#000000" points="550.5,-502.5 550.5,-532.5 823.5,-532.5 823.5,-502.5 550.5,-502.5"/>
<text text-anchor="start" x="557.5" y="-513.9" font-family="Arial" font-size="14.00" fill="#000000">email </text>
<text text-anchor="start" x="594.8296" y="-513.9" font-family="Arial" font-size="14.00" fill="#666666">[varchar(255)]</text>
<polygon fill="none" stroke="#000000" points="550.5,-472.5 550.5,-502.5 823.5,-502.5 823.5,-472.5 550.5,-472.5"/>
<text text-anchor="start" x="557.5" y="-483.9" font-family="Arial" font-size="14.00" fill="#000000">password_hash </text>
<text text-anchor="start" x="659.4186" y="-483.9" font-family="Arial" font-size="14.00" fill="#666666">[text]</text>
<polygon fill="none" stroke="#000000" points="550.5,-442.5 550.5,-472.5 823.5,-472.5 823.5,-442.5 550.5,-442.5"/>
<text text-anchor="start" x="557.5" y="-453.9" font-family="Arial" font-size="14.00" fill="#000000">created_at </text>
<text text-anchor="start" x="627.528" y="-453.9" font-family="Arial" font-size="14.00" fill="#666666">[timestamp without time zone]</text>
<polygon fill="none" stroke="#000000" points="550.5,-412.5 550.5,-442.5 823.5,-442.5 823.5,-412.5 550.5,-412.5"/>
<text text-anchor="start" x="557.4636" y="-423.9" font-family="Arial" font-size="14.00" fill="#000000">updated_at </text>
<text text-anchor="start" x="631.3962" y="-423.9" font-family="Arial" font-size="14.00" fill="#666666">[timestamp without time zone]</text>
<polygon fill="none" stroke="#000000" stroke-width="3" points="548.5,-411.5 548.5,-659.5 824.5,-659.5 824.5,-411.5 548.5,-411.5"/>
</g>
<!-- public.organizations -->
<g id="node5" class="node">
<title>public.organizations</title>
<polygon fill="#efefef" stroke="transparent" points="550.5,-252.5 550.5,-287.5 823.5,-287.5 823.5,-252.5 550.5,-252.5"/>
<polygon fill="none" stroke="#000000" points="550.5,-252.5 550.5,-287.5 823.5,-287.5 823.5,-252.5 550.5,-252.5"/>
<text text-anchor="start" x="558.8554" y="-265.3" font-family="Arial Bold" font-size="18.00" fill="#000000">public.organizations</text>
<text text-anchor="start" x="717.8908" y="-265.3" font-family="Arial" font-size="14.00" fill="#000000"> </text>
<text text-anchor="start" x="721.7814" y="-265.3" font-family="Arial" font-size="14.00" fill="#666666">[BASE TABLE]</text>
<polygon fill="none" stroke="#000000" points="550.5,-222.5 550.5,-252.5 823.5,-252.5 823.5,-222.5 550.5,-222.5"/>
<text text-anchor="start" x="557.5" y="-233.9" font-family="Arial" font-size="14.00" fill="#000000">id </text>
<text text-anchor="start" x="572.2798" y="-233.9" font-family="Arial" font-size="14.00" fill="#666666">[uuid]</text>
<polygon fill="none" stroke="#000000" points="550.5,-192.5 550.5,-222.5 823.5,-222.5 823.5,-192.5 550.5,-192.5"/>
<text text-anchor="start" x="557.5" y="-203.9" font-family="Arial" font-size="14.00" fill="#000000">company_id </text>
<text text-anchor="start" x="636.8534" y="-203.9" font-family="Arial" font-size="14.00" fill="#666666">[uuid]</text>
<polygon fill="none" stroke="#000000" points="550.5,-162.5 550.5,-192.5 823.5,-192.5 823.5,-162.5 550.5,-162.5"/>
<text text-anchor="start" x="557.5" y="-173.9" font-family="Arial" font-size="14.00" fill="#000000">display_id </text>
<text text-anchor="start" x="623.6234" y="-173.9" font-family="Arial" font-size="14.00" fill="#666666">[integer]</text>
<polygon fill="none" stroke="#000000" points="550.5,-132.5 550.5,-162.5 823.5,-162.5 823.5,-132.5 550.5,-132.5"/>
<text text-anchor="start" x="557.5" y="-143.9" font-family="Arial" font-size="14.00" fill="#000000">name </text>
<text text-anchor="start" x="596.399" y="-143.9" font-family="Arial" font-size="14.00" fill="#666666">[varchar(128)]</text>
<polygon fill="none" stroke="#000000" points="550.5,-102.5 550.5,-132.5 823.5,-132.5 823.5,-102.5 550.5,-102.5"/>
<text text-anchor="start" x="557.5" y="-113.9" font-family="Arial" font-size="14.00" fill="#000000">report_send_emails </text>
<text text-anchor="start" x="684.3022" y="-113.9" font-family="Arial" font-size="14.00" fill="#666666">[varchar(255)]</text>
<polygon fill="none" stroke="#000000" points="550.5,-72.5 550.5,-102.5 823.5,-102.5 823.5,-72.5 550.5,-72.5"/>
<text text-anchor="start" x="557.5" y="-83.9" font-family="Arial" font-size="14.00" fill="#000000">created_at </text>
<text text-anchor="start" x="627.528" y="-83.9" font-family="Arial" font-size="14.00" fill="#666666">[timestamp without time zone]</text>
<polygon fill="none" stroke="#000000" points="550.5,-42.5 550.5,-72.5 823.5,-72.5 823.5,-42.5 550.5,-42.5"/>
<text text-anchor="start" x="557.4636" y="-53.9" font-family="Arial" font-size="14.00" fill="#000000">updated_at </text>
<text text-anchor="start" x="631.3962" y="-53.9" font-family="Arial" font-size="14.00" fill="#666666">[timestamp without time zone]</text>
</g>
<!-- public.users&#45;&gt;public.organizations -->
<g id="edge4" class="edge">
<title>public.users:organization_id&#45;&gt;public.organizations:id</title>
<path fill="none" stroke="#000000" d="M540.124,-576.9485C399.4719,-561.7493 402.9306,-237.5 550.5,-237.5"/>
<polygon fill="#000000" stroke="#000000" points="540.5141,-576.9691 550.2611,-581.9937 545.507,-577.2345 550.5,-577.5 550.5,-577.5 550.5,-577.5 545.507,-577.2345 550.7389,-573.0063 540.5141,-576.9691 540.5141,-576.9691"/>
<text text-anchor="start" x="140.5415" y="-587.5" font-family="Arial" font-size="10.00" fill="#000000">FOREIGN KEY (organization_id) REFERENCES organizations(id) ON DELETE CASCADE</text>
</g>
<!-- public.user_authentication_logs -->
<g id="node2" class="node">
<title>public.user_authentication_logs</title>
<polygon fill="#efefef" stroke="transparent" points="43.5,-977.5 43.5,-1012.5 406.5,-1012.5 406.5,-977.5 43.5,-977.5"/>
<polygon fill="none" stroke="#000000" points="43.5,-977.5 43.5,-1012.5 406.5,-1012.5 406.5,-977.5 43.5,-977.5"/>
<text text-anchor="start" x="50.3344" y="-990.3" font-family="Arial Bold" font-size="18.00" fill="#000000">public.user_authentication_logs</text>
<text text-anchor="start" x="302.4118" y="-990.3" font-family="Arial" font-size="14.00" fill="#000000"> </text>
<text text-anchor="start" x="306.3024" y="-990.3" font-family="Arial" font-size="14.00" fill="#666666">[BASE TABLE]</text>
<polygon fill="none" stroke="#000000" points="43.5,-947.5 43.5,-977.5 406.5,-977.5 406.5,-947.5 43.5,-947.5"/>
<text text-anchor="start" x="50.5" y="-958.9" font-family="Arial" font-size="14.00" fill="#000000">id </text>
<text text-anchor="start" x="65.2798" y="-958.9" font-family="Arial" font-size="14.00" fill="#666666">[uuid]</text>
<polygon fill="none" stroke="#000000" points="43.5,-917.5 43.5,-947.5 406.5,-947.5 406.5,-917.5 43.5,-917.5"/>
<text text-anchor="start" x="50.5" y="-928.9" font-family="Arial" font-size="14.00" fill="#000000">user_id </text>
<text text-anchor="start" x="100.2882" y="-928.9" font-family="Arial" font-size="14.00" fill="#666666">[uuid]</text>
<polygon fill="none" stroke="#000000" points="43.5,-887.5 43.5,-917.5 406.5,-917.5 406.5,-887.5 43.5,-887.5"/>
<text text-anchor="start" x="50.5" y="-898.9" font-family="Arial" font-size="14.00" fill="#000000">created_at </text>
<text text-anchor="start" x="120.528" y="-898.9" font-family="Arial" font-size="14.00" fill="#666666">[timestamp without time zone]</text>
<polygon fill="none" stroke="#000000" points="43.5,-857.5 43.5,-887.5 406.5,-887.5 406.5,-857.5 43.5,-857.5"/>
<text text-anchor="start" x="50.5" y="-868.9" font-family="Arial" font-size="14.00" fill="#000000">updated_at </text>
<text text-anchor="start" x="124.4326" y="-868.9" font-family="Arial" font-size="14.00" fill="#666666">[timestamp without time zone]</text>
</g>
<!-- public.user_authentication_logs&#45;&gt;public.users -->
<g id="edge1" class="edge">
<title>public.user_authentication_logs:user_id&#45;&gt;public.users:id</title>
<path fill="none" stroke="#000000" d="M416.5851,-931.9434C489.0564,-923.3455 421.6944,-816.955 457.5,-740 487.851,-674.7684 478.5532,-607.5 550.5,-607.5"/>
<polygon fill="#000000" stroke="#000000" points="416.4848,-931.9489 406.252,-928.0068 411.4924,-932.2244 406.5,-932.5 406.5,-932.5 406.5,-932.5 411.4924,-932.2244 406.748,-936.9932 416.4848,-931.9489 416.4848,-931.9489"/>
<text text-anchor="start" x="413.5535" y="-942.5" font-family="Arial" font-size="10.00" fill="#000000">FOREIGN KEY (user_id) REFERENCES users(id) ON DELETE CASCADE</text>
</g>
<!-- public.user_scenario_histories -->
<g id="node3" class="node">
<title>public.user_scenario_histories</title>
<polygon fill="#efefef" stroke="transparent" points="510.5,-1007.5 510.5,-1042.5 863.5,-1042.5 863.5,-1007.5 510.5,-1007.5"/>
<polygon fill="none" stroke="#000000" points="510.5,-1007.5 510.5,-1042.5 863.5,-1042.5 863.5,-1007.5 510.5,-1007.5"/>
<text text-anchor="start" x="517.3537" y="-1020.3" font-family="Arial Bold" font-size="18.00" fill="#000000">public.user_scenario_histories</text>
<text text-anchor="start" x="759.3925" y="-1020.3" font-family="Arial" font-size="14.00" fill="#000000"> </text>
<text text-anchor="start" x="763.2831" y="-1020.3" font-family="Arial" font-size="14.00" fill="#666666">[BASE TABLE]</text>
<polygon fill="none" stroke="#000000" points="510.5,-977.5 510.5,-1007.5 863.5,-1007.5 863.5,-977.5 510.5,-977.5"/>
<text text-anchor="start" x="517.5" y="-988.9" font-family="Arial" font-size="14.00" fill="#000000">id </text>
<text text-anchor="start" x="532.2798" y="-988.9" font-family="Arial" font-size="14.00" fill="#666666">[uuid]</text>
<polygon fill="none" stroke="#000000" points="510.5,-947.5 510.5,-977.5 863.5,-977.5 863.5,-947.5 510.5,-947.5"/>
<text text-anchor="start" x="517.5" y="-958.9" font-family="Arial" font-size="14.00" fill="#000000">user_id </text>
<text text-anchor="start" x="567.2882" y="-958.9" font-family="Arial" font-size="14.00" fill="#666666">[uuid]</text>
<polygon fill="none" stroke="#000000" points="510.5,-917.5 510.5,-947.5 863.5,-947.5 863.5,-917.5 510.5,-917.5"/>
<text text-anchor="start" x="517.5" y="-928.9" font-family="Arial" font-size="14.00" fill="#000000">scenario_id </text>
<text text-anchor="start" x="592.96" y="-928.9" font-family="Arial" font-size="14.00" fill="#666666">[uuid]</text>
<polygon fill="none" stroke="#000000" points="510.5,-887.5 510.5,-917.5 863.5,-917.5 863.5,-887.5 510.5,-887.5"/>
<text text-anchor="start" x="517.5" y="-898.9" font-family="Arial" font-size="14.00" fill="#000000">total_score </text>
<text text-anchor="start" x="589.852" y="-898.9" font-family="Arial" font-size="14.00" fill="#666666">[integer]</text>
<polygon fill="none" stroke="#000000" points="510.5,-857.5 510.5,-887.5 863.5,-887.5 863.5,-857.5 510.5,-857.5"/>
<text text-anchor="start" x="517.5" y="-868.9" font-family="Arial" font-size="14.00" fill="#000000">created_at </text>
<text text-anchor="start" x="587.528" y="-868.9" font-family="Arial" font-size="14.00" fill="#666666">[timestamp without time zone]</text>
<polygon fill="none" stroke="#000000" points="510.5,-827.5 510.5,-857.5 863.5,-857.5 863.5,-827.5 510.5,-827.5"/>
<text text-anchor="start" x="517.5" y="-838.9" font-family="Arial" font-size="14.00" fill="#000000">updated_at </text>
<text text-anchor="start" x="591.4326" y="-838.9" font-family="Arial" font-size="14.00" fill="#666666">[timestamp without time zone]</text>
</g>
<!-- public.user_scenario_histories&#45;&gt;public.users -->
<g id="edge2" class="edge">
<title>public.user_scenario_histories:user_id&#45;&gt;public.users:id</title>
<path fill="none" stroke="#000000" d="M500.5167,-960.4152C434.7851,-931.3218 474.6782,-607.5 550.5,-607.5"/>
<polygon fill="#000000" stroke="#000000" points="500.7112,-960.4557 509.5801,-966.905 505.6056,-961.4779 510.5,-962.5 510.5,-962.5 510.5,-962.5 505.6056,-961.4779 511.4199,-958.095 500.7112,-960.4557 500.7112,-960.4557"/>
<text text-anchor="start" x="517.5535" y="-972.5" font-family="Arial" font-size="10.00" fill="#000000">FOREIGN KEY (user_id) REFERENCES users(id) ON DELETE CASCADE</text>
</g>
<!-- public.user_quiz_histories -->
<g id="node4" class="node">
<title>public.user_quiz_histories</title>
<polygon fill="#efefef" stroke="transparent" points="967.5,-1052.5 967.5,-1087.5 1285.5,-1087.5 1285.5,-1052.5 967.5,-1052.5"/>
<polygon fill="none" stroke="#000000" points="967.5,-1052.5 967.5,-1087.5 1285.5,-1087.5 1285.5,-1052.5 967.5,-1052.5"/>
<text text-anchor="start" x="974.356" y="-1065.3" font-family="Arial Bold" font-size="18.00" fill="#000000">public.user_quiz_histories</text>
<text text-anchor="start" x="1181.3902" y="-1065.3" font-family="Arial" font-size="14.00" fill="#000000"> </text>
<text text-anchor="start" x="1185.2808" y="-1065.3" font-family="Arial" font-size="14.00" fill="#666666">[BASE TABLE]</text>
<polygon fill="none" stroke="#000000" points="967.5,-1022.5 967.5,-1052.5 1285.5,-1052.5 1285.5,-1022.5 967.5,-1022.5"/>
<text text-anchor="start" x="974.5" y="-1033.9" font-family="Arial" font-size="14.00" fill="#000000">id </text>
<text text-anchor="start" x="989.2798" y="-1033.9" font-family="Arial" font-size="14.00" fill="#666666">[uuid]</text>
<polygon fill="none" stroke="#000000" points="967.5,-992.5 967.5,-1022.5 1285.5,-1022.5 1285.5,-992.5 967.5,-992.5"/>
<text text-anchor="start" x="974.5" y="-1003.9" font-family="Arial" font-size="14.00" fill="#000000">user_scenario_history_id </text>
<text text-anchor="start" x="1133.974" y="-1003.9" font-family="Arial" font-size="14.00" fill="#666666">[uuid]</text>
<polygon fill="none" stroke="#000000" points="967.5,-962.5 967.5,-992.5 1285.5,-992.5 1285.5,-962.5 967.5,-962.5"/>
<text text-anchor="start" x="974.5" y="-973.9" font-family="Arial" font-size="14.00" fill="#000000">user_id </text>
<text text-anchor="start" x="1024.2882" y="-973.9" font-family="Arial" font-size="14.00" fill="#666666">[uuid]</text>
<polygon fill="none" stroke="#000000" points="967.5,-932.5 967.5,-962.5 1285.5,-962.5 1285.5,-932.5 967.5,-932.5"/>
<text text-anchor="start" x="974.5" y="-943.9" font-family="Arial" font-size="14.00" fill="#000000">scenario_id </text>
<text text-anchor="start" x="1049.96" y="-943.9" font-family="Arial" font-size="14.00" fill="#666666">[uuid]</text>
<polygon fill="none" stroke="#000000" points="967.5,-902.5 967.5,-932.5 1285.5,-932.5 1285.5,-902.5 967.5,-902.5"/>
<text text-anchor="start" x="974.5" y="-913.9" font-family="Arial" font-size="14.00" fill="#000000">scenario_quiz_id </text>
<text text-anchor="start" x="1083.4144" y="-913.9" font-family="Arial" font-size="14.00" fill="#666666">[uuid]</text>
<polygon fill="none" stroke="#000000" points="967.5,-872.5 967.5,-902.5 1285.5,-902.5 1285.5,-872.5 967.5,-872.5"/>
<text text-anchor="start" x="974.5" y="-883.9" font-family="Arial" font-size="14.00" fill="#000000">scenario_quiz_option_id </text>
<text text-anchor="start" x="1129.3246" y="-883.9" font-family="Arial" font-size="14.00" fill="#666666">[uuid]</text>
<polygon fill="none" stroke="#000000" points="967.5,-842.5 967.5,-872.5 1285.5,-872.5 1285.5,-842.5 967.5,-842.5"/>
<text text-anchor="start" x="974.5" y="-853.9" font-family="Arial" font-size="14.00" fill="#000000">score </text>
<text text-anchor="start" x="1012.6164" y="-853.9" font-family="Arial" font-size="14.00" fill="#666666">[integer]</text>
<polygon fill="none" stroke="#000000" points="967.5,-812.5 967.5,-842.5 1285.5,-842.5 1285.5,-812.5 967.5,-812.5"/>
<text text-anchor="start" x="974.5" y="-823.9" font-family="Arial" font-size="14.00" fill="#000000">created_at </text>
<text text-anchor="start" x="1044.528" y="-823.9" font-family="Arial" font-size="14.00" fill="#666666">[timestamp without time zone]</text>
<polygon fill="none" stroke="#000000" points="967.5,-782.5 967.5,-812.5 1285.5,-812.5 1285.5,-782.5 967.5,-782.5"/>
<text text-anchor="start" x="974.5" y="-793.9" font-family="Arial" font-size="14.00" fill="#000000">updated_at </text>
<text text-anchor="start" x="1048.4326" y="-793.9" font-family="Arial" font-size="14.00" fill="#666666">[timestamp without time zone]</text>
</g>
<!-- public.user_quiz_histories&#45;&gt;public.users -->
<g id="edge3" class="edge">
<title>public.user_quiz_histories:user_id&#45;&gt;public.users:id</title>
<path fill="none" stroke="#000000" d="M957.7279,-975.1088C916.4103,-953.1449 935.6629,-786.235 915.5,-740 886.8418,-674.2846 895.1924,-607.5 823.5,-607.5"/>
<polygon fill="#000000" stroke="#000000" points="957.7866,-975.1231 966.4304,-981.871 962.6433,-976.3115 967.5,-977.5 967.5,-977.5 967.5,-977.5 962.6433,-976.3115 968.5696,-973.129 957.7866,-975.1231 957.7866,-975.1231"/>
<text text-anchor="start" x="974.5535" y="-987.5" font-family="Arial" font-size="10.00" fill="#000000">FOREIGN KEY (user_id) REFERENCES users(id) ON DELETE CASCADE</text>
</g>
</g>
</svg>
