<?xml version="1.0" encoding="UTF-8" standalone="no"?>
<!DOCTYPE svg PUBLIC "-//W3C//DTD SVG 1.1//EN"
 "http://www.w3.org/Graphics/SVG/1.1/DTD/svg11.dtd">
<!-- Generated by graphviz version 2.40.1 (20161225.0304)
 -->
<!-- Title: public.user_scenario_quiz_histories Pages: 1 -->
<svg width="2054pt" height="862pt"
 viewBox="0.00 0.00 2053.50 862.00" xmlns="http://www.w3.org/2000/svg" xmlns:xlink="http://www.w3.org/1999/xlink">
<g id="graph0" class="graph" transform="scale(1 1) rotate(0) translate(4 858)">
<title>public.user_scenario_quiz_histories</title>
<polygon fill="#ffffff" stroke="transparent" points="-4,4 -4,-858 2049.5,-858 2049.5,4 -4,4"/>
<!-- public.user_scenario_quiz_histories -->
<g id="node1" class="node">
<title>public.user_scenario_quiz_histories</title>
<polygon fill="#efefef" stroke="transparent" points="816.5,-772.5 816.5,-807.5 1212.5,-807.5 1212.5,-772.5 816.5,-772.5"/>
<polygon fill="none" stroke="#000000" points="816.5,-772.5 816.5,-807.5 1212.5,-807.5 1212.5,-772.5 816.5,-772.5"/>
<text text-anchor="start" x="823.3473" y="-785.3" font-family="Arial Bold" font-size="18.00" fill="#000000">public.user_scenario_quiz_histories</text>
<text text-anchor="start" x="1108.3989" y="-785.3" font-family="Arial" font-size="14.00" fill="#000000"> </text>
<text text-anchor="start" x="1112.2895" y="-785.3" font-family="Arial" font-size="14.00" fill="#666666">[BASE TABLE]</text>
<polygon fill="none" stroke="#000000" points="816.5,-742.5 816.5,-772.5 1212.5,-772.5 1212.5,-742.5 816.5,-742.5"/>
<text text-anchor="start" x="823.5" y="-753.9" font-family="Arial" font-size="14.00" fill="#000000">id </text>
<text text-anchor="start" x="838.2798" y="-753.9" font-family="Arial" font-size="14.00" fill="#666666">[uuid]</text>
<polygon fill="none" stroke="#000000" points="816.5,-712.5 816.5,-742.5 1212.5,-742.5 1212.5,-712.5 816.5,-712.5"/>
<text text-anchor="start" x="823.5" y="-723.9" font-family="Arial" font-size="14.00" fill="#000000">user_scenario_history_id </text>
<text text-anchor="start" x="982.974" y="-723.9" font-family="Arial" font-size="14.00" fill="#666666">[uuid]</text>
<polygon fill="none" stroke="#000000" points="816.5,-682.5 816.5,-712.5 1212.5,-712.5 1212.5,-682.5 816.5,-682.5"/>
<text text-anchor="start" x="823.5" y="-693.9" font-family="Arial" font-size="14.00" fill="#000000">user_id </text>
<text text-anchor="start" x="873.2882" y="-693.9" font-family="Arial" font-size="14.00" fill="#666666">[uuid]</text>
<polygon fill="none" stroke="#000000" points="816.5,-652.5 816.5,-682.5 1212.5,-682.5 1212.5,-652.5 816.5,-652.5"/>
<text text-anchor="start" x="823.5" y="-663.9" font-family="Arial" font-size="14.00" fill="#000000">scenario_id </text>
<text text-anchor="start" x="898.96" y="-663.9" font-family="Arial" font-size="14.00" fill="#666666">[uuid]</text>
<polygon fill="none" stroke="#000000" points="816.5,-622.5 816.5,-652.5 1212.5,-652.5 1212.5,-622.5 816.5,-622.5"/>
<text text-anchor="start" x="823.5" y="-633.9" font-family="Arial" font-size="14.00" fill="#000000">scenario_quiz_id </text>
<text text-anchor="start" x="932.4144" y="-633.9" font-family="Arial" font-size="14.00" fill="#666666">[uuid]</text>
<polygon fill="none" stroke="#000000" points="816.5,-592.5 816.5,-622.5 1212.5,-622.5 1212.5,-592.5 816.5,-592.5"/>
<text text-anchor="start" x="823.5" y="-603.9" font-family="Arial" font-size="14.00" fill="#000000">scenario_quiz_option_id </text>
<text text-anchor="start" x="978.3246" y="-603.9" font-family="Arial" font-size="14.00" fill="#666666">[uuid]</text>
<polygon fill="none" stroke="#000000" points="816.5,-562.5 816.5,-592.5 1212.5,-592.5 1212.5,-562.5 816.5,-562.5"/>
<text text-anchor="start" x="823.5" y="-573.9" font-family="Arial" font-size="14.00" fill="#000000">created_at </text>
<text text-anchor="start" x="893.528" y="-573.9" font-family="Arial" font-size="14.00" fill="#666666">[timestamp without time zone]</text>
<polygon fill="none" stroke="#000000" points="816.5,-532.5 816.5,-562.5 1212.5,-562.5 1212.5,-532.5 816.5,-532.5"/>
<text text-anchor="start" x="823.5" y="-543.9" font-family="Arial" font-size="14.00" fill="#000000">updated_at </text>
<text text-anchor="start" x="897.4326" y="-543.9" font-family="Arial" font-size="14.00" fill="#666666">[timestamp without time zone]</text>
<polygon fill="none" stroke="#000000" stroke-width="3" points="815,-531.5 815,-809.5 1214,-809.5 1214,-531.5 815,-531.5"/>
</g>
<!-- public.user_scenario_histories -->
<g id="node2" class="node">
<title>public.user_scenario_histories</title>
<polygon fill="#efefef" stroke="transparent" points="43.5,-297.5 43.5,-332.5 396.5,-332.5 396.5,-297.5 43.5,-297.5"/>
<polygon fill="none" stroke="#000000" points="43.5,-297.5 43.5,-332.5 396.5,-332.5 396.5,-297.5 43.5,-297.5"/>
<text text-anchor="start" x="50.3537" y="-310.3" font-family="Arial Bold" font-size="18.00" fill="#000000">public.user_scenario_histories</text>
<text text-anchor="start" x="292.3925" y="-310.3" font-family="Arial" font-size="14.00" fill="#000000"> </text>
<text text-anchor="start" x="296.2831" y="-310.3" font-family="Arial" font-size="14.00" fill="#666666">[BASE TABLE]</text>
<polygon fill="none" stroke="#000000" points="43.5,-267.5 43.5,-297.5 396.5,-297.5 396.5,-267.5 43.5,-267.5"/>
<text text-anchor="start" x="50.5" y="-278.9" font-family="Arial" font-size="14.00" fill="#000000">id </text>
<text text-anchor="start" x="65.2798" y="-278.9" font-family="Arial" font-size="14.00" fill="#666666">[uuid]</text>
<polygon fill="none" stroke="#000000" points="43.5,-237.5 43.5,-267.5 396.5,-267.5 396.5,-237.5 43.5,-237.5"/>
<text text-anchor="start" x="50.5" y="-248.9" font-family="Arial" font-size="14.00" fill="#000000">user_id </text>
<text text-anchor="start" x="100.2882" y="-248.9" font-family="Arial" font-size="14.00" fill="#666666">[uuid]</text>
<polygon fill="none" stroke="#000000" points="43.5,-207.5 43.5,-237.5 396.5,-237.5 396.5,-207.5 43.5,-207.5"/>
<text text-anchor="start" x="50.5" y="-218.9" font-family="Arial" font-size="14.00" fill="#000000">scenario_id </text>
<text text-anchor="start" x="125.96" y="-218.9" font-family="Arial" font-size="14.00" fill="#666666">[uuid]</text>
<polygon fill="none" stroke="#000000" points="43.5,-177.5 43.5,-207.5 396.5,-207.5 396.5,-177.5 43.5,-177.5"/>
<text text-anchor="start" x="50.5" y="-188.9" font-family="Arial" font-size="14.00" fill="#000000">total_score </text>
<text text-anchor="start" x="122.852" y="-188.9" font-family="Arial" font-size="14.00" fill="#666666">[integer]</text>
<polygon fill="none" stroke="#000000" points="43.5,-147.5 43.5,-177.5 396.5,-177.5 396.5,-147.5 43.5,-147.5"/>
<text text-anchor="start" x="50.5" y="-158.9" font-family="Arial" font-size="14.00" fill="#000000">created_at </text>
<text text-anchor="start" x="120.528" y="-158.9" font-family="Arial" font-size="14.00" fill="#666666">[timestamp without time zone]</text>
<polygon fill="none" stroke="#000000" points="43.5,-117.5 43.5,-147.5 396.5,-147.5 396.5,-117.5 43.5,-117.5"/>
<text text-anchor="start" x="50.5" y="-128.9" font-family="Arial" font-size="14.00" fill="#000000">updated_at </text>
<text text-anchor="start" x="124.4326" y="-128.9" font-family="Arial" font-size="14.00" fill="#666666">[timestamp without time zone]</text>
</g>
<!-- public.user_scenario_quiz_histories&#45;&gt;public.user_scenario_histories -->
<g id="edge1" class="edge">
<title>public.user_scenario_quiz_histories:user_scenario_history_id&#45;&gt;public.user_scenario_histories:id</title>
<path fill="none" stroke="#000000" d="M806.4233,-727.4104C610.0021,-723.8771 563.0856,-616.0902 447.5,-451 402.6242,-386.9041 474.744,-282.5 396.5,-282.5"/>
<polygon fill="#000000" stroke="#000000" points="806.5004,-727.411 816.4599,-731.9998 811.5002,-727.4555 816.5,-727.5 816.5,-727.5 816.5,-727.5 811.5002,-727.4555 816.5401,-723.0002 806.5004,-727.411 806.5004,-727.411"/>
<text text-anchor="start" x="316.8175" y="-737.5" font-family="Arial" font-size="10.00" fill="#000000">FOREIGN KEY (user_scenario_history_id) REFERENCES user_scenario_histories(id) ON DELETE CASCADE</text>
</g>
<!-- public.users -->
<g id="node3" class="node">
<title>public.users</title>
<polygon fill="#efefef" stroke="transparent" points="500.5,-372.5 500.5,-407.5 773.5,-407.5 773.5,-372.5 500.5,-372.5"/>
<polygon fill="none" stroke="#000000" points="500.5,-372.5 500.5,-407.5 773.5,-407.5 773.5,-372.5 500.5,-372.5"/>
<text text-anchor="start" x="540.3662" y="-385.3" font-family="Arial Bold" font-size="18.00" fill="#000000">public.users</text>
<text text-anchor="start" x="636.38" y="-385.3" font-family="Arial" font-size="14.00" fill="#000000"> </text>
<text text-anchor="start" x="640.2706" y="-385.3" font-family="Arial" font-size="14.00" fill="#666666">[BASE TABLE]</text>
<polygon fill="none" stroke="#000000" points="500.5,-342.5 500.5,-372.5 773.5,-372.5 773.5,-342.5 500.5,-342.5"/>
<text text-anchor="start" x="507.5" y="-353.9" font-family="Arial" font-size="14.00" fill="#000000">id </text>
<text text-anchor="start" x="522.2798" y="-353.9" font-family="Arial" font-size="14.00" fill="#666666">[uuid]</text>
<polygon fill="none" stroke="#000000" points="500.5,-312.5 500.5,-342.5 773.5,-342.5 773.5,-312.5 500.5,-312.5"/>
<text text-anchor="start" x="507.5" y="-323.9" font-family="Arial" font-size="14.00" fill="#000000">organization_id </text>
<text text-anchor="start" x="606.305" y="-323.9" font-family="Arial" font-size="14.00" fill="#666666">[uuid]</text>
<polygon fill="none" stroke="#000000" points="500.5,-282.5 500.5,-312.5 773.5,-312.5 773.5,-282.5 500.5,-282.5"/>
<text text-anchor="start" x="507.5" y="-293.9" font-family="Arial" font-size="14.00" fill="#000000">last_name </text>
<text text-anchor="start" x="575.9614" y="-293.9" font-family="Arial" font-size="14.00" fill="#666666">[varchar(128)]</text>
<polygon fill="none" stroke="#000000" points="500.5,-252.5 500.5,-282.5 773.5,-282.5 773.5,-252.5 500.5,-252.5"/>
<text text-anchor="start" x="507.5" y="-263.9" font-family="Arial" font-size="14.00" fill="#000000">first_name </text>
<text text-anchor="start" x="576.73" y="-263.9" font-family="Arial" font-size="14.00" fill="#666666">[varchar(128)]</text>
<polygon fill="none" stroke="#000000" points="500.5,-222.5 500.5,-252.5 773.5,-252.5 773.5,-222.5 500.5,-222.5"/>
<text text-anchor="start" x="507.5" y="-233.9" font-family="Arial" font-size="14.00" fill="#000000">last_name_kana </text>
<text text-anchor="start" x="614.0918" y="-233.9" font-family="Arial" font-size="14.00" fill="#666666">[varchar(128)]</text>
<polygon fill="none" stroke="#000000" points="500.5,-192.5 500.5,-222.5 773.5,-222.5 773.5,-192.5 500.5,-192.5"/>
<text text-anchor="start" x="507.5" y="-203.9" font-family="Arial" font-size="14.00" fill="#000000">first_name_kana </text>
<text text-anchor="start" x="614.8604" y="-203.9" font-family="Arial" font-size="14.00" fill="#666666">[varchar(128)]</text>
<polygon fill="none" stroke="#000000" points="500.5,-162.5 500.5,-192.5 773.5,-192.5 773.5,-162.5 500.5,-162.5"/>
<text text-anchor="start" x="507.5" y="-173.9" font-family="Arial" font-size="14.00" fill="#000000">nickname </text>
<text text-anchor="start" x="571.2882" y="-173.9" font-family="Arial" font-size="14.00" fill="#666666">[varchar(20)]</text>
<polygon fill="none" stroke="#000000" points="500.5,-132.5 500.5,-162.5 773.5,-162.5 773.5,-132.5 500.5,-132.5"/>
<text text-anchor="start" x="507.5" y="-143.9" font-family="Arial" font-size="14.00" fill="#000000">email </text>
<text text-anchor="start" x="544.8296" y="-143.9" font-family="Arial" font-size="14.00" fill="#666666">[varchar(255)]</text>
<polygon fill="none" stroke="#000000" points="500.5,-102.5 500.5,-132.5 773.5,-132.5 773.5,-102.5 500.5,-102.5"/>
<text text-anchor="start" x="507.5" y="-113.9" font-family="Arial" font-size="14.00" fill="#000000">password_hash </text>
<text text-anchor="start" x="609.4186" y="-113.9" font-family="Arial" font-size="14.00" fill="#666666">[text]</text>
<polygon fill="none" stroke="#000000" points="500.5,-72.5 500.5,-102.5 773.5,-102.5 773.5,-72.5 500.5,-72.5"/>
<text text-anchor="start" x="507.5" y="-83.9" font-family="Arial" font-size="14.00" fill="#000000">created_at </text>
<text text-anchor="start" x="577.528" y="-83.9" font-family="Arial" font-size="14.00" fill="#666666">[timestamp without time zone]</text>
<polygon fill="none" stroke="#000000" points="500.5,-42.5 500.5,-72.5 773.5,-72.5 773.5,-42.5 500.5,-42.5"/>
<text text-anchor="start" x="507.4636" y="-53.9" font-family="Arial" font-size="14.00" fill="#000000">updated_at </text>
<text text-anchor="start" x="581.3962" y="-53.9" font-family="Arial" font-size="14.00" fill="#666666">[timestamp without time zone]</text>
</g>
<!-- public.user_scenario_quiz_histories&#45;&gt;public.users -->
<g id="edge2" class="edge">
<title>public.user_scenario_quiz_histories:user_id&#45;&gt;public.users:id</title>
<path fill="none" stroke="#000000" d="M806.4619,-696.9485C676.2217,-681.7493 922.2449,-357.5 773.5,-357.5"/>
<polygon fill="#000000" stroke="#000000" points="806.5151,-696.9513 816.2531,-701.9932 811.5075,-697.2256 816.5,-697.5 816.5,-697.5 816.5,-697.5 811.5075,-697.2256 816.7469,-693.0068 806.5151,-696.9513 806.5151,-696.9513"/>
<text text-anchor="start" x="476.5535" y="-707.5" font-family="Arial" font-size="10.00" fill="#000000">FOREIGN KEY (user_id) REFERENCES users(id) ON DELETE CASCADE</text>
</g>
<!-- public.scenarios -->
<g id="node4" class="node">
<title>public.scenarios</title>
<polygon fill="#efefef" stroke="transparent" points="877.5,-357.5 877.5,-392.5 1150.5,-392.5 1150.5,-357.5 877.5,-357.5"/>
<polygon fill="none" stroke="#000000" points="877.5,-357.5 877.5,-392.5 1150.5,-392.5 1150.5,-357.5 877.5,-357.5"/>
<text text-anchor="start" x="900.8629" y="-370.3" font-family="Arial Bold" font-size="18.00" fill="#000000">public.scenarios</text>
<text text-anchor="start" x="1029.8833" y="-370.3" font-family="Arial" font-size="14.00" fill="#000000"> </text>
<text text-anchor="start" x="1033.7739" y="-370.3" font-family="Arial" font-size="14.00" fill="#666666">[BASE TABLE]</text>
<polygon fill="none" stroke="#000000" points="877.5,-327.5 877.5,-357.5 1150.5,-357.5 1150.5,-327.5 877.5,-327.5"/>
<text text-anchor="start" x="884.5" y="-338.9" font-family="Arial" font-size="14.00" fill="#000000">id </text>
<text text-anchor="start" x="899.2798" y="-338.9" font-family="Arial" font-size="14.00" fill="#666666">[uuid]</text>
<polygon fill="none" stroke="#000000" points="877.5,-297.5 877.5,-327.5 1150.5,-327.5 1150.5,-297.5 877.5,-297.5"/>
<text text-anchor="start" x="884.5" y="-308.9" font-family="Arial" font-size="14.00" fill="#000000">organization_id </text>
<text text-anchor="start" x="983.305" y="-308.9" font-family="Arial" font-size="14.00" fill="#666666">[uuid]</text>
<polygon fill="none" stroke="#000000" points="877.5,-267.5 877.5,-297.5 1150.5,-297.5 1150.5,-267.5 877.5,-267.5"/>
<text text-anchor="start" x="884.5" y="-278.9" font-family="Arial" font-size="14.00" fill="#000000">role_id </text>
<text text-anchor="start" x="930.3948" y="-278.9" font-family="Arial" font-size="14.00" fill="#666666">[uuid]</text>
<polygon fill="none" stroke="#000000" points="877.5,-237.5 877.5,-267.5 1150.5,-267.5 1150.5,-237.5 877.5,-237.5"/>
<text text-anchor="start" x="884.5" y="-248.9" font-family="Arial" font-size="14.00" fill="#000000">title </text>
<text text-anchor="start" x="910.1676" y="-248.9" font-family="Arial" font-size="14.00" fill="#666666">[varchar(255)]</text>
<polygon fill="none" stroke="#000000" points="877.5,-207.5 877.5,-237.5 1150.5,-237.5 1150.5,-207.5 877.5,-207.5"/>
<text text-anchor="start" x="884.5" y="-218.9" font-family="Arial" font-size="14.00" fill="#000000">overview </text>
<text text-anchor="start" x="943.6122" y="-218.9" font-family="Arial" font-size="14.00" fill="#666666">[text]</text>
<polygon fill="none" stroke="#000000" points="877.5,-177.5 877.5,-207.5 1150.5,-207.5 1150.5,-177.5 877.5,-177.5"/>
<text text-anchor="start" x="884.5" y="-188.9" font-family="Arial" font-size="14.00" fill="#000000">description </text>
<text text-anchor="start" x="956.068" y="-188.9" font-family="Arial" font-size="14.00" fill="#666666">[text]</text>
<polygon fill="none" stroke="#000000" points="877.5,-147.5 877.5,-177.5 1150.5,-177.5 1150.5,-147.5 877.5,-147.5"/>
<text text-anchor="start" x="884.5" y="-158.9" font-family="Arial" font-size="14.00" fill="#000000">highest_score </text>
<text text-anchor="start" x="975.5266" y="-158.9" font-family="Arial" font-size="14.00" fill="#666666">[integer]</text>
<polygon fill="none" stroke="#000000" points="877.5,-117.5 877.5,-147.5 1150.5,-147.5 1150.5,-117.5 877.5,-117.5"/>
<text text-anchor="start" x="884.5" y="-128.9" font-family="Arial" font-size="14.00" fill="#000000">result_message </text>
<text text-anchor="start" x="987.1872" y="-128.9" font-family="Arial" font-size="14.00" fill="#666666">[text]</text>
<polygon fill="none" stroke="#000000" points="877.5,-87.5 877.5,-117.5 1150.5,-117.5 1150.5,-87.5 877.5,-87.5"/>
<text text-anchor="start" x="884.5" y="-98.9" font-family="Arial" font-size="14.00" fill="#000000">created_at </text>
<text text-anchor="start" x="954.528" y="-98.9" font-family="Arial" font-size="14.00" fill="#666666">[timestamp without time zone]</text>
<polygon fill="none" stroke="#000000" points="877.5,-57.5 877.5,-87.5 1150.5,-87.5 1150.5,-57.5 877.5,-57.5"/>
<text text-anchor="start" x="884.4636" y="-68.9" font-family="Arial" font-size="14.00" fill="#000000">updated_at </text>
<text text-anchor="start" x="958.3962" y="-68.9" font-family="Arial" font-size="14.00" fill="#666666">[timestamp without time zone]</text>
</g>
<!-- public.user_scenario_quiz_histories&#45;&gt;public.scenarios -->
<g id="edge3" class="edge">
<title>public.user_scenario_quiz_histories:scenario_id&#45;&gt;public.scenarios:id</title>
<path fill="none" stroke="#000000" d="M806.3361,-666.7919C738.8382,-656.8694 766.5786,-545.1227 816.5,-487 914.3412,-373.085 1052.6588,-549.915 1150.5,-436 1177.5758,-404.476 1192.0556,-342.5 1150.5,-342.5"/>
<polygon fill="#000000" stroke="#000000" points="806.5242,-666.8049 816.1872,-671.9891 811.5121,-667.1524 816.5,-667.5 816.5,-667.5 816.5,-667.5 811.5121,-667.1524 816.8128,-663.0109 806.5242,-666.8049 806.5242,-666.8049"/>
<text text-anchor="start" x="439.2165" y="-677.5" font-family="Arial" font-size="10.00" fill="#000000">FOREIGN KEY (scenario_id) REFERENCES scenarios(id) ON DELETE CASCADE</text>
</g>
<!-- public.scenario_quizzes -->
<g id="node5" class="node">
<title>public.scenario_quizzes</title>
<polygon fill="#efefef" stroke="transparent" points="1254.5,-297.5 1254.5,-332.5 1556.5,-332.5 1556.5,-297.5 1254.5,-297.5"/>
<polygon fill="none" stroke="#000000" points="1254.5,-297.5 1254.5,-332.5 1556.5,-332.5 1556.5,-297.5 1254.5,-297.5"/>
<text text-anchor="start" x="1261.3534" y="-310.3" font-family="Arial Bold" font-size="18.00" fill="#000000">public.scenario_quizzes</text>
<text text-anchor="start" x="1452.3928" y="-310.3" font-family="Arial" font-size="14.00" fill="#000000"> </text>
<text text-anchor="start" x="1456.2834" y="-310.3" font-family="Arial" font-size="14.00" fill="#666666">[BASE TABLE]</text>
<polygon fill="none" stroke="#000000" points="1254.5,-267.5 1254.5,-297.5 1556.5,-297.5 1556.5,-267.5 1254.5,-267.5"/>
<text text-anchor="start" x="1261.5" y="-278.9" font-family="Arial" font-size="14.00" fill="#000000">id </text>
<text text-anchor="start" x="1276.2798" y="-278.9" font-family="Arial" font-size="14.00" fill="#666666">[uuid]</text>
<polygon fill="none" stroke="#000000" points="1254.5,-237.5 1254.5,-267.5 1556.5,-267.5 1556.5,-237.5 1254.5,-237.5"/>
<text text-anchor="start" x="1261.5" y="-248.9" font-family="Arial" font-size="14.00" fill="#000000">scenario_id </text>
<text text-anchor="start" x="1336.96" y="-248.9" font-family="Arial" font-size="14.00" fill="#666666">[uuid]</text>
<polygon fill="none" stroke="#000000" points="1254.5,-207.5 1254.5,-237.5 1556.5,-237.5 1556.5,-207.5 1254.5,-207.5"/>
<text text-anchor="start" x="1261.5" y="-218.9" font-family="Arial" font-size="14.00" fill="#000000">question </text>
<text text-anchor="start" x="1318.3008" y="-218.9" font-family="Arial" font-size="14.00" fill="#666666">[text]</text>
<polygon fill="none" stroke="#000000" points="1254.5,-177.5 1254.5,-207.5 1556.5,-207.5 1556.5,-177.5 1254.5,-177.5"/>
<text text-anchor="start" x="1261.5" y="-188.9" font-family="Arial" font-size="14.00" fill="#000000">failure_message </text>
<text text-anchor="start" x="1368.0764" y="-188.9" font-family="Arial" font-size="14.00" fill="#666666">[text]</text>
<polygon fill="none" stroke="#000000" points="1254.5,-147.5 1254.5,-177.5 1556.5,-177.5 1556.5,-147.5 1254.5,-147.5"/>
<text text-anchor="start" x="1261.5" y="-158.9" font-family="Arial" font-size="14.00" fill="#000000">created_at </text>
<text text-anchor="start" x="1331.528" y="-158.9" font-family="Arial" font-size="14.00" fill="#666666">[timestamp without time zone]</text>
<polygon fill="none" stroke="#000000" points="1254.5,-117.5 1254.5,-147.5 1556.5,-147.5 1556.5,-117.5 1254.5,-117.5"/>
<text text-anchor="start" x="1261.5" y="-128.9" font-family="Arial" font-size="14.00" fill="#000000">updated_at </text>
<text text-anchor="start" x="1335.4326" y="-128.9" font-family="Arial" font-size="14.00" fill="#666666">[timestamp without time zone]</text>
</g>
<!-- public.user_scenario_quiz_histories&#45;&gt;public.scenario_quizzes -->
<g id="edge4" class="edge">
<title>public.user_scenario_quiz_histories:scenario_quiz_id&#45;&gt;public.scenario_quizzes:id</title>
<path fill="none" stroke="#000000" d="M1222.5577,-636.9708C1359.2099,-621.7318 1099.1904,-282.5 1254.5,-282.5"/>
<polygon fill="#000000" stroke="#000000" points="1222.4862,-636.9744 1212.2635,-633.0062 1217.4931,-637.2372 1212.5,-637.5 1212.5,-637.5 1212.5,-637.5 1217.4931,-637.2372 1212.7365,-641.9938 1222.4862,-636.9744 1222.4862,-636.9744"/>
<text text-anchor="start" x="1219.041" y="-647.5" font-family="Arial" font-size="10.00" fill="#000000">FOREIGN KEY (scenario_quiz_id) REFERENCES scenario_quizzes(id) ON DELETE CASCADE</text>
</g>
<!-- public.scenario_quiz_options -->
<g id="node6" class="node">
<title>public.scenario_quiz_options</title>
<polygon fill="#efefef" stroke="transparent" points="1660.5,-327.5 1660.5,-362.5 2002.5,-362.5 2002.5,-327.5 1660.5,-327.5"/>
<polygon fill="none" stroke="#000000" points="1660.5,-327.5 1660.5,-362.5 2002.5,-362.5 2002.5,-327.5 1660.5,-327.5"/>
<text text-anchor="start" x="1667.3428" y="-340.3" font-family="Arial Bold" font-size="18.00" fill="#000000">public.scenario_quiz_options</text>
<text text-anchor="start" x="1898.4034" y="-340.3" font-family="Arial" font-size="14.00" fill="#000000"> </text>
<text text-anchor="start" x="1902.294" y="-340.3" font-family="Arial" font-size="14.00" fill="#666666">[BASE TABLE]</text>
<polygon fill="none" stroke="#000000" points="1660.5,-297.5 1660.5,-327.5 2002.5,-327.5 2002.5,-297.5 1660.5,-297.5"/>
<text text-anchor="start" x="1667.5" y="-308.9" font-family="Arial" font-size="14.00" fill="#000000">id </text>
<text text-anchor="start" x="1682.2798" y="-308.9" font-family="Arial" font-size="14.00" fill="#666666">[uuid]</text>
<polygon fill="none" stroke="#000000" points="1660.5,-267.5 1660.5,-297.5 2002.5,-297.5 2002.5,-267.5 1660.5,-267.5"/>
<text text-anchor="start" x="1667.5" y="-278.9" font-family="Arial" font-size="14.00" fill="#000000">scenario_quiz_id </text>
<text text-anchor="start" x="1776.4144" y="-278.9" font-family="Arial" font-size="14.00" fill="#666666">[uuid]</text>
<polygon fill="none" stroke="#000000" points="1660.5,-237.5 1660.5,-267.5 2002.5,-267.5 2002.5,-237.5 1660.5,-237.5"/>
<text text-anchor="start" x="1667.5" y="-248.9" font-family="Arial" font-size="14.00" fill="#000000">answer </text>
<text text-anchor="start" x="1716.5056" y="-248.9" font-family="Arial" font-size="14.00" fill="#666666">[varchar(255)]</text>
<polygon fill="none" stroke="#000000" points="1660.5,-207.5 1660.5,-237.5 2002.5,-237.5 2002.5,-207.5 1660.5,-207.5"/>
<text text-anchor="start" x="1667.5" y="-218.9" font-family="Arial" font-size="14.00" fill="#000000">score </text>
<text text-anchor="start" x="1705.6164" y="-218.9" font-family="Arial" font-size="14.00" fill="#666666">[integer]</text>
<polygon fill="none" stroke="#000000" points="1660.5,-177.5 1660.5,-207.5 2002.5,-207.5 2002.5,-177.5 1660.5,-177.5"/>
<text text-anchor="start" x="1667.5" y="-188.9" font-family="Arial" font-size="14.00" fill="#000000">next_scenario_quiz_id </text>
<text text-anchor="start" x="1810.6528" y="-188.9" font-family="Arial" font-size="14.00" fill="#666666">[uuid]</text>
<polygon fill="none" stroke="#000000" points="1660.5,-147.5 1660.5,-177.5 2002.5,-177.5 2002.5,-147.5 1660.5,-147.5"/>
<text text-anchor="start" x="1667.5" y="-158.9" font-family="Arial" font-size="14.00" fill="#000000">next_status </text>
<text text-anchor="start" x="1742.9754" y="-158.9" font-family="Arial" font-size="14.00" fill="#666666">[integer]</text>
<polygon fill="none" stroke="#000000" points="1660.5,-117.5 1660.5,-147.5 2002.5,-147.5 2002.5,-117.5 1660.5,-117.5"/>
<text text-anchor="start" x="1667.5" y="-128.9" font-family="Arial" font-size="14.00" fill="#000000">created_at </text>
<text text-anchor="start" x="1737.528" y="-128.9" font-family="Arial" font-size="14.00" fill="#666666">[timestamp without time zone]</text>
<polygon fill="none" stroke="#000000" points="1660.5,-87.5 1660.5,-117.5 2002.5,-117.5 2002.5,-87.5 1660.5,-87.5"/>
<text text-anchor="start" x="1667.5" y="-98.9" font-family="Arial" font-size="14.00" fill="#000000">updated_at </text>
<text text-anchor="start" x="1741.4326" y="-98.9" font-family="Arial" font-size="14.00" fill="#666666">[timestamp without time zone]</text>
</g>
<!-- public.user_scenario_quiz_histories&#45;&gt;public.scenario_quiz_options -->
<g id="edge5" class="edge">
<title>public.user_scenario_quiz_histories:scenario_quiz_option_id&#45;&gt;public.scenario_quiz_options:id</title>
<path fill="none" stroke="#000000" d="M1222.6452,-607.4784C1404.4421,-606.6848 1478.2353,-583.5244 1608.5,-451 1654.5916,-404.1089 1594.7489,-312.5 1660.5,-312.5"/>
<polygon fill="#000000" stroke="#000000" points="1222.5,-607.4786 1212.4904,-603 1217.5,-607.4893 1212.5,-607.5 1212.5,-607.5 1212.5,-607.5 1217.5,-607.4893 1212.5096,-612 1222.5,-607.4786 1222.5,-607.4786"/>
<text text-anchor="start" x="1219.5275" y="-617.5" font-family="Arial" font-size="10.00" fill="#000000">FOREIGN KEY (scenario_quiz_option_id) REFERENCES scenario_quiz_options(id) ON DELETE CASCADE</text>
</g>
</g>
</svg>
