<?xml version="1.0" encoding="UTF-8" standalone="no"?>
<!DOCTYPE svg PUBLIC "-//W3C//DTD SVG 1.1//EN"
 "http://www.w3.org/Graphics/SVG/1.1/DTD/svg11.dtd">
<!-- Generated by graphviz version 2.40.1 (20161225.0304)
 -->
<!-- Title: public.scenarios Pages: 1 -->
<svg width="1338pt" height="1139pt"
 viewBox="0.00 0.00 1338.00 1139.00" xmlns="http://www.w3.org/2000/svg" xmlns:xlink="http://www.w3.org/1999/xlink">
<g id="graph0" class="graph" transform="scale(1 1) rotate(0) translate(4 1135)">
<title>public.scenarios</title>
<polygon fill="#ffffff" stroke="transparent" points="-4,4 -4,-1135 1334,-1135 1334,4 -4,4"/>
<!-- public.scenarios -->
<g id="node1" class="node">
<title>public.scenarios</title>
<polygon fill="#efefef" stroke="transparent" points="529,-622.5 529,-657.5 802,-657.5 802,-622.5 529,-622.5"/>
<polygon fill="none" stroke="#000000" points="529,-622.5 529,-657.5 802,-657.5 802,-622.5 529,-622.5"/>
<text text-anchor="start" x="552.3629" y="-635.3" font-family="Arial Bold" font-size="18.00" fill="#000000">public.scenarios</text>
<text text-anchor="start" x="681.3833" y="-635.3" font-family="Arial" font-size="14.00" fill="#000000"> </text>
<text text-anchor="start" x="685.2739" y="-635.3" font-family="Arial" font-size="14.00" fill="#666666">[BASE TABLE]</text>
<polygon fill="none" stroke="#000000" points="529,-592.5 529,-622.5 802,-622.5 802,-592.5 529,-592.5"/>
<text text-anchor="start" x="536" y="-603.9" font-family="Arial" font-size="14.00" fill="#000000">id </text>
<text text-anchor="start" x="550.7798" y="-603.9" font-family="Arial" font-size="14.00" fill="#666666">[uuid]</text>
<polygon fill="none" stroke="#000000" points="529,-562.5 529,-592.5 802,-592.5 802,-562.5 529,-562.5"/>
<text text-anchor="start" x="536" y="-573.9" font-family="Arial" font-size="14.00" fill="#000000">story_id </text>
<text text-anchor="start" x="588.8962" y="-573.9" font-family="Arial" font-size="14.00" fill="#666666">[uuid]</text>
<polygon fill="none" stroke="#000000" points="529,-532.5 529,-562.5 802,-562.5 802,-532.5 529,-532.5"/>
<text text-anchor="start" x="536" y="-543.9" font-family="Arial" font-size="14.00" fill="#000000">role_id </text>
<text text-anchor="start" x="581.8948" y="-543.9" font-family="Arial" font-size="14.00" fill="#666666">[uuid]</text>
<polygon fill="none" stroke="#000000" points="529,-502.5 529,-532.5 802,-532.5 802,-502.5 529,-502.5"/>
<text text-anchor="start" x="536" y="-513.9" font-family="Arial" font-size="14.00" fill="#000000">overview </text>
<text text-anchor="start" x="595.1122" y="-513.9" font-family="Arial" font-size="14.00" fill="#666666">[text]</text>
<polygon fill="none" stroke="#000000" points="529,-472.5 529,-502.5 802,-502.5 802,-472.5 529,-472.5"/>
<text text-anchor="start" x="536" y="-483.9" font-family="Arial" font-size="14.00" fill="#000000">description </text>
<text text-anchor="start" x="607.568" y="-483.9" font-family="Arial" font-size="14.00" fill="#666666">[text]</text>
<polygon fill="none" stroke="#000000" points="529,-442.5 529,-472.5 802,-472.5 802,-442.5 529,-442.5"/>
<text text-anchor="start" x="536" y="-453.9" font-family="Arial" font-size="14.00" fill="#000000">highest_score </text>
<text text-anchor="start" x="627.0266" y="-453.9" font-family="Arial" font-size="14.00" fill="#666666">[integer]</text>
<polygon fill="none" stroke="#000000" points="529,-412.5 529,-442.5 802,-442.5 802,-412.5 529,-412.5"/>
<text text-anchor="start" x="536" y="-423.9" font-family="Arial" font-size="14.00" fill="#000000">result_message </text>
<text text-anchor="start" x="638.6872" y="-423.9" font-family="Arial" font-size="14.00" fill="#666666">[text]</text>
<polygon fill="none" stroke="#000000" points="529,-382.5 529,-412.5 802,-412.5 802,-382.5 529,-382.5"/>
<text text-anchor="start" x="536" y="-393.9" font-family="Arial" font-size="14.00" fill="#000000">created_at </text>
<text text-anchor="start" x="606.028" y="-393.9" font-family="Arial" font-size="14.00" fill="#666666">[timestamp without time zone]</text>
<polygon fill="none" stroke="#000000" points="529,-352.5 529,-382.5 802,-382.5 802,-352.5 529,-352.5"/>
<text text-anchor="start" x="535.9636" y="-363.9" font-family="Arial" font-size="14.00" fill="#000000">updated_at </text>
<text text-anchor="start" x="609.8962" y="-363.9" font-family="Arial" font-size="14.00" fill="#666666">[timestamp without time zone]</text>
<polygon fill="none" stroke="#000000" stroke-width="3" points="527,-351.5 527,-659.5 803,-659.5 803,-351.5 527,-351.5"/>
</g>
<!-- public.stories -->
<g id="node5" class="node">
<title>public.stories</title>
<polygon fill="#efefef" stroke="transparent" points="341,-192.5 341,-227.5 614,-227.5 614,-192.5 341,-192.5"/>
<polygon fill="none" stroke="#000000" points="341,-192.5 341,-227.5 614,-227.5 614,-192.5 341,-192.5"/>
<text text-anchor="start" x="376.368" y="-205.3" font-family="Arial Bold" font-size="18.00" fill="#000000">public.stories</text>
<text text-anchor="start" x="481.3782" y="-205.3" font-family="Arial" font-size="14.00" fill="#000000"> </text>
<text text-anchor="start" x="485.2688" y="-205.3" font-family="Arial" font-size="14.00" fill="#666666">[BASE TABLE]</text>
<polygon fill="none" stroke="#000000" points="341,-162.5 341,-192.5 614,-192.5 614,-162.5 341,-162.5"/>
<text text-anchor="start" x="348" y="-173.9" font-family="Arial" font-size="14.00" fill="#000000">id </text>
<text text-anchor="start" x="362.7798" y="-173.9" font-family="Arial" font-size="14.00" fill="#666666">[uuid]</text>
<polygon fill="none" stroke="#000000" points="341,-132.5 341,-162.5 614,-162.5 614,-132.5 341,-132.5"/>
<text text-anchor="start" x="348" y="-143.9" font-family="Arial" font-size="14.00" fill="#000000">organization_id </text>
<text text-anchor="start" x="446.805" y="-143.9" font-family="Arial" font-size="14.00" fill="#666666">[uuid]</text>
<polygon fill="none" stroke="#000000" points="341,-102.5 341,-132.5 614,-132.5 614,-102.5 341,-102.5"/>
<text text-anchor="start" x="348" y="-113.9" font-family="Arial" font-size="14.00" fill="#000000">title </text>
<text text-anchor="start" x="373.6676" y="-113.9" font-family="Arial" font-size="14.00" fill="#666666">[varchar(255)]</text>
<polygon fill="none" stroke="#000000" points="341,-72.5 341,-102.5 614,-102.5 614,-72.5 341,-72.5"/>
<text text-anchor="start" x="348" y="-83.9" font-family="Arial" font-size="14.00" fill="#000000">created_at </text>
<text text-anchor="start" x="418.028" y="-83.9" font-family="Arial" font-size="14.00" fill="#666666">[timestamp without time zone]</text>
<polygon fill="none" stroke="#000000" points="341,-42.5 341,-72.5 614,-72.5 614,-42.5 341,-42.5"/>
<text text-anchor="start" x="347.9636" y="-53.9" font-family="Arial" font-size="14.00" fill="#000000">updated_at </text>
<text text-anchor="start" x="421.8962" y="-53.9" font-family="Arial" font-size="14.00" fill="#666666">[timestamp without time zone]</text>
</g>
<!-- public.scenarios&#45;&gt;public.stories -->
<g id="edge4" class="edge">
<title>public.scenarios:story_id&#45;&gt;public.stories:id</title>
<path fill="none" stroke="#000000" d="M518.8777,-577.0676C411.9425,-567.5831 464.5499,-404.2887 529,-307 551.6577,-272.7978 591.3423,-305.2022 614,-271 636.9499,-236.3566 655.5556,-177.5 614,-177.5"/>
<polygon fill="#000000" stroke="#000000" points="519.0091,-577.0731 528.8079,-581.9959 524.0046,-577.2866 529,-577.5 529,-577.5 529,-577.5 524.0046,-577.2866 529.1921,-573.0041 519.0091,-577.0731 519.0091,-577.0731"/>
<text text-anchor="start" x="181.4445" y="-587.5" font-family="Arial" font-size="10.00" fill="#000000">FOREIGN KEY (story_id) REFERENCES stories(id) ON DELETE CASCADE</text>
</g>
<!-- public.roles -->
<g id="node6" class="node">
<title>public.roles</title>
<polygon fill="#efefef" stroke="transparent" points="718,-192.5 718,-227.5 991,-227.5 991,-192.5 718,-192.5"/>
<polygon fill="none" stroke="#000000" points="718,-192.5 718,-227.5 991,-227.5 991,-192.5 718,-192.5"/>
<text text-anchor="start" x="760.3691" y="-205.3" font-family="Arial Bold" font-size="18.00" fill="#000000">public.roles</text>
<text text-anchor="start" x="851.3771" y="-205.3" font-family="Arial" font-size="14.00" fill="#000000"> </text>
<text text-anchor="start" x="855.2677" y="-205.3" font-family="Arial" font-size="14.00" fill="#666666">[BASE TABLE]</text>
<polygon fill="none" stroke="#000000" points="718,-162.5 718,-192.5 991,-192.5 991,-162.5 718,-162.5"/>
<text text-anchor="start" x="725" y="-173.9" font-family="Arial" font-size="14.00" fill="#000000">id </text>
<text text-anchor="start" x="739.7798" y="-173.9" font-family="Arial" font-size="14.00" fill="#666666">[uuid]</text>
<polygon fill="none" stroke="#000000" points="718,-132.5 718,-162.5 991,-162.5 991,-132.5 718,-132.5"/>
<text text-anchor="start" x="725" y="-143.9" font-family="Arial" font-size="14.00" fill="#000000">organization_id </text>
<text text-anchor="start" x="823.805" y="-143.9" font-family="Arial" font-size="14.00" fill="#666666">[uuid]</text>
<polygon fill="none" stroke="#000000" points="718,-102.5 718,-132.5 991,-132.5 991,-102.5 718,-102.5"/>
<text text-anchor="start" x="725" y="-113.9" font-family="Arial" font-size="14.00" fill="#000000">name </text>
<text text-anchor="start" x="763.899" y="-113.9" font-family="Arial" font-size="14.00" fill="#666666">[varchar(128)]</text>
<polygon fill="none" stroke="#000000" points="718,-72.5 718,-102.5 991,-102.5 991,-72.5 718,-72.5"/>
<text text-anchor="start" x="725" y="-83.9" font-family="Arial" font-size="14.00" fill="#000000">created_at </text>
<text text-anchor="start" x="795.028" y="-83.9" font-family="Arial" font-size="14.00" fill="#666666">[timestamp without time zone]</text>
<polygon fill="none" stroke="#000000" points="718,-42.5 718,-72.5 991,-72.5 991,-42.5 718,-42.5"/>
<text text-anchor="start" x="724.9636" y="-53.9" font-family="Arial" font-size="14.00" fill="#000000">updated_at </text>
<text text-anchor="start" x="798.8962" y="-53.9" font-family="Arial" font-size="14.00" fill="#666666">[timestamp without time zone]</text>
</g>
<!-- public.scenarios&#45;&gt;public.roles -->
<g id="edge5" class="edge">
<title>public.scenarios:role_id&#45;&gt;public.roles:id</title>
<path fill="none" stroke="#000000" d="M812.14,-547.0075C905.6863,-537.5235 858.8877,-393.2723 802,-307 779.6405,-273.0909 740.3595,-304.9091 718,-271 695.124,-236.3077 676.4444,-177.5 718,-177.5"/>
<polygon fill="#000000" stroke="#000000" points="811.9882,-547.0148 801.7817,-543.0053 806.9941,-547.2574 802,-547.5 802,-547.5 802,-547.5 806.9941,-547.2574 802.2183,-551.9947 811.9882,-547.0148 811.9882,-547.0148"/>
<text text-anchor="start" x="808.8345" y="-557.5" font-family="Arial" font-size="10.00" fill="#000000">FOREIGN KEY (role_id) REFERENCES roles(id) ON DELETE CASCADE</text>
</g>
<!-- public.scenario_quizzes -->
<g id="node2" class="node">
<title>public.scenario_quizzes</title>
<polygon fill="#efefef" stroke="transparent" points="82,-1037.5 82,-1072.5 384,-1072.5 384,-1037.5 82,-1037.5"/>
<polygon fill="none" stroke="#000000" points="82,-1037.5 82,-1072.5 384,-1072.5 384,-1037.5 82,-1037.5"/>
<text text-anchor="start" x="88.8534" y="-1050.3" font-family="Arial Bold" font-size="18.00" fill="#000000">public.scenario_quizzes</text>
<text text-anchor="start" x="279.8928" y="-1050.3" font-family="Arial" font-size="14.00" fill="#000000"> </text>
<text text-anchor="start" x="283.7834" y="-1050.3" font-family="Arial" font-size="14.00" fill="#666666">[BASE TABLE]</text>
<polygon fill="none" stroke="#000000" points="82,-1007.5 82,-1037.5 384,-1037.5 384,-1007.5 82,-1007.5"/>
<text text-anchor="start" x="89" y="-1018.9" font-family="Arial" font-size="14.00" fill="#000000">id </text>
<text text-anchor="start" x="103.7798" y="-1018.9" font-family="Arial" font-size="14.00" fill="#666666">[uuid]</text>
<polygon fill="none" stroke="#000000" points="82,-977.5 82,-1007.5 384,-1007.5 384,-977.5 82,-977.5"/>
<text text-anchor="start" x="89" y="-988.9" font-family="Arial" font-size="14.00" fill="#000000">scenario_id </text>
<text text-anchor="start" x="164.46" y="-988.9" font-family="Arial" font-size="14.00" fill="#666666">[uuid]</text>
<polygon fill="none" stroke="#000000" points="82,-947.5 82,-977.5 384,-977.5 384,-947.5 82,-947.5"/>
<text text-anchor="start" x="89" y="-958.9" font-family="Arial" font-size="14.00" fill="#000000">quiz_id </text>
<text text-anchor="start" x="137.2342" y="-958.9" font-family="Arial" font-size="14.00" fill="#666666">[uuid]</text>
<polygon fill="none" stroke="#000000" points="82,-917.5 82,-947.5 384,-947.5 384,-917.5 82,-917.5"/>
<text text-anchor="start" x="89" y="-928.9" font-family="Arial" font-size="14.00" fill="#000000">first </text>
<text text-anchor="start" x="115.439" y="-928.9" font-family="Arial" font-size="14.00" fill="#666666">[boolean]</text>
<polygon fill="none" stroke="#000000" points="82,-887.5 82,-917.5 384,-917.5 384,-887.5 82,-887.5"/>
<text text-anchor="start" x="89" y="-898.9" font-family="Arial" font-size="14.00" fill="#000000">question </text>
<text text-anchor="start" x="145.8008" y="-898.9" font-family="Arial" font-size="14.00" fill="#666666">[text]</text>
<polygon fill="none" stroke="#000000" points="82,-857.5 82,-887.5 384,-887.5 384,-857.5 82,-857.5"/>
<text text-anchor="start" x="89" y="-868.9" font-family="Arial" font-size="14.00" fill="#000000">failure_message </text>
<text text-anchor="start" x="195.5764" y="-868.9" font-family="Arial" font-size="14.00" fill="#666666">[text]</text>
<polygon fill="none" stroke="#000000" points="82,-827.5 82,-857.5 384,-857.5 384,-827.5 82,-827.5"/>
<text text-anchor="start" x="89" y="-838.9" font-family="Arial" font-size="14.00" fill="#000000">created_at </text>
<text text-anchor="start" x="159.028" y="-838.9" font-family="Arial" font-size="14.00" fill="#666666">[timestamp without time zone]</text>
<polygon fill="none" stroke="#000000" points="82,-797.5 82,-827.5 384,-827.5 384,-797.5 82,-797.5"/>
<text text-anchor="start" x="89" y="-808.9" font-family="Arial" font-size="14.00" fill="#000000">updated_at </text>
<text text-anchor="start" x="162.9326" y="-808.9" font-family="Arial" font-size="14.00" fill="#666666">[timestamp without time zone]</text>
</g>
<!-- public.scenario_quizzes&#45;&gt;public.scenarios -->
<g id="edge1" class="edge">
<title>public.scenario_quizzes:scenario_id&#45;&gt;public.scenarios:id</title>
<path fill="none" stroke="#000000" d="M393.7754,-990.2421C437.9873,-968.0875 414.7124,-789.3092 436,-740 464.5167,-673.9459 457.0532,-607.5 529,-607.5"/>
<polygon fill="#000000" stroke="#000000" points="393.7435,-990.2494 382.9872,-988.1154 388.8717,-991.3747 384,-992.5 384,-992.5 384,-992.5 388.8717,-991.3747 385.0128,-996.8846 393.7435,-990.2494 393.7435,-990.2494"/>
<text text-anchor="start" x="6.7165" y="-1002.5" font-family="Arial" font-size="10.00" fill="#000000">FOREIGN KEY (scenario_id) REFERENCES scenarios(id) ON DELETE CASCADE</text>
</g>
<!-- public.user_scenario_histories -->
<g id="node3" class="node">
<title>public.user_scenario_histories</title>
<polygon fill="#efefef" stroke="transparent" points="489,-1022.5 489,-1057.5 842,-1057.5 842,-1022.5 489,-1022.5"/>
<polygon fill="none" stroke="#000000" points="489,-1022.5 489,-1057.5 842,-1057.5 842,-1022.5 489,-1022.5"/>
<text text-anchor="start" x="495.8537" y="-1035.3" font-family="Arial Bold" font-size="18.00" fill="#000000">public.user_scenario_histories</text>
<text text-anchor="start" x="737.8925" y="-1035.3" font-family="Arial" font-size="14.00" fill="#000000"> </text>
<text text-anchor="start" x="741.7831" y="-1035.3" font-family="Arial" font-size="14.00" fill="#666666">[BASE TABLE]</text>
<polygon fill="none" stroke="#000000" points="489,-992.5 489,-1022.5 842,-1022.5 842,-992.5 489,-992.5"/>
<text text-anchor="start" x="496" y="-1003.9" font-family="Arial" font-size="14.00" fill="#000000">id </text>
<text text-anchor="start" x="510.7798" y="-1003.9" font-family="Arial" font-size="14.00" fill="#666666">[uuid]</text>
<polygon fill="none" stroke="#000000" points="489,-962.5 489,-992.5 842,-992.5 842,-962.5 489,-962.5"/>
<text text-anchor="start" x="496" y="-973.9" font-family="Arial" font-size="14.00" fill="#000000">user_id </text>
<text text-anchor="start" x="545.7882" y="-973.9" font-family="Arial" font-size="14.00" fill="#666666">[uuid]</text>
<polygon fill="none" stroke="#000000" points="489,-932.5 489,-962.5 842,-962.5 842,-932.5 489,-932.5"/>
<text text-anchor="start" x="496" y="-943.9" font-family="Arial" font-size="14.00" fill="#000000">scenario_id </text>
<text text-anchor="start" x="571.46" y="-943.9" font-family="Arial" font-size="14.00" fill="#666666">[uuid]</text>
<polygon fill="none" stroke="#000000" points="489,-902.5 489,-932.5 842,-932.5 842,-902.5 489,-902.5"/>
<text text-anchor="start" x="496" y="-913.9" font-family="Arial" font-size="14.00" fill="#000000">total_score </text>
<text text-anchor="start" x="568.352" y="-913.9" font-family="Arial" font-size="14.00" fill="#666666">[integer]</text>
<polygon fill="none" stroke="#000000" points="489,-872.5 489,-902.5 842,-902.5 842,-872.5 489,-872.5"/>
<text text-anchor="start" x="496" y="-883.9" font-family="Arial" font-size="14.00" fill="#000000">played_at </text>
<text text-anchor="start" x="560.5834" y="-883.9" font-family="Arial" font-size="14.00" fill="#666666">[timestamp without time zone]</text>
<polygon fill="none" stroke="#000000" points="489,-842.5 489,-872.5 842,-872.5 842,-842.5 489,-842.5"/>
<text text-anchor="start" x="496" y="-853.9" font-family="Arial" font-size="14.00" fill="#000000">created_at </text>
<text text-anchor="start" x="566.028" y="-853.9" font-family="Arial" font-size="14.00" fill="#666666">[timestamp without time zone]</text>
<polygon fill="none" stroke="#000000" points="489,-812.5 489,-842.5 842,-842.5 842,-812.5 489,-812.5"/>
<text text-anchor="start" x="496" y="-823.9" font-family="Arial" font-size="14.00" fill="#000000">updated_at </text>
<text text-anchor="start" x="569.9326" y="-823.9" font-family="Arial" font-size="14.00" fill="#666666">[timestamp without time zone]</text>
</g>
<!-- public.user_scenario_histories&#45;&gt;public.scenarios -->
<g id="edge2" class="edge">
<title>public.user_scenario_histories:scenario_id&#45;&gt;public.scenarios:id</title>
<path fill="none" stroke="#000000" d="M479.0586,-945.3288C416.7526,-916.3721 456.4895,-607.5 529,-607.5"/>
<polygon fill="#000000" stroke="#000000" points="479.2303,-945.3662 488.0398,-951.8964 484.1151,-946.4331 489,-947.5 489,-947.5 489,-947.5 484.1151,-946.4331 489.9602,-943.1036 479.2303,-945.3662 479.2303,-945.3662"/>
<text text-anchor="start" x="495.7165" y="-957.5" font-family="Arial" font-size="10.00" fill="#000000">FOREIGN KEY (scenario_id) REFERENCES scenarios(id) ON DELETE CASCADE</text>
</g>
<!-- public.user_quiz_histories -->
<g id="node4" class="node">
<title>public.user_quiz_histories</title>
<polygon fill="#efefef" stroke="transparent" points="946,-1052.5 946,-1087.5 1264,-1087.5 1264,-1052.5 946,-1052.5"/>
<polygon fill="none" stroke="#000000" points="946,-1052.5 946,-1087.5 1264,-1087.5 1264,-1052.5 946,-1052.5"/>
<text text-anchor="start" x="952.856" y="-1065.3" font-family="Arial Bold" font-size="18.00" fill="#000000">public.user_quiz_histories</text>
<text text-anchor="start" x="1159.8902" y="-1065.3" font-family="Arial" font-size="14.00" fill="#000000"> </text>
<text text-anchor="start" x="1163.7808" y="-1065.3" font-family="Arial" font-size="14.00" fill="#666666">[BASE TABLE]</text>
<polygon fill="none" stroke="#000000" points="946,-1022.5 946,-1052.5 1264,-1052.5 1264,-1022.5 946,-1022.5"/>
<text text-anchor="start" x="953" y="-1033.9" font-family="Arial" font-size="14.00" fill="#000000">id </text>
<text text-anchor="start" x="967.7798" y="-1033.9" font-family="Arial" font-size="14.00" fill="#666666">[uuid]</text>
<polygon fill="none" stroke="#000000" points="946,-992.5 946,-1022.5 1264,-1022.5 1264,-992.5 946,-992.5"/>
<text text-anchor="start" x="953" y="-1003.9" font-family="Arial" font-size="14.00" fill="#000000">user_scenario_history_id </text>
<text text-anchor="start" x="1112.474" y="-1003.9" font-family="Arial" font-size="14.00" fill="#666666">[uuid]</text>
<polygon fill="none" stroke="#000000" points="946,-962.5 946,-992.5 1264,-992.5 1264,-962.5 946,-962.5"/>
<text text-anchor="start" x="953" y="-973.9" font-family="Arial" font-size="14.00" fill="#000000">user_id </text>
<text text-anchor="start" x="1002.7882" y="-973.9" font-family="Arial" font-size="14.00" fill="#666666">[uuid]</text>
<polygon fill="none" stroke="#000000" points="946,-932.5 946,-962.5 1264,-962.5 1264,-932.5 946,-932.5"/>
<text text-anchor="start" x="953" y="-943.9" font-family="Arial" font-size="14.00" fill="#000000">scenario_id </text>
<text text-anchor="start" x="1028.46" y="-943.9" font-family="Arial" font-size="14.00" fill="#666666">[uuid]</text>
<polygon fill="none" stroke="#000000" points="946,-902.5 946,-932.5 1264,-932.5 1264,-902.5 946,-902.5"/>
<text text-anchor="start" x="953" y="-913.9" font-family="Arial" font-size="14.00" fill="#000000">scenario_quiz_id </text>
<text text-anchor="start" x="1061.9144" y="-913.9" font-family="Arial" font-size="14.00" fill="#666666">[uuid]</text>
<polygon fill="none" stroke="#000000" points="946,-872.5 946,-902.5 1264,-902.5 1264,-872.5 946,-872.5"/>
<text text-anchor="start" x="953" y="-883.9" font-family="Arial" font-size="14.00" fill="#000000">scenario_quiz_option_id </text>
<text text-anchor="start" x="1107.8246" y="-883.9" font-family="Arial" font-size="14.00" fill="#666666">[uuid]</text>
<polygon fill="none" stroke="#000000" points="946,-842.5 946,-872.5 1264,-872.5 1264,-842.5 946,-842.5"/>
<text text-anchor="start" x="953" y="-853.9" font-family="Arial" font-size="14.00" fill="#000000">score </text>
<text text-anchor="start" x="991.1164" y="-853.9" font-family="Arial" font-size="14.00" fill="#666666">[integer]</text>
<polygon fill="none" stroke="#000000" points="946,-812.5 946,-842.5 1264,-842.5 1264,-812.5 946,-812.5"/>
<text text-anchor="start" x="953" y="-823.9" font-family="Arial" font-size="14.00" fill="#000000">created_at </text>
<text text-anchor="start" x="1023.028" y="-823.9" font-family="Arial" font-size="14.00" fill="#666666">[timestamp without time zone]</text>
<polygon fill="none" stroke="#000000" points="946,-782.5 946,-812.5 1264,-812.5 1264,-782.5 946,-782.5"/>
<text text-anchor="start" x="953" y="-793.9" font-family="Arial" font-size="14.00" fill="#000000">updated_at </text>
<text text-anchor="start" x="1026.9326" y="-793.9" font-family="Arial" font-size="14.00" fill="#666666">[timestamp without time zone]</text>
</g>
<!-- public.user_quiz_histories&#45;&gt;public.scenarios -->
<g id="edge3" class="edge">
<title>public.user_quiz_histories:scenario_id&#45;&gt;public.scenarios:id</title>
<path fill="none" stroke="#000000" d="M935.653,-946.9557C857.1764,-938.1046 931.7721,-823.1862 894,-740 864.3593,-674.7219 873.6924,-607.5 802,-607.5"/>
<polygon fill="#000000" stroke="#000000" points="936.0138,-946.9746 945.7636,-951.9938 941.0069,-947.2373 946,-947.5 946,-947.5 946,-947.5 941.0069,-947.2373 946.2364,-943.0062 936.0138,-946.9746 936.0138,-946.9746"/>
<text text-anchor="start" x="952.7165" y="-957.5" font-family="Arial" font-size="10.00" fill="#000000">FOREIGN KEY (scenario_id) REFERENCES scenarios(id) ON DELETE CASCADE</text>
</g>
</g>
</svg>
