<?xml version="1.0" encoding="UTF-8" standalone="no"?>
<!DOCTYPE svg PUBLIC "-//W3C//DTD SVG 1.1//EN"
 "http://www.w3.org/Graphics/SVG/1.1/DTD/svg11.dtd">
<!-- Generated by graphviz version 2.40.1 (20161225.0304)
 -->
<!-- Title: public.scenario_quizzes Pages: 1 -->
<svg width="1260pt" height="1229pt"
 viewBox="0.00 0.00 1260.00 1229.00" xmlns="http://www.w3.org/2000/svg" xmlns:xlink="http://www.w3.org/1999/xlink">
<g id="graph0" class="graph" transform="scale(1 1) rotate(0) translate(4 1225)">
<title>public.scenario_quizzes</title>
<polygon fill="#ffffff" stroke="transparent" points="-4,4 -4,-1225 1256,-1225 1256,4 -4,4"/>
<!-- public.scenario_quizzes -->
<g id="node1" class="node">
<title>public.scenario_quizzes</title>
<polygon fill="#efefef" stroke="transparent" points="384,-712.5 384,-747.5 686,-747.5 686,-712.5 384,-712.5"/>
<polygon fill="none" stroke="#000000" points="384,-712.5 384,-747.5 686,-747.5 686,-712.5 384,-712.5"/>
<text text-anchor="start" x="390.8534" y="-725.3" font-family="Arial Bold" font-size="18.00" fill="#000000">public.scenario_quizzes</text>
<text text-anchor="start" x="581.8928" y="-725.3" font-family="Arial" font-size="14.00" fill="#000000"> </text>
<text text-anchor="start" x="585.7834" y="-725.3" font-family="Arial" font-size="14.00" fill="#666666">[BASE TABLE]</text>
<polygon fill="none" stroke="#000000" points="384,-682.5 384,-712.5 686,-712.5 686,-682.5 384,-682.5"/>
<text text-anchor="start" x="391" y="-693.9" font-family="Arial" font-size="14.00" fill="#000000">id </text>
<text text-anchor="start" x="405.7798" y="-693.9" font-family="Arial" font-size="14.00" fill="#666666">[uuid]</text>
<polygon fill="none" stroke="#000000" points="384,-652.5 384,-682.5 686,-682.5 686,-652.5 384,-652.5"/>
<text text-anchor="start" x="391" y="-663.9" font-family="Arial" font-size="14.00" fill="#000000">scenario_id </text>
<text text-anchor="start" x="466.46" y="-663.9" font-family="Arial" font-size="14.00" fill="#666666">[uuid]</text>
<polygon fill="none" stroke="#000000" points="384,-622.5 384,-652.5 686,-652.5 686,-622.5 384,-622.5"/>
<text text-anchor="start" x="391" y="-633.9" font-family="Arial" font-size="14.00" fill="#000000">quiz_id </text>
<text text-anchor="start" x="439.2342" y="-633.9" font-family="Arial" font-size="14.00" fill="#666666">[uuid]</text>
<polygon fill="none" stroke="#000000" points="384,-592.5 384,-622.5 686,-622.5 686,-592.5 384,-592.5"/>
<text text-anchor="start" x="391" y="-603.9" font-family="Arial" font-size="14.00" fill="#000000">first </text>
<text text-anchor="start" x="417.439" y="-603.9" font-family="Arial" font-size="14.00" fill="#666666">[boolean]</text>
<polygon fill="none" stroke="#000000" points="384,-562.5 384,-592.5 686,-592.5 686,-562.5 384,-562.5"/>
<text text-anchor="start" x="391" y="-573.9" font-family="Arial" font-size="14.00" fill="#000000">question </text>
<text text-anchor="start" x="447.8008" y="-573.9" font-family="Arial" font-size="14.00" fill="#666666">[text]</text>
<polygon fill="none" stroke="#000000" points="384,-532.5 384,-562.5 686,-562.5 686,-532.5 384,-532.5"/>
<text text-anchor="start" x="391" y="-543.9" font-family="Arial" font-size="14.00" fill="#000000">failure_message </text>
<text text-anchor="start" x="497.5764" y="-543.9" font-family="Arial" font-size="14.00" fill="#666666">[text]</text>
<polygon fill="none" stroke="#000000" points="384,-502.5 384,-532.5 686,-532.5 686,-502.5 384,-502.5"/>
<text text-anchor="start" x="391" y="-513.9" font-family="Arial" font-size="14.00" fill="#000000">created_at </text>
<text text-anchor="start" x="461.028" y="-513.9" font-family="Arial" font-size="14.00" fill="#666666">[timestamp without time zone]</text>
<polygon fill="none" stroke="#000000" points="384,-472.5 384,-502.5 686,-502.5 686,-472.5 384,-472.5"/>
<text text-anchor="start" x="391" y="-483.9" font-family="Arial" font-size="14.00" fill="#000000">updated_at </text>
<text text-anchor="start" x="464.9326" y="-483.9" font-family="Arial" font-size="14.00" fill="#666666">[timestamp without time zone]</text>
<polygon fill="none" stroke="#000000" stroke-width="3" points="382.5,-471.5 382.5,-749.5 687.5,-749.5 687.5,-471.5 382.5,-471.5"/>
</g>
<!-- public.scenarios -->
<g id="node4" class="node">
<title>public.scenarios</title>
<polygon fill="#efefef" stroke="transparent" points="210,-312.5 210,-347.5 483,-347.5 483,-312.5 210,-312.5"/>
<polygon fill="none" stroke="#000000" points="210,-312.5 210,-347.5 483,-347.5 483,-312.5 210,-312.5"/>
<text text-anchor="start" x="233.3629" y="-325.3" font-family="Arial Bold" font-size="18.00" fill="#000000">public.scenarios</text>
<text text-anchor="start" x="362.3833" y="-325.3" font-family="Arial" font-size="14.00" fill="#000000"> </text>
<text text-anchor="start" x="366.2739" y="-325.3" font-family="Arial" font-size="14.00" fill="#666666">[BASE TABLE]</text>
<polygon fill="none" stroke="#000000" points="210,-282.5 210,-312.5 483,-312.5 483,-282.5 210,-282.5"/>
<text text-anchor="start" x="217" y="-293.9" font-family="Arial" font-size="14.00" fill="#000000">id </text>
<text text-anchor="start" x="231.7798" y="-293.9" font-family="Arial" font-size="14.00" fill="#666666">[uuid]</text>
<polygon fill="none" stroke="#000000" points="210,-252.5 210,-282.5 483,-282.5 483,-252.5 210,-252.5"/>
<text text-anchor="start" x="217" y="-263.9" font-family="Arial" font-size="14.00" fill="#000000">story_id </text>
<text text-anchor="start" x="269.8962" y="-263.9" font-family="Arial" font-size="14.00" fill="#666666">[uuid]</text>
<polygon fill="none" stroke="#000000" points="210,-222.5 210,-252.5 483,-252.5 483,-222.5 210,-222.5"/>
<text text-anchor="start" x="217" y="-233.9" font-family="Arial" font-size="14.00" fill="#000000">role_id </text>
<text text-anchor="start" x="262.8948" y="-233.9" font-family="Arial" font-size="14.00" fill="#666666">[uuid]</text>
<polygon fill="none" stroke="#000000" points="210,-192.5 210,-222.5 483,-222.5 483,-192.5 210,-192.5"/>
<text text-anchor="start" x="217" y="-203.9" font-family="Arial" font-size="14.00" fill="#000000">overview </text>
<text text-anchor="start" x="276.1122" y="-203.9" font-family="Arial" font-size="14.00" fill="#666666">[text]</text>
<polygon fill="none" stroke="#000000" points="210,-162.5 210,-192.5 483,-192.5 483,-162.5 210,-162.5"/>
<text text-anchor="start" x="217" y="-173.9" font-family="Arial" font-size="14.00" fill="#000000">description </text>
<text text-anchor="start" x="288.568" y="-173.9" font-family="Arial" font-size="14.00" fill="#666666">[text]</text>
<polygon fill="none" stroke="#000000" points="210,-132.5 210,-162.5 483,-162.5 483,-132.5 210,-132.5"/>
<text text-anchor="start" x="217" y="-143.9" font-family="Arial" font-size="14.00" fill="#000000">highest_score </text>
<text text-anchor="start" x="308.0266" y="-143.9" font-family="Arial" font-size="14.00" fill="#666666">[integer]</text>
<polygon fill="none" stroke="#000000" points="210,-102.5 210,-132.5 483,-132.5 483,-102.5 210,-102.5"/>
<text text-anchor="start" x="217" y="-113.9" font-family="Arial" font-size="14.00" fill="#000000">result_message </text>
<text text-anchor="start" x="319.6872" y="-113.9" font-family="Arial" font-size="14.00" fill="#666666">[text]</text>
<polygon fill="none" stroke="#000000" points="210,-72.5 210,-102.5 483,-102.5 483,-72.5 210,-72.5"/>
<text text-anchor="start" x="217" y="-83.9" font-family="Arial" font-size="14.00" fill="#000000">created_at </text>
<text text-anchor="start" x="287.028" y="-83.9" font-family="Arial" font-size="14.00" fill="#666666">[timestamp without time zone]</text>
<polygon fill="none" stroke="#000000" points="210,-42.5 210,-72.5 483,-72.5 483,-42.5 210,-42.5"/>
<text text-anchor="start" x="216.9636" y="-53.9" font-family="Arial" font-size="14.00" fill="#000000">updated_at </text>
<text text-anchor="start" x="290.8962" y="-53.9" font-family="Arial" font-size="14.00" fill="#666666">[timestamp without time zone]</text>
</g>
<!-- public.scenario_quizzes&#45;&gt;public.scenarios -->
<g id="edge4" class="edge">
<title>public.scenario_quizzes:scenario_id&#45;&gt;public.scenarios:id</title>
<path fill="none" stroke="#000000" d="M373.8521,-667.0021C280.1544,-657.4152 324.7142,-511.6423 384,-427 410.8598,-388.6522 456.1402,-429.3478 483,-391 506.8403,-356.9632 524.5556,-297.5 483,-297.5"/>
<polygon fill="#000000" stroke="#000000" points="374.012,-667.0099 383.7794,-671.9946 379.006,-667.2549 384,-667.5 384,-667.5 384,-667.5 379.006,-667.2549 384.2206,-663.0054 374.012,-667.0099 374.012,-667.0099"/>
<text text-anchor="start" x="6.7165" y="-677.5" font-family="Arial" font-size="10.00" fill="#000000">FOREIGN KEY (scenario_id) REFERENCES scenarios(id) ON DELETE CASCADE</text>
</g>
<!-- public.quizzes -->
<g id="node5" class="node">
<title>public.quizzes</title>
<polygon fill="#efefef" stroke="transparent" points="587,-252.5 587,-287.5 860,-287.5 860,-252.5 587,-252.5"/>
<polygon fill="none" stroke="#000000" points="587,-252.5 587,-287.5 860,-287.5 860,-252.5 587,-252.5"/>
<text text-anchor="start" x="618.3621" y="-265.3" font-family="Arial Bold" font-size="18.00" fill="#000000">public.quizzes</text>
<text text-anchor="start" x="731.3841" y="-265.3" font-family="Arial" font-size="14.00" fill="#000000"> </text>
<text text-anchor="start" x="735.2747" y="-265.3" font-family="Arial" font-size="14.00" fill="#666666">[BASE TABLE]</text>
<polygon fill="none" stroke="#000000" points="587,-222.5 587,-252.5 860,-252.5 860,-222.5 587,-222.5"/>
<text text-anchor="start" x="594" y="-233.9" font-family="Arial" font-size="14.00" fill="#000000">id </text>
<text text-anchor="start" x="608.7798" y="-233.9" font-family="Arial" font-size="14.00" fill="#666666">[uuid]</text>
<polygon fill="none" stroke="#000000" points="587,-192.5 587,-222.5 860,-222.5 860,-192.5 587,-192.5"/>
<text text-anchor="start" x="594" y="-203.9" font-family="Arial" font-size="14.00" fill="#000000">question </text>
<text text-anchor="start" x="650.8008" y="-203.9" font-family="Arial" font-size="14.00" fill="#666666">[text]</text>
<polygon fill="none" stroke="#000000" points="587,-162.5 587,-192.5 860,-192.5 860,-162.5 587,-162.5"/>
<text text-anchor="start" x="594" y="-173.9" font-family="Arial" font-size="14.00" fill="#000000">failure_message </text>
<text text-anchor="start" x="700.5764" y="-173.9" font-family="Arial" font-size="14.00" fill="#666666">[text]</text>
<polygon fill="none" stroke="#000000" points="587,-132.5 587,-162.5 860,-162.5 860,-132.5 587,-132.5"/>
<text text-anchor="start" x="594" y="-143.9" font-family="Arial" font-size="14.00" fill="#000000">created_at </text>
<text text-anchor="start" x="664.028" y="-143.9" font-family="Arial" font-size="14.00" fill="#666666">[timestamp without time zone]</text>
<polygon fill="none" stroke="#000000" points="587,-102.5 587,-132.5 860,-132.5 860,-102.5 587,-102.5"/>
<text text-anchor="start" x="593.9636" y="-113.9" font-family="Arial" font-size="14.00" fill="#000000">updated_at </text>
<text text-anchor="start" x="667.8962" y="-113.9" font-family="Arial" font-size="14.00" fill="#666666">[timestamp without time zone]</text>
</g>
<!-- public.scenario_quizzes&#45;&gt;public.quizzes -->
<g id="edge5" class="edge">
<title>public.scenario_quizzes:quiz_id&#45;&gt;public.quizzes:id</title>
<path fill="none" stroke="#000000" d="M696.2842,-636.9405C775.1269,-627.8439 721.0415,-509.7907 686,-427 662.1106,-370.5577 610.8894,-387.4423 587,-331 570.8025,-292.7311 545.4444,-237.5 587,-237.5"/>
<polygon fill="#000000" stroke="#000000" points="695.9852,-636.9567 685.7555,-633.0066 690.9926,-637.2283 686,-637.5 686,-637.5 686,-637.5 690.9926,-637.2283 686.2445,-641.9934 695.9852,-636.9567 695.9852,-636.9567"/>
<text text-anchor="start" x="692.884" y="-647.5" font-family="Arial" font-size="10.00" fill="#000000">FOREIGN KEY (quiz_id) REFERENCES quizzes(id) ON DELETE CASCADE</text>
</g>
<!-- public.scenario_quiz_options -->
<g id="node2" class="node">
<title>public.scenario_quiz_options</title>
<polygon fill="#efefef" stroke="transparent" points="364,-1142.5 364,-1177.5 706,-1177.5 706,-1142.5 364,-1142.5"/>
<polygon fill="none" stroke="#000000" points="364,-1142.5 364,-1177.5 706,-1177.5 706,-1142.5 364,-1142.5"/>
<text text-anchor="start" x="370.8428" y="-1155.3" font-family="Arial Bold" font-size="18.00" fill="#000000">public.scenario_quiz_options</text>
<text text-anchor="start" x="601.9034" y="-1155.3" font-family="Arial" font-size="14.00" fill="#000000"> </text>
<text text-anchor="start" x="605.794" y="-1155.3" font-family="Arial" font-size="14.00" fill="#666666">[BASE TABLE]</text>
<polygon fill="none" stroke="#000000" points="364,-1112.5 364,-1142.5 706,-1142.5 706,-1112.5 364,-1112.5"/>
<text text-anchor="start" x="371" y="-1123.9" font-family="Arial" font-size="14.00" fill="#000000">id </text>
<text text-anchor="start" x="385.7798" y="-1123.9" font-family="Arial" font-size="14.00" fill="#666666">[uuid]</text>
<polygon fill="none" stroke="#000000" points="364,-1082.5 364,-1112.5 706,-1112.5 706,-1082.5 364,-1082.5"/>
<text text-anchor="start" x="371" y="-1093.9" font-family="Arial" font-size="14.00" fill="#000000">scenario_quiz_id </text>
<text text-anchor="start" x="479.9144" y="-1093.9" font-family="Arial" font-size="14.00" fill="#666666">[uuid]</text>
<polygon fill="none" stroke="#000000" points="364,-1052.5 364,-1082.5 706,-1082.5 706,-1052.5 364,-1052.5"/>
<text text-anchor="start" x="371" y="-1063.9" font-family="Arial" font-size="14.00" fill="#000000">quiz_option_id </text>
<text text-anchor="start" x="465.1444" y="-1063.9" font-family="Arial" font-size="14.00" fill="#666666">[uuid]</text>
<polygon fill="none" stroke="#000000" points="364,-1022.5 364,-1052.5 706,-1052.5 706,-1022.5 364,-1022.5"/>
<text text-anchor="start" x="371" y="-1033.9" font-family="Arial" font-size="14.00" fill="#000000">answer </text>
<text text-anchor="start" x="420.0056" y="-1033.9" font-family="Arial" font-size="14.00" fill="#666666">[varchar(255)]</text>
<polygon fill="none" stroke="#000000" points="364,-992.5 364,-1022.5 706,-1022.5 706,-992.5 364,-992.5"/>
<text text-anchor="start" x="371" y="-1003.9" font-family="Arial" font-size="14.00" fill="#000000">score </text>
<text text-anchor="start" x="409.1164" y="-1003.9" font-family="Arial" font-size="14.00" fill="#666666">[integer]</text>
<polygon fill="none" stroke="#000000" points="364,-962.5 364,-992.5 706,-992.5 706,-962.5 364,-962.5"/>
<text text-anchor="start" x="371" y="-973.9" font-family="Arial" font-size="14.00" fill="#000000">next_scenario_quiz_id </text>
<text text-anchor="start" x="514.1528" y="-973.9" font-family="Arial" font-size="14.00" fill="#666666">[uuid]</text>
<polygon fill="none" stroke="#000000" points="364,-932.5 364,-962.5 706,-962.5 706,-932.5 364,-932.5"/>
<text text-anchor="start" x="371" y="-943.9" font-family="Arial" font-size="14.00" fill="#000000">status </text>
<text text-anchor="start" x="412.237" y="-943.9" font-family="Arial" font-size="14.00" fill="#666666">[integer]</text>
<polygon fill="none" stroke="#000000" points="364,-902.5 364,-932.5 706,-932.5 706,-902.5 364,-902.5"/>
<text text-anchor="start" x="371" y="-913.9" font-family="Arial" font-size="14.00" fill="#000000">created_at </text>
<text text-anchor="start" x="441.028" y="-913.9" font-family="Arial" font-size="14.00" fill="#666666">[timestamp without time zone]</text>
<polygon fill="none" stroke="#000000" points="364,-872.5 364,-902.5 706,-902.5 706,-872.5 364,-872.5"/>
<text text-anchor="start" x="371" y="-883.9" font-family="Arial" font-size="14.00" fill="#000000">updated_at </text>
<text text-anchor="start" x="444.9326" y="-883.9" font-family="Arial" font-size="14.00" fill="#666666">[timestamp without time zone]</text>
</g>
<!-- public.scenario_quiz_options&#45;&gt;public.scenario_quizzes -->
<g id="edge1" class="edge">
<title>public.scenario_quiz_options:next_scenario_quiz_id&#45;&gt;public.scenario_quizzes:id</title>
<path fill="none" stroke="#000000" d="M715.8143,-974.9069C765.9792,-946.6795 744.8475,-697.5 686,-697.5"/>
<polygon fill="#000000" stroke="#000000" points="715.6682,-974.9454 704.8504,-973.1493 710.8341,-976.2227 706,-977.5 706,-977.5 706,-977.5 710.8341,-976.2227 707.1496,-981.8507 715.6682,-974.9454 715.6682,-974.9454"/>
<text text-anchor="start" x="246.313" y="-987.5" font-family="Arial" font-size="10.00" fill="#000000">FOREIGN KEY (next_scenario_quiz_id) REFERENCES scenario_quizzes(id) ON DELETE CASCADE</text>
</g>
<!-- public.scenario_quiz_options&#45;&gt;public.scenario_quizzes -->
<g id="edge2" class="edge">
<title>public.scenario_quiz_options:scenario_quiz_id&#45;&gt;public.scenario_quizzes:id</title>
<path fill="none" stroke="#000000" d="M714.444,-1091.8455C747.5663,-1043.2275 727.3711,-697.5 686,-697.5"/>
<polygon fill="#000000" stroke="#000000" points="714.3091,-1091.9358 703.4961,-1093.7609 710.1545,-1094.7179 706,-1097.5 706,-1097.5 706,-1097.5 710.1545,-1094.7179 708.5039,-1101.2391 714.3091,-1091.9358 714.3091,-1091.9358"/>
<text text-anchor="start" x="270.541" y="-1107.5" font-family="Arial" font-size="10.00" fill="#000000">FOREIGN KEY (scenario_quiz_id) REFERENCES scenario_quizzes(id) ON DELETE CASCADE</text>
</g>
<!-- public.user_quiz_histories -->
<g id="node3" class="node">
<title>public.user_quiz_histories</title>
<polygon fill="#efefef" stroke="transparent" points="810,-1142.5 810,-1177.5 1128,-1177.5 1128,-1142.5 810,-1142.5"/>
<polygon fill="none" stroke="#000000" points="810,-1142.5 810,-1177.5 1128,-1177.5 1128,-1142.5 810,-1142.5"/>
<text text-anchor="start" x="816.856" y="-1155.3" font-family="Arial Bold" font-size="18.00" fill="#000000">public.user_quiz_histories</text>
<text text-anchor="start" x="1023.8902" y="-1155.3" font-family="Arial" font-size="14.00" fill="#000000"> </text>
<text text-anchor="start" x="1027.7808" y="-1155.3" font-family="Arial" font-size="14.00" fill="#666666">[BASE TABLE]</text>
<polygon fill="none" stroke="#000000" points="810,-1112.5 810,-1142.5 1128,-1142.5 1128,-1112.5 810,-1112.5"/>
<text text-anchor="start" x="817" y="-1123.9" font-family="Arial" font-size="14.00" fill="#000000">id </text>
<text text-anchor="start" x="831.7798" y="-1123.9" font-family="Arial" font-size="14.00" fill="#666666">[uuid]</text>
<polygon fill="none" stroke="#000000" points="810,-1082.5 810,-1112.5 1128,-1112.5 1128,-1082.5 810,-1082.5"/>
<text text-anchor="start" x="817" y="-1093.9" font-family="Arial" font-size="14.00" fill="#000000">user_scenario_history_id </text>
<text text-anchor="start" x="976.474" y="-1093.9" font-family="Arial" font-size="14.00" fill="#666666">[uuid]</text>
<polygon fill="none" stroke="#000000" points="810,-1052.5 810,-1082.5 1128,-1082.5 1128,-1052.5 810,-1052.5"/>
<text text-anchor="start" x="817" y="-1063.9" font-family="Arial" font-size="14.00" fill="#000000">user_id </text>
<text text-anchor="start" x="866.7882" y="-1063.9" font-family="Arial" font-size="14.00" fill="#666666">[uuid]</text>
<polygon fill="none" stroke="#000000" points="810,-1022.5 810,-1052.5 1128,-1052.5 1128,-1022.5 810,-1022.5"/>
<text text-anchor="start" x="817" y="-1033.9" font-family="Arial" font-size="14.00" fill="#000000">scenario_id </text>
<text text-anchor="start" x="892.46" y="-1033.9" font-family="Arial" font-size="14.00" fill="#666666">[uuid]</text>
<polygon fill="none" stroke="#000000" points="810,-992.5 810,-1022.5 1128,-1022.5 1128,-992.5 810,-992.5"/>
<text text-anchor="start" x="817" y="-1003.9" font-family="Arial" font-size="14.00" fill="#000000">scenario_quiz_id </text>
<text text-anchor="start" x="925.9144" y="-1003.9" font-family="Arial" font-size="14.00" fill="#666666">[uuid]</text>
<polygon fill="none" stroke="#000000" points="810,-962.5 810,-992.5 1128,-992.5 1128,-962.5 810,-962.5"/>
<text text-anchor="start" x="817" y="-973.9" font-family="Arial" font-size="14.00" fill="#000000">scenario_quiz_option_id </text>
<text text-anchor="start" x="971.8246" y="-973.9" font-family="Arial" font-size="14.00" fill="#666666">[uuid]</text>
<polygon fill="none" stroke="#000000" points="810,-932.5 810,-962.5 1128,-962.5 1128,-932.5 810,-932.5"/>
<text text-anchor="start" x="817" y="-943.9" font-family="Arial" font-size="14.00" fill="#000000">score </text>
<text text-anchor="start" x="855.1164" y="-943.9" font-family="Arial" font-size="14.00" fill="#666666">[integer]</text>
<polygon fill="none" stroke="#000000" points="810,-902.5 810,-932.5 1128,-932.5 1128,-902.5 810,-902.5"/>
<text text-anchor="start" x="817" y="-913.9" font-family="Arial" font-size="14.00" fill="#000000">created_at </text>
<text text-anchor="start" x="887.028" y="-913.9" font-family="Arial" font-size="14.00" fill="#666666">[timestamp without time zone]</text>
<polygon fill="none" stroke="#000000" points="810,-872.5 810,-902.5 1128,-902.5 1128,-872.5 810,-872.5"/>
<text text-anchor="start" x="817" y="-883.9" font-family="Arial" font-size="14.00" fill="#000000">updated_at </text>
<text text-anchor="start" x="890.9326" y="-883.9" font-family="Arial" font-size="14.00" fill="#666666">[timestamp without time zone]</text>
</g>
<!-- public.user_quiz_histories&#45;&gt;public.scenario_quizzes -->
<g id="edge3" class="edge">
<title>public.user_quiz_histories:scenario_quiz_id&#45;&gt;public.scenario_quizzes:id</title>
<path fill="none" stroke="#000000" d="M799.7706,-1006.897C733.1389,-998.4314 787.9488,-902.5752 758,-830 732.4342,-768.0461 753.0216,-697.5 686,-697.5"/>
<polygon fill="#000000" stroke="#000000" points="800.0173,-1006.9114 809.7351,-1011.9922 805.0087,-1007.2057 810,-1007.5 810,-1007.5 810,-1007.5 805.0087,-1007.2057 810.2649,-1003.0078 800.0173,-1006.9114 800.0173,-1006.9114"/>
<text text-anchor="start" x="816.541" y="-1017.5" font-family="Arial" font-size="10.00" fill="#000000">FOREIGN KEY (scenario_quiz_id) REFERENCES scenario_quizzes(id) ON DELETE CASCADE</text>
</g>
</g>
</svg>
