<?xml version="1.0" encoding="UTF-8" standalone="no"?>
<!DOCTYPE svg PUBLIC "-//W3C//DTD SVG 1.1//EN"
 "http://www.w3.org/Graphics/SVG/1.1/DTD/svg11.dtd">
<!-- Generated by graphviz version 2.40.1 (20161225.0304)
 -->
<!-- Title: public.user_scenario_histories Pages: 1 -->
<svg width="1273pt" height="1169pt"
 viewBox="0.00 0.00 1273.00 1169.00" xmlns="http://www.w3.org/2000/svg" xmlns:xlink="http://www.w3.org/1999/xlink">
<g id="graph0" class="graph" transform="scale(1 1) rotate(0) translate(4 1165)">
<title>public.user_scenario_histories</title>
<polygon fill="#ffffff" stroke="transparent" points="-4,4 -4,-1165 1269,-1165 1269,4 -4,4"/>
<!-- public.user_scenario_histories -->
<g id="node1" class="node">
<title>public.user_scenario_histories</title>
<polygon fill="#efefef" stroke="transparent" points="528,-652.5 528,-687.5 881,-687.5 881,-652.5 528,-652.5"/>
<polygon fill="none" stroke="#000000" points="528,-652.5 528,-687.5 881,-687.5 881,-652.5 528,-652.5"/>
<text text-anchor="start" x="534.8537" y="-665.3" font-family="Arial Bold" font-size="18.00" fill="#000000">public.user_scenario_histories</text>
<text text-anchor="start" x="776.8925" y="-665.3" font-family="Arial" font-size="14.00" fill="#000000"> </text>
<text text-anchor="start" x="780.7831" y="-665.3" font-family="Arial" font-size="14.00" fill="#666666">[BASE TABLE]</text>
<polygon fill="none" stroke="#000000" points="528,-622.5 528,-652.5 881,-652.5 881,-622.5 528,-622.5"/>
<text text-anchor="start" x="535" y="-633.9" font-family="Arial" font-size="14.00" fill="#000000">id </text>
<text text-anchor="start" x="549.7798" y="-633.9" font-family="Arial" font-size="14.00" fill="#666666">[uuid]</text>
<polygon fill="none" stroke="#000000" points="528,-592.5 528,-622.5 881,-622.5 881,-592.5 528,-592.5"/>
<text text-anchor="start" x="535" y="-603.9" font-family="Arial" font-size="14.00" fill="#000000">user_id </text>
<text text-anchor="start" x="584.7882" y="-603.9" font-family="Arial" font-size="14.00" fill="#666666">[uuid]</text>
<polygon fill="none" stroke="#000000" points="528,-562.5 528,-592.5 881,-592.5 881,-562.5 528,-562.5"/>
<text text-anchor="start" x="535" y="-573.9" font-family="Arial" font-size="14.00" fill="#000000">scenario_id </text>
<text text-anchor="start" x="610.46" y="-573.9" font-family="Arial" font-size="14.00" fill="#666666">[uuid]</text>
<polygon fill="none" stroke="#000000" points="528,-532.5 528,-562.5 881,-562.5 881,-532.5 528,-532.5"/>
<text text-anchor="start" x="535" y="-543.9" font-family="Arial" font-size="14.00" fill="#000000">total_score </text>
<text text-anchor="start" x="607.352" y="-543.9" font-family="Arial" font-size="14.00" fill="#666666">[integer]</text>
<polygon fill="none" stroke="#000000" points="528,-502.5 528,-532.5 881,-532.5 881,-502.5 528,-502.5"/>
<text text-anchor="start" x="535" y="-513.9" font-family="Arial" font-size="14.00" fill="#000000">created_at </text>
<text text-anchor="start" x="605.028" y="-513.9" font-family="Arial" font-size="14.00" fill="#666666">[timestamp without time zone]</text>
<polygon fill="none" stroke="#000000" points="528,-472.5 528,-502.5 881,-502.5 881,-472.5 528,-472.5"/>
<text text-anchor="start" x="535" y="-483.9" font-family="Arial" font-size="14.00" fill="#000000">updated_at </text>
<text text-anchor="start" x="608.9326" y="-483.9" font-family="Arial" font-size="14.00" fill="#666666">[timestamp without time zone]</text>
<polygon fill="none" stroke="#000000" stroke-width="3" points="526,-471.5 526,-689.5 882,-689.5 882,-471.5 526,-471.5"/>
</g>
<!-- public.users -->
<g id="node3" class="node">
<title>public.users</title>
<polygon fill="#efefef" stroke="transparent" points="380,-282.5 380,-317.5 653,-317.5 653,-282.5 380,-282.5"/>
<polygon fill="none" stroke="#000000" points="380,-282.5 380,-317.5 653,-317.5 653,-282.5 380,-282.5"/>
<text text-anchor="start" x="419.8662" y="-295.3" font-family="Arial Bold" font-size="18.00" fill="#000000">public.users</text>
<text text-anchor="start" x="515.88" y="-295.3" font-family="Arial" font-size="14.00" fill="#000000"> </text>
<text text-anchor="start" x="519.7706" y="-295.3" font-family="Arial" font-size="14.00" fill="#666666">[BASE TABLE]</text>
<polygon fill="none" stroke="#000000" points="380,-252.5 380,-282.5 653,-282.5 653,-252.5 380,-252.5"/>
<text text-anchor="start" x="387" y="-263.9" font-family="Arial" font-size="14.00" fill="#000000">id </text>
<text text-anchor="start" x="401.7798" y="-263.9" font-family="Arial" font-size="14.00" fill="#666666">[uuid]</text>
<polygon fill="none" stroke="#000000" points="380,-222.5 380,-252.5 653,-252.5 653,-222.5 380,-222.5"/>
<text text-anchor="start" x="387" y="-233.9" font-family="Arial" font-size="14.00" fill="#000000">organization_id </text>
<text text-anchor="start" x="485.805" y="-233.9" font-family="Arial" font-size="14.00" fill="#666666">[uuid]</text>
<polygon fill="none" stroke="#000000" points="380,-192.5 380,-222.5 653,-222.5 653,-192.5 380,-192.5"/>
<text text-anchor="start" x="387" y="-203.9" font-family="Arial" font-size="14.00" fill="#000000">nickname </text>
<text text-anchor="start" x="450.7882" y="-203.9" font-family="Arial" font-size="14.00" fill="#666666">[varchar(20)]</text>
<polygon fill="none" stroke="#000000" points="380,-162.5 380,-192.5 653,-192.5 653,-162.5 380,-162.5"/>
<text text-anchor="start" x="387" y="-173.9" font-family="Arial" font-size="14.00" fill="#000000">email </text>
<text text-anchor="start" x="424.3296" y="-173.9" font-family="Arial" font-size="14.00" fill="#666666">[varchar(255)]</text>
<polygon fill="none" stroke="#000000" points="380,-132.5 380,-162.5 653,-162.5 653,-132.5 380,-132.5"/>
<text text-anchor="start" x="387" y="-143.9" font-family="Arial" font-size="14.00" fill="#000000">password_hash </text>
<text text-anchor="start" x="488.9186" y="-143.9" font-family="Arial" font-size="14.00" fill="#666666">[text]</text>
<polygon fill="none" stroke="#000000" points="380,-102.5 380,-132.5 653,-132.5 653,-102.5 380,-102.5"/>
<text text-anchor="start" x="387" y="-113.9" font-family="Arial" font-size="14.00" fill="#000000">created_at </text>
<text text-anchor="start" x="457.028" y="-113.9" font-family="Arial" font-size="14.00" fill="#666666">[timestamp without time zone]</text>
<polygon fill="none" stroke="#000000" points="380,-72.5 380,-102.5 653,-102.5 653,-72.5 380,-72.5"/>
<text text-anchor="start" x="386.9636" y="-83.9" font-family="Arial" font-size="14.00" fill="#000000">updated_at </text>
<text text-anchor="start" x="460.8962" y="-83.9" font-family="Arial" font-size="14.00" fill="#666666">[timestamp without time zone]</text>
</g>
<!-- public.user_scenario_histories&#45;&gt;public.users -->
<g id="edge2" class="edge">
<title>public.user_scenario_histories:user_id&#45;&gt;public.users:id</title>
<path fill="none" stroke="#000000" d="M517.8988,-606.8372C451.2695,-597.5428 488.4435,-492.6176 528,-427 560.4347,-373.1962 620.5653,-414.8038 653,-361 674.4543,-325.411 694.5556,-267.5 653,-267.5"/>
<polygon fill="#000000" stroke="#000000" points="518.0215,-606.8452 527.7053,-611.9903 523.0107,-607.1726 528,-607.5 528,-607.5 528,-607.5 523.0107,-607.1726 528.2947,-603.0097 518.0215,-606.8452 518.0215,-606.8452"/>
<text text-anchor="start" x="188.0535" y="-617.5" font-family="Arial" font-size="10.00" fill="#000000">FOREIGN KEY (user_id) REFERENCES users(id) ON DELETE CASCADE</text>
</g>
<!-- public.scenarios -->
<g id="node4" class="node">
<title>public.scenarios</title>
<polygon fill="#efefef" stroke="transparent" points="757,-312.5 757,-347.5 1030,-347.5 1030,-312.5 757,-312.5"/>
<polygon fill="none" stroke="#000000" points="757,-312.5 757,-347.5 1030,-347.5 1030,-312.5 757,-312.5"/>
<text text-anchor="start" x="780.3629" y="-325.3" font-family="Arial Bold" font-size="18.00" fill="#000000">public.scenarios</text>
<text text-anchor="start" x="909.3833" y="-325.3" font-family="Arial" font-size="14.00" fill="#000000"> </text>
<text text-anchor="start" x="913.2739" y="-325.3" font-family="Arial" font-size="14.00" fill="#666666">[BASE TABLE]</text>
<polygon fill="none" stroke="#000000" points="757,-282.5 757,-312.5 1030,-312.5 1030,-282.5 757,-282.5"/>
<text text-anchor="start" x="764" y="-293.9" font-family="Arial" font-size="14.00" fill="#000000">id </text>
<text text-anchor="start" x="778.7798" y="-293.9" font-family="Arial" font-size="14.00" fill="#666666">[uuid]</text>
<polygon fill="none" stroke="#000000" points="757,-252.5 757,-282.5 1030,-282.5 1030,-252.5 757,-252.5"/>
<text text-anchor="start" x="764" y="-263.9" font-family="Arial" font-size="14.00" fill="#000000">story_id </text>
<text text-anchor="start" x="816.8962" y="-263.9" font-family="Arial" font-size="14.00" fill="#666666">[uuid]</text>
<polygon fill="none" stroke="#000000" points="757,-222.5 757,-252.5 1030,-252.5 1030,-222.5 757,-222.5"/>
<text text-anchor="start" x="764" y="-233.9" font-family="Arial" font-size="14.00" fill="#000000">role_id </text>
<text text-anchor="start" x="809.8948" y="-233.9" font-family="Arial" font-size="14.00" fill="#666666">[uuid]</text>
<polygon fill="none" stroke="#000000" points="757,-192.5 757,-222.5 1030,-222.5 1030,-192.5 757,-192.5"/>
<text text-anchor="start" x="764" y="-203.9" font-family="Arial" font-size="14.00" fill="#000000">overview </text>
<text text-anchor="start" x="823.1122" y="-203.9" font-family="Arial" font-size="14.00" fill="#666666">[text]</text>
<polygon fill="none" stroke="#000000" points="757,-162.5 757,-192.5 1030,-192.5 1030,-162.5 757,-162.5"/>
<text text-anchor="start" x="764" y="-173.9" font-family="Arial" font-size="14.00" fill="#000000">description </text>
<text text-anchor="start" x="835.568" y="-173.9" font-family="Arial" font-size="14.00" fill="#666666">[text]</text>
<polygon fill="none" stroke="#000000" points="757,-132.5 757,-162.5 1030,-162.5 1030,-132.5 757,-132.5"/>
<text text-anchor="start" x="764" y="-143.9" font-family="Arial" font-size="14.00" fill="#000000">highest_score </text>
<text text-anchor="start" x="855.0266" y="-143.9" font-family="Arial" font-size="14.00" fill="#666666">[integer]</text>
<polygon fill="none" stroke="#000000" points="757,-102.5 757,-132.5 1030,-132.5 1030,-102.5 757,-102.5"/>
<text text-anchor="start" x="764" y="-113.9" font-family="Arial" font-size="14.00" fill="#000000">result_message </text>
<text text-anchor="start" x="866.6872" y="-113.9" font-family="Arial" font-size="14.00" fill="#666666">[text]</text>
<polygon fill="none" stroke="#000000" points="757,-72.5 757,-102.5 1030,-102.5 1030,-72.5 757,-72.5"/>
<text text-anchor="start" x="764" y="-83.9" font-family="Arial" font-size="14.00" fill="#000000">created_at </text>
<text text-anchor="start" x="834.028" y="-83.9" font-family="Arial" font-size="14.00" fill="#666666">[timestamp without time zone]</text>
<polygon fill="none" stroke="#000000" points="757,-42.5 757,-72.5 1030,-72.5 1030,-42.5 757,-42.5"/>
<text text-anchor="start" x="763.9636" y="-53.9" font-family="Arial" font-size="14.00" fill="#000000">updated_at </text>
<text text-anchor="start" x="837.8962" y="-53.9" font-family="Arial" font-size="14.00" fill="#666666">[timestamp without time zone]</text>
</g>
<!-- public.user_scenario_histories&#45;&gt;public.scenarios -->
<g id="edge3" class="edge">
<title>public.user_scenario_histories:scenario_id&#45;&gt;public.scenarios:id</title>
<path fill="none" stroke="#000000" d="M891.1472,-576.6526C944.9259,-567.0193 918.9699,-477.5612 881,-427 846.5395,-381.112 791.4605,-436.888 757,-391 732.0461,-357.771 715.4444,-297.5 757,-297.5"/>
<polygon fill="#000000" stroke="#000000" points="890.9653,-576.6677 880.6254,-573.0156 885.9827,-577.0838 881,-577.5 881,-577.5 881,-577.5 885.9827,-577.0838 881.3746,-581.9844 890.9653,-576.6677 890.9653,-576.6677"/>
<text text-anchor="start" x="887.7165" y="-587.5" font-family="Arial" font-size="10.00" fill="#000000">FOREIGN KEY (scenario_id) REFERENCES scenarios(id) ON DELETE CASCADE</text>
</g>
<!-- public.user_scenario_quiz_histories -->
<g id="node2" class="node">
<title>public.user_scenario_quiz_histories</title>
<polygon fill="#efefef" stroke="transparent" points="507,-1082.5 507,-1117.5 903,-1117.5 903,-1082.5 507,-1082.5"/>
<polygon fill="none" stroke="#000000" points="507,-1082.5 507,-1117.5 903,-1117.5 903,-1082.5 507,-1082.5"/>
<text text-anchor="start" x="513.8473" y="-1095.3" font-family="Arial Bold" font-size="18.00" fill="#000000">public.user_scenario_quiz_histories</text>
<text text-anchor="start" x="798.8989" y="-1095.3" font-family="Arial" font-size="14.00" fill="#000000"> </text>
<text text-anchor="start" x="802.7895" y="-1095.3" font-family="Arial" font-size="14.00" fill="#666666">[BASE TABLE]</text>
<polygon fill="none" stroke="#000000" points="507,-1052.5 507,-1082.5 903,-1082.5 903,-1052.5 507,-1052.5"/>
<text text-anchor="start" x="514" y="-1063.9" font-family="Arial" font-size="14.00" fill="#000000">id </text>
<text text-anchor="start" x="528.7798" y="-1063.9" font-family="Arial" font-size="14.00" fill="#666666">[uuid]</text>
<polygon fill="none" stroke="#000000" points="507,-1022.5 507,-1052.5 903,-1052.5 903,-1022.5 507,-1022.5"/>
<text text-anchor="start" x="514" y="-1033.9" font-family="Arial" font-size="14.00" fill="#000000">user_scenario_history_id </text>
<text text-anchor="start" x="673.474" y="-1033.9" font-family="Arial" font-size="14.00" fill="#666666">[uuid]</text>
<polygon fill="none" stroke="#000000" points="507,-992.5 507,-1022.5 903,-1022.5 903,-992.5 507,-992.5"/>
<text text-anchor="start" x="514" y="-1003.9" font-family="Arial" font-size="14.00" fill="#000000">user_id </text>
<text text-anchor="start" x="563.7882" y="-1003.9" font-family="Arial" font-size="14.00" fill="#666666">[uuid]</text>
<polygon fill="none" stroke="#000000" points="507,-962.5 507,-992.5 903,-992.5 903,-962.5 507,-962.5"/>
<text text-anchor="start" x="514" y="-973.9" font-family="Arial" font-size="14.00" fill="#000000">scenario_id </text>
<text text-anchor="start" x="589.46" y="-973.9" font-family="Arial" font-size="14.00" fill="#666666">[uuid]</text>
<polygon fill="none" stroke="#000000" points="507,-932.5 507,-962.5 903,-962.5 903,-932.5 507,-932.5"/>
<text text-anchor="start" x="514" y="-943.9" font-family="Arial" font-size="14.00" fill="#000000">quiz_id </text>
<text text-anchor="start" x="562.2342" y="-943.9" font-family="Arial" font-size="14.00" fill="#666666">[uuid]</text>
<polygon fill="none" stroke="#000000" points="507,-902.5 507,-932.5 903,-932.5 903,-902.5 507,-902.5"/>
<text text-anchor="start" x="514" y="-913.9" font-family="Arial" font-size="14.00" fill="#000000">quiz_option_id </text>
<text text-anchor="start" x="608.1444" y="-913.9" font-family="Arial" font-size="14.00" fill="#666666">[uuid]</text>
<polygon fill="none" stroke="#000000" points="507,-872.5 507,-902.5 903,-902.5 903,-872.5 507,-872.5"/>
<text text-anchor="start" x="514" y="-883.9" font-family="Arial" font-size="14.00" fill="#000000">score </text>
<text text-anchor="start" x="552.1164" y="-883.9" font-family="Arial" font-size="14.00" fill="#666666">[integer]</text>
<polygon fill="none" stroke="#000000" points="507,-842.5 507,-872.5 903,-872.5 903,-842.5 507,-842.5"/>
<text text-anchor="start" x="514" y="-853.9" font-family="Arial" font-size="14.00" fill="#000000">created_at </text>
<text text-anchor="start" x="584.028" y="-853.9" font-family="Arial" font-size="14.00" fill="#666666">[timestamp without time zone]</text>
<polygon fill="none" stroke="#000000" points="507,-812.5 507,-842.5 903,-842.5 903,-812.5 507,-812.5"/>
<text text-anchor="start" x="514" y="-823.9" font-family="Arial" font-size="14.00" fill="#000000">updated_at </text>
<text text-anchor="start" x="587.9326" y="-823.9" font-family="Arial" font-size="14.00" fill="#666666">[timestamp without time zone]</text>
</g>
<!-- public.user_scenario_quiz_histories&#45;&gt;public.user_scenario_histories -->
<g id="edge1" class="edge">
<title>public.user_scenario_quiz_histories:user_scenario_history_id&#45;&gt;public.user_scenario_histories:id</title>
<path fill="none" stroke="#000000" d="M496.9543,-1037.0446C390.4285,-1027.0611 429.4036,-855.4242 507,-770 563.1404,-708.1962 824.8596,-795.8038 881,-734 909.8376,-702.2533 923.8889,-637.5 881,-637.5"/>
<polygon fill="#000000" stroke="#000000" points="497.0103,-1037.0471 506.7962,-1041.9954 502.0051,-1037.2735 507,-1037.5 507,-1037.5 507,-1037.5 502.0051,-1037.2735 507.2038,-1033.0046 497.0103,-1037.0471 497.0103,-1037.0471"/>
<text text-anchor="start" x="7.3175" y="-1047.5" font-family="Arial" font-size="10.00" fill="#000000">FOREIGN KEY (user_scenario_history_id) REFERENCES user_scenario_histories(id) ON DELETE CASCADE</text>
</g>
</g>
</svg>
