<?xml version="1.0" encoding="UTF-8" standalone="no"?>
<!DOCTYPE svg PUBLIC "-//W3C//DTD SVG 1.1//EN"
 "http://www.w3.org/Graphics/SVG/1.1/DTD/svg11.dtd">
<!-- Generated by graphviz version 2.40.1 (20161225.0304)
 -->
<!-- Title: public.quiz_options Pages: 1 -->
<svg width="804pt" height="1019pt"
 viewBox="0.00 0.00 804.00 1019.00" xmlns="http://www.w3.org/2000/svg" xmlns:xlink="http://www.w3.org/1999/xlink">
<g id="graph0" class="graph" transform="scale(1 1) rotate(0) translate(4 1015)">
<title>public.quiz_options</title>
<polygon fill="#ffffff" stroke="transparent" points="-4,4 -4,-1015 800,-1015 800,4 -4,4"/>
<!-- public.quiz_options -->
<g id="node1" class="node">
<title>public.quiz_options</title>
<polygon fill="#efefef" stroke="transparent" points="445,-502.5 445,-537.5 718,-537.5 718,-502.5 445,-502.5"/>
<polygon fill="none" stroke="#000000" points="445,-502.5 445,-537.5 718,-537.5 718,-502.5 445,-502.5"/>
<text text-anchor="start" x="456.3515" y="-515.3" font-family="Arial Bold" font-size="18.00" fill="#000000">public.quiz_options</text>
<text text-anchor="start" x="609.3947" y="-515.3" font-family="Arial" font-size="14.00" fill="#000000"> </text>
<text text-anchor="start" x="613.2853" y="-515.3" font-family="Arial" font-size="14.00" fill="#666666">[BASE TABLE]</text>
<polygon fill="none" stroke="#000000" points="445,-472.5 445,-502.5 718,-502.5 718,-472.5 445,-472.5"/>
<text text-anchor="start" x="452" y="-483.9" font-family="Arial" font-size="14.00" fill="#000000">id </text>
<text text-anchor="start" x="466.7798" y="-483.9" font-family="Arial" font-size="14.00" fill="#666666">[uuid]</text>
<polygon fill="none" stroke="#000000" points="445,-442.5 445,-472.5 718,-472.5 718,-442.5 445,-442.5"/>
<text text-anchor="start" x="452" y="-453.9" font-family="Arial" font-size="14.00" fill="#000000">quiz_id </text>
<text text-anchor="start" x="500.2342" y="-453.9" font-family="Arial" font-size="14.00" fill="#666666">[uuid]</text>
<polygon fill="none" stroke="#000000" points="445,-412.5 445,-442.5 718,-442.5 718,-412.5 445,-412.5"/>
<text text-anchor="start" x="452" y="-423.9" font-family="Arial" font-size="14.00" fill="#000000">answer </text>
<text text-anchor="start" x="501.0056" y="-423.9" font-family="Arial" font-size="14.00" fill="#666666">[varchar(255)]</text>
<polygon fill="none" stroke="#000000" points="445,-382.5 445,-412.5 718,-412.5 718,-382.5 445,-382.5"/>
<text text-anchor="start" x="452" y="-393.9" font-family="Arial" font-size="14.00" fill="#000000">created_at </text>
<text text-anchor="start" x="522.028" y="-393.9" font-family="Arial" font-size="14.00" fill="#666666">[timestamp without time zone]</text>
<polygon fill="none" stroke="#000000" points="445,-352.5 445,-382.5 718,-382.5 718,-352.5 445,-352.5"/>
<text text-anchor="start" x="451.9636" y="-363.9" font-family="Arial" font-size="14.00" fill="#000000">updated_at </text>
<text text-anchor="start" x="525.8962" y="-363.9" font-family="Arial" font-size="14.00" fill="#666666">[timestamp without time zone]</text>
<polygon fill="none" stroke="#000000" stroke-width="3" points="443,-351.5 443,-539.5 719,-539.5 719,-351.5 443,-351.5"/>
</g>
<!-- public.quizzes -->
<g id="node3" class="node">
<title>public.quizzes</title>
<polygon fill="#efefef" stroke="transparent" points="445,-192.5 445,-227.5 718,-227.5 718,-192.5 445,-192.5"/>
<polygon fill="none" stroke="#000000" points="445,-192.5 445,-227.5 718,-227.5 718,-192.5 445,-192.5"/>
<text text-anchor="start" x="476.3621" y="-205.3" font-family="Arial Bold" font-size="18.00" fill="#000000">public.quizzes</text>
<text text-anchor="start" x="589.3841" y="-205.3" font-family="Arial" font-size="14.00" fill="#000000"> </text>
<text text-anchor="start" x="593.2747" y="-205.3" font-family="Arial" font-size="14.00" fill="#666666">[BASE TABLE]</text>
<polygon fill="none" stroke="#000000" points="445,-162.5 445,-192.5 718,-192.5 718,-162.5 445,-162.5"/>
<text text-anchor="start" x="452" y="-173.9" font-family="Arial" font-size="14.00" fill="#000000">id </text>
<text text-anchor="start" x="466.7798" y="-173.9" font-family="Arial" font-size="14.00" fill="#666666">[uuid]</text>
<polygon fill="none" stroke="#000000" points="445,-132.5 445,-162.5 718,-162.5 718,-132.5 445,-132.5"/>
<text text-anchor="start" x="452" y="-143.9" font-family="Arial" font-size="14.00" fill="#000000">question </text>
<text text-anchor="start" x="508.8008" y="-143.9" font-family="Arial" font-size="14.00" fill="#666666">[text]</text>
<polygon fill="none" stroke="#000000" points="445,-102.5 445,-132.5 718,-132.5 718,-102.5 445,-102.5"/>
<text text-anchor="start" x="452" y="-113.9" font-family="Arial" font-size="14.00" fill="#000000">failure_message </text>
<text text-anchor="start" x="558.5764" y="-113.9" font-family="Arial" font-size="14.00" fill="#666666">[text]</text>
<polygon fill="none" stroke="#000000" points="445,-72.5 445,-102.5 718,-102.5 718,-72.5 445,-72.5"/>
<text text-anchor="start" x="452" y="-83.9" font-family="Arial" font-size="14.00" fill="#000000">created_at </text>
<text text-anchor="start" x="522.028" y="-83.9" font-family="Arial" font-size="14.00" fill="#666666">[timestamp without time zone]</text>
<polygon fill="none" stroke="#000000" points="445,-42.5 445,-72.5 718,-72.5 718,-42.5 445,-42.5"/>
<text text-anchor="start" x="451.9636" y="-53.9" font-family="Arial" font-size="14.00" fill="#000000">updated_at </text>
<text text-anchor="start" x="525.8962" y="-53.9" font-family="Arial" font-size="14.00" fill="#666666">[timestamp without time zone]</text>
</g>
<!-- public.quiz_options&#45;&gt;public.quizzes -->
<g id="edge2" class="edge">
<title>public.quiz_options:quiz_id&#45;&gt;public.quizzes:id</title>
<path fill="none" stroke="#000000" d="M434.7265,-456.839C320.6554,-441.8652 324.0799,-177.5 445,-177.5"/>
<polygon fill="#000000" stroke="#000000" points="435.0206,-456.8578 444.711,-461.9907 440.0103,-457.1789 445,-457.5 445,-457.5 445,-457.5 440.0103,-457.1789 445.289,-453.0093 435.0206,-456.8578 435.0206,-456.8578"/>
<text text-anchor="start" x="95.884" y="-467.5" font-family="Arial" font-size="10.00" fill="#000000">FOREIGN KEY (quiz_id) REFERENCES quizzes(id) ON DELETE CASCADE</text>
</g>
<!-- public.scenario_quiz_options -->
<g id="node2" class="node">
<title>public.scenario_quiz_options</title>
<polygon fill="#efefef" stroke="transparent" points="411,-932.5 411,-967.5 753,-967.5 753,-932.5 411,-932.5"/>
<polygon fill="none" stroke="#000000" points="411,-932.5 411,-967.5 753,-967.5 753,-932.5 411,-932.5"/>
<text text-anchor="start" x="417.8428" y="-945.3" font-family="Arial Bold" font-size="18.00" fill="#000000">public.scenario_quiz_options</text>
<text text-anchor="start" x="648.9034" y="-945.3" font-family="Arial" font-size="14.00" fill="#000000"> </text>
<text text-anchor="start" x="652.794" y="-945.3" font-family="Arial" font-size="14.00" fill="#666666">[BASE TABLE]</text>
<polygon fill="none" stroke="#000000" points="411,-902.5 411,-932.5 753,-932.5 753,-902.5 411,-902.5"/>
<text text-anchor="start" x="418" y="-913.9" font-family="Arial" font-size="14.00" fill="#000000">id </text>
<text text-anchor="start" x="432.7798" y="-913.9" font-family="Arial" font-size="14.00" fill="#666666">[uuid]</text>
<polygon fill="none" stroke="#000000" points="411,-872.5 411,-902.5 753,-902.5 753,-872.5 411,-872.5"/>
<text text-anchor="start" x="418" y="-883.9" font-family="Arial" font-size="14.00" fill="#000000">scenario_quiz_id </text>
<text text-anchor="start" x="526.9144" y="-883.9" font-family="Arial" font-size="14.00" fill="#666666">[uuid]</text>
<polygon fill="none" stroke="#000000" points="411,-842.5 411,-872.5 753,-872.5 753,-842.5 411,-842.5"/>
<text text-anchor="start" x="418" y="-853.9" font-family="Arial" font-size="14.00" fill="#000000">quiz_option_id </text>
<text text-anchor="start" x="512.1444" y="-853.9" font-family="Arial" font-size="14.00" fill="#666666">[uuid]</text>
<polygon fill="none" stroke="#000000" points="411,-812.5 411,-842.5 753,-842.5 753,-812.5 411,-812.5"/>
<text text-anchor="start" x="418" y="-823.9" font-family="Arial" font-size="14.00" fill="#000000">answer </text>
<text text-anchor="start" x="467.0056" y="-823.9" font-family="Arial" font-size="14.00" fill="#666666">[varchar(255)]</text>
<polygon fill="none" stroke="#000000" points="411,-782.5 411,-812.5 753,-812.5 753,-782.5 411,-782.5"/>
<text text-anchor="start" x="418" y="-793.9" font-family="Arial" font-size="14.00" fill="#000000">score </text>
<text text-anchor="start" x="456.1164" y="-793.9" font-family="Arial" font-size="14.00" fill="#666666">[integer]</text>
<polygon fill="none" stroke="#000000" points="411,-752.5 411,-782.5 753,-782.5 753,-752.5 411,-752.5"/>
<text text-anchor="start" x="418" y="-763.9" font-family="Arial" font-size="14.00" fill="#000000">next_scenario_quiz_id </text>
<text text-anchor="start" x="561.1528" y="-763.9" font-family="Arial" font-size="14.00" fill="#666666">[uuid]</text>
<polygon fill="none" stroke="#000000" points="411,-722.5 411,-752.5 753,-752.5 753,-722.5 411,-722.5"/>
<text text-anchor="start" x="418" y="-733.9" font-family="Arial" font-size="14.00" fill="#000000">status </text>
<text text-anchor="start" x="459.237" y="-733.9" font-family="Arial" font-size="14.00" fill="#666666">[integer]</text>
<polygon fill="none" stroke="#000000" points="411,-692.5 411,-722.5 753,-722.5 753,-692.5 411,-692.5"/>
<text text-anchor="start" x="418" y="-703.9" font-family="Arial" font-size="14.00" fill="#000000">created_at </text>
<text text-anchor="start" x="488.028" y="-703.9" font-family="Arial" font-size="14.00" fill="#666666">[timestamp without time zone]</text>
<polygon fill="none" stroke="#000000" points="411,-662.5 411,-692.5 753,-692.5 753,-662.5 411,-662.5"/>
<text text-anchor="start" x="418" y="-673.9" font-family="Arial" font-size="14.00" fill="#000000">updated_at </text>
<text text-anchor="start" x="491.9326" y="-673.9" font-family="Arial" font-size="14.00" fill="#666666">[timestamp without time zone]</text>
</g>
<!-- public.scenario_quiz_options&#45;&gt;public.quiz_options -->
<g id="edge1" class="edge">
<title>public.scenario_quiz_options:quiz_option_id&#45;&gt;public.quiz_options:id</title>
<path fill="none" stroke="#000000" d="M400.948,-856.9841C307.8334,-847.0536 343.1714,-696.2472 411,-620 502.31,-517.357 626.69,-686.643 718,-584 746.5063,-551.9556 760.8889,-487.5 718,-487.5"/>
<polygon fill="#000000" stroke="#000000" points="401.0131,-856.9873 410.7693,-861.9941 406.0066,-857.2437 411,-857.5 411,-857.5 411,-857.5 406.0066,-857.2437 411.2307,-853.0059 401.0131,-856.9873 401.0131,-856.9873"/>
<text text-anchor="start" x="7.3705" y="-867.5" font-family="Arial" font-size="10.00" fill="#000000">FOREIGN KEY (quiz_option_id) REFERENCES quiz_options(id) ON DELETE CASCADE</text>
</g>
</g>
</svg>
