<?xml version="1.0" encoding="UTF-8" standalone="no"?>
<!DOCTYPE svg PUBLIC "-//W3C//DTD SVG 1.1//EN"
 "http://www.w3.org/Graphics/SVG/1.1/DTD/svg11.dtd">
<!-- Generated by graphviz version 2.40.1 (20161225.0304)
 -->
<!-- Title: public.organizations Pages: 1 -->
<svg width="1344pt" height="1079pt"
 viewBox="0.00 0.00 1344.00 1079.00" xmlns="http://www.w3.org/2000/svg" xmlns:xlink="http://www.w3.org/1999/xlink">
<g id="graph0" class="graph" transform="scale(1 1) rotate(0) translate(4 1075)">
<title>public.organizations</title>
<polygon fill="#ffffff" stroke="transparent" points="-4,4 -4,-1075 1340,-1075 1340,4 -4,4"/>
<!-- public.organizations -->
<g id="node1" class="node">
<title>public.organizations</title>
<polygon fill="#efefef" stroke="transparent" points="542,-532.5 542,-567.5 815,-567.5 815,-532.5 542,-532.5"/>
<polygon fill="none" stroke="#000000" points="542,-532.5 542,-567.5 815,-567.5 815,-532.5 542,-532.5"/>
<text text-anchor="start" x="550.3554" y="-545.3" font-family="Arial Bold" font-size="18.00" fill="#000000">public.organizations</text>
<text text-anchor="start" x="709.3908" y="-545.3" font-family="Arial" font-size="14.00" fill="#000000"> </text>
<text text-anchor="start" x="713.2814" y="-545.3" font-family="Arial" font-size="14.00" fill="#666666">[BASE TABLE]</text>
<polygon fill="none" stroke="#000000" points="542,-502.5 542,-532.5 815,-532.5 815,-502.5 542,-502.5"/>
<text text-anchor="start" x="549" y="-513.9" font-family="Arial" font-size="14.00" fill="#000000">id </text>
<text text-anchor="start" x="563.7798" y="-513.9" font-family="Arial" font-size="14.00" fill="#666666">[uuid]</text>
<polygon fill="none" stroke="#000000" points="542,-472.5 542,-502.5 815,-502.5 815,-472.5 542,-472.5"/>
<text text-anchor="start" x="549" y="-483.9" font-family="Arial" font-size="14.00" fill="#000000">company_id </text>
<text text-anchor="start" x="628.3534" y="-483.9" font-family="Arial" font-size="14.00" fill="#666666">[uuid]</text>
<polygon fill="none" stroke="#000000" points="542,-442.5 542,-472.5 815,-472.5 815,-442.5 542,-442.5"/>
<text text-anchor="start" x="549" y="-453.9" font-family="Arial" font-size="14.00" fill="#000000">display_id </text>
<text text-anchor="start" x="615.1234" y="-453.9" font-family="Arial" font-size="14.00" fill="#666666">[integer]</text>
<polygon fill="none" stroke="#000000" points="542,-412.5 542,-442.5 815,-442.5 815,-412.5 542,-412.5"/>
<text text-anchor="start" x="549" y="-423.9" font-family="Arial" font-size="14.00" fill="#000000">name </text>
<text text-anchor="start" x="587.899" y="-423.9" font-family="Arial" font-size="14.00" fill="#666666">[varchar(128)]</text>
<polygon fill="none" stroke="#000000" points="542,-382.5 542,-412.5 815,-412.5 815,-382.5 542,-382.5"/>
<text text-anchor="start" x="549" y="-393.9" font-family="Arial" font-size="14.00" fill="#000000">report_send_emails </text>
<text text-anchor="start" x="675.8022" y="-393.9" font-family="Arial" font-size="14.00" fill="#666666">[varchar(255)]</text>
<polygon fill="none" stroke="#000000" points="542,-352.5 542,-382.5 815,-382.5 815,-352.5 542,-352.5"/>
<text text-anchor="start" x="549" y="-363.9" font-family="Arial" font-size="14.00" fill="#000000">created_at </text>
<text text-anchor="start" x="619.028" y="-363.9" font-family="Arial" font-size="14.00" fill="#666666">[timestamp without time zone]</text>
<polygon fill="none" stroke="#000000" points="542,-322.5 542,-352.5 815,-352.5 815,-322.5 542,-322.5"/>
<text text-anchor="start" x="548.9636" y="-333.9" font-family="Arial" font-size="14.00" fill="#000000">updated_at </text>
<text text-anchor="start" x="622.8962" y="-333.9" font-family="Arial" font-size="14.00" fill="#666666">[timestamp without time zone]</text>
<polygon fill="none" stroke="#000000" stroke-width="3" points="540,-321.5 540,-569.5 816,-569.5 816,-321.5 540,-321.5"/>
</g>
<!-- public.companies -->
<g id="node5" class="node">
<title>public.companies</title>
<polygon fill="#efefef" stroke="transparent" points="542,-162.5 542,-197.5 815,-197.5 815,-162.5 542,-162.5"/>
<polygon fill="none" stroke="#000000" points="542,-162.5 542,-197.5 815,-197.5 815,-162.5 542,-162.5"/>
<text text-anchor="start" x="560.3598" y="-175.3" font-family="Arial Bold" font-size="18.00" fill="#000000">public.companies</text>
<text text-anchor="start" x="699.3864" y="-175.3" font-family="Arial" font-size="14.00" fill="#000000"> </text>
<text text-anchor="start" x="703.277" y="-175.3" font-family="Arial" font-size="14.00" fill="#666666">[BASE TABLE]</text>
<polygon fill="none" stroke="#000000" points="542,-132.5 542,-162.5 815,-162.5 815,-132.5 542,-132.5"/>
<text text-anchor="start" x="549" y="-143.9" font-family="Arial" font-size="14.00" fill="#000000">id </text>
<text text-anchor="start" x="563.7798" y="-143.9" font-family="Arial" font-size="14.00" fill="#666666">[uuid]</text>
<polygon fill="none" stroke="#000000" points="542,-102.5 542,-132.5 815,-132.5 815,-102.5 542,-102.5"/>
<text text-anchor="start" x="549" y="-113.9" font-family="Arial" font-size="14.00" fill="#000000">name </text>
<text text-anchor="start" x="587.899" y="-113.9" font-family="Arial" font-size="14.00" fill="#666666">[varchar(128)]</text>
<polygon fill="none" stroke="#000000" points="542,-72.5 542,-102.5 815,-102.5 815,-72.5 542,-72.5"/>
<text text-anchor="start" x="549" y="-83.9" font-family="Arial" font-size="14.00" fill="#000000">created_at </text>
<text text-anchor="start" x="619.028" y="-83.9" font-family="Arial" font-size="14.00" fill="#666666">[timestamp without time zone]</text>
<polygon fill="none" stroke="#000000" points="542,-42.5 542,-72.5 815,-72.5 815,-42.5 542,-42.5"/>
<text text-anchor="start" x="548.9636" y="-53.9" font-family="Arial" font-size="14.00" fill="#000000">updated_at </text>
<text text-anchor="start" x="622.8962" y="-53.9" font-family="Arial" font-size="14.00" fill="#666666">[timestamp without time zone]</text>
</g>
<!-- public.organizations&#45;&gt;public.companies -->
<g id="edge4" class="edge">
<title>public.organizations:company_id&#45;&gt;public.companies:id</title>
<path fill="none" stroke="#000000" d="M531.624,-486.9485C390.9719,-471.7493 394.4306,-147.5 542,-147.5"/>
<polygon fill="#000000" stroke="#000000" points="532.0141,-486.9691 541.7611,-491.9937 537.007,-487.2345 542,-487.5 542,-487.5 542,-487.5 537.007,-487.2345 542.2389,-483.0063 532.0141,-486.9691 532.0141,-486.9691"/>
<text text-anchor="start" x="156.5465" y="-497.5" font-family="Arial" font-size="10.00" fill="#000000">FOREIGN KEY (company_id) REFERENCES companies(id) ON DELETE CASCADE</text>
</g>
<!-- public.user_organization_belonging -->
<g id="node2" class="node">
<title>public.user_organization_belonging</title>
<polygon fill="#efefef" stroke="transparent" points="43,-902.5 43,-937.5 437,-937.5 437,-902.5 43,-902.5"/>
<polygon fill="none" stroke="#000000" points="43,-902.5 43,-937.5 437,-937.5 437,-902.5 43,-902.5"/>
<text text-anchor="start" x="49.831" y="-915.3" font-family="Arial Bold" font-size="18.00" fill="#000000">public.user_organization_belonging</text>
<text text-anchor="start" x="332.9152" y="-915.3" font-family="Arial" font-size="14.00" fill="#000000"> </text>
<text text-anchor="start" x="336.8058" y="-915.3" font-family="Arial" font-size="14.00" fill="#666666">[BASE TABLE]</text>
<polygon fill="none" stroke="#000000" points="43,-872.5 43,-902.5 437,-902.5 437,-872.5 43,-872.5"/>
<text text-anchor="start" x="50" y="-883.9" font-family="Arial" font-size="14.00" fill="#000000">user_id </text>
<text text-anchor="start" x="99.7882" y="-883.9" font-family="Arial" font-size="14.00" fill="#666666">[uuid]</text>
<polygon fill="none" stroke="#000000" points="43,-842.5 43,-872.5 437,-872.5 437,-842.5 43,-842.5"/>
<text text-anchor="start" x="50" y="-853.9" font-family="Arial" font-size="14.00" fill="#000000">organization_id </text>
<text text-anchor="start" x="148.805" y="-853.9" font-family="Arial" font-size="14.00" fill="#666666">[uuid]</text>
<polygon fill="none" stroke="#000000" points="43,-812.5 43,-842.5 437,-842.5 437,-812.5 43,-812.5"/>
<text text-anchor="start" x="50" y="-823.9" font-family="Arial" font-size="14.00" fill="#000000">created_at </text>
<text text-anchor="start" x="120.028" y="-823.9" font-family="Arial" font-size="14.00" fill="#666666">[timestamp without time zone]</text>
<polygon fill="none" stroke="#000000" points="43,-782.5 43,-812.5 437,-812.5 437,-782.5 43,-782.5"/>
<text text-anchor="start" x="50" y="-793.9" font-family="Arial" font-size="14.00" fill="#000000">updated_at </text>
<text text-anchor="start" x="123.9326" y="-793.9" font-family="Arial" font-size="14.00" fill="#666666">[timestamp without time zone]</text>
</g>
<!-- public.user_organization_belonging&#45;&gt;public.organizations -->
<g id="edge1" class="edge">
<title>public.user_organization_belonging:organization_id&#45;&gt;public.organizations:id</title>
<path fill="none" stroke="#000000" d="M447.3911,-856.9728C526.5766,-848.3964 460.8666,-736.9206 489,-650 508.5311,-589.6568 478.5747,-517.5 542,-517.5"/>
<polygon fill="#000000" stroke="#000000" points="446.9872,-856.9932 436.7719,-853.0058 441.9936,-857.2466 437,-857.5 437,-857.5 437,-857.5 441.9936,-857.2466 437.2281,-861.9942 446.9872,-856.9932 446.9872,-856.9932"/>
<text text-anchor="start" x="444.0415" y="-867.5" font-family="Arial" font-size="10.00" fill="#000000">FOREIGN KEY (organization_id) REFERENCES organizations(id) ON DELETE CASCADE</text>
</g>
<!-- public.roles -->
<g id="node3" class="node">
<title>public.roles</title>
<polygon fill="#efefef" stroke="transparent" points="542,-917.5 542,-952.5 815,-952.5 815,-917.5 542,-917.5"/>
<polygon fill="none" stroke="#000000" points="542,-917.5 542,-952.5 815,-952.5 815,-917.5 542,-917.5"/>
<text text-anchor="start" x="584.3691" y="-930.3" font-family="Arial Bold" font-size="18.00" fill="#000000">public.roles</text>
<text text-anchor="start" x="675.3771" y="-930.3" font-family="Arial" font-size="14.00" fill="#000000"> </text>
<text text-anchor="start" x="679.2677" y="-930.3" font-family="Arial" font-size="14.00" fill="#666666">[BASE TABLE]</text>
<polygon fill="none" stroke="#000000" points="542,-887.5 542,-917.5 815,-917.5 815,-887.5 542,-887.5"/>
<text text-anchor="start" x="549" y="-898.9" font-family="Arial" font-size="14.00" fill="#000000">id </text>
<text text-anchor="start" x="563.7798" y="-898.9" font-family="Arial" font-size="14.00" fill="#666666">[uuid]</text>
<polygon fill="none" stroke="#000000" points="542,-857.5 542,-887.5 815,-887.5 815,-857.5 542,-857.5"/>
<text text-anchor="start" x="549" y="-868.9" font-family="Arial" font-size="14.00" fill="#000000">organization_id </text>
<text text-anchor="start" x="647.805" y="-868.9" font-family="Arial" font-size="14.00" fill="#666666">[uuid]</text>
<polygon fill="none" stroke="#000000" points="542,-827.5 542,-857.5 815,-857.5 815,-827.5 542,-827.5"/>
<text text-anchor="start" x="549" y="-838.9" font-family="Arial" font-size="14.00" fill="#000000">name </text>
<text text-anchor="start" x="587.899" y="-838.9" font-family="Arial" font-size="14.00" fill="#666666">[varchar(128)]</text>
<polygon fill="none" stroke="#000000" points="542,-797.5 542,-827.5 815,-827.5 815,-797.5 542,-797.5"/>
<text text-anchor="start" x="549" y="-808.9" font-family="Arial" font-size="14.00" fill="#000000">created_at </text>
<text text-anchor="start" x="619.028" y="-808.9" font-family="Arial" font-size="14.00" fill="#666666">[timestamp without time zone]</text>
<polygon fill="none" stroke="#000000" points="542,-767.5 542,-797.5 815,-797.5 815,-767.5 542,-767.5"/>
<text text-anchor="start" x="548.9636" y="-778.9" font-family="Arial" font-size="14.00" fill="#000000">updated_at </text>
<text text-anchor="start" x="622.8962" y="-778.9" font-family="Arial" font-size="14.00" fill="#666666">[timestamp without time zone]</text>
</g>
<!-- public.roles&#45;&gt;public.organizations -->
<g id="edge2" class="edge">
<title>public.roles:organization_id&#45;&gt;public.organizations:id</title>
<path fill="none" stroke="#000000" d="M533.6729,-866.6345C502.7844,-820.4777 505.5601,-517.5 542,-517.5"/>
<polygon fill="#000000" stroke="#000000" points="533.8246,-866.7413 539.4086,-876.179 537.9123,-869.6206 542,-872.5 542,-872.5 542,-872.5 537.9123,-869.6206 544.5914,-868.821 533.8246,-866.7413 533.8246,-866.7413"/>
<text text-anchor="start" x="236.2915" y="-856.5" font-family="Arial" font-size="10.00" fill="#000000">FOREIGN KEY (organization_id) REFERENCES organizations(id) ON DELETE CASCADE</text>
</g>
<!-- public.scenarios -->
<g id="node4" class="node">
<title>public.scenarios</title>
<polygon fill="#efefef" stroke="transparent" points="919,-992.5 919,-1027.5 1192,-1027.5 1192,-992.5 919,-992.5"/>
<polygon fill="none" stroke="#000000" points="919,-992.5 919,-1027.5 1192,-1027.5 1192,-992.5 919,-992.5"/>
<text text-anchor="start" x="942.3629" y="-1005.3" font-family="Arial Bold" font-size="18.00" fill="#000000">public.scenarios</text>
<text text-anchor="start" x="1071.3833" y="-1005.3" font-family="Arial" font-size="14.00" fill="#000000"> </text>
<text text-anchor="start" x="1075.2739" y="-1005.3" font-family="Arial" font-size="14.00" fill="#666666">[BASE TABLE]</text>
<polygon fill="none" stroke="#000000" points="919,-962.5 919,-992.5 1192,-992.5 1192,-962.5 919,-962.5"/>
<text text-anchor="start" x="926" y="-973.9" font-family="Arial" font-size="14.00" fill="#000000">id </text>
<text text-anchor="start" x="940.7798" y="-973.9" font-family="Arial" font-size="14.00" fill="#666666">[uuid]</text>
<polygon fill="none" stroke="#000000" points="919,-932.5 919,-962.5 1192,-962.5 1192,-932.5 919,-932.5"/>
<text text-anchor="start" x="926" y="-943.9" font-family="Arial" font-size="14.00" fill="#000000">organization_id </text>
<text text-anchor="start" x="1024.805" y="-943.9" font-family="Arial" font-size="14.00" fill="#666666">[uuid]</text>
<polygon fill="none" stroke="#000000" points="919,-902.5 919,-932.5 1192,-932.5 1192,-902.5 919,-902.5"/>
<text text-anchor="start" x="926" y="-913.9" font-family="Arial" font-size="14.00" fill="#000000">role_id </text>
<text text-anchor="start" x="971.8948" y="-913.9" font-family="Arial" font-size="14.00" fill="#666666">[uuid]</text>
<polygon fill="none" stroke="#000000" points="919,-872.5 919,-902.5 1192,-902.5 1192,-872.5 919,-872.5"/>
<text text-anchor="start" x="926" y="-883.9" font-family="Arial" font-size="14.00" fill="#000000">title </text>
<text text-anchor="start" x="951.6676" y="-883.9" font-family="Arial" font-size="14.00" fill="#666666">[varchar(255)]</text>
<polygon fill="none" stroke="#000000" points="919,-842.5 919,-872.5 1192,-872.5 1192,-842.5 919,-842.5"/>
<text text-anchor="start" x="926" y="-853.9" font-family="Arial" font-size="14.00" fill="#000000">overview </text>
<text text-anchor="start" x="985.1122" y="-853.9" font-family="Arial" font-size="14.00" fill="#666666">[text]</text>
<polygon fill="none" stroke="#000000" points="919,-812.5 919,-842.5 1192,-842.5 1192,-812.5 919,-812.5"/>
<text text-anchor="start" x="926" y="-823.9" font-family="Arial" font-size="14.00" fill="#000000">description </text>
<text text-anchor="start" x="997.568" y="-823.9" font-family="Arial" font-size="14.00" fill="#666666">[text]</text>
<polygon fill="none" stroke="#000000" points="919,-782.5 919,-812.5 1192,-812.5 1192,-782.5 919,-782.5"/>
<text text-anchor="start" x="926" y="-793.9" font-family="Arial" font-size="14.00" fill="#000000">highest_score </text>
<text text-anchor="start" x="1017.0266" y="-793.9" font-family="Arial" font-size="14.00" fill="#666666">[integer]</text>
<polygon fill="none" stroke="#000000" points="919,-752.5 919,-782.5 1192,-782.5 1192,-752.5 919,-752.5"/>
<text text-anchor="start" x="926" y="-763.9" font-family="Arial" font-size="14.00" fill="#000000">result_message </text>
<text text-anchor="start" x="1028.6872" y="-763.9" font-family="Arial" font-size="14.00" fill="#666666">[text]</text>
<polygon fill="none" stroke="#000000" points="919,-722.5 919,-752.5 1192,-752.5 1192,-722.5 919,-722.5"/>
<text text-anchor="start" x="926" y="-733.9" font-family="Arial" font-size="14.00" fill="#000000">created_at </text>
<text text-anchor="start" x="996.028" y="-733.9" font-family="Arial" font-size="14.00" fill="#666666">[timestamp without time zone]</text>
<polygon fill="none" stroke="#000000" points="919,-692.5 919,-722.5 1192,-722.5 1192,-692.5 919,-692.5"/>
<text text-anchor="start" x="925.9636" y="-703.9" font-family="Arial" font-size="14.00" fill="#000000">updated_at </text>
<text text-anchor="start" x="999.8962" y="-703.9" font-family="Arial" font-size="14.00" fill="#666666">[timestamp without time zone]</text>
</g>
<!-- public.scenarios&#45;&gt;public.organizations -->
<g id="edge3" class="edge">
<title>public.scenarios:organization_id&#45;&gt;public.organizations:id</title>
<path fill="none" stroke="#000000" d="M908.8648,-945.4762C855.3688,-922.5318 884.137,-711.0848 867,-650 849.9121,-589.09 878.2616,-517.5 815,-517.5"/>
<polygon fill="#000000" stroke="#000000" points="909.1936,-945.5417 918.1188,-951.9129 914.0968,-946.5209 919,-947.5 919,-947.5 919,-947.5 914.0968,-946.5209 919.8812,-943.0871 909.1936,-945.5417 909.1936,-945.5417"/>
<text text-anchor="start" x="926.0415" y="-957.5" font-family="Arial" font-size="10.00" fill="#000000">FOREIGN KEY (organization_id) REFERENCES organizations(id) ON DELETE CASCADE</text>
</g>
</g>
</svg>
