<?xml version="1.0" encoding="UTF-8" standalone="no"?>
<!DOCTYPE svg PUBLIC "-//W3C//DTD SVG 1.1//EN"
 "http://www.w3.org/Graphics/SVG/1.1/DTD/svg11.dtd">
<!-- Generated by graphviz version 2.40.1 (20161225.0304)
 -->
<!-- Title: public.user_quiz_histories Pages: 1 -->
<svg width="2054pt" height="832pt"
 viewBox="0.00 0.00 2053.50 832.00" xmlns="http://www.w3.org/2000/svg" xmlns:xlink="http://www.w3.org/1999/xlink">
<g id="graph0" class="graph" transform="scale(1 1) rotate(0) translate(4 828)">
<title>public.user_quiz_histories</title>
<polygon fill="#ffffff" stroke="transparent" points="-4,4 -4,-828 2049.5,-828 2049.5,4 -4,4"/>
<!-- public.user_quiz_histories -->
<g id="node1" class="node">
<title>public.user_quiz_histories</title>
<polygon fill="#efefef" stroke="transparent" points="855.5,-742.5 855.5,-777.5 1173.5,-777.5 1173.5,-742.5 855.5,-742.5"/>
<polygon fill="none" stroke="#000000" points="855.5,-742.5 855.5,-777.5 1173.5,-777.5 1173.5,-742.5 855.5,-742.5"/>
<text text-anchor="start" x="862.356" y="-755.3" font-family="Arial Bold" font-size="18.00" fill="#000000">public.user_quiz_histories</text>
<text text-anchor="start" x="1069.3902" y="-755.3" font-family="Arial" font-size="14.00" fill="#000000"> </text>
<text text-anchor="start" x="1073.2808" y="-755.3" font-family="Arial" font-size="14.00" fill="#666666">[BASE TABLE]</text>
<polygon fill="none" stroke="#000000" points="855.5,-712.5 855.5,-742.5 1173.5,-742.5 1173.5,-712.5 855.5,-712.5"/>
<text text-anchor="start" x="862.5" y="-723.9" font-family="Arial" font-size="14.00" fill="#000000">id </text>
<text text-anchor="start" x="877.2798" y="-723.9" font-family="Arial" font-size="14.00" fill="#666666">[uuid]</text>
<polygon fill="none" stroke="#000000" points="855.5,-682.5 855.5,-712.5 1173.5,-712.5 1173.5,-682.5 855.5,-682.5"/>
<text text-anchor="start" x="862.5" y="-693.9" font-family="Arial" font-size="14.00" fill="#000000">user_scenario_history_id </text>
<text text-anchor="start" x="1021.974" y="-693.9" font-family="Arial" font-size="14.00" fill="#666666">[uuid]</text>
<polygon fill="none" stroke="#000000" points="855.5,-652.5 855.5,-682.5 1173.5,-682.5 1173.5,-652.5 855.5,-652.5"/>
<text text-anchor="start" x="862.5" y="-663.9" font-family="Arial" font-size="14.00" fill="#000000">user_id </text>
<text text-anchor="start" x="912.2882" y="-663.9" font-family="Arial" font-size="14.00" fill="#666666">[uuid]</text>
<polygon fill="none" stroke="#000000" points="855.5,-622.5 855.5,-652.5 1173.5,-652.5 1173.5,-622.5 855.5,-622.5"/>
<text text-anchor="start" x="862.5" y="-633.9" font-family="Arial" font-size="14.00" fill="#000000">scenario_id </text>
<text text-anchor="start" x="937.96" y="-633.9" font-family="Arial" font-size="14.00" fill="#666666">[uuid]</text>
<polygon fill="none" stroke="#000000" points="855.5,-592.5 855.5,-622.5 1173.5,-622.5 1173.5,-592.5 855.5,-592.5"/>
<text text-anchor="start" x="862.5" y="-603.9" font-family="Arial" font-size="14.00" fill="#000000">scenario_quiz_id </text>
<text text-anchor="start" x="971.4144" y="-603.9" font-family="Arial" font-size="14.00" fill="#666666">[uuid]</text>
<polygon fill="none" stroke="#000000" points="855.5,-562.5 855.5,-592.5 1173.5,-592.5 1173.5,-562.5 855.5,-562.5"/>
<text text-anchor="start" x="862.5" y="-573.9" font-family="Arial" font-size="14.00" fill="#000000">scenario_quiz_option_id </text>
<text text-anchor="start" x="1017.3246" y="-573.9" font-family="Arial" font-size="14.00" fill="#666666">[uuid]</text>
<polygon fill="none" stroke="#000000" points="855.5,-532.5 855.5,-562.5 1173.5,-562.5 1173.5,-532.5 855.5,-532.5"/>
<text text-anchor="start" x="862.5" y="-543.9" font-family="Arial" font-size="14.00" fill="#000000">score </text>
<text text-anchor="start" x="900.6164" y="-543.9" font-family="Arial" font-size="14.00" fill="#666666">[integer]</text>
<polygon fill="none" stroke="#000000" points="855.5,-502.5 855.5,-532.5 1173.5,-532.5 1173.5,-502.5 855.5,-502.5"/>
<text text-anchor="start" x="862.5" y="-513.9" font-family="Arial" font-size="14.00" fill="#000000">created_at </text>
<text text-anchor="start" x="932.528" y="-513.9" font-family="Arial" font-size="14.00" fill="#666666">[timestamp without time zone]</text>
<polygon fill="none" stroke="#000000" points="855.5,-472.5 855.5,-502.5 1173.5,-502.5 1173.5,-472.5 855.5,-472.5"/>
<text text-anchor="start" x="862.5" y="-483.9" font-family="Arial" font-size="14.00" fill="#000000">updated_at </text>
<text text-anchor="start" x="936.4326" y="-483.9" font-family="Arial" font-size="14.00" fill="#666666">[timestamp without time zone]</text>
<polygon fill="none" stroke="#000000" stroke-width="3" points="854,-471.5 854,-779.5 1175,-779.5 1175,-471.5 854,-471.5"/>
</g>
<!-- public.user_scenario_histories -->
<g id="node2" class="node">
<title>public.user_scenario_histories</title>
<polygon fill="#efefef" stroke="transparent" points="43.5,-267.5 43.5,-302.5 396.5,-302.5 396.5,-267.5 43.5,-267.5"/>
<polygon fill="none" stroke="#000000" points="43.5,-267.5 43.5,-302.5 396.5,-302.5 396.5,-267.5 43.5,-267.5"/>
<text text-anchor="start" x="50.3537" y="-280.3" font-family="Arial Bold" font-size="18.00" fill="#000000">public.user_scenario_histories</text>
<text text-anchor="start" x="292.3925" y="-280.3" font-family="Arial" font-size="14.00" fill="#000000"> </text>
<text text-anchor="start" x="296.2831" y="-280.3" font-family="Arial" font-size="14.00" fill="#666666">[BASE TABLE]</text>
<polygon fill="none" stroke="#000000" points="43.5,-237.5 43.5,-267.5 396.5,-267.5 396.5,-237.5 43.5,-237.5"/>
<text text-anchor="start" x="50.5" y="-248.9" font-family="Arial" font-size="14.00" fill="#000000">id </text>
<text text-anchor="start" x="65.2798" y="-248.9" font-family="Arial" font-size="14.00" fill="#666666">[uuid]</text>
<polygon fill="none" stroke="#000000" points="43.5,-207.5 43.5,-237.5 396.5,-237.5 396.5,-207.5 43.5,-207.5"/>
<text text-anchor="start" x="50.5" y="-218.9" font-family="Arial" font-size="14.00" fill="#000000">user_id </text>
<text text-anchor="start" x="100.2882" y="-218.9" font-family="Arial" font-size="14.00" fill="#666666">[uuid]</text>
<polygon fill="none" stroke="#000000" points="43.5,-177.5 43.5,-207.5 396.5,-207.5 396.5,-177.5 43.5,-177.5"/>
<text text-anchor="start" x="50.5" y="-188.9" font-family="Arial" font-size="14.00" fill="#000000">scenario_id </text>
<text text-anchor="start" x="125.96" y="-188.9" font-family="Arial" font-size="14.00" fill="#666666">[uuid]</text>
<polygon fill="none" stroke="#000000" points="43.5,-147.5 43.5,-177.5 396.5,-177.5 396.5,-147.5 43.5,-147.5"/>
<text text-anchor="start" x="50.5" y="-158.9" font-family="Arial" font-size="14.00" fill="#000000">total_score </text>
<text text-anchor="start" x="122.852" y="-158.9" font-family="Arial" font-size="14.00" fill="#666666">[integer]</text>
<polygon fill="none" stroke="#000000" points="43.5,-117.5 43.5,-147.5 396.5,-147.5 396.5,-117.5 43.5,-117.5"/>
<text text-anchor="start" x="50.5" y="-128.9" font-family="Arial" font-size="14.00" fill="#000000">created_at </text>
<text text-anchor="start" x="120.528" y="-128.9" font-family="Arial" font-size="14.00" fill="#666666">[timestamp without time zone]</text>
<polygon fill="none" stroke="#000000" points="43.5,-87.5 43.5,-117.5 396.5,-117.5 396.5,-87.5 43.5,-87.5"/>
<text text-anchor="start" x="50.5" y="-98.9" font-family="Arial" font-size="14.00" fill="#000000">updated_at </text>
<text text-anchor="start" x="124.4326" y="-98.9" font-family="Arial" font-size="14.00" fill="#666666">[timestamp without time zone]</text>
</g>
<!-- public.user_quiz_histories&#45;&gt;public.user_scenario_histories -->
<g id="edge1" class="edge">
<title>public.user_quiz_histories:user_scenario_history_id&#45;&gt;public.user_scenario_histories:id</title>
<path fill="none" stroke="#000000" d="M845.3244,-697.4146C627.2924,-693.7166 580.8342,-570.2062 447.5,-391 408.3437,-338.3725 462.0962,-252.5 396.5,-252.5"/>
<polygon fill="#000000" stroke="#000000" points="845.5004,-697.416 855.4622,-701.9998 850.5002,-697.458 855.5,-697.5 855.5,-697.5 855.5,-697.5 850.5002,-697.458 855.5378,-693.0002 845.5004,-697.416 845.5004,-697.416"/>
<text text-anchor="start" x="355.8175" y="-707.5" font-family="Arial" font-size="10.00" fill="#000000">FOREIGN KEY (user_scenario_history_id) REFERENCES user_scenario_histories(id) ON DELETE CASCADE</text>
</g>
<!-- public.users -->
<g id="node3" class="node">
<title>public.users</title>
<polygon fill="#efefef" stroke="transparent" points="500.5,-282.5 500.5,-317.5 773.5,-317.5 773.5,-282.5 500.5,-282.5"/>
<polygon fill="none" stroke="#000000" points="500.5,-282.5 500.5,-317.5 773.5,-317.5 773.5,-282.5 500.5,-282.5"/>
<text text-anchor="start" x="540.3662" y="-295.3" font-family="Arial Bold" font-size="18.00" fill="#000000">public.users</text>
<text text-anchor="start" x="636.38" y="-295.3" font-family="Arial" font-size="14.00" fill="#000000"> </text>
<text text-anchor="start" x="640.2706" y="-295.3" font-family="Arial" font-size="14.00" fill="#666666">[BASE TABLE]</text>
<polygon fill="none" stroke="#000000" points="500.5,-252.5 500.5,-282.5 773.5,-282.5 773.5,-252.5 500.5,-252.5"/>
<text text-anchor="start" x="507.5" y="-263.9" font-family="Arial" font-size="14.00" fill="#000000">id </text>
<text text-anchor="start" x="522.2798" y="-263.9" font-family="Arial" font-size="14.00" fill="#666666">[uuid]</text>
<polygon fill="none" stroke="#000000" points="500.5,-222.5 500.5,-252.5 773.5,-252.5 773.5,-222.5 500.5,-222.5"/>
<text text-anchor="start" x="507.5" y="-233.9" font-family="Arial" font-size="14.00" fill="#000000">organization_id </text>
<text text-anchor="start" x="606.305" y="-233.9" font-family="Arial" font-size="14.00" fill="#666666">[uuid]</text>
<polygon fill="none" stroke="#000000" points="500.5,-192.5 500.5,-222.5 773.5,-222.5 773.5,-192.5 500.5,-192.5"/>
<text text-anchor="start" x="507.5" y="-203.9" font-family="Arial" font-size="14.00" fill="#000000">nickname </text>
<text text-anchor="start" x="571.2882" y="-203.9" font-family="Arial" font-size="14.00" fill="#666666">[varchar(20)]</text>
<polygon fill="none" stroke="#000000" points="500.5,-162.5 500.5,-192.5 773.5,-192.5 773.5,-162.5 500.5,-162.5"/>
<text text-anchor="start" x="507.5" y="-173.9" font-family="Arial" font-size="14.00" fill="#000000">email </text>
<text text-anchor="start" x="544.8296" y="-173.9" font-family="Arial" font-size="14.00" fill="#666666">[varchar(255)]</text>
<polygon fill="none" stroke="#000000" points="500.5,-132.5 500.5,-162.5 773.5,-162.5 773.5,-132.5 500.5,-132.5"/>
<text text-anchor="start" x="507.5" y="-143.9" font-family="Arial" font-size="14.00" fill="#000000">password_hash </text>
<text text-anchor="start" x="609.4186" y="-143.9" font-family="Arial" font-size="14.00" fill="#666666">[text]</text>
<polygon fill="none" stroke="#000000" points="500.5,-102.5 500.5,-132.5 773.5,-132.5 773.5,-102.5 500.5,-102.5"/>
<text text-anchor="start" x="507.5" y="-113.9" font-family="Arial" font-size="14.00" fill="#000000">created_at </text>
<text text-anchor="start" x="577.528" y="-113.9" font-family="Arial" font-size="14.00" fill="#666666">[timestamp without time zone]</text>
<polygon fill="none" stroke="#000000" points="500.5,-72.5 500.5,-102.5 773.5,-102.5 773.5,-72.5 500.5,-72.5"/>
<text text-anchor="start" x="507.4636" y="-83.9" font-family="Arial" font-size="14.00" fill="#000000">updated_at </text>
<text text-anchor="start" x="581.3962" y="-83.9" font-family="Arial" font-size="14.00" fill="#666666">[timestamp without time zone]</text>
</g>
<!-- public.user_quiz_histories&#45;&gt;public.users -->
<g id="edge2" class="edge">
<title>public.user_quiz_histories:user_id&#45;&gt;public.users:id</title>
<path fill="none" stroke="#000000" d="M845.2688,-665.5365C772.6026,-635.3604 860.5158,-267.5 773.5,-267.5"/>
<polygon fill="#000000" stroke="#000000" points="845.6792,-665.6152 854.6518,-671.9194 850.5896,-666.5576 855.5,-667.5 855.5,-667.5 855.5,-667.5 850.5896,-666.5576 856.3482,-663.0806 845.6792,-665.6152 845.6792,-665.6152"/>
<text text-anchor="start" x="515.5535" y="-677.5" font-family="Arial" font-size="10.00" fill="#000000">FOREIGN KEY (user_id) REFERENCES users(id) ON DELETE CASCADE</text>
</g>
<!-- public.scenarios -->
<g id="node4" class="node">
<title>public.scenarios</title>
<polygon fill="#efefef" stroke="transparent" points="877.5,-312.5 877.5,-347.5 1150.5,-347.5 1150.5,-312.5 877.5,-312.5"/>
<polygon fill="none" stroke="#000000" points="877.5,-312.5 877.5,-347.5 1150.5,-347.5 1150.5,-312.5 877.5,-312.5"/>
<text text-anchor="start" x="900.8629" y="-325.3" font-family="Arial Bold" font-size="18.00" fill="#000000">public.scenarios</text>
<text text-anchor="start" x="1029.8833" y="-325.3" font-family="Arial" font-size="14.00" fill="#000000"> </text>
<text text-anchor="start" x="1033.7739" y="-325.3" font-family="Arial" font-size="14.00" fill="#666666">[BASE TABLE]</text>
<polygon fill="none" stroke="#000000" points="877.5,-282.5 877.5,-312.5 1150.5,-312.5 1150.5,-282.5 877.5,-282.5"/>
<text text-anchor="start" x="884.5" y="-293.9" font-family="Arial" font-size="14.00" fill="#000000">id </text>
<text text-anchor="start" x="899.2798" y="-293.9" font-family="Arial" font-size="14.00" fill="#666666">[uuid]</text>
<polygon fill="none" stroke="#000000" points="877.5,-252.5 877.5,-282.5 1150.5,-282.5 1150.5,-252.5 877.5,-252.5"/>
<text text-anchor="start" x="884.5" y="-263.9" font-family="Arial" font-size="14.00" fill="#000000">story_id </text>
<text text-anchor="start" x="937.3962" y="-263.9" font-family="Arial" font-size="14.00" fill="#666666">[uuid]</text>
<polygon fill="none" stroke="#000000" points="877.5,-222.5 877.5,-252.5 1150.5,-252.5 1150.5,-222.5 877.5,-222.5"/>
<text text-anchor="start" x="884.5" y="-233.9" font-family="Arial" font-size="14.00" fill="#000000">role_id </text>
<text text-anchor="start" x="930.3948" y="-233.9" font-family="Arial" font-size="14.00" fill="#666666">[uuid]</text>
<polygon fill="none" stroke="#000000" points="877.5,-192.5 877.5,-222.5 1150.5,-222.5 1150.5,-192.5 877.5,-192.5"/>
<text text-anchor="start" x="884.5" y="-203.9" font-family="Arial" font-size="14.00" fill="#000000">overview </text>
<text text-anchor="start" x="943.6122" y="-203.9" font-family="Arial" font-size="14.00" fill="#666666">[text]</text>
<polygon fill="none" stroke="#000000" points="877.5,-162.5 877.5,-192.5 1150.5,-192.5 1150.5,-162.5 877.5,-162.5"/>
<text text-anchor="start" x="884.5" y="-173.9" font-family="Arial" font-size="14.00" fill="#000000">description </text>
<text text-anchor="start" x="956.068" y="-173.9" font-family="Arial" font-size="14.00" fill="#666666">[text]</text>
<polygon fill="none" stroke="#000000" points="877.5,-132.5 877.5,-162.5 1150.5,-162.5 1150.5,-132.5 877.5,-132.5"/>
<text text-anchor="start" x="884.5" y="-143.9" font-family="Arial" font-size="14.00" fill="#000000">highest_score </text>
<text text-anchor="start" x="975.5266" y="-143.9" font-family="Arial" font-size="14.00" fill="#666666">[integer]</text>
<polygon fill="none" stroke="#000000" points="877.5,-102.5 877.5,-132.5 1150.5,-132.5 1150.5,-102.5 877.5,-102.5"/>
<text text-anchor="start" x="884.5" y="-113.9" font-family="Arial" font-size="14.00" fill="#000000">result_message </text>
<text text-anchor="start" x="987.1872" y="-113.9" font-family="Arial" font-size="14.00" fill="#666666">[text]</text>
<polygon fill="none" stroke="#000000" points="877.5,-72.5 877.5,-102.5 1150.5,-102.5 1150.5,-72.5 877.5,-72.5"/>
<text text-anchor="start" x="884.5" y="-83.9" font-family="Arial" font-size="14.00" fill="#000000">created_at </text>
<text text-anchor="start" x="954.528" y="-83.9" font-family="Arial" font-size="14.00" fill="#666666">[timestamp without time zone]</text>
<polygon fill="none" stroke="#000000" points="877.5,-42.5 877.5,-72.5 1150.5,-72.5 1150.5,-42.5 877.5,-42.5"/>
<text text-anchor="start" x="884.4636" y="-53.9" font-family="Arial" font-size="14.00" fill="#000000">updated_at </text>
<text text-anchor="start" x="958.3962" y="-53.9" font-family="Arial" font-size="14.00" fill="#666666">[timestamp without time zone]</text>
</g>
<!-- public.user_quiz_histories&#45;&gt;public.scenarios -->
<g id="edge3" class="edge">
<title>public.user_quiz_histories:scenario_id&#45;&gt;public.scenarios:id</title>
<path fill="none" stroke="#000000" d="M845.1035,-636.8696C764.4548,-626.6345 795.9049,-494.3099 855.5,-427 943.0579,-328.1075 1062.9421,-489.8925 1150.5,-391 1178.0471,-359.8869 1192.0556,-297.5 1150.5,-297.5"/>
<polygon fill="#000000" stroke="#000000" points="845.5183,-636.8947 855.2276,-641.9918 850.5092,-637.1973 855.5,-637.5 855.5,-637.5 855.5,-637.5 850.5092,-637.1973 855.7724,-633.0082 845.5183,-636.8947 845.5183,-636.8947"/>
<text text-anchor="start" x="478.2165" y="-647.5" font-family="Arial" font-size="10.00" fill="#000000">FOREIGN KEY (scenario_id) REFERENCES scenarios(id) ON DELETE CASCADE</text>
</g>
<!-- public.scenario_quizzes -->
<g id="node5" class="node">
<title>public.scenario_quizzes</title>
<polygon fill="#efefef" stroke="transparent" points="1254.5,-297.5 1254.5,-332.5 1556.5,-332.5 1556.5,-297.5 1254.5,-297.5"/>
<polygon fill="none" stroke="#000000" points="1254.5,-297.5 1254.5,-332.5 1556.5,-332.5 1556.5,-297.5 1254.5,-297.5"/>
<text text-anchor="start" x="1261.3534" y="-310.3" font-family="Arial Bold" font-size="18.00" fill="#000000">public.scenario_quizzes</text>
<text text-anchor="start" x="1452.3928" y="-310.3" font-family="Arial" font-size="14.00" fill="#000000"> </text>
<text text-anchor="start" x="1456.2834" y="-310.3" font-family="Arial" font-size="14.00" fill="#666666">[BASE TABLE]</text>
<polygon fill="none" stroke="#000000" points="1254.5,-267.5 1254.5,-297.5 1556.5,-297.5 1556.5,-267.5 1254.5,-267.5"/>
<text text-anchor="start" x="1261.5" y="-278.9" font-family="Arial" font-size="14.00" fill="#000000">id </text>
<text text-anchor="start" x="1276.2798" y="-278.9" font-family="Arial" font-size="14.00" fill="#666666">[uuid]</text>
<polygon fill="none" stroke="#000000" points="1254.5,-237.5 1254.5,-267.5 1556.5,-267.5 1556.5,-237.5 1254.5,-237.5"/>
<text text-anchor="start" x="1261.5" y="-248.9" font-family="Arial" font-size="14.00" fill="#000000">scenario_id </text>
<text text-anchor="start" x="1336.96" y="-248.9" font-family="Arial" font-size="14.00" fill="#666666">[uuid]</text>
<polygon fill="none" stroke="#000000" points="1254.5,-207.5 1254.5,-237.5 1556.5,-237.5 1556.5,-207.5 1254.5,-207.5"/>
<text text-anchor="start" x="1261.5" y="-218.9" font-family="Arial" font-size="14.00" fill="#000000">quiz_id </text>
<text text-anchor="start" x="1309.7342" y="-218.9" font-family="Arial" font-size="14.00" fill="#666666">[uuid]</text>
<polygon fill="none" stroke="#000000" points="1254.5,-177.5 1254.5,-207.5 1556.5,-207.5 1556.5,-177.5 1254.5,-177.5"/>
<text text-anchor="start" x="1261.5" y="-188.9" font-family="Arial" font-size="14.00" fill="#000000">first </text>
<text text-anchor="start" x="1287.939" y="-188.9" font-family="Arial" font-size="14.00" fill="#666666">[boolean]</text>
<polygon fill="none" stroke="#000000" points="1254.5,-147.5 1254.5,-177.5 1556.5,-177.5 1556.5,-147.5 1254.5,-147.5"/>
<text text-anchor="start" x="1261.5" y="-158.9" font-family="Arial" font-size="14.00" fill="#000000">question </text>
<text text-anchor="start" x="1318.3008" y="-158.9" font-family="Arial" font-size="14.00" fill="#666666">[text]</text>
<polygon fill="none" stroke="#000000" points="1254.5,-117.5 1254.5,-147.5 1556.5,-147.5 1556.5,-117.5 1254.5,-117.5"/>
<text text-anchor="start" x="1261.5" y="-128.9" font-family="Arial" font-size="14.00" fill="#000000">failure_message </text>
<text text-anchor="start" x="1368.0764" y="-128.9" font-family="Arial" font-size="14.00" fill="#666666">[text]</text>
<polygon fill="none" stroke="#000000" points="1254.5,-87.5 1254.5,-117.5 1556.5,-117.5 1556.5,-87.5 1254.5,-87.5"/>
<text text-anchor="start" x="1261.5" y="-98.9" font-family="Arial" font-size="14.00" fill="#000000">created_at </text>
<text text-anchor="start" x="1331.528" y="-98.9" font-family="Arial" font-size="14.00" fill="#666666">[timestamp without time zone]</text>
<polygon fill="none" stroke="#000000" points="1254.5,-57.5 1254.5,-87.5 1556.5,-87.5 1556.5,-57.5 1254.5,-57.5"/>
<text text-anchor="start" x="1261.5" y="-68.9" font-family="Arial" font-size="14.00" fill="#000000">updated_at </text>
<text text-anchor="start" x="1335.4326" y="-68.9" font-family="Arial" font-size="14.00" fill="#666666">[timestamp without time zone]</text>
</g>
<!-- public.user_quiz_histories&#45;&gt;public.scenario_quizzes -->
<g id="edge4" class="edge">
<title>public.user_quiz_histories:scenario_quiz_id&#45;&gt;public.scenario_quizzes:id</title>
<path fill="none" stroke="#000000" d="M1183.4184,-605.2511C1241.6435,-576.5366 1183.7028,-282.5 1254.5,-282.5"/>
<polygon fill="#000000" stroke="#000000" points="1183.2525,-605.2886 1172.5049,-603.1114 1178.3762,-606.3943 1173.5,-607.5 1173.5,-607.5 1173.5,-607.5 1178.3762,-606.3943 1174.4951,-611.8886 1183.2525,-605.2886 1183.2525,-605.2886"/>
<text text-anchor="start" x="1180.041" y="-617.5" font-family="Arial" font-size="10.00" fill="#000000">FOREIGN KEY (scenario_quiz_id) REFERENCES scenario_quizzes(id) ON DELETE CASCADE</text>
</g>
<!-- public.scenario_quiz_options -->
<g id="node6" class="node">
<title>public.scenario_quiz_options</title>
<polygon fill="#efefef" stroke="transparent" points="1660.5,-312.5 1660.5,-347.5 2002.5,-347.5 2002.5,-312.5 1660.5,-312.5"/>
<polygon fill="none" stroke="#000000" points="1660.5,-312.5 1660.5,-347.5 2002.5,-347.5 2002.5,-312.5 1660.5,-312.5"/>
<text text-anchor="start" x="1667.3428" y="-325.3" font-family="Arial Bold" font-size="18.00" fill="#000000">public.scenario_quiz_options</text>
<text text-anchor="start" x="1898.4034" y="-325.3" font-family="Arial" font-size="14.00" fill="#000000"> </text>
<text text-anchor="start" x="1902.294" y="-325.3" font-family="Arial" font-size="14.00" fill="#666666">[BASE TABLE]</text>
<polygon fill="none" stroke="#000000" points="1660.5,-282.5 1660.5,-312.5 2002.5,-312.5 2002.5,-282.5 1660.5,-282.5"/>
<text text-anchor="start" x="1667.5" y="-293.9" font-family="Arial" font-size="14.00" fill="#000000">id </text>
<text text-anchor="start" x="1682.2798" y="-293.9" font-family="Arial" font-size="14.00" fill="#666666">[uuid]</text>
<polygon fill="none" stroke="#000000" points="1660.5,-252.5 1660.5,-282.5 2002.5,-282.5 2002.5,-252.5 1660.5,-252.5"/>
<text text-anchor="start" x="1667.5" y="-263.9" font-family="Arial" font-size="14.00" fill="#000000">scenario_quiz_id </text>
<text text-anchor="start" x="1776.4144" y="-263.9" font-family="Arial" font-size="14.00" fill="#666666">[uuid]</text>
<polygon fill="none" stroke="#000000" points="1660.5,-222.5 1660.5,-252.5 2002.5,-252.5 2002.5,-222.5 1660.5,-222.5"/>
<text text-anchor="start" x="1667.5" y="-233.9" font-family="Arial" font-size="14.00" fill="#000000">quiz_option_id </text>
<text text-anchor="start" x="1761.6444" y="-233.9" font-family="Arial" font-size="14.00" fill="#666666">[uuid]</text>
<polygon fill="none" stroke="#000000" points="1660.5,-192.5 1660.5,-222.5 2002.5,-222.5 2002.5,-192.5 1660.5,-192.5"/>
<text text-anchor="start" x="1667.5" y="-203.9" font-family="Arial" font-size="14.00" fill="#000000">answer </text>
<text text-anchor="start" x="1716.5056" y="-203.9" font-family="Arial" font-size="14.00" fill="#666666">[varchar(255)]</text>
<polygon fill="none" stroke="#000000" points="1660.5,-162.5 1660.5,-192.5 2002.5,-192.5 2002.5,-162.5 1660.5,-162.5"/>
<text text-anchor="start" x="1667.5" y="-173.9" font-family="Arial" font-size="14.00" fill="#000000">score </text>
<text text-anchor="start" x="1705.6164" y="-173.9" font-family="Arial" font-size="14.00" fill="#666666">[integer]</text>
<polygon fill="none" stroke="#000000" points="1660.5,-132.5 1660.5,-162.5 2002.5,-162.5 2002.5,-132.5 1660.5,-132.5"/>
<text text-anchor="start" x="1667.5" y="-143.9" font-family="Arial" font-size="14.00" fill="#000000">next_scenario_quiz_id </text>
<text text-anchor="start" x="1810.6528" y="-143.9" font-family="Arial" font-size="14.00" fill="#666666">[uuid]</text>
<polygon fill="none" stroke="#000000" points="1660.5,-102.5 1660.5,-132.5 2002.5,-132.5 2002.5,-102.5 1660.5,-102.5"/>
<text text-anchor="start" x="1667.5" y="-113.9" font-family="Arial" font-size="14.00" fill="#000000">status </text>
<text text-anchor="start" x="1708.737" y="-113.9" font-family="Arial" font-size="14.00" fill="#666666">[integer]</text>
<polygon fill="none" stroke="#000000" points="1660.5,-72.5 1660.5,-102.5 2002.5,-102.5 2002.5,-72.5 1660.5,-72.5"/>
<text text-anchor="start" x="1667.5" y="-83.9" font-family="Arial" font-size="14.00" fill="#000000">created_at </text>
<text text-anchor="start" x="1737.528" y="-83.9" font-family="Arial" font-size="14.00" fill="#666666">[timestamp without time zone]</text>
<polygon fill="none" stroke="#000000" points="1660.5,-42.5 1660.5,-72.5 2002.5,-72.5 2002.5,-42.5 1660.5,-42.5"/>
<text text-anchor="start" x="1667.5" y="-53.9" font-family="Arial" font-size="14.00" fill="#000000">updated_at </text>
<text text-anchor="start" x="1741.4326" y="-53.9" font-family="Arial" font-size="14.00" fill="#666666">[timestamp without time zone]</text>
</g>
<!-- public.user_quiz_histories&#45;&gt;public.scenario_quiz_options -->
<g id="edge5" class="edge">
<title>public.user_quiz_histories:scenario_quiz_option_id&#45;&gt;public.scenario_quiz_options:id</title>
<path fill="none" stroke="#000000" d="M1183.5589,-577.4643C1386.0825,-576.0065 1454.8485,-529.6545 1608.5,-391 1643.8014,-359.1441 1612.9502,-297.5 1660.5,-297.5"/>
<polygon fill="#000000" stroke="#000000" points="1183.4999,-577.4644 1173.484,-573 1178.5,-577.4822 1173.5,-577.5 1173.5,-577.5 1173.5,-577.5 1178.5,-577.4822 1173.516,-582 1183.4999,-577.4644 1183.4999,-577.4644"/>
<text text-anchor="start" x="1180.5275" y="-587.5" font-family="Arial" font-size="10.00" fill="#000000">FOREIGN KEY (scenario_quiz_option_id) REFERENCES scenario_quiz_options(id) ON DELETE CASCADE</text>
</g>
</g>
</svg>
