<?xml version="1.0" encoding="UTF-8" standalone="no"?>
<!DOCTYPE svg PUBLIC "-//W3C//DTD SVG 1.1//EN"
 "http://www.w3.org/Graphics/SVG/1.1/DTD/svg11.dtd">
<!-- Generated by graphviz version 2.40.1 (20161225.0304)
 -->
<!-- Title: public.users Pages: 1 -->
<svg width="1415pt" height="1229pt"
 viewBox="0.00 0.00 1414.50 1229.00" xmlns="http://www.w3.org/2000/svg" xmlns:xlink="http://www.w3.org/1999/xlink">
<g id="graph0" class="graph" transform="scale(1 1) rotate(0) translate(4 1225)">
<title>public.users</title>
<polygon fill="#ffffff" stroke="transparent" points="-4,4 -4,-1225 1410.5,-1225 1410.5,4 -4,4"/>
<!-- public.users -->
<g id="node1" class="node">
<title>public.users</title>
<polygon fill="#efefef" stroke="transparent" points="550.5,-742.5 550.5,-777.5 823.5,-777.5 823.5,-742.5 550.5,-742.5"/>
<polygon fill="none" stroke="#000000" points="550.5,-742.5 550.5,-777.5 823.5,-777.5 823.5,-742.5 550.5,-742.5"/>
<text text-anchor="start" x="590.3662" y="-755.3" font-family="Arial Bold" font-size="18.00" fill="#000000">public.users</text>
<text text-anchor="start" x="686.38" y="-755.3" font-family="Arial" font-size="14.00" fill="#000000"> </text>
<text text-anchor="start" x="690.2706" y="-755.3" font-family="Arial" font-size="14.00" fill="#666666">[BASE TABLE]</text>
<polygon fill="none" stroke="#000000" points="550.5,-712.5 550.5,-742.5 823.5,-742.5 823.5,-712.5 550.5,-712.5"/>
<text text-anchor="start" x="557.5" y="-723.9" font-family="Arial" font-size="14.00" fill="#000000">id </text>
<text text-anchor="start" x="572.2798" y="-723.9" font-family="Arial" font-size="14.00" fill="#666666">[uuid]</text>
<polygon fill="none" stroke="#000000" points="550.5,-682.5 550.5,-712.5 823.5,-712.5 823.5,-682.5 550.5,-682.5"/>
<text text-anchor="start" x="557.5" y="-693.9" font-family="Arial" font-size="14.00" fill="#000000">organization_id </text>
<text text-anchor="start" x="656.305" y="-693.9" font-family="Arial" font-size="14.00" fill="#666666">[uuid]</text>
<polygon fill="none" stroke="#000000" points="550.5,-652.5 550.5,-682.5 823.5,-682.5 823.5,-652.5 550.5,-652.5"/>
<text text-anchor="start" x="557.5" y="-663.9" font-family="Arial" font-size="14.00" fill="#000000">last_name </text>
<text text-anchor="start" x="625.9614" y="-663.9" font-family="Arial" font-size="14.00" fill="#666666">[varchar(128)]</text>
<polygon fill="none" stroke="#000000" points="550.5,-622.5 550.5,-652.5 823.5,-652.5 823.5,-622.5 550.5,-622.5"/>
<text text-anchor="start" x="557.5" y="-633.9" font-family="Arial" font-size="14.00" fill="#000000">first_name </text>
<text text-anchor="start" x="626.73" y="-633.9" font-family="Arial" font-size="14.00" fill="#666666">[varchar(128)]</text>
<polygon fill="none" stroke="#000000" points="550.5,-592.5 550.5,-622.5 823.5,-622.5 823.5,-592.5 550.5,-592.5"/>
<text text-anchor="start" x="557.5" y="-603.9" font-family="Arial" font-size="14.00" fill="#000000">last_name_kana </text>
<text text-anchor="start" x="664.0918" y="-603.9" font-family="Arial" font-size="14.00" fill="#666666">[varchar(128)]</text>
<polygon fill="none" stroke="#000000" points="550.5,-562.5 550.5,-592.5 823.5,-592.5 823.5,-562.5 550.5,-562.5"/>
<text text-anchor="start" x="557.5" y="-573.9" font-family="Arial" font-size="14.00" fill="#000000">first_name_kana </text>
<text text-anchor="start" x="664.8604" y="-573.9" font-family="Arial" font-size="14.00" fill="#666666">[varchar(128)]</text>
<polygon fill="none" stroke="#000000" points="550.5,-532.5 550.5,-562.5 823.5,-562.5 823.5,-532.5 550.5,-532.5"/>
<text text-anchor="start" x="557.5" y="-543.9" font-family="Arial" font-size="14.00" fill="#000000">nickname </text>
<text text-anchor="start" x="621.2882" y="-543.9" font-family="Arial" font-size="14.00" fill="#666666">[varchar(20)]</text>
<polygon fill="none" stroke="#000000" points="550.5,-502.5 550.5,-532.5 823.5,-532.5 823.5,-502.5 550.5,-502.5"/>
<text text-anchor="start" x="557.5" y="-513.9" font-family="Arial" font-size="14.00" fill="#000000">email </text>
<text text-anchor="start" x="594.8296" y="-513.9" font-family="Arial" font-size="14.00" fill="#666666">[varchar(255)]</text>
<polygon fill="none" stroke="#000000" points="550.5,-472.5 550.5,-502.5 823.5,-502.5 823.5,-472.5 550.5,-472.5"/>
<text text-anchor="start" x="557.5" y="-483.9" font-family="Arial" font-size="14.00" fill="#000000">password_hash </text>
<text text-anchor="start" x="659.4186" y="-483.9" font-family="Arial" font-size="14.00" fill="#666666">[text]</text>
<polygon fill="none" stroke="#000000" points="550.5,-442.5 550.5,-472.5 823.5,-472.5 823.5,-442.5 550.5,-442.5"/>
<text text-anchor="start" x="557.5" y="-453.9" font-family="Arial" font-size="14.00" fill="#000000">created_at </text>
<text text-anchor="start" x="627.528" y="-453.9" font-family="Arial" font-size="14.00" fill="#666666">[timestamp without time zone]</text>
<polygon fill="none" stroke="#000000" points="550.5,-412.5 550.5,-442.5 823.5,-442.5 823.5,-412.5 550.5,-412.5"/>
<text text-anchor="start" x="557.4636" y="-423.9" font-family="Arial" font-size="14.00" fill="#000000">updated_at </text>
<text text-anchor="start" x="631.3962" y="-423.9" font-family="Arial" font-size="14.00" fill="#666666">[timestamp without time zone]</text>
<polygon fill="none" stroke="#000000" stroke-width="3" points="548.5,-411.5 548.5,-779.5 824.5,-779.5 824.5,-411.5 548.5,-411.5"/>
</g>
<!-- public.organizations -->
<g id="node5" class="node">
<title>public.organizations</title>
<polygon fill="#efefef" stroke="transparent" points="550.5,-252.5 550.5,-287.5 823.5,-287.5 823.5,-252.5 550.5,-252.5"/>
<polygon fill="none" stroke="#000000" points="550.5,-252.5 550.5,-287.5 823.5,-287.5 823.5,-252.5 550.5,-252.5"/>
<text text-anchor="start" x="558.8554" y="-265.3" font-family="Arial Bold" font-size="18.00" fill="#000000">public.organizations</text>
<text text-anchor="start" x="717.8908" y="-265.3" font-family="Arial" font-size="14.00" fill="#000000"> </text>
<text text-anchor="start" x="721.7814" y="-265.3" font-family="Arial" font-size="14.00" fill="#666666">[BASE TABLE]</text>
<polygon fill="none" stroke="#000000" points="550.5,-222.5 550.5,-252.5 823.5,-252.5 823.5,-222.5 550.5,-222.5"/>
<text text-anchor="start" x="557.5" y="-233.9" font-family="Arial" font-size="14.00" fill="#000000">id </text>
<text text-anchor="start" x="572.2798" y="-233.9" font-family="Arial" font-size="14.00" fill="#666666">[uuid]</text>
<polygon fill="none" stroke="#000000" points="550.5,-192.5 550.5,-222.5 823.5,-222.5 823.5,-192.5 550.5,-192.5"/>
<text text-anchor="start" x="557.5" y="-203.9" font-family="Arial" font-size="14.00" fill="#000000">company_id </text>
<text text-anchor="start" x="636.8534" y="-203.9" font-family="Arial" font-size="14.00" fill="#666666">[uuid]</text>
<polygon fill="none" stroke="#000000" points="550.5,-162.5 550.5,-192.5 823.5,-192.5 823.5,-162.5 550.5,-162.5"/>
<text text-anchor="start" x="557.5" y="-173.9" font-family="Arial" font-size="14.00" fill="#000000">display_id </text>
<text text-anchor="start" x="623.6234" y="-173.9" font-family="Arial" font-size="14.00" fill="#666666">[integer]</text>
<polygon fill="none" stroke="#000000" points="550.5,-132.5 550.5,-162.5 823.5,-162.5 823.5,-132.5 550.5,-132.5"/>
<text text-anchor="start" x="557.5" y="-143.9" font-family="Arial" font-size="14.00" fill="#000000">name </text>
<text text-anchor="start" x="596.399" y="-143.9" font-family="Arial" font-size="14.00" fill="#666666">[varchar(128)]</text>
<polygon fill="none" stroke="#000000" points="550.5,-102.5 550.5,-132.5 823.5,-132.5 823.5,-102.5 550.5,-102.5"/>
<text text-anchor="start" x="557.5" y="-113.9" font-family="Arial" font-size="14.00" fill="#000000">report_send_emails </text>
<text text-anchor="start" x="684.3022" y="-113.9" font-family="Arial" font-size="14.00" fill="#666666">[varchar(255)]</text>
<polygon fill="none" stroke="#000000" points="550.5,-72.5 550.5,-102.5 823.5,-102.5 823.5,-72.5 550.5,-72.5"/>
<text text-anchor="start" x="557.5" y="-83.9" font-family="Arial" font-size="14.00" fill="#000000">created_at </text>
<text text-anchor="start" x="627.528" y="-83.9" font-family="Arial" font-size="14.00" fill="#666666">[timestamp without time zone]</text>
<polygon fill="none" stroke="#000000" points="550.5,-42.5 550.5,-72.5 823.5,-72.5 823.5,-42.5 550.5,-42.5"/>
<text text-anchor="start" x="557.4636" y="-53.9" font-family="Arial" font-size="14.00" fill="#000000">updated_at </text>
<text text-anchor="start" x="631.3962" y="-53.9" font-family="Arial" font-size="14.00" fill="#666666">[timestamp without time zone]</text>
</g>
<!-- public.users&#45;&gt;public.organizations -->
<g id="edge4" class="edge">
<title>public.users:organization_id&#45;&gt;public.organizations:id</title>
<path fill="none" stroke="#000000" d="M540.4868,-697.1239C346.1119,-682.3533 349.4497,-237.5 550.5,-237.5"/>
<polygon fill="#000000" stroke="#000000" points="540.507,-697.1245 550.331,-701.9968 545.5035,-697.3123 550.5,-697.5 550.5,-697.5 550.5,-697.5 545.5035,-697.3123 550.669,-693.0032 540.507,-697.1245 540.507,-697.1245"/>
<text text-anchor="start" x="140.5415" y="-707.5" font-family="Arial" font-size="10.00" fill="#000000">FOREIGN KEY (organization_id) REFERENCES organizations(id) ON DELETE CASCADE</text>
</g>
<!-- public.user_authentication_logs -->
<g id="node2" class="node">
<title>public.user_authentication_logs</title>
<polygon fill="#efefef" stroke="transparent" points="43.5,-1082.5 43.5,-1117.5 406.5,-1117.5 406.5,-1082.5 43.5,-1082.5"/>
<polygon fill="none" stroke="#000000" points="43.5,-1082.5 43.5,-1117.5 406.5,-1117.5 406.5,-1082.5 43.5,-1082.5"/>
<text text-anchor="start" x="50.3344" y="-1095.3" font-family="Arial Bold" font-size="18.00" fill="#000000">public.user_authentication_logs</text>
<text text-anchor="start" x="302.4118" y="-1095.3" font-family="Arial" font-size="14.00" fill="#000000"> </text>
<text text-anchor="start" x="306.3024" y="-1095.3" font-family="Arial" font-size="14.00" fill="#666666">[BASE TABLE]</text>
<polygon fill="none" stroke="#000000" points="43.5,-1052.5 43.5,-1082.5 406.5,-1082.5 406.5,-1052.5 43.5,-1052.5"/>
<text text-anchor="start" x="50.5" y="-1063.9" font-family="Arial" font-size="14.00" fill="#000000">id </text>
<text text-anchor="start" x="65.2798" y="-1063.9" font-family="Arial" font-size="14.00" fill="#666666">[uuid]</text>
<polygon fill="none" stroke="#000000" points="43.5,-1022.5 43.5,-1052.5 406.5,-1052.5 406.5,-1022.5 43.5,-1022.5"/>
<text text-anchor="start" x="50.5" y="-1033.9" font-family="Arial" font-size="14.00" fill="#000000">user_id </text>
<text text-anchor="start" x="100.2882" y="-1033.9" font-family="Arial" font-size="14.00" fill="#666666">[uuid]</text>
<polygon fill="none" stroke="#000000" points="43.5,-992.5 43.5,-1022.5 406.5,-1022.5 406.5,-992.5 43.5,-992.5"/>
<text text-anchor="start" x="50.5" y="-1003.9" font-family="Arial" font-size="14.00" fill="#000000">created_at </text>
<text text-anchor="start" x="120.528" y="-1003.9" font-family="Arial" font-size="14.00" fill="#666666">[timestamp without time zone]</text>
<polygon fill="none" stroke="#000000" points="43.5,-962.5 43.5,-992.5 406.5,-992.5 406.5,-962.5 43.5,-962.5"/>
<text text-anchor="start" x="50.5" y="-973.9" font-family="Arial" font-size="14.00" fill="#000000">updated_at </text>
<text text-anchor="start" x="124.4326" y="-973.9" font-family="Arial" font-size="14.00" fill="#666666">[timestamp without time zone]</text>
</g>
<!-- public.user_authentication_logs&#45;&gt;public.users -->
<g id="edge1" class="edge">
<title>public.user_authentication_logs:user_id&#45;&gt;public.users:id</title>
<path fill="none" stroke="#000000" d="M416.685,-1036.8858C482.8135,-1028.2655 423.692,-930.7287 457.5,-860 488.5278,-795.0876 478.5532,-727.5 550.5,-727.5"/>
<polygon fill="#000000" stroke="#000000" points="416.4819,-1036.898 406.2291,-1033.0082 411.4909,-1037.199 406.5,-1037.5 406.5,-1037.5 406.5,-1037.5 411.4909,-1037.199 406.7709,-1041.9918 416.4819,-1036.898 416.4819,-1036.898"/>
<text text-anchor="start" x="413.5535" y="-1047.5" font-family="Arial" font-size="10.00" fill="#000000">FOREIGN KEY (user_id) REFERENCES users(id) ON DELETE CASCADE</text>
</g>
<!-- public.user_scenario_histories -->
<g id="node3" class="node">
<title>public.user_scenario_histories</title>
<polygon fill="#efefef" stroke="transparent" points="510.5,-1112.5 510.5,-1147.5 863.5,-1147.5 863.5,-1112.5 510.5,-1112.5"/>
<polygon fill="none" stroke="#000000" points="510.5,-1112.5 510.5,-1147.5 863.5,-1147.5 863.5,-1112.5 510.5,-1112.5"/>
<text text-anchor="start" x="517.3537" y="-1125.3" font-family="Arial Bold" font-size="18.00" fill="#000000">public.user_scenario_histories</text>
<text text-anchor="start" x="759.3925" y="-1125.3" font-family="Arial" font-size="14.00" fill="#000000"> </text>
<text text-anchor="start" x="763.2831" y="-1125.3" font-family="Arial" font-size="14.00" fill="#666666">[BASE TABLE]</text>
<polygon fill="none" stroke="#000000" points="510.5,-1082.5 510.5,-1112.5 863.5,-1112.5 863.5,-1082.5 510.5,-1082.5"/>
<text text-anchor="start" x="517.5" y="-1093.9" font-family="Arial" font-size="14.00" fill="#000000">id </text>
<text text-anchor="start" x="532.2798" y="-1093.9" font-family="Arial" font-size="14.00" fill="#666666">[uuid]</text>
<polygon fill="none" stroke="#000000" points="510.5,-1052.5 510.5,-1082.5 863.5,-1082.5 863.5,-1052.5 510.5,-1052.5"/>
<text text-anchor="start" x="517.5" y="-1063.9" font-family="Arial" font-size="14.00" fill="#000000">user_id </text>
<text text-anchor="start" x="567.2882" y="-1063.9" font-family="Arial" font-size="14.00" fill="#666666">[uuid]</text>
<polygon fill="none" stroke="#000000" points="510.5,-1022.5 510.5,-1052.5 863.5,-1052.5 863.5,-1022.5 510.5,-1022.5"/>
<text text-anchor="start" x="517.5" y="-1033.9" font-family="Arial" font-size="14.00" fill="#000000">scenario_id </text>
<text text-anchor="start" x="592.96" y="-1033.9" font-family="Arial" font-size="14.00" fill="#666666">[uuid]</text>
<polygon fill="none" stroke="#000000" points="510.5,-992.5 510.5,-1022.5 863.5,-1022.5 863.5,-992.5 510.5,-992.5"/>
<text text-anchor="start" x="517.5" y="-1003.9" font-family="Arial" font-size="14.00" fill="#000000">total_score </text>
<text text-anchor="start" x="589.852" y="-1003.9" font-family="Arial" font-size="14.00" fill="#666666">[integer]</text>
<polygon fill="none" stroke="#000000" points="510.5,-962.5 510.5,-992.5 863.5,-992.5 863.5,-962.5 510.5,-962.5"/>
<text text-anchor="start" x="517.5" y="-973.9" font-family="Arial" font-size="14.00" fill="#000000">created_at </text>
<text text-anchor="start" x="587.528" y="-973.9" font-family="Arial" font-size="14.00" fill="#666666">[timestamp without time zone]</text>
<polygon fill="none" stroke="#000000" points="510.5,-932.5 510.5,-962.5 863.5,-962.5 863.5,-932.5 510.5,-932.5"/>
<text text-anchor="start" x="517.5" y="-943.9" font-family="Arial" font-size="14.00" fill="#000000">updated_at </text>
<text text-anchor="start" x="591.4326" y="-943.9" font-family="Arial" font-size="14.00" fill="#666666">[timestamp without time zone]</text>
</g>
<!-- public.user_scenario_histories&#45;&gt;public.users -->
<g id="edge2" class="edge">
<title>public.user_scenario_histories:user_id&#45;&gt;public.users:id</title>
<path fill="none" stroke="#000000" d="M500.5586,-1065.3288C438.2526,-1036.3721 477.9895,-727.5 550.5,-727.5"/>
<polygon fill="#000000" stroke="#000000" points="500.7303,-1065.3662 509.5398,-1071.8964 505.6151,-1066.4331 510.5,-1067.5 510.5,-1067.5 510.5,-1067.5 505.6151,-1066.4331 511.4602,-1063.1036 500.7303,-1065.3662 500.7303,-1065.3662"/>
<text text-anchor="start" x="517.5535" y="-1077.5" font-family="Arial" font-size="10.00" fill="#000000">FOREIGN KEY (user_id) REFERENCES users(id) ON DELETE CASCADE</text>
</g>
<!-- public.user_scenario_quiz_histories -->
<g id="node4" class="node">
<title>public.user_scenario_quiz_histories</title>
<polygon fill="#efefef" stroke="transparent" points="967.5,-1142.5 967.5,-1177.5 1363.5,-1177.5 1363.5,-1142.5 967.5,-1142.5"/>
<polygon fill="none" stroke="#000000" points="967.5,-1142.5 967.5,-1177.5 1363.5,-1177.5 1363.5,-1142.5 967.5,-1142.5"/>
<text text-anchor="start" x="974.3473" y="-1155.3" font-family="Arial Bold" font-size="18.00" fill="#000000">public.user_scenario_quiz_histories</text>
<text text-anchor="start" x="1259.3989" y="-1155.3" font-family="Arial" font-size="14.00" fill="#000000"> </text>
<text text-anchor="start" x="1263.2895" y="-1155.3" font-family="Arial" font-size="14.00" fill="#666666">[BASE TABLE]</text>
<polygon fill="none" stroke="#000000" points="967.5,-1112.5 967.5,-1142.5 1363.5,-1142.5 1363.5,-1112.5 967.5,-1112.5"/>
<text text-anchor="start" x="974.5" y="-1123.9" font-family="Arial" font-size="14.00" fill="#000000">id </text>
<text text-anchor="start" x="989.2798" y="-1123.9" font-family="Arial" font-size="14.00" fill="#666666">[uuid]</text>
<polygon fill="none" stroke="#000000" points="967.5,-1082.5 967.5,-1112.5 1363.5,-1112.5 1363.5,-1082.5 967.5,-1082.5"/>
<text text-anchor="start" x="974.5" y="-1093.9" font-family="Arial" font-size="14.00" fill="#000000">user_scenario_history_id </text>
<text text-anchor="start" x="1133.974" y="-1093.9" font-family="Arial" font-size="14.00" fill="#666666">[uuid]</text>
<polygon fill="none" stroke="#000000" points="967.5,-1052.5 967.5,-1082.5 1363.5,-1082.5 1363.5,-1052.5 967.5,-1052.5"/>
<text text-anchor="start" x="974.5" y="-1063.9" font-family="Arial" font-size="14.00" fill="#000000">user_id </text>
<text text-anchor="start" x="1024.2882" y="-1063.9" font-family="Arial" font-size="14.00" fill="#666666">[uuid]</text>
<polygon fill="none" stroke="#000000" points="967.5,-1022.5 967.5,-1052.5 1363.5,-1052.5 1363.5,-1022.5 967.5,-1022.5"/>
<text text-anchor="start" x="974.5" y="-1033.9" font-family="Arial" font-size="14.00" fill="#000000">scenario_id </text>
<text text-anchor="start" x="1049.96" y="-1033.9" font-family="Arial" font-size="14.00" fill="#666666">[uuid]</text>
<polygon fill="none" stroke="#000000" points="967.5,-992.5 967.5,-1022.5 1363.5,-1022.5 1363.5,-992.5 967.5,-992.5"/>
<text text-anchor="start" x="974.5" y="-1003.9" font-family="Arial" font-size="14.00" fill="#000000">scenario_quiz_id </text>
<text text-anchor="start" x="1083.4144" y="-1003.9" font-family="Arial" font-size="14.00" fill="#666666">[uuid]</text>
<polygon fill="none" stroke="#000000" points="967.5,-962.5 967.5,-992.5 1363.5,-992.5 1363.5,-962.5 967.5,-962.5"/>
<text text-anchor="start" x="974.5" y="-973.9" font-family="Arial" font-size="14.00" fill="#000000">scenario_quiz_option_id </text>
<text text-anchor="start" x="1129.3246" y="-973.9" font-family="Arial" font-size="14.00" fill="#666666">[uuid]</text>
<polygon fill="none" stroke="#000000" points="967.5,-932.5 967.5,-962.5 1363.5,-962.5 1363.5,-932.5 967.5,-932.5"/>
<text text-anchor="start" x="974.5" y="-943.9" font-family="Arial" font-size="14.00" fill="#000000">created_at </text>
<text text-anchor="start" x="1044.528" y="-943.9" font-family="Arial" font-size="14.00" fill="#666666">[timestamp without time zone]</text>
<polygon fill="none" stroke="#000000" points="967.5,-902.5 967.5,-932.5 1363.5,-932.5 1363.5,-902.5 967.5,-902.5"/>
<text text-anchor="start" x="974.5" y="-913.9" font-family="Arial" font-size="14.00" fill="#000000">updated_at </text>
<text text-anchor="start" x="1048.4326" y="-913.9" font-family="Arial" font-size="14.00" fill="#666666">[timestamp without time zone]</text>
</g>
<!-- public.user_scenario_quiz_histories&#45;&gt;public.users -->
<g id="edge3" class="edge">
<title>public.user_scenario_quiz_histories:user_id&#45;&gt;public.users:id</title>
<path fill="none" stroke="#000000" d="M957.153,-1066.9557C878.6764,-1058.1046 953.2721,-943.1862 915.5,-860 885.8593,-794.7219 895.1924,-727.5 823.5,-727.5"/>
<polygon fill="#000000" stroke="#000000" points="957.5138,-1066.9746 967.2636,-1071.9938 962.5069,-1067.2373 967.5,-1067.5 967.5,-1067.5 967.5,-1067.5 962.5069,-1067.2373 967.7364,-1063.0062 957.5138,-1066.9746 957.5138,-1066.9746"/>
<text text-anchor="start" x="974.5535" y="-1077.5" font-family="Arial" font-size="10.00" fill="#000000">FOREIGN KEY (user_id) REFERENCES users(id) ON DELETE CASCADE</text>
</g>
</g>
</svg>
